<?xml version="1.0"?>
<svg xmlns="http://www.w3.org/2000/svg" xmlns:xlink="http://www.w3.org/1999/xlink" viewBox="0 0 635.800000 172.000000" width="317.900000mm" height="86.000000mm" version="1.1">
<a xlink:href="tau2pole-0x7faa7774cc90.svg">
<rect x="1.000000" y="1.000000" width="634.800000" height="171.000000" rx="0" ry="0" style="stroke:none;fill:#cccccc;"/>
<rect x="0.000000" y="0.000000" width="634.800000" height="171.000000" rx="0" ry="0" style="stroke:none;fill:#ffffff;"/>
</a>
<text x="10.000000" y="7.000000" font-family="Arial" font-size="7"></text>
<rect x="75.000000" y="75.000000" width="258.000000" height="24.000000" rx="0" ry="0" style="stroke:none;fill:#cccccc;"/>
<rect x="74.000000" y="74.000000" width="258.000000" height="24.000000" rx="0" ry="0" style="stroke:none;fill:#477881;"/>
<text x="203.000000" y="88.000000" font-family="Arial" font-size="7" text-anchor="middle" fill="#FFFFFF">vslider(Attack, 50.0f, 1.0f, 1000.0f, 0.10000000000000001f)</text>
<circle cx="76.000000" cy="76.000000" r="1"/>
<line x1="65.000000" y1="65.000000" x2="65.000000" y2="107.000000"  style="stroke: black; stroke-linecap:round; stroke-width:0.25; stroke-dasharray:3,3;"/>
<line x1="65.000000" y1="107.000000" x2="341.000000" y2="107.000000"  style="stroke: black; stroke-linecap:round; stroke-width:0.25; stroke-dasharray:3,3;"/>
<line x1="341.000000" y1="107.000000" x2="341.000000" y2="65.000000"  style="stroke: black; stroke-linecap:round; stroke-width:0.25; stroke-dasharray:3,3;"/>
<line x1="65.000000" y1="65.000000" x2="70.000000" y2="65.000000"  style="stroke: black; stroke-linecap:round; stroke-width:0.25; stroke-dasharray:3,3;"/>
<line x1="163.525000" y1="65.000000" x2="341.000000" y2="65.000000"  style="stroke: black; stroke-linecap:round; stroke-width:0.25; stroke-dasharray:3,3;"/>
<text x="70.000000" y="67.000000" font-family="Arial" font-size="7">hgroup(Compression Control)</text>
<line x1="55.000000" y1="55.000000" x2="55.000000" y2="117.000000"  style="stroke: black; stroke-linecap:round; stroke-width:0.25; stroke-dasharray:3,3;"/>
<line x1="55.000000" y1="117.000000" x2="351.000000" y2="117.000000"  style="stroke: black; stroke-linecap:round; stroke-width:0.25; stroke-dasharray:3,3;"/>
<line x1="351.000000" y1="117.000000" x2="351.000000" y2="55.000000"  style="stroke: black; stroke-linecap:round; stroke-width:0.25; stroke-dasharray:3,3;"/>
<line x1="55.000000" y1="55.000000" x2="60.000000" y2="55.000000"  style="stroke: black; stroke-linecap:round; stroke-width:0.25; stroke-dasharray:3,3;"/>
<line x1="92.250000" y1="55.000000" x2="351.000000" y2="55.000000"  style="stroke: black; stroke-linecap:round; stroke-width:0.25; stroke-dasharray:3,3;"/>
<text x="60.000000" y="57.000000" font-family="Arial" font-size="7">hgroup()</text>
<line x1="45.000000" y1="45.000000" x2="45.000000" y2="127.000000"  style="stroke: black; stroke-linecap:round; stroke-width:0.25; stroke-dasharray:3,3;"/>
<line x1="45.000000" y1="127.000000" x2="361.000000" y2="127.000000"  style="stroke: black; stroke-linecap:round; stroke-width:0.25; stroke-dasharray:3,3;"/>
<line x1="361.000000" y1="127.000000" x2="361.000000" y2="45.000000"  style="stroke: black; stroke-linecap:round; stroke-width:0.25; stroke-dasharray:3,3;"/>
<line x1="45.000000" y1="45.000000" x2="50.000000" y2="45.000000"  style="stroke: black; stroke-linecap:round; stroke-width:0.25; stroke-dasharray:3,3;"/>
<line x1="114.500000" y1="45.000000" x2="361.000000" y2="45.000000"  style="stroke: black; stroke-linecap:round; stroke-width:0.25; stroke-dasharray:3,3;"/>
<text x="50.000000" y="47.000000" font-family="Arial" font-size="7">vgroup(COMPRESSOR)</text>
<line x1="35.000000" y1="35.000000" x2="35.000000" y2="137.000000"  style="stroke: black; stroke-linecap:round; stroke-width:0.25; stroke-dasharray:3,3;"/>
<line x1="35.000000" y1="137.000000" x2="371.000000" y2="137.000000"  style="stroke: black; stroke-linecap:round; stroke-width:0.25; stroke-dasharray:3,3;"/>
<line x1="371.000000" y1="137.000000" x2="371.000000" y2="35.000000"  style="stroke: black; stroke-linecap:round; stroke-width:0.25; stroke-dasharray:3,3;"/>
<line x1="35.000000" y1="35.000000" x2="40.000000" y2="35.000000"  style="stroke: black; stroke-linecap:round; stroke-width:0.25; stroke-dasharray:3,3;"/>
<line x1="127.075000" y1="35.000000" x2="371.000000" y2="35.000000"  style="stroke: black; stroke-linecap:round; stroke-width:0.25; stroke-dasharray:3,3;"/>
<text x="40.000000" y="37.000000" font-family="Arial" font-size="7">vgroup(----- FLUTE -----)</text>
<line x1="25.000000" y1="25.000000" x2="25.000000" y2="147.000000"  style="stroke: black; stroke-linecap:round; stroke-width:0.25; stroke-dasharray:3,3;"/>
<line x1="25.000000" y1="147.000000" x2="381.000000" y2="147.000000"  style="stroke: black; stroke-linecap:round; stroke-width:0.25; stroke-dasharray:3,3;"/>
<line x1="381.000000" y1="147.000000" x2="381.000000" y2="25.000000"  style="stroke: black; stroke-linecap:round; stroke-width:0.25; stroke-dasharray:3,3;"/>
<line x1="25.000000" y1="25.000000" x2="30.000000" y2="25.000000"  style="stroke: black; stroke-linecap:round; stroke-width:0.25; stroke-dasharray:3,3;"/>
<line x1="129.975000" y1="25.000000" x2="381.000000" y2="25.000000"  style="stroke: black; stroke-linecap:round; stroke-width:0.25; stroke-dasharray:3,3;"/>
<text x="30.000000" y="27.000000" font-family="Arial" font-size="7">ctl_group(vsl...0000000001f))</text>
<rect x="399.000000" y="79.000000" width="25.800000" height="24.000000" rx="0" ry="0" style="stroke:none;fill:#cccccc;"/>
<rect x="398.000000" y="78.000000" width="25.800000" height="24.000000" rx="0" ry="0" style="stroke:none;fill:#f44800;"/>
<text x="410.900000" y="92.000000" font-family="Arial" font-size="7" text-anchor="middle" fill="#FFFFFF">0.001</text>
<circle cx="400.000000" cy="80.000000" r="1"/>
<rect x="440.800000" y="75.000000" width="24.000000" height="24.000000" rx="0" ry="0" style="stroke:none;fill:#cccccc;"/>
<rect x="439.800000" y="74.000000" width="24.000000" height="24.000000" rx="0" ry="0" style="stroke:none;fill:#4B71A1;"/>
<text x="451.800000" y="88.000000" font-family="Arial" font-size="7" text-anchor="middle" fill="#FFFFFF">*</text>
<circle cx="441.800000" cy="76.000000" r="1"/>
<line x1="436.800000" y1="81.000000" x2="439.800000" y2="82.000000"  transform="rotate(0.000000,439.800000,82.000000)" style="stroke: black; stroke-width:0.25;"/>
<line x1="436.800000" y1="83.000000" x2="439.800000" y2="82.000000"  transform="rotate(0.000000,439.800000,82.000000)" style="stroke: black; stroke-width:0.25;"/>
<line x1="436.800000" y1="89.000000" x2="439.800000" y2="90.000000"  transform="rotate(0.000000,439.800000,90.000000)" style="stroke: black; stroke-width:0.25;"/>
<line x1="436.800000" y1="91.000000" x2="439.800000" y2="90.000000"  transform="rotate(0.000000,439.800000,90.000000)" style="stroke: black; stroke-width:0.25;"/>
<rect x="490.800000" y="55.000000" width="24.000000" height="24.000000" rx="0" ry="0" style="stroke:none;fill:#cccccc;"/>
<rect x="489.800000" y="54.000000" width="24.000000" height="24.000000" rx="0" ry="0" style="stroke:none;fill:#f44800;"/>
<text x="501.800000" y="68.000000" font-family="Arial" font-size="7" text-anchor="middle" fill="#FFFFFF">1</text>
<circle cx="491.800000" cy="56.000000" r="1"/>
<line x1="480.800000" y1="45.000000" x2="480.800000" y2="87.000000"  style="stroke: black; stroke-linecap:round; stroke-width:0.25; stroke-dasharray:3,3;"/>
<line x1="480.800000" y1="87.000000" x2="522.800000" y2="87.000000"  style="stroke: black; stroke-linecap:round; stroke-width:0.25; stroke-dasharray:3,3;"/>
<line x1="522.800000" y1="87.000000" x2="522.800000" y2="45.000000"  style="stroke: black; stroke-linecap:round; stroke-width:0.25; stroke-dasharray:3,3;"/>
<line x1="480.800000" y1="45.000000" x2="485.800000" y2="45.000000"  style="stroke: black; stroke-linecap:round; stroke-width:0.25; stroke-dasharray:3,3;"/>
<line x1="508.375000" y1="45.000000" x2="522.800000" y2="45.000000"  style="stroke: black; stroke-linecap:round; stroke-width:0.25; stroke-dasharray:3,3;"/>
<text x="485.800000" y="47.000000" font-family="Arial" font-size="7">right</text>
<a xlink:href="SR-0x7faa774ad700.svg">
<rect x="490.800000" y="97.000000" width="24.000000" height="24.000000" rx="0" ry="0" style="stroke:none;fill:#cccccc;"/>
<rect x="489.800000" y="96.000000" width="24.000000" height="24.000000" rx="0" ry="0" style="stroke:none;fill:#003366;"/>
</a>
<a xlink:href="SR-0x7faa774ad700.svg">
<text x="501.800000" y="110.000000" font-family="Arial" font-size="7" text-anchor="middle" fill="#FFFFFF">SR</text>
</a>
<circle cx="491.800000" cy="98.000000" r="1"/>
<rect x="540.800000" y="71.000000" width="24.000000" height="24.000000" rx="0" ry="0" style="stroke:none;fill:#cccccc;"/>
<rect x="539.800000" y="70.000000" width="24.000000" height="24.000000" rx="0" ry="0" style="stroke:none;fill:#4B71A1;"/>
<text x="551.800000" y="84.000000" font-family="Arial" font-size="7" text-anchor="middle" fill="#FFFFFF">/</text>
<circle cx="541.800000" cy="72.000000" r="1"/>
<line x1="536.800000" y1="77.000000" x2="539.800000" y2="78.000000"  transform="rotate(0.000000,539.800000,78.000000)" style="stroke: black; stroke-width:0.25;"/>
<line x1="536.800000" y1="79.000000" x2="539.800000" y2="78.000000"  transform="rotate(0.000000,539.800000,78.000000)" style="stroke: black; stroke-width:0.25;"/>
<line x1="536.800000" y1="85.000000" x2="539.800000" y2="86.000000"  transform="rotate(0.000000,539.800000,86.000000)" style="stroke: black; stroke-width:0.25;"/>
<line x1="536.800000" y1="87.000000" x2="539.800000" y2="86.000000"  transform="rotate(0.000000,539.800000,86.000000)" style="stroke: black; stroke-width:0.25;"/>
<rect x="580.800000" y="75.000000" width="24.000000" height="24.000000" rx="0" ry="0" style="stroke:none;fill:#cccccc;"/>
<rect x="579.800000" y="74.000000" width="24.000000" height="24.000000" rx="0" ry="0" style="stroke:none;fill:#4B71A1;"/>
<text x="591.800000" y="88.000000" font-family="Arial" font-size="7" text-anchor="middle" fill="#FFFFFF">max</text>
<circle cx="581.800000" cy="76.000000" r="1"/>
<line x1="576.800000" y1="81.000000" x2="579.800000" y2="82.000000"  transform="rotate(0.000000,579.800000,82.000000)" style="stroke: black; stroke-width:0.25;"/>
<line x1="576.800000" y1="83.000000" x2="579.800000" y2="82.000000"  transform="rotate(0.000000,579.800000,82.000000)" style="stroke: black; stroke-width:0.25;"/>
<line x1="576.800000" y1="89.000000" x2="579.800000" y2="90.000000"  transform="rotate(0.000000,579.800000,90.000000)" style="stroke: black; stroke-width:0.25;"/>
<line x1="576.800000" y1="91.000000" x2="579.800000" y2="90.000000"  transform="rotate(0.000000,579.800000,90.000000)" style="stroke: black; stroke-width:0.25;"/>
<line x1="15.000000" y1="15.000000" x2="15.000000" y2="157.000000"  style="stroke: black; stroke-linecap:round; stroke-width:0.25; stroke-dasharray:3,3;"/>
<line x1="15.000000" y1="157.000000" x2="620.800000" y2="157.000000"  style="stroke: black; stroke-linecap:round; stroke-width:0.25; stroke-dasharray:3,3;"/>
<line x1="620.800000" y1="157.000000" x2="620.800000" y2="15.000000"  style="stroke: black; stroke-linecap:round; stroke-width:0.25; stroke-dasharray:3,3;"/>
<line x1="15.000000" y1="15.000000" x2="20.000000" y2="15.000000"  style="stroke: black; stroke-linecap:round; stroke-width:0.25; stroke-dasharray:3,3;"/>
<line x1="45.800000" y1="15.000000" x2="620.800000" y2="15.000000"  style="stroke: black; stroke-linecap:round; stroke-width:0.25; stroke-dasharray:3,3;"/>
<text x="20.000000" y="17.000000" font-family="Arial" font-size="7">attack</text>
<line x1="622.800000" y1="85.000000" x2="625.800000" y2="86.000000"  transform="rotate(0.000000,625.800000,86.000000)" style="stroke: black; stroke-width:0.25;"/>
<line x1="622.800000" y1="87.000000" x2="625.800000" y2="86.000000"  transform="rotate(0.000000,625.800000,86.000000)" style="stroke: black; stroke-width:0.25;"/>
<line x1="332.000000" y1="86.000000" x2="336.000000" y2="86.000000"  style="stroke:black; stroke-linecap:round; stroke-width:0.25;"/>
<line x1="336.000000" y1="86.000000" x2="346.000000" y2="86.000000"  style="stroke:black; stroke-linecap:round; stroke-width:0.25;"/>
<line x1="346.000000" y1="86.000000" x2="356.000000" y2="86.000000"  style="stroke:black; stroke-linecap:round; stroke-width:0.25;"/>
<line x1="356.000000" y1="86.000000" x2="366.000000" y2="86.000000"  style="stroke:black; stroke-linecap:round; stroke-width:0.25;"/>
<line x1="366.000000" y1="86.000000" x2="376.000000" y2="86.000000"  style="stroke:black; stroke-linecap:round; stroke-width:0.25;"/>
<line x1="376.000000" y1="86.000000" x2="386.000000" y2="86.000000"  style="stroke:black; stroke-linecap:round; stroke-width:0.25;"/>
<line x1="386.000000" y1="70.000000" x2="394.000000" y2="70.000000"  style="stroke:black; stroke-linecap:round; stroke-width:0.25;"/>
<line x1="386.000000" y1="86.000000" x2="386.000000" y2="70.000000"  style="stroke:black; stroke-linecap:round; stroke-width:0.25;"/>
<line x1="386.000000" y1="86.000000" x2="386.000000" y2="86.000000"  style="stroke:black; stroke-linecap:round; stroke-width:0.25;"/>
<line x1="394.000000" y1="70.000000" x2="410.900000" y2="70.000000"  style="stroke:black; stroke-linecap:round; stroke-width:0.25;"/>
<line x1="410.900000" y1="70.000000" x2="427.800000" y2="70.000000"  style="stroke:black; stroke-linecap:round; stroke-width:0.25;"/>
<line x1="423.800000" y1="90.000000" x2="427.800000" y2="90.000000"  style="stroke:black; stroke-linecap:round; stroke-width:0.25;"/>
<line x1="427.800000" y1="70.000000" x2="435.800000" y2="70.000000"  style="stroke:black; stroke-linecap:round; stroke-width:0.25;"/>
<line x1="427.800000" y1="90.000000" x2="435.800000" y2="90.000000"  style="stroke:black; stroke-linecap:round; stroke-width:0.25;"/>
<line x1="435.800000" y1="70.000000" x2="435.800000" y2="82.000000"  style="stroke:black; stroke-linecap:round; stroke-width:0.25;"/>
<line x1="435.800000" y1="82.000000" x2="435.800000" y2="82.000000"  style="stroke:black; stroke-linecap:round; stroke-width:0.25;"/>
<line x1="435.800000" y1="82.000000" x2="439.800000" y2="82.000000"  style="stroke:black; stroke-linecap:round; stroke-width:0.25;"/>
<line x1="435.800000" y1="90.000000" x2="439.800000" y2="90.000000"  style="stroke:black; stroke-linecap:round; stroke-width:0.25;"/>
<line x1="463.800000" y1="86.000000" x2="467.800000" y2="86.000000"  style="stroke:black; stroke-linecap:round; stroke-width:0.25;"/>
<line x1="467.800000" y1="86.000000" x2="475.800000" y2="86.000000"  style="stroke:black; stroke-linecap:round; stroke-width:0.25;"/>
<line x1="475.800000" y1="128.000000" x2="521.800000" y2="128.000000"  style="stroke:black; stroke-linecap:round; stroke-width:0.25;"/>
<line x1="475.800000" y1="86.000000" x2="475.800000" y2="128.000000"  style="stroke:black; stroke-linecap:round; stroke-width:0.25;"/>
<line x1="475.800000" y1="128.000000" x2="475.800000" y2="128.000000"  style="stroke:black; stroke-linecap:round; stroke-width:0.25;"/>
<line x1="513.800000" y1="66.000000" x2="517.800000" y2="66.000000"  style="stroke:black; stroke-linecap:round; stroke-width:0.25;"/>
<line x1="513.800000" y1="108.000000" x2="517.800000" y2="108.000000"  style="stroke:black; stroke-linecap:round; stroke-width:0.25;"/>
<line x1="517.800000" y1="66.000000" x2="527.800000" y2="66.000000"  style="stroke:black; stroke-linecap:round; stroke-width:0.25;"/>
<line x1="517.800000" y1="108.000000" x2="527.800000" y2="108.000000"  style="stroke:black; stroke-linecap:round; stroke-width:0.25;"/>
<line x1="521.800000" y1="128.000000" x2="567.800000" y2="128.000000"  style="stroke:black; stroke-linecap:round; stroke-width:0.25;"/>
<line x1="527.800000" y1="66.000000" x2="535.800000" y2="66.000000"  style="stroke:black; stroke-linecap:round; stroke-width:0.25;"/>
<line x1="527.800000" y1="86.000000" x2="535.800000" y2="86.000000"  style="stroke:black; stroke-linecap:round; stroke-width:0.25;"/>
<line x1="527.800000" y1="108.000000" x2="527.800000" y2="86.000000"  style="stroke:black; stroke-linecap:round; stroke-width:0.25;"/>
<line x1="527.800000" y1="108.000000" x2="527.800000" y2="108.000000"  style="stroke:black; stroke-linecap:round; stroke-width:0.25;"/>
<line x1="535.800000" y1="66.000000" x2="535.800000" y2="78.000000"  style="stroke:black; stroke-linecap:round; stroke-width:0.25;"/>
<line x1="535.800000" y1="78.000000" x2="535.800000" y2="78.000000"  style="stroke:black; stroke-linecap:round; stroke-width:0.25;"/>
<line x1="535.800000" y1="78.000000" x2="539.800000" y2="78.000000"  style="stroke:black; stroke-linecap:round; stroke-width:0.25;"/>
<line x1="535.800000" y1="86.000000" x2="539.800000" y2="86.000000"  style="stroke:black; stroke-linecap:round; stroke-width:0.25;"/>
<line x1="563.800000" y1="82.000000" x2="567.800000" y2="82.000000"  style="stroke:black; stroke-linecap:round; stroke-width:0.25;"/>
<line x1="567.800000" y1="82.000000" x2="575.800000" y2="82.000000"  style="stroke:black; stroke-linecap:round; stroke-width:0.25;"/>
<line x1="567.800000" y1="90.000000" x2="575.800000" y2="90.000000"  style="stroke:black; stroke-linecap:round; stroke-width:0.25;"/>
<line x1="567.800000" y1="128.000000" x2="567.800000" y2="90.000000"  style="stroke:black; stroke-linecap:round; stroke-width:0.25;"/>
<line x1="567.800000" y1="128.000000" x2="567.800000" y2="128.000000"  style="stroke:black; stroke-linecap:round; stroke-width:0.25;"/>
<line x1="575.800000" y1="82.000000" x2="579.800000" y2="82.000000"  style="stroke:black; stroke-linecap:round; stroke-width:0.25;"/>
<line x1="575.800000" y1="90.000000" x2="579.800000" y2="90.000000"  style="stroke:black; stroke-linecap:round; stroke-width:0.25;"/>
<line x1="603.800000" y1="86.000000" x2="607.800000" y2="86.000000"  style="stroke:black; stroke-linecap:round; stroke-width:0.25;"/>
<line x1="607.800000" y1="86.000000" x2="607.800000" y2="86.000000"  style="stroke:black; stroke-linecap:round; stroke-width:0.25;"/>
<line x1="607.800000" y1="86.000000" x2="611.800000" y2="86.000000"  style="stroke:black; stroke-linecap:round; stroke-width:0.25;"/>
<line x1="611.800000" y1="86.000000" x2="615.800000" y2="86.000000"  style="stroke:black; stroke-linecap:round; stroke-width:0.25;"/>
<line x1="615.800000" y1="86.000000" x2="625.800000" y2="86.000000"  style="stroke:black; stroke-linecap:round; stroke-width:0.25;"/>
</svg>
