<?xml version="1.0"?>
<svg xmlns="http://www.w3.org/2000/svg" xmlns:xlink="http://www.w3.org/1999/xlink" viewBox="0 0 297.000000 120.000000" width="148.500000mm" height="60.000000mm" version="1.1">
<a xlink:href="process.svg">
<rect x="1.000000" y="1.000000" width="296.000000" height="119.000000" rx="0" ry="0" style="stroke:none;fill:#cccccc;"/>
<rect x="0.000000" y="0.000000" width="296.000000" height="119.000000" rx="0" ry="0" style="stroke:none;fill:#ffffff;"/>
</a>
<text x="10.000000" y="7.000000" font-family="Arial" font-size="7"></text>
<a xlink:href="selectn-0x7f9606cac230.svg">
<rect x="53.000000" y="49.000000" width="64.500000" height="24.000000" rx="0" ry="0" style="stroke:none;fill:#cccccc;"/>
<rect x="52.000000" y="48.000000" width="64.500000" height="24.000000" rx="0" ry="0" style="stroke:none;fill:#003366;"/>
</a>
<a xlink:href="selectn-0x7f9606cac230.svg">
<text x="84.250000" y="62.000000" font-family="Arial" font-size="7" text-anchor="middle" fill="#FFFFFF">selectn(3)(2)</text>
</a>
<circle cx="54.000000" cy="50.000000" r="1"/>
<line x1="49.000000" y1="51.000000" x2="52.000000" y2="52.000000"  transform="rotate(0.000000,52.000000,52.000000)" style="stroke: black; stroke-width:0.25;"/>
<line x1="49.000000" y1="53.000000" x2="52.000000" y2="52.000000"  transform="rotate(0.000000,52.000000,52.000000)" style="stroke: black; stroke-width:0.25;"/>
<line x1="49.000000" y1="59.000000" x2="52.000000" y2="60.000000"  transform="rotate(0.000000,52.000000,60.000000)" style="stroke: black; stroke-width:0.25;"/>
<line x1="49.000000" y1="61.000000" x2="52.000000" y2="60.000000"  transform="rotate(0.000000,52.000000,60.000000)" style="stroke: black; stroke-width:0.25;"/>
<line x1="49.000000" y1="67.000000" x2="52.000000" y2="68.000000"  transform="rotate(0.000000,52.000000,68.000000)" style="stroke: black; stroke-width:0.25;"/>
<line x1="49.000000" y1="69.000000" x2="52.000000" y2="68.000000"  transform="rotate(0.000000,52.000000,68.000000)" style="stroke: black; stroke-width:0.25;"/>
<a xlink:href="in-0x7f9608167140.svg">
<rect x="133.500000" y="53.000000" width="38.700000" height="24.000000" rx="0" ry="0" style="stroke:none;fill:#cccccc;"/>
<rect x="132.500000" y="52.000000" width="38.700000" height="24.000000" rx="0" ry="0" style="stroke:none;fill:#003366;"/>
</a>
<a xlink:href="in-0x7f9608167140.svg">
<text x="151.850000" y="66.000000" font-family="Arial" font-size="7" text-anchor="middle" fill="#FFFFFF">in_gain</text>
</a>
<circle cx="134.500000" cy="54.000000" r="1"/>
<rect x="188.200000" y="49.000000" width="24.000000" height="24.000000" rx="0" ry="0" style="stroke:none;fill:#cccccc;"/>
<rect x="187.200000" y="48.000000" width="24.000000" height="24.000000" rx="0" ry="0" style="stroke:none;fill:#4B71A1;"/>
<text x="199.200000" y="62.000000" font-family="Arial" font-size="7" text-anchor="middle" fill="#FFFFFF">*</text>
<circle cx="189.200000" cy="50.000000" r="1"/>
<line x1="184.200000" y1="55.000000" x2="187.200000" y2="56.000000"  transform="rotate(0.000000,187.200000,56.000000)" style="stroke: black; stroke-width:0.25;"/>
<line x1="184.200000" y1="57.000000" x2="187.200000" y2="56.000000"  transform="rotate(0.000000,187.200000,56.000000)" style="stroke: black; stroke-width:0.25;"/>
<line x1="184.200000" y1="63.000000" x2="187.200000" y2="64.000000"  transform="rotate(0.000000,187.200000,64.000000)" style="stroke: black; stroke-width:0.25;"/>
<line x1="184.200000" y1="65.000000" x2="187.200000" y2="64.000000"  transform="rotate(0.000000,187.200000,64.000000)" style="stroke: black; stroke-width:0.25;"/>
<a xlink:href="hmeter-0x7f96081687a0.svg">
<rect x="220.200000" y="49.000000" width="25.800000" height="24.000000" rx="0" ry="0" style="stroke:none;fill:#cccccc;"/>
<rect x="219.200000" y="48.000000" width="25.800000" height="24.000000" rx="0" ry="0" style="stroke:none;fill:#003366;"/>
</a>
<a xlink:href="hmeter-0x7f96081687a0.svg">
<text x="232.100000" y="62.000000" font-family="Arial" font-size="7" text-anchor="middle" fill="#FFFFFF">hmeter</text>
</a>
<circle cx="221.200000" cy="50.000000" r="1"/>
<line x1="216.200000" y1="59.000000" x2="219.200000" y2="60.000000"  transform="rotate(0.000000,219.200000,60.000000)" style="stroke: black; stroke-width:0.25;"/>
<line x1="216.200000" y1="61.000000" x2="219.200000" y2="60.000000"  transform="rotate(0.000000,219.200000,60.000000)" style="stroke: black; stroke-width:0.25;"/>
<line x1="43.000000" y1="35.000000" x2="43.000000" y2="85.000000"  style="stroke: black; stroke-linecap:round; stroke-width:0.25; stroke-dasharray:3,3;"/>
<line x1="43.000000" y1="85.000000" x2="254.000000" y2="85.000000"  style="stroke: black; stroke-linecap:round; stroke-width:0.25; stroke-dasharray:3,3;"/>
<line x1="254.000000" y1="85.000000" x2="254.000000" y2="35.000000"  style="stroke: black; stroke-linecap:round; stroke-width:0.25; stroke-dasharray:3,3;"/>
<line x1="43.000000" y1="35.000000" x2="48.000000" y2="35.000000"  style="stroke: black; stroke-linecap:round; stroke-width:0.25; stroke-dasharray:3,3;"/>
<line x1="99.600000" y1="35.000000" x2="254.000000" y2="35.000000"  style="stroke: black; stroke-linecap:round; stroke-width:0.25; stroke-dasharray:3,3;"/>
<text x="48.000000" y="37.000000" font-family="Arial" font-size="7">hgroup(INPUTS)</text>
<line x1="33.000000" y1="25.000000" x2="33.000000" y2="95.000000"  style="stroke: black; stroke-linecap:round; stroke-width:0.25; stroke-dasharray:3,3;"/>
<line x1="33.000000" y1="95.000000" x2="264.000000" y2="95.000000"  style="stroke: black; stroke-linecap:round; stroke-width:0.25; stroke-dasharray:3,3;"/>
<line x1="264.000000" y1="95.000000" x2="264.000000" y2="25.000000"  style="stroke: black; stroke-linecap:round; stroke-width:0.25; stroke-dasharray:3,3;"/>
<line x1="33.000000" y1="25.000000" x2="38.000000" y2="25.000000"  style="stroke: black; stroke-linecap:round; stroke-width:0.25; stroke-dasharray:3,3;"/>
<line x1="125.075000" y1="25.000000" x2="264.000000" y2="25.000000"  style="stroke: black; stroke-linecap:round; stroke-width:0.25; stroke-dasharray:3,3;"/>
<text x="38.000000" y="27.000000" font-family="Arial" font-size="7">vgroup(----- FLUTE -----)</text>
<line x1="15.000000" y1="15.000000" x2="15.000000" y2="105.000000"  style="stroke: black; stroke-linecap:round; stroke-width:0.25; stroke-dasharray:3,3;"/>
<line x1="15.000000" y1="105.000000" x2="282.000000" y2="105.000000"  style="stroke: black; stroke-linecap:round; stroke-width:0.25; stroke-dasharray:3,3;"/>
<line x1="282.000000" y1="105.000000" x2="282.000000" y2="15.000000"  style="stroke: black; stroke-linecap:round; stroke-width:0.25; stroke-dasharray:3,3;"/>
<line x1="15.000000" y1="15.000000" x2="20.000000" y2="15.000000"  style="stroke: black; stroke-linecap:round; stroke-width:0.25; stroke-dasharray:3,3;"/>
<line x1="42.575000" y1="15.000000" x2="282.000000" y2="15.000000"  style="stroke: black; stroke-linecap:round; stroke-width:0.25; stroke-dasharray:3,3;"/>
<text x="20.000000" y="17.000000" font-family="Arial" font-size="7">bs_in</text>
<line x1="284.000000" y1="59.000000" x2="287.000000" y2="60.000000"  transform="rotate(0.000000,287.000000,60.000000)" style="stroke: black; stroke-width:0.25;"/>
<line x1="284.000000" y1="61.000000" x2="287.000000" y2="60.000000"  transform="rotate(0.000000,287.000000,60.000000)" style="stroke: black; stroke-width:0.25;"/>
<line x1="10.000000" y1="52.000000" x2="20.000000" y2="52.000000"  style="stroke:black; stroke-linecap:round; stroke-width:0.25;"/>
<line x1="10.000000" y1="60.000000" x2="20.000000" y2="60.000000"  style="stroke:black; stroke-linecap:round; stroke-width:0.25;"/>
<line x1="10.000000" y1="68.000000" x2="20.000000" y2="68.000000"  style="stroke:black; stroke-linecap:round; stroke-width:0.25;"/>
<line x1="20.000000" y1="52.000000" x2="24.000000" y2="52.000000"  style="stroke:black; stroke-linecap:round; stroke-width:0.25;"/>
<line x1="20.000000" y1="60.000000" x2="24.000000" y2="60.000000"  style="stroke:black; stroke-linecap:round; stroke-width:0.25;"/>
<line x1="20.000000" y1="68.000000" x2="24.000000" y2="68.000000"  style="stroke:black; stroke-linecap:round; stroke-width:0.25;"/>
<line x1="24.000000" y1="52.000000" x2="28.000000" y2="52.000000"  style="stroke:black; stroke-linecap:round; stroke-width:0.25;"/>
<line x1="24.000000" y1="60.000000" x2="28.000000" y2="60.000000"  style="stroke:black; stroke-linecap:round; stroke-width:0.25;"/>
<line x1="24.000000" y1="68.000000" x2="28.000000" y2="68.000000"  style="stroke:black; stroke-linecap:round; stroke-width:0.25;"/>
<line x1="28.000000" y1="52.000000" x2="28.000000" y2="52.000000"  style="stroke:black; stroke-linecap:round; stroke-width:0.25;"/>
<line x1="28.000000" y1="52.000000" x2="38.000000" y2="52.000000"  style="stroke:black; stroke-linecap:round; stroke-width:0.25;"/>
<line x1="28.000000" y1="60.000000" x2="28.000000" y2="60.000000"  style="stroke:black; stroke-linecap:round; stroke-width:0.25;"/>
<line x1="28.000000" y1="60.000000" x2="38.000000" y2="60.000000"  style="stroke:black; stroke-linecap:round; stroke-width:0.25;"/>
<line x1="28.000000" y1="68.000000" x2="28.000000" y2="68.000000"  style="stroke:black; stroke-linecap:round; stroke-width:0.25;"/>
<line x1="28.000000" y1="68.000000" x2="38.000000" y2="68.000000"  style="stroke:black; stroke-linecap:round; stroke-width:0.25;"/>
<line x1="38.000000" y1="52.000000" x2="48.000000" y2="52.000000"  style="stroke:black; stroke-linecap:round; stroke-width:0.25;"/>
<line x1="38.000000" y1="60.000000" x2="48.000000" y2="60.000000"  style="stroke:black; stroke-linecap:round; stroke-width:0.25;"/>
<line x1="38.000000" y1="68.000000" x2="48.000000" y2="68.000000"  style="stroke:black; stroke-linecap:round; stroke-width:0.25;"/>
<line x1="48.000000" y1="52.000000" x2="48.000000" y2="52.000000"  style="stroke:black; stroke-linecap:round; stroke-width:0.25;"/>
<line x1="48.000000" y1="52.000000" x2="52.000000" y2="52.000000"  style="stroke:black; stroke-linecap:round; stroke-width:0.25;"/>
<line x1="48.000000" y1="60.000000" x2="48.000000" y2="60.000000"  style="stroke:black; stroke-linecap:round; stroke-width:0.25;"/>
<line x1="48.000000" y1="60.000000" x2="52.000000" y2="60.000000"  style="stroke:black; stroke-linecap:round; stroke-width:0.25;"/>
<line x1="48.000000" y1="68.000000" x2="48.000000" y2="68.000000"  style="stroke:black; stroke-linecap:round; stroke-width:0.25;"/>
<line x1="48.000000" y1="68.000000" x2="52.000000" y2="68.000000"  style="stroke:black; stroke-linecap:round; stroke-width:0.25;"/>
<line x1="116.500000" y1="60.000000" x2="120.500000" y2="60.000000"  style="stroke:black; stroke-linecap:round; stroke-width:0.25;"/>
<line x1="120.500000" y1="44.000000" x2="128.500000" y2="44.000000"  style="stroke:black; stroke-linecap:round; stroke-width:0.25;"/>
<line x1="120.500000" y1="60.000000" x2="120.500000" y2="44.000000"  style="stroke:black; stroke-linecap:round; stroke-width:0.25;"/>
<line x1="120.500000" y1="60.000000" x2="120.500000" y2="60.000000"  style="stroke:black; stroke-linecap:round; stroke-width:0.25;"/>
<line x1="128.500000" y1="44.000000" x2="151.850000" y2="44.000000"  style="stroke:black; stroke-linecap:round; stroke-width:0.25;"/>
<line x1="151.850000" y1="44.000000" x2="175.200000" y2="44.000000"  style="stroke:black; stroke-linecap:round; stroke-width:0.25;"/>
<line x1="171.200000" y1="64.000000" x2="175.200000" y2="64.000000"  style="stroke:black; stroke-linecap:round; stroke-width:0.25;"/>
<line x1="175.200000" y1="44.000000" x2="183.200000" y2="44.000000"  style="stroke:black; stroke-linecap:round; stroke-width:0.25;"/>
<line x1="175.200000" y1="64.000000" x2="183.200000" y2="64.000000"  style="stroke:black; stroke-linecap:round; stroke-width:0.25;"/>
<line x1="183.200000" y1="44.000000" x2="183.200000" y2="56.000000"  style="stroke:black; stroke-linecap:round; stroke-width:0.25;"/>
<line x1="183.200000" y1="56.000000" x2="183.200000" y2="56.000000"  style="stroke:black; stroke-linecap:round; stroke-width:0.25;"/>
<line x1="183.200000" y1="56.000000" x2="187.200000" y2="56.000000"  style="stroke:black; stroke-linecap:round; stroke-width:0.25;"/>
<line x1="183.200000" y1="64.000000" x2="187.200000" y2="64.000000"  style="stroke:black; stroke-linecap:round; stroke-width:0.25;"/>
<line x1="211.200000" y1="60.000000" x2="215.200000" y2="60.000000"  style="stroke:black; stroke-linecap:round; stroke-width:0.25;"/>
<line x1="215.200000" y1="60.000000" x2="215.200000" y2="60.000000"  style="stroke:black; stroke-linecap:round; stroke-width:0.25;"/>
<line x1="215.200000" y1="60.000000" x2="219.200000" y2="60.000000"  style="stroke:black; stroke-linecap:round; stroke-width:0.25;"/>
<line x1="245.000000" y1="60.000000" x2="249.000000" y2="60.000000"  style="stroke:black; stroke-linecap:round; stroke-width:0.25;"/>
<line x1="249.000000" y1="60.000000" x2="259.000000" y2="60.000000"  style="stroke:black; stroke-linecap:round; stroke-width:0.25;"/>
<line x1="259.000000" y1="60.000000" x2="269.000000" y2="60.000000"  style="stroke:black; stroke-linecap:round; stroke-width:0.25;"/>
<line x1="269.000000" y1="60.000000" x2="269.000000" y2="60.000000"  style="stroke:black; stroke-linecap:round; stroke-width:0.25;"/>
<line x1="269.000000" y1="60.000000" x2="273.000000" y2="60.000000"  style="stroke:black; stroke-linecap:round; stroke-width:0.25;"/>
<line x1="273.000000" y1="60.000000" x2="277.000000" y2="60.000000"  style="stroke:black; stroke-linecap:round; stroke-width:0.25;"/>
<line x1="277.000000" y1="60.000000" x2="287.000000" y2="60.000000"  style="stroke:black; stroke-linecap:round; stroke-width:0.25;"/>
</svg>
