<?xml version="1.0"?>
<svg xmlns="http://www.w3.org/2000/svg" xmlns:xlink="http://www.w3.org/1999/xlink" viewBox="0 0 334.200000 96.000000" width="167.100000mm" height="48.000000mm" version="1.1">
<a xlink:href="process.svg">
<rect x="1.000000" y="1.000000" width="333.200000" height="95.000000" rx="0" ry="0" style="stroke:none;fill:#cccccc;"/>
<rect x="0.000000" y="0.000000" width="333.200000" height="95.000000" rx="0" ry="0" style="stroke:none;fill:#ffffff;"/>
</a>
<text x="10.000000" y="7.000000" font-family="Arial" font-size="7"></text>
<a xlink:href="selectn-0x7f8c88d37ef0.svg">
<rect x="33.000000" y="37.000000" width="64.500000" height="24.000000" rx="0" ry="0" style="stroke:none;fill:#cccccc;"/>
<rect x="32.000000" y="36.000000" width="64.500000" height="24.000000" rx="0" ry="0" style="stroke:none;fill:#003366;"/>
</a>
<a xlink:href="selectn-0x7f8c88d37ef0.svg">
<text x="64.250000" y="50.000000" font-family="Arial" font-size="7" text-anchor="middle" fill="#FFFFFF">selectn(3)(2)</text>
</a>
<circle cx="34.000000" cy="38.000000" r="1"/>
<line x1="29.000000" y1="39.000000" x2="32.000000" y2="40.000000"  transform="rotate(0.000000,32.000000,40.000000)" style="stroke: black; stroke-width:0.25;"/>
<line x1="29.000000" y1="41.000000" x2="32.000000" y2="40.000000"  transform="rotate(0.000000,32.000000,40.000000)" style="stroke: black; stroke-width:0.25;"/>
<line x1="29.000000" y1="47.000000" x2="32.000000" y2="48.000000"  transform="rotate(0.000000,32.000000,48.000000)" style="stroke: black; stroke-width:0.25;"/>
<line x1="29.000000" y1="49.000000" x2="32.000000" y2="48.000000"  transform="rotate(0.000000,32.000000,48.000000)" style="stroke: black; stroke-width:0.25;"/>
<line x1="29.000000" y1="55.000000" x2="32.000000" y2="56.000000"  transform="rotate(0.000000,32.000000,56.000000)" style="stroke: black; stroke-width:0.25;"/>
<line x1="29.000000" y1="57.000000" x2="32.000000" y2="56.000000"  transform="rotate(0.000000,32.000000,56.000000)" style="stroke: black; stroke-width:0.25;"/>
<a xlink:href="bsax-0x7f8c8b48b0f0.svg">
<rect x="105.500000" y="37.000000" width="129.000000" height="24.000000" rx="0" ry="0" style="stroke:none;fill:#cccccc;"/>
<rect x="104.500000" y="36.000000" width="129.000000" height="24.000000" rx="0" ry="0" style="stroke:none;fill:#003366;"/>
</a>
<a xlink:href="bsax-0x7f8c8b48b0f0.svg">
<text x="169.000000" y="50.000000" font-family="Arial" font-size="7" text-anchor="middle" fill="#FFFFFF">bsax_group(vg... lenv = {}]))</text>
</a>
<circle cx="106.500000" cy="38.000000" r="1"/>
<line x1="101.500000" y1="47.000000" x2="104.500000" y2="48.000000"  transform="rotate(0.000000,104.500000,48.000000)" style="stroke: black; stroke-width:0.25;"/>
<line x1="101.500000" y1="49.000000" x2="104.500000" y2="48.000000"  transform="rotate(0.000000,104.500000,48.000000)" style="stroke: black; stroke-width:0.25;"/>
<a xlink:href="bsax-0x7f8c8b6235c0.svg">
<rect x="264.500000" y="25.000000" width="38.700000" height="48.000000" rx="0" ry="0" style="stroke:none;fill:#cccccc;"/>
<rect x="263.500000" y="24.000000" width="38.700000" height="48.000000" rx="0" ry="0" style="stroke:none;fill:#003366;"/>
</a>
<a xlink:href="bsax-0x7f8c8b6235c0.svg">
<text x="282.850000" y="50.000000" font-family="Arial" font-size="7" text-anchor="middle" fill="#FFFFFF">bsax_out</text>
</a>
<circle cx="265.500000" cy="26.000000" r="1"/>
<line x1="260.500000" y1="47.000000" x2="263.500000" y2="48.000000"  transform="rotate(0.000000,263.500000,48.000000)" style="stroke: black; stroke-width:0.25;"/>
<line x1="260.500000" y1="49.000000" x2="263.500000" y2="48.000000"  transform="rotate(0.000000,263.500000,48.000000)" style="stroke: black; stroke-width:0.25;"/>
<line x1="15.000000" y1="15.000000" x2="15.000000" y2="81.000000"  style="stroke: black; stroke-linecap:round; stroke-width:0.25; stroke-dasharray:3,3;"/>
<line x1="15.000000" y1="81.000000" x2="319.200000" y2="81.000000"  style="stroke: black; stroke-linecap:round; stroke-width:0.25; stroke-dasharray:3,3;"/>
<line x1="319.200000" y1="81.000000" x2="319.200000" y2="15.000000"  style="stroke: black; stroke-linecap:round; stroke-width:0.25; stroke-dasharray:3,3;"/>
<line x1="15.000000" y1="15.000000" x2="20.000000" y2="15.000000"  style="stroke: black; stroke-linecap:round; stroke-width:0.25; stroke-dasharray:3,3;"/>
<line x1="39.350000" y1="15.000000" x2="319.200000" y2="15.000000"  style="stroke: black; stroke-linecap:round; stroke-width:0.25; stroke-dasharray:3,3;"/>
<text x="20.000000" y="17.000000" font-family="Arial" font-size="7">bsax</text>
<line x1="321.200000" y1="27.000000" x2="324.200000" y2="28.000000"  transform="rotate(0.000000,324.200000,28.000000)" style="stroke: black; stroke-width:0.25;"/>
<line x1="321.200000" y1="29.000000" x2="324.200000" y2="28.000000"  transform="rotate(0.000000,324.200000,28.000000)" style="stroke: black; stroke-width:0.25;"/>
<line x1="321.200000" y1="35.000000" x2="324.200000" y2="36.000000"  transform="rotate(0.000000,324.200000,36.000000)" style="stroke: black; stroke-width:0.25;"/>
<line x1="321.200000" y1="37.000000" x2="324.200000" y2="36.000000"  transform="rotate(0.000000,324.200000,36.000000)" style="stroke: black; stroke-width:0.25;"/>
<line x1="321.200000" y1="43.000000" x2="324.200000" y2="44.000000"  transform="rotate(0.000000,324.200000,44.000000)" style="stroke: black; stroke-width:0.25;"/>
<line x1="321.200000" y1="45.000000" x2="324.200000" y2="44.000000"  transform="rotate(0.000000,324.200000,44.000000)" style="stroke: black; stroke-width:0.25;"/>
<line x1="321.200000" y1="51.000000" x2="324.200000" y2="52.000000"  transform="rotate(0.000000,324.200000,52.000000)" style="stroke: black; stroke-width:0.25;"/>
<line x1="321.200000" y1="53.000000" x2="324.200000" y2="52.000000"  transform="rotate(0.000000,324.200000,52.000000)" style="stroke: black; stroke-width:0.25;"/>
<line x1="321.200000" y1="59.000000" x2="324.200000" y2="60.000000"  transform="rotate(0.000000,324.200000,60.000000)" style="stroke: black; stroke-width:0.25;"/>
<line x1="321.200000" y1="61.000000" x2="324.200000" y2="60.000000"  transform="rotate(0.000000,324.200000,60.000000)" style="stroke: black; stroke-width:0.25;"/>
<line x1="321.200000" y1="67.000000" x2="324.200000" y2="68.000000"  transform="rotate(0.000000,324.200000,68.000000)" style="stroke: black; stroke-width:0.25;"/>
<line x1="321.200000" y1="69.000000" x2="324.200000" y2="68.000000"  transform="rotate(0.000000,324.200000,68.000000)" style="stroke: black; stroke-width:0.25;"/>
<line x1="10.000000" y1="40.000000" x2="20.000000" y2="40.000000"  style="stroke:black; stroke-linecap:round; stroke-width:0.25;"/>
<line x1="10.000000" y1="48.000000" x2="20.000000" y2="48.000000"  style="stroke:black; stroke-linecap:round; stroke-width:0.25;"/>
<line x1="10.000000" y1="56.000000" x2="20.000000" y2="56.000000"  style="stroke:black; stroke-linecap:round; stroke-width:0.25;"/>
<line x1="20.000000" y1="40.000000" x2="24.000000" y2="40.000000"  style="stroke:black; stroke-linecap:round; stroke-width:0.25;"/>
<line x1="20.000000" y1="48.000000" x2="24.000000" y2="48.000000"  style="stroke:black; stroke-linecap:round; stroke-width:0.25;"/>
<line x1="20.000000" y1="56.000000" x2="24.000000" y2="56.000000"  style="stroke:black; stroke-linecap:round; stroke-width:0.25;"/>
<line x1="24.000000" y1="40.000000" x2="28.000000" y2="40.000000"  style="stroke:black; stroke-linecap:round; stroke-width:0.25;"/>
<line x1="24.000000" y1="48.000000" x2="28.000000" y2="48.000000"  style="stroke:black; stroke-linecap:round; stroke-width:0.25;"/>
<line x1="24.000000" y1="56.000000" x2="28.000000" y2="56.000000"  style="stroke:black; stroke-linecap:round; stroke-width:0.25;"/>
<line x1="28.000000" y1="40.000000" x2="28.000000" y2="40.000000"  style="stroke:black; stroke-linecap:round; stroke-width:0.25;"/>
<line x1="28.000000" y1="40.000000" x2="32.000000" y2="40.000000"  style="stroke:black; stroke-linecap:round; stroke-width:0.25;"/>
<line x1="28.000000" y1="48.000000" x2="28.000000" y2="48.000000"  style="stroke:black; stroke-linecap:round; stroke-width:0.25;"/>
<line x1="28.000000" y1="48.000000" x2="32.000000" y2="48.000000"  style="stroke:black; stroke-linecap:round; stroke-width:0.25;"/>
<line x1="28.000000" y1="56.000000" x2="28.000000" y2="56.000000"  style="stroke:black; stroke-linecap:round; stroke-width:0.25;"/>
<line x1="28.000000" y1="56.000000" x2="32.000000" y2="56.000000"  style="stroke:black; stroke-linecap:round; stroke-width:0.25;"/>
<line x1="96.500000" y1="48.000000" x2="100.500000" y2="48.000000"  style="stroke:black; stroke-linecap:round; stroke-width:0.25;"/>
<line x1="100.500000" y1="48.000000" x2="100.500000" y2="48.000000"  style="stroke:black; stroke-linecap:round; stroke-width:0.25;"/>
<line x1="100.500000" y1="48.000000" x2="104.500000" y2="48.000000"  style="stroke:black; stroke-linecap:round; stroke-width:0.25;"/>
<line x1="233.500000" y1="48.000000" x2="237.500000" y2="48.000000"  style="stroke:black; stroke-linecap:round; stroke-width:0.25;"/>
<line x1="237.500000" y1="48.000000" x2="259.500000" y2="48.000000"  style="stroke:black; stroke-linecap:round; stroke-width:0.25;"/>
<line x1="259.500000" y1="48.000000" x2="263.500000" y2="48.000000"  style="stroke:black; stroke-linecap:round; stroke-width:0.25;"/>
<line x1="302.200000" y1="28.000000" x2="306.200000" y2="28.000000"  style="stroke:black; stroke-linecap:round; stroke-width:0.25;"/>
<line x1="302.200000" y1="36.000000" x2="306.200000" y2="36.000000"  style="stroke:black; stroke-linecap:round; stroke-width:0.25;"/>
<line x1="302.200000" y1="44.000000" x2="306.200000" y2="44.000000"  style="stroke:black; stroke-linecap:round; stroke-width:0.25;"/>
<line x1="302.200000" y1="52.000000" x2="306.200000" y2="52.000000"  style="stroke:black; stroke-linecap:round; stroke-width:0.25;"/>
<line x1="302.200000" y1="60.000000" x2="306.200000" y2="60.000000"  style="stroke:black; stroke-linecap:round; stroke-width:0.25;"/>
<line x1="302.200000" y1="68.000000" x2="306.200000" y2="68.000000"  style="stroke:black; stroke-linecap:round; stroke-width:0.25;"/>
<line x1="306.200000" y1="28.000000" x2="306.200000" y2="28.000000"  style="stroke:black; stroke-linecap:round; stroke-width:0.25;"/>
<line x1="306.200000" y1="28.000000" x2="310.200000" y2="28.000000"  style="stroke:black; stroke-linecap:round; stroke-width:0.25;"/>
<line x1="306.200000" y1="36.000000" x2="306.200000" y2="36.000000"  style="stroke:black; stroke-linecap:round; stroke-width:0.25;"/>
<line x1="306.200000" y1="36.000000" x2="310.200000" y2="36.000000"  style="stroke:black; stroke-linecap:round; stroke-width:0.25;"/>
<line x1="306.200000" y1="44.000000" x2="306.200000" y2="44.000000"  style="stroke:black; stroke-linecap:round; stroke-width:0.25;"/>
<line x1="306.200000" y1="44.000000" x2="310.200000" y2="44.000000"  style="stroke:black; stroke-linecap:round; stroke-width:0.25;"/>
<line x1="306.200000" y1="52.000000" x2="306.200000" y2="52.000000"  style="stroke:black; stroke-linecap:round; stroke-width:0.25;"/>
<line x1="306.200000" y1="52.000000" x2="310.200000" y2="52.000000"  style="stroke:black; stroke-linecap:round; stroke-width:0.25;"/>
<line x1="306.200000" y1="60.000000" x2="306.200000" y2="60.000000"  style="stroke:black; stroke-linecap:round; stroke-width:0.25;"/>
<line x1="306.200000" y1="60.000000" x2="310.200000" y2="60.000000"  style="stroke:black; stroke-linecap:round; stroke-width:0.25;"/>
<line x1="306.200000" y1="68.000000" x2="306.200000" y2="68.000000"  style="stroke:black; stroke-linecap:round; stroke-width:0.25;"/>
<line x1="306.200000" y1="68.000000" x2="310.200000" y2="68.000000"  style="stroke:black; stroke-linecap:round; stroke-width:0.25;"/>
<line x1="310.200000" y1="28.000000" x2="314.200000" y2="28.000000"  style="stroke:black; stroke-linecap:round; stroke-width:0.25;"/>
<line x1="310.200000" y1="36.000000" x2="314.200000" y2="36.000000"  style="stroke:black; stroke-linecap:round; stroke-width:0.25;"/>
<line x1="310.200000" y1="44.000000" x2="314.200000" y2="44.000000"  style="stroke:black; stroke-linecap:round; stroke-width:0.25;"/>
<line x1="310.200000" y1="52.000000" x2="314.200000" y2="52.000000"  style="stroke:black; stroke-linecap:round; stroke-width:0.25;"/>
<line x1="310.200000" y1="60.000000" x2="314.200000" y2="60.000000"  style="stroke:black; stroke-linecap:round; stroke-width:0.25;"/>
<line x1="310.200000" y1="68.000000" x2="314.200000" y2="68.000000"  style="stroke:black; stroke-linecap:round; stroke-width:0.25;"/>
<line x1="314.200000" y1="28.000000" x2="324.200000" y2="28.000000"  style="stroke:black; stroke-linecap:round; stroke-width:0.25;"/>
<line x1="314.200000" y1="36.000000" x2="324.200000" y2="36.000000"  style="stroke:black; stroke-linecap:round; stroke-width:0.25;"/>
<line x1="314.200000" y1="44.000000" x2="324.200000" y2="44.000000"  style="stroke:black; stroke-linecap:round; stroke-width:0.25;"/>
<line x1="314.200000" y1="52.000000" x2="324.200000" y2="52.000000"  style="stroke:black; stroke-linecap:round; stroke-width:0.25;"/>
<line x1="314.200000" y1="60.000000" x2="324.200000" y2="60.000000"  style="stroke:black; stroke-linecap:round; stroke-width:0.25;"/>
<line x1="314.200000" y1="68.000000" x2="324.200000" y2="68.000000"  style="stroke:black; stroke-linecap:round; stroke-width:0.25;"/>
</svg>
