<?xml version="1.0"?>
<svg xmlns="http://www.w3.org/2000/svg" xmlns:xlink="http://www.w3.org/1999/xlink" viewBox="0 0 277.700000 96.000000" width="138.850000mm" height="48.000000mm" version="1.1">
<a xlink:href="process.svg">
<rect x="1.000000" y="1.000000" width="276.700000" height="95.000000" rx="0" ry="0" style="stroke:none;fill:#cccccc;"/>
<rect x="0.000000" y="0.000000" width="276.700000" height="95.000000" rx="0" ry="0" style="stroke:none;fill:#ffffff;"/>
</a>
<text x="10.000000" y="7.000000" font-family="Arial" font-size="7"></text>
<a xlink:href="selectn-0x7fbcc1d92680.svg">
<rect x="33.000000" y="37.000000" width="64.500000" height="24.000000" rx="0" ry="0" style="stroke:none;fill:#cccccc;"/>
<rect x="32.000000" y="36.000000" width="64.500000" height="24.000000" rx="0" ry="0" style="stroke:none;fill:#003366;"/>
</a>
<a xlink:href="selectn-0x7fbcc1d92680.svg">
<text x="64.250000" y="50.000000" font-family="Arial" font-size="7" text-anchor="middle" fill="#FFFFFF">selectn(3)(0)</text>
</a>
<circle cx="34.000000" cy="38.000000" r="1"/>
<line x1="29.000000" y1="39.000000" x2="32.000000" y2="40.000000"  transform="rotate(0.000000,32.000000,40.000000)" style="stroke: black; stroke-width:0.25;"/>
<line x1="29.000000" y1="41.000000" x2="32.000000" y2="40.000000"  transform="rotate(0.000000,32.000000,40.000000)" style="stroke: black; stroke-width:0.25;"/>
<line x1="29.000000" y1="47.000000" x2="32.000000" y2="48.000000"  transform="rotate(0.000000,32.000000,48.000000)" style="stroke: black; stroke-width:0.25;"/>
<line x1="29.000000" y1="49.000000" x2="32.000000" y2="48.000000"  transform="rotate(0.000000,32.000000,48.000000)" style="stroke: black; stroke-width:0.25;"/>
<line x1="29.000000" y1="55.000000" x2="32.000000" y2="56.000000"  transform="rotate(0.000000,32.000000,56.000000)" style="stroke: black; stroke-width:0.25;"/>
<line x1="29.000000" y1="57.000000" x2="32.000000" y2="56.000000"  transform="rotate(0.000000,32.000000,56.000000)" style="stroke: black; stroke-width:0.25;"/>
<a xlink:href="gs-0x7fbcc1c47610.svg">
<rect x="105.500000" y="37.000000" width="38.700000" height="24.000000" rx="0" ry="0" style="stroke:none;fill:#cccccc;"/>
<rect x="104.500000" y="36.000000" width="38.700000" height="24.000000" rx="0" ry="0" style="stroke:none;fill:#003366;"/>
</a>
<a xlink:href="gs-0x7fbcc1c47610.svg">
<text x="123.850000" y="50.000000" font-family="Arial" font-size="7" text-anchor="middle" fill="#FFFFFF">gs_m_comp</text>
</a>
<circle cx="106.500000" cy="38.000000" r="1"/>
<line x1="101.500000" y1="47.000000" x2="104.500000" y2="48.000000"  transform="rotate(0.000000,104.500000,48.000000)" style="stroke: black; stroke-width:0.25;"/>
<line x1="101.500000" y1="49.000000" x2="104.500000" y2="48.000000"  transform="rotate(0.000000,104.500000,48.000000)" style="stroke: black; stroke-width:0.25;"/>
<a xlink:href="hmeter-0x7fbcc1c4d590.svg">
<rect x="152.200000" y="37.000000" width="25.800000" height="24.000000" rx="0" ry="0" style="stroke:none;fill:#cccccc;"/>
<rect x="151.200000" y="36.000000" width="25.800000" height="24.000000" rx="0" ry="0" style="stroke:none;fill:#003366;"/>
</a>
<a xlink:href="hmeter-0x7fbcc1c4d590.svg">
<text x="164.100000" y="50.000000" font-family="Arial" font-size="7" text-anchor="middle" fill="#FFFFFF">hmeter</text>
</a>
<circle cx="153.200000" cy="38.000000" r="1"/>
<line x1="148.200000" y1="47.000000" x2="151.200000" y2="48.000000"  transform="rotate(0.000000,151.200000,48.000000)" style="stroke: black; stroke-width:0.25;"/>
<line x1="148.200000" y1="49.000000" x2="151.200000" y2="48.000000"  transform="rotate(0.000000,151.200000,48.000000)" style="stroke: black; stroke-width:0.25;"/>
<a xlink:href="flute-0x7fbcc440ee30.svg">
<rect x="208.000000" y="25.000000" width="38.700000" height="48.000000" rx="0" ry="0" style="stroke:none;fill:#cccccc;"/>
<rect x="207.000000" y="24.000000" width="38.700000" height="48.000000" rx="0" ry="0" style="stroke:none;fill:#003366;"/>
</a>
<a xlink:href="flute-0x7fbcc440ee30.svg">
<text x="226.350000" y="50.000000" font-family="Arial" font-size="7" text-anchor="middle" fill="#FFFFFF">flute_out</text>
</a>
<circle cx="209.000000" cy="26.000000" r="1"/>
<line x1="204.000000" y1="47.000000" x2="207.000000" y2="48.000000"  transform="rotate(0.000000,207.000000,48.000000)" style="stroke: black; stroke-width:0.25;"/>
<line x1="204.000000" y1="49.000000" x2="207.000000" y2="48.000000"  transform="rotate(0.000000,207.000000,48.000000)" style="stroke: black; stroke-width:0.25;"/>
<line x1="15.000000" y1="15.000000" x2="15.000000" y2="81.000000"  style="stroke: black; stroke-linecap:round; stroke-width:0.25; stroke-dasharray:3,3;"/>
<line x1="15.000000" y1="81.000000" x2="262.700000" y2="81.000000"  style="stroke: black; stroke-linecap:round; stroke-width:0.25; stroke-dasharray:3,3;"/>
<line x1="262.700000" y1="81.000000" x2="262.700000" y2="15.000000"  style="stroke: black; stroke-linecap:round; stroke-width:0.25; stroke-dasharray:3,3;"/>
<line x1="15.000000" y1="15.000000" x2="20.000000" y2="15.000000"  style="stroke: black; stroke-linecap:round; stroke-width:0.25; stroke-dasharray:3,3;"/>
<line x1="42.575000" y1="15.000000" x2="262.700000" y2="15.000000"  style="stroke: black; stroke-linecap:round; stroke-width:0.25; stroke-dasharray:3,3;"/>
<text x="20.000000" y="17.000000" font-family="Arial" font-size="7">flute</text>
<line x1="264.700000" y1="27.000000" x2="267.700000" y2="28.000000"  transform="rotate(0.000000,267.700000,28.000000)" style="stroke: black; stroke-width:0.25;"/>
<line x1="264.700000" y1="29.000000" x2="267.700000" y2="28.000000"  transform="rotate(0.000000,267.700000,28.000000)" style="stroke: black; stroke-width:0.25;"/>
<line x1="264.700000" y1="35.000000" x2="267.700000" y2="36.000000"  transform="rotate(0.000000,267.700000,36.000000)" style="stroke: black; stroke-width:0.25;"/>
<line x1="264.700000" y1="37.000000" x2="267.700000" y2="36.000000"  transform="rotate(0.000000,267.700000,36.000000)" style="stroke: black; stroke-width:0.25;"/>
<line x1="264.700000" y1="43.000000" x2="267.700000" y2="44.000000"  transform="rotate(0.000000,267.700000,44.000000)" style="stroke: black; stroke-width:0.25;"/>
<line x1="264.700000" y1="45.000000" x2="267.700000" y2="44.000000"  transform="rotate(0.000000,267.700000,44.000000)" style="stroke: black; stroke-width:0.25;"/>
<line x1="264.700000" y1="51.000000" x2="267.700000" y2="52.000000"  transform="rotate(0.000000,267.700000,52.000000)" style="stroke: black; stroke-width:0.25;"/>
<line x1="264.700000" y1="53.000000" x2="267.700000" y2="52.000000"  transform="rotate(0.000000,267.700000,52.000000)" style="stroke: black; stroke-width:0.25;"/>
<line x1="264.700000" y1="59.000000" x2="267.700000" y2="60.000000"  transform="rotate(0.000000,267.700000,60.000000)" style="stroke: black; stroke-width:0.25;"/>
<line x1="264.700000" y1="61.000000" x2="267.700000" y2="60.000000"  transform="rotate(0.000000,267.700000,60.000000)" style="stroke: black; stroke-width:0.25;"/>
<line x1="264.700000" y1="67.000000" x2="267.700000" y2="68.000000"  transform="rotate(0.000000,267.700000,68.000000)" style="stroke: black; stroke-width:0.25;"/>
<line x1="264.700000" y1="69.000000" x2="267.700000" y2="68.000000"  transform="rotate(0.000000,267.700000,68.000000)" style="stroke: black; stroke-width:0.25;"/>
<line x1="10.000000" y1="40.000000" x2="20.000000" y2="40.000000"  style="stroke:black; stroke-linecap:round; stroke-width:0.25;"/>
<line x1="10.000000" y1="48.000000" x2="20.000000" y2="48.000000"  style="stroke:black; stroke-linecap:round; stroke-width:0.25;"/>
<line x1="10.000000" y1="56.000000" x2="20.000000" y2="56.000000"  style="stroke:black; stroke-linecap:round; stroke-width:0.25;"/>
<line x1="20.000000" y1="40.000000" x2="24.000000" y2="40.000000"  style="stroke:black; stroke-linecap:round; stroke-width:0.25;"/>
<line x1="20.000000" y1="48.000000" x2="24.000000" y2="48.000000"  style="stroke:black; stroke-linecap:round; stroke-width:0.25;"/>
<line x1="20.000000" y1="56.000000" x2="24.000000" y2="56.000000"  style="stroke:black; stroke-linecap:round; stroke-width:0.25;"/>
<line x1="24.000000" y1="40.000000" x2="28.000000" y2="40.000000"  style="stroke:black; stroke-linecap:round; stroke-width:0.25;"/>
<line x1="24.000000" y1="48.000000" x2="28.000000" y2="48.000000"  style="stroke:black; stroke-linecap:round; stroke-width:0.25;"/>
<line x1="24.000000" y1="56.000000" x2="28.000000" y2="56.000000"  style="stroke:black; stroke-linecap:round; stroke-width:0.25;"/>
<line x1="28.000000" y1="40.000000" x2="28.000000" y2="40.000000"  style="stroke:black; stroke-linecap:round; stroke-width:0.25;"/>
<line x1="28.000000" y1="40.000000" x2="32.000000" y2="40.000000"  style="stroke:black; stroke-linecap:round; stroke-width:0.25;"/>
<line x1="28.000000" y1="48.000000" x2="28.000000" y2="48.000000"  style="stroke:black; stroke-linecap:round; stroke-width:0.25;"/>
<line x1="28.000000" y1="48.000000" x2="32.000000" y2="48.000000"  style="stroke:black; stroke-linecap:round; stroke-width:0.25;"/>
<line x1="28.000000" y1="56.000000" x2="28.000000" y2="56.000000"  style="stroke:black; stroke-linecap:round; stroke-width:0.25;"/>
<line x1="28.000000" y1="56.000000" x2="32.000000" y2="56.000000"  style="stroke:black; stroke-linecap:round; stroke-width:0.25;"/>
<line x1="96.500000" y1="48.000000" x2="100.500000" y2="48.000000"  style="stroke:black; stroke-linecap:round; stroke-width:0.25;"/>
<line x1="100.500000" y1="48.000000" x2="100.500000" y2="48.000000"  style="stroke:black; stroke-linecap:round; stroke-width:0.25;"/>
<line x1="100.500000" y1="48.000000" x2="104.500000" y2="48.000000"  style="stroke:black; stroke-linecap:round; stroke-width:0.25;"/>
<line x1="143.200000" y1="48.000000" x2="147.200000" y2="48.000000"  style="stroke:black; stroke-linecap:round; stroke-width:0.25;"/>
<line x1="147.200000" y1="48.000000" x2="147.200000" y2="48.000000"  style="stroke:black; stroke-linecap:round; stroke-width:0.25;"/>
<line x1="147.200000" y1="48.000000" x2="151.200000" y2="48.000000"  style="stroke:black; stroke-linecap:round; stroke-width:0.25;"/>
<line x1="177.000000" y1="48.000000" x2="181.000000" y2="48.000000"  style="stroke:black; stroke-linecap:round; stroke-width:0.25;"/>
<line x1="181.000000" y1="48.000000" x2="203.000000" y2="48.000000"  style="stroke:black; stroke-linecap:round; stroke-width:0.25;"/>
<line x1="203.000000" y1="48.000000" x2="207.000000" y2="48.000000"  style="stroke:black; stroke-linecap:round; stroke-width:0.25;"/>
<line x1="245.700000" y1="28.000000" x2="249.700000" y2="28.000000"  style="stroke:black; stroke-linecap:round; stroke-width:0.25;"/>
<line x1="245.700000" y1="36.000000" x2="249.700000" y2="36.000000"  style="stroke:black; stroke-linecap:round; stroke-width:0.25;"/>
<line x1="245.700000" y1="44.000000" x2="249.700000" y2="44.000000"  style="stroke:black; stroke-linecap:round; stroke-width:0.25;"/>
<line x1="245.700000" y1="52.000000" x2="249.700000" y2="52.000000"  style="stroke:black; stroke-linecap:round; stroke-width:0.25;"/>
<line x1="245.700000" y1="60.000000" x2="249.700000" y2="60.000000"  style="stroke:black; stroke-linecap:round; stroke-width:0.25;"/>
<line x1="245.700000" y1="68.000000" x2="249.700000" y2="68.000000"  style="stroke:black; stroke-linecap:round; stroke-width:0.25;"/>
<line x1="249.700000" y1="28.000000" x2="249.700000" y2="28.000000"  style="stroke:black; stroke-linecap:round; stroke-width:0.25;"/>
<line x1="249.700000" y1="28.000000" x2="253.700000" y2="28.000000"  style="stroke:black; stroke-linecap:round; stroke-width:0.25;"/>
<line x1="249.700000" y1="36.000000" x2="249.700000" y2="36.000000"  style="stroke:black; stroke-linecap:round; stroke-width:0.25;"/>
<line x1="249.700000" y1="36.000000" x2="253.700000" y2="36.000000"  style="stroke:black; stroke-linecap:round; stroke-width:0.25;"/>
<line x1="249.700000" y1="44.000000" x2="249.700000" y2="44.000000"  style="stroke:black; stroke-linecap:round; stroke-width:0.25;"/>
<line x1="249.700000" y1="44.000000" x2="253.700000" y2="44.000000"  style="stroke:black; stroke-linecap:round; stroke-width:0.25;"/>
<line x1="249.700000" y1="52.000000" x2="249.700000" y2="52.000000"  style="stroke:black; stroke-linecap:round; stroke-width:0.25;"/>
<line x1="249.700000" y1="52.000000" x2="253.700000" y2="52.000000"  style="stroke:black; stroke-linecap:round; stroke-width:0.25;"/>
<line x1="249.700000" y1="60.000000" x2="249.700000" y2="60.000000"  style="stroke:black; stroke-linecap:round; stroke-width:0.25;"/>
<line x1="249.700000" y1="60.000000" x2="253.700000" y2="60.000000"  style="stroke:black; stroke-linecap:round; stroke-width:0.25;"/>
<line x1="249.700000" y1="68.000000" x2="249.700000" y2="68.000000"  style="stroke:black; stroke-linecap:round; stroke-width:0.25;"/>
<line x1="249.700000" y1="68.000000" x2="253.700000" y2="68.000000"  style="stroke:black; stroke-linecap:round; stroke-width:0.25;"/>
<line x1="253.700000" y1="28.000000" x2="257.700000" y2="28.000000"  style="stroke:black; stroke-linecap:round; stroke-width:0.25;"/>
<line x1="253.700000" y1="36.000000" x2="257.700000" y2="36.000000"  style="stroke:black; stroke-linecap:round; stroke-width:0.25;"/>
<line x1="253.700000" y1="44.000000" x2="257.700000" y2="44.000000"  style="stroke:black; stroke-linecap:round; stroke-width:0.25;"/>
<line x1="253.700000" y1="52.000000" x2="257.700000" y2="52.000000"  style="stroke:black; stroke-linecap:round; stroke-width:0.25;"/>
<line x1="253.700000" y1="60.000000" x2="257.700000" y2="60.000000"  style="stroke:black; stroke-linecap:round; stroke-width:0.25;"/>
<line x1="253.700000" y1="68.000000" x2="257.700000" y2="68.000000"  style="stroke:black; stroke-linecap:round; stroke-width:0.25;"/>
<line x1="257.700000" y1="28.000000" x2="267.700000" y2="28.000000"  style="stroke:black; stroke-linecap:round; stroke-width:0.25;"/>
<line x1="257.700000" y1="36.000000" x2="267.700000" y2="36.000000"  style="stroke:black; stroke-linecap:round; stroke-width:0.25;"/>
<line x1="257.700000" y1="44.000000" x2="267.700000" y2="44.000000"  style="stroke:black; stroke-linecap:round; stroke-width:0.25;"/>
<line x1="257.700000" y1="52.000000" x2="267.700000" y2="52.000000"  style="stroke:black; stroke-linecap:round; stroke-width:0.25;"/>
<line x1="257.700000" y1="60.000000" x2="267.700000" y2="60.000000"  style="stroke:black; stroke-linecap:round; stroke-width:0.25;"/>
<line x1="257.700000" y1="68.000000" x2="267.700000" y2="68.000000"  style="stroke:black; stroke-linecap:round; stroke-width:0.25;"/>
</svg>
