<?xml version="1.0"?>
<svg xmlns="http://www.w3.org/2000/svg" xmlns:xlink="http://www.w3.org/1999/xlink" viewBox="0 0 235.000000 292.000000" width="117.500000mm" height="146.000000mm" version="1.1">
<a xlink:href="flute-0x7f8c8acd4020.svg">
<rect x="1.000000" y="1.000000" width="234.000000" height="291.000000" rx="0" ry="0" style="stroke:none;fill:#cccccc;"/>
<rect x="0.000000" y="0.000000" width="234.000000" height="291.000000" rx="0" ry="0" style="stroke:none;fill:#ffffff;"/>
</a>
<text x="10.000000" y="7.000000" font-family="Arial" font-size="7"></text>
<a xlink:href="at1-0x7f8c88e23270.svg">
<rect x="126.000000" y="55.000000" width="24.000000" height="24.000000" rx="0" ry="0" style="stroke:none;fill:#cccccc;"/>
<rect x="125.000000" y="54.000000" width="24.000000" height="24.000000" rx="0" ry="0" style="stroke:none;fill:#003366;"/>
</a>
<a xlink:href="at1-0x7f8c88e23270.svg">
<text x="137.000000" y="68.000000" font-family="Arial" font-size="7" text-anchor="middle" fill="#FFFFFF">at1</text>
</a>
<circle cx="127.000000" cy="56.000000" r="1"/>
<line x1="122.000000" y1="65.000000" x2="125.000000" y2="66.000000"  transform="rotate(0.000000,125.000000,66.000000)" style="stroke: black; stroke-width:0.25;"/>
<line x1="122.000000" y1="67.000000" x2="125.000000" y2="66.000000"  transform="rotate(0.000000,125.000000,66.000000)" style="stroke: black; stroke-width:0.25;"/>
<a xlink:href="at2-0x7f8c88e5bd80.svg">
<rect x="126.000000" y="87.000000" width="24.000000" height="24.000000" rx="0" ry="0" style="stroke:none;fill:#cccccc;"/>
<rect x="125.000000" y="86.000000" width="24.000000" height="24.000000" rx="0" ry="0" style="stroke:none;fill:#003366;"/>
</a>
<a xlink:href="at2-0x7f8c88e5bd80.svg">
<text x="137.000000" y="100.000000" font-family="Arial" font-size="7" text-anchor="middle" fill="#FFFFFF">at2</text>
</a>
<circle cx="127.000000" cy="88.000000" r="1"/>
<line x1="122.000000" y1="97.000000" x2="125.000000" y2="98.000000"  transform="rotate(0.000000,125.000000,98.000000)" style="stroke: black; stroke-width:0.25;"/>
<line x1="122.000000" y1="99.000000" x2="125.000000" y2="98.000000"  transform="rotate(0.000000,125.000000,98.000000)" style="stroke: black; stroke-width:0.25;"/>
<a xlink:href="at3-0x7f8c88e94410.svg">
<rect x="126.000000" y="119.000000" width="24.000000" height="24.000000" rx="0" ry="0" style="stroke:none;fill:#cccccc;"/>
<rect x="125.000000" y="118.000000" width="24.000000" height="24.000000" rx="0" ry="0" style="stroke:none;fill:#003366;"/>
</a>
<a xlink:href="at3-0x7f8c88e94410.svg">
<text x="137.000000" y="132.000000" font-family="Arial" font-size="7" text-anchor="middle" fill="#FFFFFF">at3</text>
</a>
<circle cx="127.000000" cy="120.000000" r="1"/>
<line x1="122.000000" y1="129.000000" x2="125.000000" y2="130.000000"  transform="rotate(0.000000,125.000000,130.000000)" style="stroke: black; stroke-width:0.25;"/>
<line x1="122.000000" y1="131.000000" x2="125.000000" y2="130.000000"  transform="rotate(0.000000,125.000000,130.000000)" style="stroke: black; stroke-width:0.25;"/>
<a xlink:href="at4-0x7f8c88eccd20.svg">
<rect x="126.000000" y="151.000000" width="24.000000" height="24.000000" rx="0" ry="0" style="stroke:none;fill:#cccccc;"/>
<rect x="125.000000" y="150.000000" width="24.000000" height="24.000000" rx="0" ry="0" style="stroke:none;fill:#003366;"/>
</a>
<a xlink:href="at4-0x7f8c88eccd20.svg">
<text x="137.000000" y="164.000000" font-family="Arial" font-size="7" text-anchor="middle" fill="#FFFFFF">at4</text>
</a>
<circle cx="127.000000" cy="152.000000" r="1"/>
<line x1="122.000000" y1="161.000000" x2="125.000000" y2="162.000000"  transform="rotate(0.000000,125.000000,162.000000)" style="stroke: black; stroke-width:0.25;"/>
<line x1="122.000000" y1="163.000000" x2="125.000000" y2="162.000000"  transform="rotate(0.000000,125.000000,162.000000)" style="stroke: black; stroke-width:0.25;"/>
<a xlink:href="at5-0x7f8c8b00b8f0.svg">
<rect x="126.000000" y="183.000000" width="24.000000" height="24.000000" rx="0" ry="0" style="stroke:none;fill:#cccccc;"/>
<rect x="125.000000" y="182.000000" width="24.000000" height="24.000000" rx="0" ry="0" style="stroke:none;fill:#003366;"/>
</a>
<a xlink:href="at5-0x7f8c8b00b8f0.svg">
<text x="137.000000" y="196.000000" font-family="Arial" font-size="7" text-anchor="middle" fill="#FFFFFF">at5</text>
</a>
<circle cx="127.000000" cy="184.000000" r="1"/>
<line x1="122.000000" y1="193.000000" x2="125.000000" y2="194.000000"  transform="rotate(0.000000,125.000000,194.000000)" style="stroke: black; stroke-width:0.25;"/>
<line x1="122.000000" y1="195.000000" x2="125.000000" y2="194.000000"  transform="rotate(0.000000,125.000000,194.000000)" style="stroke: black; stroke-width:0.25;"/>
<a xlink:href="at6-0x7f8c8acd3710.svg">
<rect x="126.000000" y="215.000000" width="24.000000" height="24.000000" rx="0" ry="0" style="stroke:none;fill:#cccccc;"/>
<rect x="125.000000" y="214.000000" width="24.000000" height="24.000000" rx="0" ry="0" style="stroke:none;fill:#003366;"/>
</a>
<a xlink:href="at6-0x7f8c8acd3710.svg">
<text x="137.000000" y="228.000000" font-family="Arial" font-size="7" text-anchor="middle" fill="#FFFFFF">at6</text>
</a>
<circle cx="127.000000" cy="216.000000" r="1"/>
<line x1="122.000000" y1="225.000000" x2="125.000000" y2="226.000000"  transform="rotate(0.000000,125.000000,226.000000)" style="stroke: black; stroke-width:0.25;"/>
<line x1="122.000000" y1="227.000000" x2="125.000000" y2="226.000000"  transform="rotate(0.000000,125.000000,226.000000)" style="stroke: black; stroke-width:0.25;"/>
<line x1="116.000000" y1="45.000000" x2="116.000000" y2="247.000000"  style="stroke: black; stroke-linecap:round; stroke-width:0.25; stroke-dasharray:3,3;"/>
<line x1="116.000000" y1="247.000000" x2="158.000000" y2="247.000000"  style="stroke: black; stroke-linecap:round; stroke-width:0.25; stroke-dasharray:3,3;"/>
<line x1="158.000000" y1="247.000000" x2="158.000000" y2="45.000000"  style="stroke: black; stroke-linecap:round; stroke-width:0.25; stroke-dasharray:3,3;"/>
<line x1="116.000000" y1="45.000000" x2="121.000000" y2="45.000000"  style="stroke: black; stroke-linecap:round; stroke-width:0.25; stroke-dasharray:3,3;"/>
<line x1="153.250000" y1="45.000000" x2="158.000000" y2="45.000000"  style="stroke: black; stroke-linecap:round; stroke-width:0.25; stroke-dasharray:3,3;"/>
<text x="121.000000" y="47.000000" font-family="Arial" font-size="7">hgroup()</text>
<line x1="43.000000" y1="35.000000" x2="43.000000" y2="257.000000"  style="stroke: black; stroke-linecap:round; stroke-width:0.25; stroke-dasharray:3,3;"/>
<line x1="43.000000" y1="257.000000" x2="168.000000" y2="257.000000"  style="stroke: black; stroke-linecap:round; stroke-width:0.25; stroke-dasharray:3,3;"/>
<line x1="168.000000" y1="257.000000" x2="168.000000" y2="35.000000"  style="stroke: black; stroke-linecap:round; stroke-width:0.25; stroke-dasharray:3,3;"/>
<line x1="43.000000" y1="35.000000" x2="48.000000" y2="35.000000"  style="stroke: black; stroke-linecap:round; stroke-width:0.25; stroke-dasharray:3,3;"/>
<line x1="99.600000" y1="35.000000" x2="168.000000" y2="35.000000"  style="stroke: black; stroke-linecap:round; stroke-width:0.25; stroke-dasharray:3,3;"/>
<text x="48.000000" y="37.000000" font-family="Arial" font-size="7">vgroup(FL OUT)</text>
<line x1="33.000000" y1="25.000000" x2="33.000000" y2="267.000000"  style="stroke: black; stroke-linecap:round; stroke-width:0.25; stroke-dasharray:3,3;"/>
<line x1="33.000000" y1="267.000000" x2="178.000000" y2="267.000000"  style="stroke: black; stroke-linecap:round; stroke-width:0.25; stroke-dasharray:3,3;"/>
<line x1="178.000000" y1="267.000000" x2="178.000000" y2="25.000000"  style="stroke: black; stroke-linecap:round; stroke-width:0.25; stroke-dasharray:3,3;"/>
<line x1="33.000000" y1="25.000000" x2="38.000000" y2="25.000000"  style="stroke: black; stroke-linecap:round; stroke-width:0.25; stroke-dasharray:3,3;"/>
<line x1="125.075000" y1="25.000000" x2="178.000000" y2="25.000000"  style="stroke: black; stroke-linecap:round; stroke-width:0.25; stroke-dasharray:3,3;"/>
<text x="38.000000" y="27.000000" font-family="Arial" font-size="7">vgroup(----- FLUTE -----)</text>
<line x1="15.000000" y1="15.000000" x2="15.000000" y2="277.000000"  style="stroke: black; stroke-linecap:round; stroke-width:0.25; stroke-dasharray:3,3;"/>
<line x1="15.000000" y1="277.000000" x2="220.000000" y2="277.000000"  style="stroke: black; stroke-linecap:round; stroke-width:0.25; stroke-dasharray:3,3;"/>
<line x1="220.000000" y1="277.000000" x2="220.000000" y2="15.000000"  style="stroke: black; stroke-linecap:round; stroke-width:0.25; stroke-dasharray:3,3;"/>
<line x1="15.000000" y1="15.000000" x2="20.000000" y2="15.000000"  style="stroke: black; stroke-linecap:round; stroke-width:0.25; stroke-dasharray:3,3;"/>
<line x1="55.475000" y1="15.000000" x2="220.000000" y2="15.000000"  style="stroke: black; stroke-linecap:round; stroke-width:0.25; stroke-dasharray:3,3;"/>
<text x="20.000000" y="17.000000" font-family="Arial" font-size="7">flute_out</text>
<line x1="222.000000" y1="125.000000" x2="225.000000" y2="126.000000"  transform="rotate(0.000000,225.000000,126.000000)" style="stroke: black; stroke-width:0.25;"/>
<line x1="222.000000" y1="127.000000" x2="225.000000" y2="126.000000"  transform="rotate(0.000000,225.000000,126.000000)" style="stroke: black; stroke-width:0.25;"/>
<line x1="222.000000" y1="133.000000" x2="225.000000" y2="134.000000"  transform="rotate(0.000000,225.000000,134.000000)" style="stroke: black; stroke-width:0.25;"/>
<line x1="222.000000" y1="135.000000" x2="225.000000" y2="134.000000"  transform="rotate(0.000000,225.000000,134.000000)" style="stroke: black; stroke-width:0.25;"/>
<line x1="222.000000" y1="141.000000" x2="225.000000" y2="142.000000"  transform="rotate(0.000000,225.000000,142.000000)" style="stroke: black; stroke-width:0.25;"/>
<line x1="222.000000" y1="143.000000" x2="225.000000" y2="142.000000"  transform="rotate(0.000000,225.000000,142.000000)" style="stroke: black; stroke-width:0.25;"/>
<line x1="222.000000" y1="149.000000" x2="225.000000" y2="150.000000"  transform="rotate(0.000000,225.000000,150.000000)" style="stroke: black; stroke-width:0.25;"/>
<line x1="222.000000" y1="151.000000" x2="225.000000" y2="150.000000"  transform="rotate(0.000000,225.000000,150.000000)" style="stroke: black; stroke-width:0.25;"/>
<line x1="222.000000" y1="157.000000" x2="225.000000" y2="158.000000"  transform="rotate(0.000000,225.000000,158.000000)" style="stroke: black; stroke-width:0.25;"/>
<line x1="222.000000" y1="159.000000" x2="225.000000" y2="158.000000"  transform="rotate(0.000000,225.000000,158.000000)" style="stroke: black; stroke-width:0.25;"/>
<line x1="222.000000" y1="165.000000" x2="225.000000" y2="166.000000"  transform="rotate(0.000000,225.000000,166.000000)" style="stroke: black; stroke-width:0.25;"/>
<line x1="222.000000" y1="167.000000" x2="225.000000" y2="166.000000"  transform="rotate(0.000000,225.000000,166.000000)" style="stroke: black; stroke-width:0.25;"/>
<line x1="10.000000" y1="146.000000" x2="20.000000" y2="146.000000"  style="stroke:black; stroke-linecap:round; stroke-width:0.25;"/>
<line x1="20.000000" y1="146.000000" x2="24.000000" y2="146.000000"  style="stroke:black; stroke-linecap:round; stroke-width:0.25;"/>
<line x1="24.000000" y1="146.000000" x2="28.000000" y2="146.000000"  style="stroke:black; stroke-linecap:round; stroke-width:0.25;"/>
<line x1="28.000000" y1="146.000000" x2="28.000000" y2="146.000000"  style="stroke:black; stroke-linecap:round; stroke-width:0.25;"/>
<line x1="28.000000" y1="146.000000" x2="38.000000" y2="146.000000"  style="stroke:black; stroke-linecap:round; stroke-width:0.25;"/>
<line x1="38.000000" y1="146.000000" x2="48.000000" y2="146.000000"  style="stroke:black; stroke-linecap:round; stroke-width:0.25;"/>
<line x1="48.000000" y1="146.000000" x2="52.000000" y2="146.000000"  style="stroke:black; stroke-linecap:round; stroke-width:0.25;"/>
<line x1="52.000000" y1="146.000000" x2="56.000000" y2="146.000000"  style="stroke:black; stroke-linecap:round; stroke-width:0.25;"/>
<line x1="56.000000" y1="146.000000" x2="111.000000" y2="66.000000"  style="stroke:black; stroke-linecap:round; stroke-width:0.25;"/>
<line x1="56.000000" y1="146.000000" x2="111.000000" y2="98.000000"  style="stroke:black; stroke-linecap:round; stroke-width:0.25;"/>
<line x1="56.000000" y1="146.000000" x2="111.000000" y2="130.000000"  style="stroke:black; stroke-linecap:round; stroke-width:0.25;"/>
<line x1="56.000000" y1="146.000000" x2="111.000000" y2="162.000000"  style="stroke:black; stroke-linecap:round; stroke-width:0.25;"/>
<line x1="56.000000" y1="146.000000" x2="111.000000" y2="194.000000"  style="stroke:black; stroke-linecap:round; stroke-width:0.25;"/>
<line x1="56.000000" y1="146.000000" x2="111.000000" y2="226.000000"  style="stroke:black; stroke-linecap:round; stroke-width:0.25;"/>
<line x1="111.000000" y1="66.000000" x2="121.000000" y2="66.000000"  style="stroke:black; stroke-linecap:round; stroke-width:0.25;"/>
<line x1="111.000000" y1="98.000000" x2="121.000000" y2="98.000000"  style="stroke:black; stroke-linecap:round; stroke-width:0.25;"/>
<line x1="111.000000" y1="130.000000" x2="121.000000" y2="130.000000"  style="stroke:black; stroke-linecap:round; stroke-width:0.25;"/>
<line x1="111.000000" y1="162.000000" x2="121.000000" y2="162.000000"  style="stroke:black; stroke-linecap:round; stroke-width:0.25;"/>
<line x1="111.000000" y1="194.000000" x2="121.000000" y2="194.000000"  style="stroke:black; stroke-linecap:round; stroke-width:0.25;"/>
<line x1="111.000000" y1="226.000000" x2="121.000000" y2="226.000000"  style="stroke:black; stroke-linecap:round; stroke-width:0.25;"/>
<line x1="121.000000" y1="66.000000" x2="125.000000" y2="66.000000"  style="stroke:black; stroke-linecap:round; stroke-width:0.25;"/>
<line x1="121.000000" y1="98.000000" x2="125.000000" y2="98.000000"  style="stroke:black; stroke-linecap:round; stroke-width:0.25;"/>
<line x1="121.000000" y1="130.000000" x2="125.000000" y2="130.000000"  style="stroke:black; stroke-linecap:round; stroke-width:0.25;"/>
<line x1="121.000000" y1="162.000000" x2="125.000000" y2="162.000000"  style="stroke:black; stroke-linecap:round; stroke-width:0.25;"/>
<line x1="121.000000" y1="194.000000" x2="125.000000" y2="194.000000"  style="stroke:black; stroke-linecap:round; stroke-width:0.25;"/>
<line x1="121.000000" y1="226.000000" x2="125.000000" y2="226.000000"  style="stroke:black; stroke-linecap:round; stroke-width:0.25;"/>
<line x1="149.000000" y1="66.000000" x2="153.000000" y2="66.000000"  style="stroke:black; stroke-linecap:round; stroke-width:0.25;"/>
<line x1="149.000000" y1="98.000000" x2="153.000000" y2="98.000000"  style="stroke:black; stroke-linecap:round; stroke-width:0.25;"/>
<line x1="149.000000" y1="130.000000" x2="153.000000" y2="130.000000"  style="stroke:black; stroke-linecap:round; stroke-width:0.25;"/>
<line x1="149.000000" y1="162.000000" x2="153.000000" y2="162.000000"  style="stroke:black; stroke-linecap:round; stroke-width:0.25;"/>
<line x1="149.000000" y1="194.000000" x2="153.000000" y2="194.000000"  style="stroke:black; stroke-linecap:round; stroke-width:0.25;"/>
<line x1="149.000000" y1="226.000000" x2="153.000000" y2="226.000000"  style="stroke:black; stroke-linecap:round; stroke-width:0.25;"/>
<line x1="153.000000" y1="66.000000" x2="163.000000" y2="66.000000"  style="stroke:black; stroke-linecap:round; stroke-width:0.25;"/>
<line x1="153.000000" y1="98.000000" x2="163.000000" y2="98.000000"  style="stroke:black; stroke-linecap:round; stroke-width:0.25;"/>
<line x1="153.000000" y1="130.000000" x2="163.000000" y2="130.000000"  style="stroke:black; stroke-linecap:round; stroke-width:0.25;"/>
<line x1="153.000000" y1="162.000000" x2="163.000000" y2="162.000000"  style="stroke:black; stroke-linecap:round; stroke-width:0.25;"/>
<line x1="153.000000" y1="194.000000" x2="163.000000" y2="194.000000"  style="stroke:black; stroke-linecap:round; stroke-width:0.25;"/>
<line x1="153.000000" y1="226.000000" x2="163.000000" y2="226.000000"  style="stroke:black; stroke-linecap:round; stroke-width:0.25;"/>
<line x1="163.000000" y1="66.000000" x2="173.000000" y2="66.000000"  style="stroke:black; stroke-linecap:round; stroke-width:0.25;"/>
<line x1="163.000000" y1="98.000000" x2="173.000000" y2="98.000000"  style="stroke:black; stroke-linecap:round; stroke-width:0.25;"/>
<line x1="163.000000" y1="130.000000" x2="173.000000" y2="130.000000"  style="stroke:black; stroke-linecap:round; stroke-width:0.25;"/>
<line x1="163.000000" y1="162.000000" x2="173.000000" y2="162.000000"  style="stroke:black; stroke-linecap:round; stroke-width:0.25;"/>
<line x1="163.000000" y1="194.000000" x2="173.000000" y2="194.000000"  style="stroke:black; stroke-linecap:round; stroke-width:0.25;"/>
<line x1="163.000000" y1="226.000000" x2="173.000000" y2="226.000000"  style="stroke:black; stroke-linecap:round; stroke-width:0.25;"/>
<line x1="173.000000" y1="66.000000" x2="183.000000" y2="66.000000"  style="stroke:black; stroke-linecap:round; stroke-width:0.25;"/>
<line x1="173.000000" y1="98.000000" x2="183.000000" y2="98.000000"  style="stroke:black; stroke-linecap:round; stroke-width:0.25;"/>
<line x1="173.000000" y1="130.000000" x2="183.000000" y2="130.000000"  style="stroke:black; stroke-linecap:round; stroke-width:0.25;"/>
<line x1="173.000000" y1="162.000000" x2="183.000000" y2="162.000000"  style="stroke:black; stroke-linecap:round; stroke-width:0.25;"/>
<line x1="173.000000" y1="194.000000" x2="183.000000" y2="194.000000"  style="stroke:black; stroke-linecap:round; stroke-width:0.25;"/>
<line x1="173.000000" y1="226.000000" x2="183.000000" y2="226.000000"  style="stroke:black; stroke-linecap:round; stroke-width:0.25;"/>
<line x1="183.000000" y1="66.000000" x2="207.000000" y2="66.000000"  style="stroke:black; stroke-linecap:round; stroke-width:0.25;"/>
<line x1="183.000000" y1="98.000000" x2="199.000000" y2="98.000000"  style="stroke:black; stroke-linecap:round; stroke-width:0.25;"/>
<line x1="183.000000" y1="130.000000" x2="191.000000" y2="130.000000"  style="stroke:black; stroke-linecap:round; stroke-width:0.25;"/>
<line x1="183.000000" y1="150.000000" x2="207.000000" y2="150.000000"  style="stroke:black; stroke-linecap:round; stroke-width:0.25;"/>
<line x1="183.000000" y1="162.000000" x2="183.000000" y2="150.000000"  style="stroke:black; stroke-linecap:round; stroke-width:0.25;"/>
<line x1="183.000000" y1="162.000000" x2="183.000000" y2="162.000000"  style="stroke:black; stroke-linecap:round; stroke-width:0.25;"/>
<line x1="183.000000" y1="194.000000" x2="191.000000" y2="194.000000"  style="stroke:black; stroke-linecap:round; stroke-width:0.25;"/>
<line x1="183.000000" y1="226.000000" x2="199.000000" y2="226.000000"  style="stroke:black; stroke-linecap:round; stroke-width:0.25;"/>
<line x1="191.000000" y1="130.000000" x2="191.000000" y2="142.000000"  style="stroke:black; stroke-linecap:round; stroke-width:0.25;"/>
<line x1="191.000000" y1="142.000000" x2="207.000000" y2="142.000000"  style="stroke:black; stroke-linecap:round; stroke-width:0.25;"/>
<line x1="191.000000" y1="158.000000" x2="207.000000" y2="158.000000"  style="stroke:black; stroke-linecap:round; stroke-width:0.25;"/>
<line x1="191.000000" y1="194.000000" x2="191.000000" y2="158.000000"  style="stroke:black; stroke-linecap:round; stroke-width:0.25;"/>
<line x1="199.000000" y1="98.000000" x2="199.000000" y2="134.000000"  style="stroke:black; stroke-linecap:round; stroke-width:0.25;"/>
<line x1="199.000000" y1="134.000000" x2="207.000000" y2="134.000000"  style="stroke:black; stroke-linecap:round; stroke-width:0.25;"/>
<line x1="199.000000" y1="166.000000" x2="207.000000" y2="166.000000"  style="stroke:black; stroke-linecap:round; stroke-width:0.25;"/>
<line x1="199.000000" y1="226.000000" x2="199.000000" y2="166.000000"  style="stroke:black; stroke-linecap:round; stroke-width:0.25;"/>
<line x1="207.000000" y1="66.000000" x2="207.000000" y2="126.000000"  style="stroke:black; stroke-linecap:round; stroke-width:0.25;"/>
<line x1="207.000000" y1="126.000000" x2="207.000000" y2="126.000000"  style="stroke:black; stroke-linecap:round; stroke-width:0.25;"/>
<line x1="207.000000" y1="126.000000" x2="211.000000" y2="126.000000"  style="stroke:black; stroke-linecap:round; stroke-width:0.25;"/>
<line x1="207.000000" y1="134.000000" x2="211.000000" y2="134.000000"  style="stroke:black; stroke-linecap:round; stroke-width:0.25;"/>
<line x1="207.000000" y1="142.000000" x2="211.000000" y2="142.000000"  style="stroke:black; stroke-linecap:round; stroke-width:0.25;"/>
<line x1="207.000000" y1="150.000000" x2="211.000000" y2="150.000000"  style="stroke:black; stroke-linecap:round; stroke-width:0.25;"/>
<line x1="207.000000" y1="158.000000" x2="211.000000" y2="158.000000"  style="stroke:black; stroke-linecap:round; stroke-width:0.25;"/>
<line x1="207.000000" y1="166.000000" x2="211.000000" y2="166.000000"  style="stroke:black; stroke-linecap:round; stroke-width:0.25;"/>
<line x1="211.000000" y1="126.000000" x2="215.000000" y2="126.000000"  style="stroke:black; stroke-linecap:round; stroke-width:0.25;"/>
<line x1="211.000000" y1="134.000000" x2="215.000000" y2="134.000000"  style="stroke:black; stroke-linecap:round; stroke-width:0.25;"/>
<line x1="211.000000" y1="142.000000" x2="215.000000" y2="142.000000"  style="stroke:black; stroke-linecap:round; stroke-width:0.25;"/>
<line x1="211.000000" y1="150.000000" x2="215.000000" y2="150.000000"  style="stroke:black; stroke-linecap:round; stroke-width:0.25;"/>
<line x1="211.000000" y1="158.000000" x2="215.000000" y2="158.000000"  style="stroke:black; stroke-linecap:round; stroke-width:0.25;"/>
<line x1="211.000000" y1="166.000000" x2="215.000000" y2="166.000000"  style="stroke:black; stroke-linecap:round; stroke-width:0.25;"/>
<line x1="215.000000" y1="126.000000" x2="225.000000" y2="126.000000"  style="stroke:black; stroke-linecap:round; stroke-width:0.25;"/>
<line x1="215.000000" y1="134.000000" x2="225.000000" y2="134.000000"  style="stroke:black; stroke-linecap:round; stroke-width:0.25;"/>
<line x1="215.000000" y1="142.000000" x2="225.000000" y2="142.000000"  style="stroke:black; stroke-linecap:round; stroke-width:0.25;"/>
<line x1="215.000000" y1="150.000000" x2="225.000000" y2="150.000000"  style="stroke:black; stroke-linecap:round; stroke-width:0.25;"/>
<line x1="215.000000" y1="158.000000" x2="225.000000" y2="158.000000"  style="stroke:black; stroke-linecap:round; stroke-width:0.25;"/>
<line x1="215.000000" y1="166.000000" x2="225.000000" y2="166.000000"  style="stroke:black; stroke-linecap:round; stroke-width:0.25;"/>
</svg>
