<?xml version="1.0"?>
<svg xmlns="http://www.w3.org/2000/svg" xmlns:xlink="http://www.w3.org/1999/xlink" viewBox="0 0 257.000000 80.000000" width="128.500000mm" height="40.000000mm" version="1.1">
<a xlink:href="process.svg">
<rect x="1.000000" y="1.000000" width="256.000000" height="79.000000" rx="0" ry="0" style="stroke:none;fill:#cccccc;"/>
<rect x="0.000000" y="0.000000" width="256.000000" height="79.000000" rx="0" ry="0" style="stroke:none;fill:#ffffff;"/>
</a>
<text x="10.000000" y="7.000000" font-family="Arial" font-size="7"></text>
<a xlink:href="selectn-0x7faa77631590.svg">
<rect x="33.000000" y="29.000000" width="64.500000" height="24.000000" rx="0" ry="0" style="stroke:none;fill:#cccccc;"/>
<rect x="32.000000" y="28.000000" width="64.500000" height="24.000000" rx="0" ry="0" style="stroke:none;fill:#003366;"/>
</a>
<a xlink:href="selectn-0x7faa77631590.svg">
<text x="64.250000" y="42.000000" font-family="Arial" font-size="7" text-anchor="middle" fill="#FFFFFF">selectn(3)(0)</text>
</a>
<circle cx="34.000000" cy="30.000000" r="1"/>
<line x1="29.000000" y1="31.000000" x2="32.000000" y2="32.000000"  transform="rotate(0.000000,32.000000,32.000000)" style="stroke: black; stroke-width:0.25;"/>
<line x1="29.000000" y1="33.000000" x2="32.000000" y2="32.000000"  transform="rotate(0.000000,32.000000,32.000000)" style="stroke: black; stroke-width:0.25;"/>
<line x1="29.000000" y1="39.000000" x2="32.000000" y2="40.000000"  transform="rotate(0.000000,32.000000,40.000000)" style="stroke: black; stroke-width:0.25;"/>
<line x1="29.000000" y1="41.000000" x2="32.000000" y2="40.000000"  transform="rotate(0.000000,32.000000,40.000000)" style="stroke: black; stroke-width:0.25;"/>
<line x1="29.000000" y1="47.000000" x2="32.000000" y2="48.000000"  transform="rotate(0.000000,32.000000,48.000000)" style="stroke: black; stroke-width:0.25;"/>
<line x1="29.000000" y1="49.000000" x2="32.000000" y2="48.000000"  transform="rotate(0.000000,32.000000,48.000000)" style="stroke: black; stroke-width:0.25;"/>
<a xlink:href="in-0x7faa77635360.svg">
<rect x="113.500000" y="33.000000" width="38.700000" height="24.000000" rx="0" ry="0" style="stroke:none;fill:#cccccc;"/>
<rect x="112.500000" y="32.000000" width="38.700000" height="24.000000" rx="0" ry="0" style="stroke:none;fill:#003366;"/>
</a>
<a xlink:href="in-0x7faa77635360.svg">
<text x="131.850000" y="46.000000" font-family="Arial" font-size="7" text-anchor="middle" fill="#FFFFFF">in_gain</text>
</a>
<circle cx="114.500000" cy="34.000000" r="1"/>
<rect x="168.200000" y="29.000000" width="24.000000" height="24.000000" rx="0" ry="0" style="stroke:none;fill:#cccccc;"/>
<rect x="167.200000" y="28.000000" width="24.000000" height="24.000000" rx="0" ry="0" style="stroke:none;fill:#4B71A1;"/>
<text x="179.200000" y="42.000000" font-family="Arial" font-size="7" text-anchor="middle" fill="#FFFFFF">*</text>
<circle cx="169.200000" cy="30.000000" r="1"/>
<line x1="164.200000" y1="35.000000" x2="167.200000" y2="36.000000"  transform="rotate(0.000000,167.200000,36.000000)" style="stroke: black; stroke-width:0.25;"/>
<line x1="164.200000" y1="37.000000" x2="167.200000" y2="36.000000"  transform="rotate(0.000000,167.200000,36.000000)" style="stroke: black; stroke-width:0.25;"/>
<line x1="164.200000" y1="43.000000" x2="167.200000" y2="44.000000"  transform="rotate(0.000000,167.200000,44.000000)" style="stroke: black; stroke-width:0.25;"/>
<line x1="164.200000" y1="45.000000" x2="167.200000" y2="44.000000"  transform="rotate(0.000000,167.200000,44.000000)" style="stroke: black; stroke-width:0.25;"/>
<a xlink:href="hmeter-0x7faa7998ec60.svg">
<rect x="200.200000" y="29.000000" width="25.800000" height="24.000000" rx="0" ry="0" style="stroke:none;fill:#cccccc;"/>
<rect x="199.200000" y="28.000000" width="25.800000" height="24.000000" rx="0" ry="0" style="stroke:none;fill:#003366;"/>
</a>
<a xlink:href="hmeter-0x7faa7998ec60.svg">
<text x="212.100000" y="42.000000" font-family="Arial" font-size="7" text-anchor="middle" fill="#FFFFFF">hmeter</text>
</a>
<circle cx="201.200000" cy="30.000000" r="1"/>
<line x1="196.200000" y1="39.000000" x2="199.200000" y2="40.000000"  transform="rotate(0.000000,199.200000,40.000000)" style="stroke: black; stroke-width:0.25;"/>
<line x1="196.200000" y1="41.000000" x2="199.200000" y2="40.000000"  transform="rotate(0.000000,199.200000,40.000000)" style="stroke: black; stroke-width:0.25;"/>
<line x1="15.000000" y1="15.000000" x2="15.000000" y2="65.000000"  style="stroke: black; stroke-linecap:round; stroke-width:0.25; stroke-dasharray:3,3;"/>
<line x1="15.000000" y1="65.000000" x2="242.000000" y2="65.000000"  style="stroke: black; stroke-linecap:round; stroke-width:0.25; stroke-dasharray:3,3;"/>
<line x1="242.000000" y1="65.000000" x2="242.000000" y2="15.000000"  style="stroke: black; stroke-linecap:round; stroke-width:0.25; stroke-dasharray:3,3;"/>
<line x1="15.000000" y1="15.000000" x2="20.000000" y2="15.000000"  style="stroke: black; stroke-linecap:round; stroke-width:0.25; stroke-dasharray:3,3;"/>
<line x1="55.475000" y1="15.000000" x2="242.000000" y2="15.000000"  style="stroke: black; stroke-linecap:round; stroke-width:0.25; stroke-dasharray:3,3;"/>
<text x="20.000000" y="17.000000" font-family="Arial" font-size="7">flute_sel</text>
<line x1="244.000000" y1="39.000000" x2="247.000000" y2="40.000000"  transform="rotate(0.000000,247.000000,40.000000)" style="stroke: black; stroke-width:0.25;"/>
<line x1="244.000000" y1="41.000000" x2="247.000000" y2="40.000000"  transform="rotate(0.000000,247.000000,40.000000)" style="stroke: black; stroke-width:0.25;"/>
<line x1="10.000000" y1="32.000000" x2="20.000000" y2="32.000000"  style="stroke:black; stroke-linecap:round; stroke-width:0.25;"/>
<line x1="10.000000" y1="40.000000" x2="20.000000" y2="40.000000"  style="stroke:black; stroke-linecap:round; stroke-width:0.25;"/>
<line x1="10.000000" y1="48.000000" x2="20.000000" y2="48.000000"  style="stroke:black; stroke-linecap:round; stroke-width:0.25;"/>
<line x1="20.000000" y1="32.000000" x2="24.000000" y2="32.000000"  style="stroke:black; stroke-linecap:round; stroke-width:0.25;"/>
<line x1="20.000000" y1="40.000000" x2="24.000000" y2="40.000000"  style="stroke:black; stroke-linecap:round; stroke-width:0.25;"/>
<line x1="20.000000" y1="48.000000" x2="24.000000" y2="48.000000"  style="stroke:black; stroke-linecap:round; stroke-width:0.25;"/>
<line x1="24.000000" y1="32.000000" x2="28.000000" y2="32.000000"  style="stroke:black; stroke-linecap:round; stroke-width:0.25;"/>
<line x1="24.000000" y1="40.000000" x2="28.000000" y2="40.000000"  style="stroke:black; stroke-linecap:round; stroke-width:0.25;"/>
<line x1="24.000000" y1="48.000000" x2="28.000000" y2="48.000000"  style="stroke:black; stroke-linecap:round; stroke-width:0.25;"/>
<line x1="28.000000" y1="32.000000" x2="28.000000" y2="32.000000"  style="stroke:black; stroke-linecap:round; stroke-width:0.25;"/>
<line x1="28.000000" y1="32.000000" x2="32.000000" y2="32.000000"  style="stroke:black; stroke-linecap:round; stroke-width:0.25;"/>
<line x1="28.000000" y1="40.000000" x2="28.000000" y2="40.000000"  style="stroke:black; stroke-linecap:round; stroke-width:0.25;"/>
<line x1="28.000000" y1="40.000000" x2="32.000000" y2="40.000000"  style="stroke:black; stroke-linecap:round; stroke-width:0.25;"/>
<line x1="28.000000" y1="48.000000" x2="28.000000" y2="48.000000"  style="stroke:black; stroke-linecap:round; stroke-width:0.25;"/>
<line x1="28.000000" y1="48.000000" x2="32.000000" y2="48.000000"  style="stroke:black; stroke-linecap:round; stroke-width:0.25;"/>
<line x1="96.500000" y1="40.000000" x2="100.500000" y2="40.000000"  style="stroke:black; stroke-linecap:round; stroke-width:0.25;"/>
<line x1="100.500000" y1="24.000000" x2="108.500000" y2="24.000000"  style="stroke:black; stroke-linecap:round; stroke-width:0.25;"/>
<line x1="100.500000" y1="40.000000" x2="100.500000" y2="24.000000"  style="stroke:black; stroke-linecap:round; stroke-width:0.25;"/>
<line x1="100.500000" y1="40.000000" x2="100.500000" y2="40.000000"  style="stroke:black; stroke-linecap:round; stroke-width:0.25;"/>
<line x1="108.500000" y1="24.000000" x2="131.850000" y2="24.000000"  style="stroke:black; stroke-linecap:round; stroke-width:0.25;"/>
<line x1="131.850000" y1="24.000000" x2="155.200000" y2="24.000000"  style="stroke:black; stroke-linecap:round; stroke-width:0.25;"/>
<line x1="151.200000" y1="44.000000" x2="155.200000" y2="44.000000"  style="stroke:black; stroke-linecap:round; stroke-width:0.25;"/>
<line x1="155.200000" y1="24.000000" x2="163.200000" y2="24.000000"  style="stroke:black; stroke-linecap:round; stroke-width:0.25;"/>
<line x1="155.200000" y1="44.000000" x2="163.200000" y2="44.000000"  style="stroke:black; stroke-linecap:round; stroke-width:0.25;"/>
<line x1="163.200000" y1="24.000000" x2="163.200000" y2="36.000000"  style="stroke:black; stroke-linecap:round; stroke-width:0.25;"/>
<line x1="163.200000" y1="36.000000" x2="163.200000" y2="36.000000"  style="stroke:black; stroke-linecap:round; stroke-width:0.25;"/>
<line x1="163.200000" y1="36.000000" x2="167.200000" y2="36.000000"  style="stroke:black; stroke-linecap:round; stroke-width:0.25;"/>
<line x1="163.200000" y1="44.000000" x2="167.200000" y2="44.000000"  style="stroke:black; stroke-linecap:round; stroke-width:0.25;"/>
<line x1="191.200000" y1="40.000000" x2="195.200000" y2="40.000000"  style="stroke:black; stroke-linecap:round; stroke-width:0.25;"/>
<line x1="195.200000" y1="40.000000" x2="195.200000" y2="40.000000"  style="stroke:black; stroke-linecap:round; stroke-width:0.25;"/>
<line x1="195.200000" y1="40.000000" x2="199.200000" y2="40.000000"  style="stroke:black; stroke-linecap:round; stroke-width:0.25;"/>
<line x1="225.000000" y1="40.000000" x2="229.000000" y2="40.000000"  style="stroke:black; stroke-linecap:round; stroke-width:0.25;"/>
<line x1="229.000000" y1="40.000000" x2="229.000000" y2="40.000000"  style="stroke:black; stroke-linecap:round; stroke-width:0.25;"/>
<line x1="229.000000" y1="40.000000" x2="233.000000" y2="40.000000"  style="stroke:black; stroke-linecap:round; stroke-width:0.25;"/>
<line x1="233.000000" y1="40.000000" x2="237.000000" y2="40.000000"  style="stroke:black; stroke-linecap:round; stroke-width:0.25;"/>
<line x1="237.000000" y1="40.000000" x2="247.000000" y2="40.000000"  style="stroke:black; stroke-linecap:round; stroke-width:0.25;"/>
</svg>
