<?xml version="1.0"?>
<svg xmlns="http://www.w3.org/2000/svg" xmlns:xlink="http://www.w3.org/1999/xlink" viewBox="0 0 360.200000 80.000000" width="180.100000mm" height="40.000000mm" version="1.1">
<a xlink:href="gs-0x7fb96f5952a0.svg">
<rect x="1.000000" y="1.000000" width="359.200000" height="79.000000" rx="0" ry="0" style="stroke:none;fill:#cccccc;"/>
<rect x="0.000000" y="0.000000" width="359.200000" height="79.000000" rx="0" ry="0" style="stroke:none;fill:#ffffff;"/>
</a>
<text x="10.000000" y="7.000000" font-family="Arial" font-size="7"></text>
<a xlink:href="compressor-0x7fb96f5836c0.svg">
<rect x="33.000000" y="29.000000" width="129.000000" height="24.000000" rx="0" ry="0" style="stroke:none;fill:#cccccc;"/>
<rect x="32.000000" y="28.000000" width="129.000000" height="24.000000" rx="0" ry="0" style="stroke:none;fill:#003366;"/>
</a>
<a xlink:href="compressor-0x7fb96f5836c0.svg">
<text x="96.500000" y="42.000000" font-family="Arial" font-size="7" text-anchor="middle" fill="#FFFFFF">compressor_mo...: /),_ : max)</text>
</a>
<circle cx="34.000000" cy="30.000000" r="1"/>
<line x1="29.000000" y1="39.000000" x2="32.000000" y2="40.000000"  transform="rotate(0.000000,32.000000,40.000000)" style="stroke: black; stroke-width:0.25;"/>
<line x1="29.000000" y1="41.000000" x2="32.000000" y2="40.000000"  transform="rotate(0.000000,32.000000,40.000000)" style="stroke: black; stroke-width:0.25;"/>
<a xlink:href="displaygain-0x7fb96f58a3c0.svg">
<rect x="170.000000" y="29.000000" width="51.600000" height="24.000000" rx="0" ry="0" style="stroke:none;fill:#cccccc;"/>
<rect x="169.000000" y="28.000000" width="51.600000" height="24.000000" rx="0" ry="0" style="stroke:none;fill:#003366;"/>
</a>
<a xlink:href="displaygain-0x7fb96f58a3c0.svg">
<text x="194.800000" y="42.000000" font-family="Arial" font-size="7" text-anchor="middle" fill="#FFFFFF">displaygain</text>
</a>
<circle cx="171.000000" cy="30.000000" r="1"/>
<line x1="166.000000" y1="39.000000" x2="169.000000" y2="40.000000"  transform="rotate(0.000000,169.000000,40.000000)" style="stroke: black; stroke-width:0.25;"/>
<line x1="166.000000" y1="41.000000" x2="169.000000" y2="40.000000"  transform="rotate(0.000000,169.000000,40.000000)" style="stroke: black; stroke-width:0.25;"/>
<a xlink:href="makeupgain-0x7fb96f58b5d0.svg">
<rect x="237.600000" y="33.000000" width="51.600000" height="24.000000" rx="0" ry="0" style="stroke:none;fill:#cccccc;"/>
<rect x="236.600000" y="32.000000" width="51.600000" height="24.000000" rx="0" ry="0" style="stroke:none;fill:#003366;"/>
</a>
<a xlink:href="makeupgain-0x7fb96f58b5d0.svg">
<text x="262.400000" y="46.000000" font-family="Arial" font-size="7" text-anchor="middle" fill="#FFFFFF">makeupgain</text>
</a>
<circle cx="238.600000" cy="34.000000" r="1"/>
<rect x="305.200000" y="29.000000" width="24.000000" height="24.000000" rx="0" ry="0" style="stroke:none;fill:#cccccc;"/>
<rect x="304.200000" y="28.000000" width="24.000000" height="24.000000" rx="0" ry="0" style="stroke:none;fill:#4B71A1;"/>
<text x="316.200000" y="42.000000" font-family="Arial" font-size="7" text-anchor="middle" fill="#FFFFFF">*</text>
<circle cx="306.200000" cy="30.000000" r="1"/>
<line x1="301.200000" y1="35.000000" x2="304.200000" y2="36.000000"  transform="rotate(0.000000,304.200000,36.000000)" style="stroke: black; stroke-width:0.25;"/>
<line x1="301.200000" y1="37.000000" x2="304.200000" y2="36.000000"  transform="rotate(0.000000,304.200000,36.000000)" style="stroke: black; stroke-width:0.25;"/>
<line x1="301.200000" y1="43.000000" x2="304.200000" y2="44.000000"  transform="rotate(0.000000,304.200000,44.000000)" style="stroke: black; stroke-width:0.25;"/>
<line x1="301.200000" y1="45.000000" x2="304.200000" y2="44.000000"  transform="rotate(0.000000,304.200000,44.000000)" style="stroke: black; stroke-width:0.25;"/>
<line x1="15.000000" y1="15.000000" x2="15.000000" y2="65.000000"  style="stroke: black; stroke-linecap:round; stroke-width:0.25; stroke-dasharray:3,3;"/>
<line x1="15.000000" y1="65.000000" x2="345.200000" y2="65.000000"  style="stroke: black; stroke-linecap:round; stroke-width:0.25; stroke-dasharray:3,3;"/>
<line x1="345.200000" y1="65.000000" x2="345.200000" y2="15.000000"  style="stroke: black; stroke-linecap:round; stroke-width:0.25; stroke-dasharray:3,3;"/>
<line x1="15.000000" y1="15.000000" x2="20.000000" y2="15.000000"  style="stroke: black; stroke-linecap:round; stroke-width:0.25; stroke-dasharray:3,3;"/>
<line x1="84.500000" y1="15.000000" x2="345.200000" y2="15.000000"  style="stroke: black; stroke-linecap:round; stroke-width:0.25; stroke-dasharray:3,3;"/>
<text x="20.000000" y="17.000000" font-family="Arial" font-size="7">gs_mono_compressor</text>
<line x1="347.200000" y1="39.000000" x2="350.200000" y2="40.000000"  transform="rotate(0.000000,350.200000,40.000000)" style="stroke: black; stroke-width:0.25;"/>
<line x1="347.200000" y1="41.000000" x2="350.200000" y2="40.000000"  transform="rotate(0.000000,350.200000,40.000000)" style="stroke: black; stroke-width:0.25;"/>
<line x1="10.000000" y1="40.000000" x2="20.000000" y2="40.000000"  style="stroke:black; stroke-linecap:round; stroke-width:0.25;"/>
<line x1="20.000000" y1="40.000000" x2="24.000000" y2="40.000000"  style="stroke:black; stroke-linecap:round; stroke-width:0.25;"/>
<line x1="24.000000" y1="40.000000" x2="28.000000" y2="40.000000"  style="stroke:black; stroke-linecap:round; stroke-width:0.25;"/>
<line x1="28.000000" y1="40.000000" x2="28.000000" y2="40.000000"  style="stroke:black; stroke-linecap:round; stroke-width:0.25;"/>
<line x1="28.000000" y1="40.000000" x2="32.000000" y2="40.000000"  style="stroke:black; stroke-linecap:round; stroke-width:0.25;"/>
<line x1="161.000000" y1="40.000000" x2="165.000000" y2="40.000000"  style="stroke:black; stroke-linecap:round; stroke-width:0.25;"/>
<line x1="165.000000" y1="40.000000" x2="165.000000" y2="40.000000"  style="stroke:black; stroke-linecap:round; stroke-width:0.25;"/>
<line x1="165.000000" y1="40.000000" x2="169.000000" y2="40.000000"  style="stroke:black; stroke-linecap:round; stroke-width:0.25;"/>
<line x1="220.600000" y1="40.000000" x2="224.600000" y2="40.000000"  style="stroke:black; stroke-linecap:round; stroke-width:0.25;"/>
<line x1="224.600000" y1="24.000000" x2="232.600000" y2="24.000000"  style="stroke:black; stroke-linecap:round; stroke-width:0.25;"/>
<line x1="224.600000" y1="40.000000" x2="224.600000" y2="24.000000"  style="stroke:black; stroke-linecap:round; stroke-width:0.25;"/>
<line x1="224.600000" y1="40.000000" x2="224.600000" y2="40.000000"  style="stroke:black; stroke-linecap:round; stroke-width:0.25;"/>
<line x1="232.600000" y1="24.000000" x2="262.400000" y2="24.000000"  style="stroke:black; stroke-linecap:round; stroke-width:0.25;"/>
<line x1="262.400000" y1="24.000000" x2="292.200000" y2="24.000000"  style="stroke:black; stroke-linecap:round; stroke-width:0.25;"/>
<line x1="288.200000" y1="44.000000" x2="292.200000" y2="44.000000"  style="stroke:black; stroke-linecap:round; stroke-width:0.25;"/>
<line x1="292.200000" y1="24.000000" x2="300.200000" y2="24.000000"  style="stroke:black; stroke-linecap:round; stroke-width:0.25;"/>
<line x1="292.200000" y1="44.000000" x2="300.200000" y2="44.000000"  style="stroke:black; stroke-linecap:round; stroke-width:0.25;"/>
<line x1="300.200000" y1="24.000000" x2="300.200000" y2="36.000000"  style="stroke:black; stroke-linecap:round; stroke-width:0.25;"/>
<line x1="300.200000" y1="36.000000" x2="300.200000" y2="36.000000"  style="stroke:black; stroke-linecap:round; stroke-width:0.25;"/>
<line x1="300.200000" y1="36.000000" x2="304.200000" y2="36.000000"  style="stroke:black; stroke-linecap:round; stroke-width:0.25;"/>
<line x1="300.200000" y1="44.000000" x2="304.200000" y2="44.000000"  style="stroke:black; stroke-linecap:round; stroke-width:0.25;"/>
<line x1="328.200000" y1="40.000000" x2="332.200000" y2="40.000000"  style="stroke:black; stroke-linecap:round; stroke-width:0.25;"/>
<line x1="332.200000" y1="40.000000" x2="332.200000" y2="40.000000"  style="stroke:black; stroke-linecap:round; stroke-width:0.25;"/>
<line x1="332.200000" y1="40.000000" x2="336.200000" y2="40.000000"  style="stroke:black; stroke-linecap:round; stroke-width:0.25;"/>
<line x1="336.200000" y1="40.000000" x2="340.200000" y2="40.000000"  style="stroke:black; stroke-linecap:round; stroke-width:0.25;"/>
<line x1="340.200000" y1="40.000000" x2="350.200000" y2="40.000000"  style="stroke:black; stroke-linecap:round; stroke-width:0.25;"/>
</svg>
