<?xml version="1.0"?>
<svg xmlns="http://www.w3.org/2000/svg" xmlns:xlink="http://www.w3.org/1999/xlink" viewBox="0 0 451.800000 232.000000" width="225.900000mm" height="116.000000mm" version="1.1">
<a xlink:href="if-0x7fb7b19a0c20.svg">
<rect x="1.000000" y="1.000000" width="450.800000" height="231.000000" rx="0" ry="0" style="stroke:none;fill:#cccccc;"/>
<rect x="0.000000" y="0.000000" width="450.800000" height="231.000000" rx="0" ry="0" style="stroke:none;fill:#ffffff;"/>
</a>
<text x="10.000000" y="7.000000" font-family="Arial" font-size="7"></text>
<rect x="139.550000" y="25.000000" width="24.000000" height="24.000000" rx="0" ry="0" style="stroke:none;fill:#cccccc;"/>
<rect x="138.550000" y="24.000000" width="24.000000" height="24.000000" rx="0" ry="0" style="stroke:none;fill:#47945E;"/>
<text x="150.550000" y="38.000000" font-family="Arial" font-size="7" text-anchor="middle" fill="#FFFFFF">ip</text>
<circle cx="140.550000" cy="26.000000" r="1"/>
<rect x="139.550000" y="57.000000" width="24.000000" height="24.000000" rx="0" ry="0" style="stroke:none;fill:#cccccc;"/>
<rect x="138.550000" y="56.000000" width="24.000000" height="24.000000" rx="0" ry="0" style="stroke:none;fill:#f44800;"/>
<text x="150.550000" y="70.000000" font-family="Arial" font-size="7" text-anchor="middle" fill="#FFFFFF">1</text>
<circle cx="140.550000" cy="58.000000" r="1"/>
<rect x="179.550000" y="41.000000" width="24.000000" height="24.000000" rx="0" ry="0" style="stroke:none;fill:#cccccc;"/>
<rect x="178.550000" y="40.000000" width="24.000000" height="24.000000" rx="0" ry="0" style="stroke:none;fill:#4B71A1;"/>
<text x="190.550000" y="54.000000" font-family="Arial" font-size="7" text-anchor="middle" fill="#FFFFFF">==</text>
<circle cx="180.550000" cy="42.000000" r="1"/>
<line x1="175.550000" y1="47.000000" x2="178.550000" y2="48.000000"  transform="rotate(0.000000,178.550000,48.000000)" style="stroke: black; stroke-width:0.25;"/>
<line x1="175.550000" y1="49.000000" x2="178.550000" y2="48.000000"  transform="rotate(0.000000,178.550000,48.000000)" style="stroke: black; stroke-width:0.25;"/>
<line x1="175.550000" y1="55.000000" x2="178.550000" y2="56.000000"  transform="rotate(0.000000,178.550000,56.000000)" style="stroke: black; stroke-width:0.25;"/>
<line x1="175.550000" y1="57.000000" x2="178.550000" y2="56.000000"  transform="rotate(0.000000,178.550000,56.000000)" style="stroke: black; stroke-width:0.25;"/>
<rect x="25.000000" y="89.000000" width="206.400000" height="24.000000" rx="0" ry="0" style="stroke:none;fill:#cccccc;"/>
<rect x="24.000000" y="88.000000" width="206.400000" height="24.000000" rx="0" ry="0" style="stroke:none;fill:#477881;"/>
<text x="127.200000" y="102.000000" font-family="Arial" font-size="7" text-anchor="middle" fill="#FFFFFF">nentry(distance ch5, 5.0f, 0.0f, 1e+03f, 0.1f)</text>
<circle cx="26.000000" cy="90.000000" r="1"/>
<a xlink:href="mt2samp-0x7fb7afecd580.svg">
<rect x="239.400000" y="89.000000" width="38.700000" height="24.000000" rx="0" ry="0" style="stroke:none;fill:#cccccc;"/>
<rect x="238.400000" y="88.000000" width="38.700000" height="24.000000" rx="0" ry="0" style="stroke:none;fill:#003366;"/>
</a>
<a xlink:href="mt2samp-0x7fb7afecd580.svg">
<text x="257.750000" y="102.000000" font-family="Arial" font-size="7" text-anchor="middle" fill="#FFFFFF">mt2samp</text>
</a>
<circle cx="240.400000" cy="90.000000" r="1"/>
<line x1="235.400000" y1="99.000000" x2="238.400000" y2="100.000000"  transform="rotate(0.000000,238.400000,100.000000)" style="stroke: black; stroke-width:0.25;"/>
<line x1="235.400000" y1="101.000000" x2="238.400000" y2="100.000000"  transform="rotate(0.000000,238.400000,100.000000)" style="stroke: black; stroke-width:0.25;"/>
<rect x="139.550000" y="121.000000" width="24.000000" height="24.000000" rx="0" ry="0" style="stroke:none;fill:#cccccc;"/>
<rect x="138.550000" y="120.000000" width="24.000000" height="24.000000" rx="0" ry="0" style="stroke:none;fill:#47945E;"/>
<text x="150.550000" y="134.000000" font-family="Arial" font-size="7" text-anchor="middle" fill="#FFFFFF">d1</text>
<circle cx="140.550000" cy="122.000000" r="1"/>
<rect x="294.100000" y="105.000000" width="24.000000" height="24.000000" rx="0" ry="0" style="stroke:none;fill:#cccccc;"/>
<rect x="293.100000" y="104.000000" width="24.000000" height="24.000000" rx="0" ry="0" style="stroke:none;fill:#4B71A1;"/>
<text x="305.100000" y="118.000000" font-family="Arial" font-size="7" text-anchor="middle" fill="#FFFFFF">!=</text>
<circle cx="295.100000" cy="106.000000" r="1"/>
<line x1="290.100000" y1="111.000000" x2="293.100000" y2="112.000000"  transform="rotate(0.000000,293.100000,112.000000)" style="stroke: black; stroke-width:0.25;"/>
<line x1="290.100000" y1="113.000000" x2="293.100000" y2="112.000000"  transform="rotate(0.000000,293.100000,112.000000)" style="stroke: black; stroke-width:0.25;"/>
<line x1="290.100000" y1="119.000000" x2="293.100000" y2="120.000000"  transform="rotate(0.000000,293.100000,120.000000)" style="stroke: black; stroke-width:0.25;"/>
<line x1="290.100000" y1="121.000000" x2="293.100000" y2="120.000000"  transform="rotate(0.000000,293.100000,120.000000)" style="stroke: black; stroke-width:0.25;"/>
<rect x="334.100000" y="73.000000" width="24.000000" height="24.000000" rx="0" ry="0" style="stroke:none;fill:#cccccc;"/>
<rect x="333.100000" y="72.000000" width="24.000000" height="24.000000" rx="0" ry="0" style="stroke:none;fill:#4B71A1;"/>
<text x="345.100000" y="86.000000" font-family="Arial" font-size="7" text-anchor="middle" fill="#FFFFFF">&amp;</text>
<circle cx="335.100000" cy="74.000000" r="1"/>
<line x1="330.100000" y1="79.000000" x2="333.100000" y2="80.000000"  transform="rotate(0.000000,333.100000,80.000000)" style="stroke: black; stroke-width:0.25;"/>
<line x1="330.100000" y1="81.000000" x2="333.100000" y2="80.000000"  transform="rotate(0.000000,333.100000,80.000000)" style="stroke: black; stroke-width:0.25;"/>
<line x1="330.100000" y1="87.000000" x2="333.100000" y2="88.000000"  transform="rotate(0.000000,333.100000,88.000000)" style="stroke: black; stroke-width:0.25;"/>
<line x1="330.100000" y1="89.000000" x2="333.100000" y2="88.000000"  transform="rotate(0.000000,333.100000,88.000000)" style="stroke: black; stroke-width:0.25;"/>
<rect x="179.550000" y="153.000000" width="24.000000" height="24.000000" rx="0" ry="0" style="stroke:none;fill:#cccccc;"/>
<rect x="178.550000" y="152.000000" width="24.000000" height="24.000000" rx="0" ry="0" style="stroke:none;fill:#f44800;"/>
<text x="190.550000" y="166.000000" font-family="Arial" font-size="7" text-anchor="middle" fill="#FFFFFF">0</text>
<circle cx="180.550000" cy="154.000000" r="1"/>
<rect x="165.750000" y="185.000000" width="51.600000" height="24.000000" rx="0" ry="0" style="stroke:none;fill:#cccccc;"/>
<rect x="164.750000" y="184.000000" width="51.600000" height="24.000000" rx="0" ry="0" style="stroke:none;fill:#f44800;"/>
<text x="190.550000" y="198.000000" font-family="Arial" font-size="7" text-anchor="middle" fill="#FFFFFF">-0.000976562</text>
<circle cx="166.750000" cy="186.000000" r="1"/>
<rect x="382.100000" y="105.000000" width="38.700000" height="24.000000" rx="0" ry="0" style="stroke:none;fill:#cccccc;"/>
<rect x="381.100000" y="104.000000" width="38.700000" height="24.000000" rx="0" ry="0" style="stroke:none;fill:#4B71A1;"/>
<text x="400.450000" y="118.000000" font-family="Arial" font-size="7" text-anchor="middle" fill="#FFFFFF">select2</text>
<circle cx="383.100000" cy="106.000000" r="1"/>
<line x1="378.100000" y1="107.000000" x2="381.100000" y2="108.000000"  transform="rotate(0.000000,381.100000,108.000000)" style="stroke: black; stroke-width:0.25;"/>
<line x1="378.100000" y1="109.000000" x2="381.100000" y2="108.000000"  transform="rotate(0.000000,381.100000,108.000000)" style="stroke: black; stroke-width:0.25;"/>
<line x1="378.100000" y1="115.000000" x2="381.100000" y2="116.000000"  transform="rotate(0.000000,381.100000,116.000000)" style="stroke: black; stroke-width:0.25;"/>
<line x1="378.100000" y1="117.000000" x2="381.100000" y2="116.000000"  transform="rotate(0.000000,381.100000,116.000000)" style="stroke: black; stroke-width:0.25;"/>
<line x1="378.100000" y1="123.000000" x2="381.100000" y2="124.000000"  transform="rotate(0.000000,381.100000,124.000000)" style="stroke: black; stroke-width:0.25;"/>
<line x1="378.100000" y1="125.000000" x2="381.100000" y2="124.000000"  transform="rotate(0.000000,381.100000,124.000000)" style="stroke: black; stroke-width:0.25;"/>
<line x1="15.000000" y1="15.000000" x2="15.000000" y2="217.000000"  style="stroke: black; stroke-linecap:round; stroke-width:0.25; stroke-dasharray:3,3;"/>
<line x1="15.000000" y1="217.000000" x2="436.800000" y2="217.000000"  style="stroke: black; stroke-linecap:round; stroke-width:0.25; stroke-dasharray:3,3;"/>
<line x1="436.800000" y1="217.000000" x2="436.800000" y2="15.000000"  style="stroke: black; stroke-linecap:round; stroke-width:0.25; stroke-dasharray:3,3;"/>
<line x1="15.000000" y1="15.000000" x2="20.000000" y2="15.000000"  style="stroke: black; stroke-linecap:round; stroke-width:0.25; stroke-dasharray:3,3;"/>
<line x1="129.650000" y1="15.000000" x2="436.800000" y2="15.000000"  style="stroke: black; stroke-linecap:round; stroke-width:0.25; stroke-dasharray:3,3;"/>
<text x="20.000000" y="17.000000" font-family="Arial" font-size="7">if((x120,1.0f....0009765625f)(0)</text>
<line x1="438.800000" y1="115.000000" x2="441.800000" y2="116.000000"  transform="rotate(0.000000,441.800000,116.000000)" style="stroke: black; stroke-width:0.25;"/>
<line x1="438.800000" y1="117.000000" x2="441.800000" y2="116.000000"  transform="rotate(0.000000,441.800000,116.000000)" style="stroke: black; stroke-width:0.25;"/>
<line x1="162.550000" y1="36.000000" x2="166.550000" y2="36.000000"  style="stroke:black; stroke-linecap:round; stroke-width:0.25;"/>
<line x1="162.550000" y1="68.000000" x2="166.550000" y2="68.000000"  style="stroke:black; stroke-linecap:round; stroke-width:0.25;"/>
<line x1="162.550000" y1="132.000000" x2="166.550000" y2="132.000000"  style="stroke:black; stroke-linecap:round; stroke-width:0.25;"/>
<line x1="166.550000" y1="36.000000" x2="174.550000" y2="36.000000"  style="stroke:black; stroke-linecap:round; stroke-width:0.25;"/>
<line x1="166.550000" y1="56.000000" x2="174.550000" y2="56.000000"  style="stroke:black; stroke-linecap:round; stroke-width:0.25;"/>
<line x1="166.550000" y1="68.000000" x2="166.550000" y2="56.000000"  style="stroke:black; stroke-linecap:round; stroke-width:0.25;"/>
<line x1="166.550000" y1="68.000000" x2="166.550000" y2="68.000000"  style="stroke:black; stroke-linecap:round; stroke-width:0.25;"/>
<line x1="166.550000" y1="132.000000" x2="281.100000" y2="132.000000"  style="stroke:black; stroke-linecap:round; stroke-width:0.25;"/>
<line x1="174.550000" y1="36.000000" x2="174.550000" y2="48.000000"  style="stroke:black; stroke-linecap:round; stroke-width:0.25;"/>
<line x1="174.550000" y1="48.000000" x2="174.550000" y2="48.000000"  style="stroke:black; stroke-linecap:round; stroke-width:0.25;"/>
<line x1="174.550000" y1="48.000000" x2="178.550000" y2="48.000000"  style="stroke:black; stroke-linecap:round; stroke-width:0.25;"/>
<line x1="174.550000" y1="56.000000" x2="178.550000" y2="56.000000"  style="stroke:black; stroke-linecap:round; stroke-width:0.25;"/>
<line x1="202.550000" y1="52.000000" x2="206.550000" y2="52.000000"  style="stroke:black; stroke-linecap:round; stroke-width:0.25;"/>
<line x1="202.550000" y1="164.000000" x2="206.550000" y2="164.000000"  style="stroke:black; stroke-linecap:round; stroke-width:0.25;"/>
<line x1="206.550000" y1="52.000000" x2="321.100000" y2="52.000000"  style="stroke:black; stroke-linecap:round; stroke-width:0.25;"/>
<line x1="206.550000" y1="164.000000" x2="220.350000" y2="164.000000"  style="stroke:black; stroke-linecap:round; stroke-width:0.25;"/>
<line x1="216.350000" y1="196.000000" x2="220.350000" y2="196.000000"  style="stroke:black; stroke-linecap:round; stroke-width:0.25;"/>
<line x1="220.350000" y1="196.000000" x2="361.100000" y2="196.000000"  style="stroke:black; stroke-linecap:round; stroke-width:0.25;"/>
<line x1="220.350000" y1="164.000000" x2="361.100000" y2="164.000000"  style="stroke:black; stroke-linecap:round; stroke-width:0.25;"/>
<line x1="230.400000" y1="100.000000" x2="234.400000" y2="100.000000"  style="stroke:black; stroke-linecap:round; stroke-width:0.25;"/>
<line x1="234.400000" y1="100.000000" x2="234.400000" y2="100.000000"  style="stroke:black; stroke-linecap:round; stroke-width:0.25;"/>
<line x1="234.400000" y1="100.000000" x2="238.400000" y2="100.000000"  style="stroke:black; stroke-linecap:round; stroke-width:0.25;"/>
<line x1="277.100000" y1="100.000000" x2="281.100000" y2="100.000000"  style="stroke:black; stroke-linecap:round; stroke-width:0.25;"/>
<line x1="281.100000" y1="100.000000" x2="289.100000" y2="100.000000"  style="stroke:black; stroke-linecap:round; stroke-width:0.25;"/>
<line x1="281.100000" y1="120.000000" x2="289.100000" y2="120.000000"  style="stroke:black; stroke-linecap:round; stroke-width:0.25;"/>
<line x1="281.100000" y1="132.000000" x2="281.100000" y2="120.000000"  style="stroke:black; stroke-linecap:round; stroke-width:0.25;"/>
<line x1="281.100000" y1="132.000000" x2="281.100000" y2="132.000000"  style="stroke:black; stroke-linecap:round; stroke-width:0.25;"/>
<line x1="289.100000" y1="100.000000" x2="289.100000" y2="112.000000"  style="stroke:black; stroke-linecap:round; stroke-width:0.25;"/>
<line x1="289.100000" y1="112.000000" x2="289.100000" y2="112.000000"  style="stroke:black; stroke-linecap:round; stroke-width:0.25;"/>
<line x1="289.100000" y1="112.000000" x2="293.100000" y2="112.000000"  style="stroke:black; stroke-linecap:round; stroke-width:0.25;"/>
<line x1="289.100000" y1="120.000000" x2="293.100000" y2="120.000000"  style="stroke:black; stroke-linecap:round; stroke-width:0.25;"/>
<line x1="317.100000" y1="116.000000" x2="321.100000" y2="116.000000"  style="stroke:black; stroke-linecap:round; stroke-width:0.25;"/>
<line x1="321.100000" y1="52.000000" x2="329.100000" y2="52.000000"  style="stroke:black; stroke-linecap:round; stroke-width:0.25;"/>
<line x1="321.100000" y1="88.000000" x2="329.100000" y2="88.000000"  style="stroke:black; stroke-linecap:round; stroke-width:0.25;"/>
<line x1="321.100000" y1="116.000000" x2="321.100000" y2="88.000000"  style="stroke:black; stroke-linecap:round; stroke-width:0.25;"/>
<line x1="321.100000" y1="116.000000" x2="321.100000" y2="116.000000"  style="stroke:black; stroke-linecap:round; stroke-width:0.25;"/>
<line x1="329.100000" y1="52.000000" x2="329.100000" y2="80.000000"  style="stroke:black; stroke-linecap:round; stroke-width:0.25;"/>
<line x1="329.100000" y1="80.000000" x2="329.100000" y2="80.000000"  style="stroke:black; stroke-linecap:round; stroke-width:0.25;"/>
<line x1="329.100000" y1="80.000000" x2="333.100000" y2="80.000000"  style="stroke:black; stroke-linecap:round; stroke-width:0.25;"/>
<line x1="329.100000" y1="88.000000" x2="333.100000" y2="88.000000"  style="stroke:black; stroke-linecap:round; stroke-width:0.25;"/>
<line x1="357.100000" y1="84.000000" x2="361.100000" y2="84.000000"  style="stroke:black; stroke-linecap:round; stroke-width:0.25;"/>
<line x1="361.100000" y1="84.000000" x2="377.100000" y2="84.000000"  style="stroke:black; stroke-linecap:round; stroke-width:0.25;"/>
<line x1="361.100000" y1="116.000000" x2="377.100000" y2="116.000000"  style="stroke:black; stroke-linecap:round; stroke-width:0.25;"/>
<line x1="361.100000" y1="164.000000" x2="361.100000" y2="116.000000"  style="stroke:black; stroke-linecap:round; stroke-width:0.25;"/>
<line x1="361.100000" y1="164.000000" x2="361.100000" y2="164.000000"  style="stroke:black; stroke-linecap:round; stroke-width:0.25;"/>
<line x1="361.100000" y1="196.000000" x2="369.100000" y2="196.000000"  style="stroke:black; stroke-linecap:round; stroke-width:0.25;"/>
<line x1="369.100000" y1="124.000000" x2="377.100000" y2="124.000000"  style="stroke:black; stroke-linecap:round; stroke-width:0.25;"/>
<line x1="369.100000" y1="196.000000" x2="369.100000" y2="124.000000"  style="stroke:black; stroke-linecap:round; stroke-width:0.25;"/>
<line x1="377.100000" y1="84.000000" x2="377.100000" y2="108.000000"  style="stroke:black; stroke-linecap:round; stroke-width:0.25;"/>
<line x1="377.100000" y1="108.000000" x2="377.100000" y2="108.000000"  style="stroke:black; stroke-linecap:round; stroke-width:0.25;"/>
<line x1="377.100000" y1="108.000000" x2="381.100000" y2="108.000000"  style="stroke:black; stroke-linecap:round; stroke-width:0.25;"/>
<line x1="377.100000" y1="116.000000" x2="381.100000" y2="116.000000"  style="stroke:black; stroke-linecap:round; stroke-width:0.25;"/>
<line x1="377.100000" y1="124.000000" x2="381.100000" y2="124.000000"  style="stroke:black; stroke-linecap:round; stroke-width:0.25;"/>
<line x1="419.800000" y1="116.000000" x2="423.800000" y2="116.000000"  style="stroke:black; stroke-linecap:round; stroke-width:0.25;"/>
<line x1="423.800000" y1="116.000000" x2="423.800000" y2="116.000000"  style="stroke:black; stroke-linecap:round; stroke-width:0.25;"/>
<line x1="423.800000" y1="116.000000" x2="427.800000" y2="116.000000"  style="stroke:black; stroke-linecap:round; stroke-width:0.25;"/>
<line x1="427.800000" y1="116.000000" x2="431.800000" y2="116.000000"  style="stroke:black; stroke-linecap:round; stroke-width:0.25;"/>
<line x1="431.800000" y1="116.000000" x2="441.800000" y2="116.000000"  style="stroke:black; stroke-linecap:round; stroke-width:0.25;"/>
</svg>
