<?xml version="1.0"?>
<svg xmlns="http://www.w3.org/2000/svg" xmlns:xlink="http://www.w3.org/1999/xlink" viewBox="0 0 516.300000 232.000000" width="258.150000mm" height="116.000000mm" version="1.1">
<a xlink:href="ctrl-0x7f8c8b47c690.svg">
<rect x="1.000000" y="1.000000" width="515.300000" height="231.000000" rx="0" ry="0" style="stroke:none;fill:#cccccc;"/>
<rect x="0.000000" y="0.000000" width="515.300000" height="231.000000" rx="0" ry="0" style="stroke:none;fill:#ffffff;"/>
</a>
<text x="10.000000" y="7.000000" font-family="Arial" font-size="7"></text>
<rect x="171.800000" y="25.000000" width="24.000000" height="24.000000" rx="0" ry="0" style="stroke:none;fill:#cccccc;"/>
<rect x="170.800000" y="24.000000" width="24.000000" height="24.000000" rx="0" ry="0" style="stroke:none;fill:#47945E;"/>
<text x="182.800000" y="38.000000" font-family="Arial" font-size="7" text-anchor="middle" fill="#FFFFFF">ip</text>
<circle cx="172.800000" cy="26.000000" r="1"/>
<rect x="171.800000" y="57.000000" width="24.000000" height="24.000000" rx="0" ry="0" style="stroke:none;fill:#cccccc;"/>
<rect x="170.800000" y="56.000000" width="24.000000" height="24.000000" rx="0" ry="0" style="stroke:none;fill:#f44800;"/>
<text x="182.800000" y="70.000000" font-family="Arial" font-size="7" text-anchor="middle" fill="#FFFFFF">1</text>
<circle cx="172.800000" cy="58.000000" r="1"/>
<rect x="211.800000" y="41.000000" width="24.000000" height="24.000000" rx="0" ry="0" style="stroke:none;fill:#cccccc;"/>
<rect x="210.800000" y="40.000000" width="24.000000" height="24.000000" rx="0" ry="0" style="stroke:none;fill:#4B71A1;"/>
<text x="222.800000" y="54.000000" font-family="Arial" font-size="7" text-anchor="middle" fill="#FFFFFF">&gt;=</text>
<circle cx="212.800000" cy="42.000000" r="1"/>
<line x1="207.800000" y1="47.000000" x2="210.800000" y2="48.000000"  transform="rotate(0.000000,210.800000,48.000000)" style="stroke: black; stroke-width:0.25;"/>
<line x1="207.800000" y1="49.000000" x2="210.800000" y2="48.000000"  transform="rotate(0.000000,210.800000,48.000000)" style="stroke: black; stroke-width:0.25;"/>
<line x1="207.800000" y1="55.000000" x2="210.800000" y2="56.000000"  transform="rotate(0.000000,210.800000,56.000000)" style="stroke: black; stroke-width:0.25;"/>
<line x1="207.800000" y1="57.000000" x2="210.800000" y2="56.000000"  transform="rotate(0.000000,210.800000,56.000000)" style="stroke: black; stroke-width:0.25;"/>
<rect x="171.800000" y="89.000000" width="24.000000" height="24.000000" rx="0" ry="0" style="stroke:none;fill:#cccccc;"/>
<rect x="170.800000" y="88.000000" width="24.000000" height="24.000000" rx="0" ry="0" style="stroke:none;fill:#47945E;"/>
<text x="182.800000" y="102.000000" font-family="Arial" font-size="7" text-anchor="middle" fill="#FFFFFF">d1</text>
<circle cx="172.800000" cy="90.000000" r="1"/>
<rect x="25.000000" y="121.000000" width="270.900000" height="24.000000" rx="0" ry="0" style="stroke:none;fill:#cccccc;"/>
<rect x="24.000000" y="120.000000" width="270.900000" height="24.000000" rx="0" ry="0" style="stroke:none;fill:#477881;"/>
<text x="159.450000" y="134.000000" font-family="Arial" font-size="7" text-anchor="middle" fill="#FFFFFF">nentry(distance ch6, 6.0f, 0.0f, 1000.0f, 0.10000000000000001f)</text>
<circle cx="26.000000" cy="122.000000" r="1"/>
<a xlink:href="mt2samp-0x7f8c8a8df480.svg">
<rect x="303.900000" y="121.000000" width="38.700000" height="24.000000" rx="0" ry="0" style="stroke:none;fill:#cccccc;"/>
<rect x="302.900000" y="120.000000" width="38.700000" height="24.000000" rx="0" ry="0" style="stroke:none;fill:#003366;"/>
</a>
<a xlink:href="mt2samp-0x7f8c8a8df480.svg">
<text x="322.250000" y="134.000000" font-family="Arial" font-size="7" text-anchor="middle" fill="#FFFFFF">mt2samp</text>
</a>
<circle cx="304.900000" cy="122.000000" r="1"/>
<line x1="299.900000" y1="131.000000" x2="302.900000" y2="132.000000"  transform="rotate(0.000000,302.900000,132.000000)" style="stroke: black; stroke-width:0.25;"/>
<line x1="299.900000" y1="133.000000" x2="302.900000" y2="132.000000"  transform="rotate(0.000000,302.900000,132.000000)" style="stroke: black; stroke-width:0.25;"/>
<rect x="358.600000" y="105.000000" width="24.000000" height="24.000000" rx="0" ry="0" style="stroke:none;fill:#cccccc;"/>
<rect x="357.600000" y="104.000000" width="24.000000" height="24.000000" rx="0" ry="0" style="stroke:none;fill:#4B71A1;"/>
<text x="369.600000" y="118.000000" font-family="Arial" font-size="7" text-anchor="middle" fill="#FFFFFF">!=</text>
<circle cx="359.600000" cy="106.000000" r="1"/>
<line x1="354.600000" y1="111.000000" x2="357.600000" y2="112.000000"  transform="rotate(0.000000,357.600000,112.000000)" style="stroke: black; stroke-width:0.25;"/>
<line x1="354.600000" y1="113.000000" x2="357.600000" y2="112.000000"  transform="rotate(0.000000,357.600000,112.000000)" style="stroke: black; stroke-width:0.25;"/>
<line x1="354.600000" y1="119.000000" x2="357.600000" y2="120.000000"  transform="rotate(0.000000,357.600000,120.000000)" style="stroke: black; stroke-width:0.25;"/>
<line x1="354.600000" y1="121.000000" x2="357.600000" y2="120.000000"  transform="rotate(0.000000,357.600000,120.000000)" style="stroke: black; stroke-width:0.25;"/>
<rect x="398.600000" y="73.000000" width="24.000000" height="24.000000" rx="0" ry="0" style="stroke:none;fill:#cccccc;"/>
<rect x="397.600000" y="72.000000" width="24.000000" height="24.000000" rx="0" ry="0" style="stroke:none;fill:#4B71A1;"/>
<text x="409.600000" y="86.000000" font-family="Arial" font-size="7" text-anchor="middle" fill="#FFFFFF">&amp;</text>
<circle cx="399.600000" cy="74.000000" r="1"/>
<line x1="394.600000" y1="79.000000" x2="397.600000" y2="80.000000"  transform="rotate(0.000000,397.600000,80.000000)" style="stroke: black; stroke-width:0.25;"/>
<line x1="394.600000" y1="81.000000" x2="397.600000" y2="80.000000"  transform="rotate(0.000000,397.600000,80.000000)" style="stroke: black; stroke-width:0.25;"/>
<line x1="394.600000" y1="87.000000" x2="397.600000" y2="88.000000"  transform="rotate(0.000000,397.600000,88.000000)" style="stroke: black; stroke-width:0.25;"/>
<line x1="394.600000" y1="89.000000" x2="397.600000" y2="88.000000"  transform="rotate(0.000000,397.600000,88.000000)" style="stroke: black; stroke-width:0.25;"/>
<rect x="211.800000" y="153.000000" width="24.000000" height="24.000000" rx="0" ry="0" style="stroke:none;fill:#cccccc;"/>
<rect x="210.800000" y="152.000000" width="24.000000" height="24.000000" rx="0" ry="0" style="stroke:none;fill:#47945E;"/>
<text x="222.800000" y="166.000000" font-family="Arial" font-size="7" text-anchor="middle" fill="#FFFFFF">d0</text>
<circle cx="212.800000" cy="154.000000" r="1"/>
<rect x="65.000000" y="185.000000" width="270.900000" height="24.000000" rx="0" ry="0" style="stroke:none;fill:#cccccc;"/>
<rect x="64.000000" y="184.000000" width="270.900000" height="24.000000" rx="0" ry="0" style="stroke:none;fill:#477881;"/>
<text x="199.450000" y="198.000000" font-family="Arial" font-size="7" text-anchor="middle" fill="#FFFFFF">nentry(distance ch6, 6.0f, 0.0f, 1000.0f, 0.10000000000000001f)</text>
<circle cx="66.000000" cy="186.000000" r="1"/>
<a xlink:href="mt2samp-0x7f8c8a8df480.svg">
<rect x="343.900000" y="185.000000" width="38.700000" height="24.000000" rx="0" ry="0" style="stroke:none;fill:#cccccc;"/>
<rect x="342.900000" y="184.000000" width="38.700000" height="24.000000" rx="0" ry="0" style="stroke:none;fill:#003366;"/>
</a>
<a xlink:href="mt2samp-0x7f8c8a8df480.svg">
<text x="362.250000" y="198.000000" font-family="Arial" font-size="7" text-anchor="middle" fill="#FFFFFF">mt2samp</text>
</a>
<circle cx="344.900000" cy="186.000000" r="1"/>
<line x1="339.900000" y1="195.000000" x2="342.900000" y2="196.000000"  transform="rotate(0.000000,342.900000,196.000000)" style="stroke: black; stroke-width:0.25;"/>
<line x1="339.900000" y1="197.000000" x2="342.900000" y2="196.000000"  transform="rotate(0.000000,342.900000,196.000000)" style="stroke: black; stroke-width:0.25;"/>
<rect x="446.600000" y="105.000000" width="38.700000" height="24.000000" rx="0" ry="0" style="stroke:none;fill:#cccccc;"/>
<rect x="445.600000" y="104.000000" width="38.700000" height="24.000000" rx="0" ry="0" style="stroke:none;fill:#4B71A1;"/>
<text x="464.950000" y="118.000000" font-family="Arial" font-size="7" text-anchor="middle" fill="#FFFFFF">select2</text>
<circle cx="447.600000" cy="106.000000" r="1"/>
<line x1="442.600000" y1="107.000000" x2="445.600000" y2="108.000000"  transform="rotate(0.000000,445.600000,108.000000)" style="stroke: black; stroke-width:0.25;"/>
<line x1="442.600000" y1="109.000000" x2="445.600000" y2="108.000000"  transform="rotate(0.000000,445.600000,108.000000)" style="stroke: black; stroke-width:0.25;"/>
<line x1="442.600000" y1="115.000000" x2="445.600000" y2="116.000000"  transform="rotate(0.000000,445.600000,116.000000)" style="stroke: black; stroke-width:0.25;"/>
<line x1="442.600000" y1="117.000000" x2="445.600000" y2="116.000000"  transform="rotate(0.000000,445.600000,116.000000)" style="stroke: black; stroke-width:0.25;"/>
<line x1="442.600000" y1="123.000000" x2="445.600000" y2="124.000000"  transform="rotate(0.000000,445.600000,124.000000)" style="stroke: black; stroke-width:0.25;"/>
<line x1="442.600000" y1="125.000000" x2="445.600000" y2="124.000000"  transform="rotate(0.000000,445.600000,124.000000)" style="stroke: black; stroke-width:0.25;"/>
<line x1="15.000000" y1="15.000000" x2="15.000000" y2="217.000000"  style="stroke: black; stroke-linecap:round; stroke-width:0.25; stroke-dasharray:3,3;"/>
<line x1="15.000000" y1="217.000000" x2="501.300000" y2="217.000000"  style="stroke: black; stroke-linecap:round; stroke-width:0.25; stroke-dasharray:3,3;"/>
<line x1="501.300000" y1="217.000000" x2="501.300000" y2="15.000000"  style="stroke: black; stroke-linecap:round; stroke-width:0.25; stroke-dasharray:3,3;"/>
<line x1="15.000000" y1="15.000000" x2="20.000000" y2="15.000000"  style="stroke: black; stroke-linecap:round; stroke-width:0.25; stroke-dasharray:3,3;"/>
<line x1="36.125000" y1="15.000000" x2="501.300000" y2="15.000000"  style="stroke: black; stroke-linecap:round; stroke-width:0.25; stroke-dasharray:3,3;"/>
<text x="20.000000" y="17.000000" font-family="Arial" font-size="7">nd0</text>
<line x1="503.300000" y1="115.000000" x2="506.300000" y2="116.000000"  transform="rotate(0.000000,506.300000,116.000000)" style="stroke: black; stroke-width:0.25;"/>
<line x1="503.300000" y1="117.000000" x2="506.300000" y2="116.000000"  transform="rotate(0.000000,506.300000,116.000000)" style="stroke: black; stroke-width:0.25;"/>
<line x1="194.800000" y1="36.000000" x2="198.800000" y2="36.000000"  style="stroke:black; stroke-linecap:round; stroke-width:0.25;"/>
<line x1="194.800000" y1="68.000000" x2="198.800000" y2="68.000000"  style="stroke:black; stroke-linecap:round; stroke-width:0.25;"/>
<line x1="194.800000" y1="100.000000" x2="198.800000" y2="100.000000"  style="stroke:black; stroke-linecap:round; stroke-width:0.25;"/>
<line x1="198.800000" y1="36.000000" x2="206.800000" y2="36.000000"  style="stroke:black; stroke-linecap:round; stroke-width:0.25;"/>
<line x1="198.800000" y1="56.000000" x2="206.800000" y2="56.000000"  style="stroke:black; stroke-linecap:round; stroke-width:0.25;"/>
<line x1="198.800000" y1="68.000000" x2="198.800000" y2="56.000000"  style="stroke:black; stroke-linecap:round; stroke-width:0.25;"/>
<line x1="198.800000" y1="68.000000" x2="198.800000" y2="68.000000"  style="stroke:black; stroke-linecap:round; stroke-width:0.25;"/>
<line x1="198.800000" y1="100.000000" x2="345.600000" y2="100.000000"  style="stroke:black; stroke-linecap:round; stroke-width:0.25;"/>
<line x1="206.800000" y1="36.000000" x2="206.800000" y2="48.000000"  style="stroke:black; stroke-linecap:round; stroke-width:0.25;"/>
<line x1="206.800000" y1="48.000000" x2="206.800000" y2="48.000000"  style="stroke:black; stroke-linecap:round; stroke-width:0.25;"/>
<line x1="206.800000" y1="48.000000" x2="210.800000" y2="48.000000"  style="stroke:black; stroke-linecap:round; stroke-width:0.25;"/>
<line x1="206.800000" y1="56.000000" x2="210.800000" y2="56.000000"  style="stroke:black; stroke-linecap:round; stroke-width:0.25;"/>
<line x1="234.800000" y1="52.000000" x2="238.800000" y2="52.000000"  style="stroke:black; stroke-linecap:round; stroke-width:0.25;"/>
<line x1="234.800000" y1="164.000000" x2="238.800000" y2="164.000000"  style="stroke:black; stroke-linecap:round; stroke-width:0.25;"/>
<line x1="238.800000" y1="52.000000" x2="385.600000" y2="52.000000"  style="stroke:black; stroke-linecap:round; stroke-width:0.25;"/>
<line x1="238.800000" y1="164.000000" x2="385.600000" y2="164.000000"  style="stroke:black; stroke-linecap:round; stroke-width:0.25;"/>
<line x1="294.900000" y1="132.000000" x2="298.900000" y2="132.000000"  style="stroke:black; stroke-linecap:round; stroke-width:0.25;"/>
<line x1="298.900000" y1="132.000000" x2="298.900000" y2="132.000000"  style="stroke:black; stroke-linecap:round; stroke-width:0.25;"/>
<line x1="298.900000" y1="132.000000" x2="302.900000" y2="132.000000"  style="stroke:black; stroke-linecap:round; stroke-width:0.25;"/>
<line x1="334.900000" y1="196.000000" x2="338.900000" y2="196.000000"  style="stroke:black; stroke-linecap:round; stroke-width:0.25;"/>
<line x1="338.900000" y1="196.000000" x2="338.900000" y2="196.000000"  style="stroke:black; stroke-linecap:round; stroke-width:0.25;"/>
<line x1="338.900000" y1="196.000000" x2="342.900000" y2="196.000000"  style="stroke:black; stroke-linecap:round; stroke-width:0.25;"/>
<line x1="341.600000" y1="132.000000" x2="345.600000" y2="132.000000"  style="stroke:black; stroke-linecap:round; stroke-width:0.25;"/>
<line x1="345.600000" y1="100.000000" x2="353.600000" y2="100.000000"  style="stroke:black; stroke-linecap:round; stroke-width:0.25;"/>
<line x1="345.600000" y1="120.000000" x2="353.600000" y2="120.000000"  style="stroke:black; stroke-linecap:round; stroke-width:0.25;"/>
<line x1="345.600000" y1="132.000000" x2="345.600000" y2="120.000000"  style="stroke:black; stroke-linecap:round; stroke-width:0.25;"/>
<line x1="345.600000" y1="132.000000" x2="345.600000" y2="132.000000"  style="stroke:black; stroke-linecap:round; stroke-width:0.25;"/>
<line x1="353.600000" y1="100.000000" x2="353.600000" y2="112.000000"  style="stroke:black; stroke-linecap:round; stroke-width:0.25;"/>
<line x1="353.600000" y1="112.000000" x2="353.600000" y2="112.000000"  style="stroke:black; stroke-linecap:round; stroke-width:0.25;"/>
<line x1="353.600000" y1="112.000000" x2="357.600000" y2="112.000000"  style="stroke:black; stroke-linecap:round; stroke-width:0.25;"/>
<line x1="353.600000" y1="120.000000" x2="357.600000" y2="120.000000"  style="stroke:black; stroke-linecap:round; stroke-width:0.25;"/>
<line x1="381.600000" y1="116.000000" x2="385.600000" y2="116.000000"  style="stroke:black; stroke-linecap:round; stroke-width:0.25;"/>
<line x1="381.600000" y1="196.000000" x2="385.600000" y2="196.000000"  style="stroke:black; stroke-linecap:round; stroke-width:0.25;"/>
<line x1="385.600000" y1="52.000000" x2="393.600000" y2="52.000000"  style="stroke:black; stroke-linecap:round; stroke-width:0.25;"/>
<line x1="385.600000" y1="88.000000" x2="393.600000" y2="88.000000"  style="stroke:black; stroke-linecap:round; stroke-width:0.25;"/>
<line x1="385.600000" y1="116.000000" x2="385.600000" y2="88.000000"  style="stroke:black; stroke-linecap:round; stroke-width:0.25;"/>
<line x1="385.600000" y1="116.000000" x2="385.600000" y2="116.000000"  style="stroke:black; stroke-linecap:round; stroke-width:0.25;"/>
<line x1="385.600000" y1="164.000000" x2="425.600000" y2="164.000000"  style="stroke:black; stroke-linecap:round; stroke-width:0.25;"/>
<line x1="385.600000" y1="196.000000" x2="425.600000" y2="196.000000"  style="stroke:black; stroke-linecap:round; stroke-width:0.25;"/>
<line x1="393.600000" y1="52.000000" x2="393.600000" y2="80.000000"  style="stroke:black; stroke-linecap:round; stroke-width:0.25;"/>
<line x1="393.600000" y1="80.000000" x2="393.600000" y2="80.000000"  style="stroke:black; stroke-linecap:round; stroke-width:0.25;"/>
<line x1="393.600000" y1="80.000000" x2="397.600000" y2="80.000000"  style="stroke:black; stroke-linecap:round; stroke-width:0.25;"/>
<line x1="393.600000" y1="88.000000" x2="397.600000" y2="88.000000"  style="stroke:black; stroke-linecap:round; stroke-width:0.25;"/>
<line x1="421.600000" y1="84.000000" x2="425.600000" y2="84.000000"  style="stroke:black; stroke-linecap:round; stroke-width:0.25;"/>
<line x1="425.600000" y1="84.000000" x2="441.600000" y2="84.000000"  style="stroke:black; stroke-linecap:round; stroke-width:0.25;"/>
<line x1="425.600000" y1="116.000000" x2="441.600000" y2="116.000000"  style="stroke:black; stroke-linecap:round; stroke-width:0.25;"/>
<line x1="425.600000" y1="164.000000" x2="425.600000" y2="116.000000"  style="stroke:black; stroke-linecap:round; stroke-width:0.25;"/>
<line x1="425.600000" y1="164.000000" x2="425.600000" y2="164.000000"  style="stroke:black; stroke-linecap:round; stroke-width:0.25;"/>
<line x1="425.600000" y1="196.000000" x2="433.600000" y2="196.000000"  style="stroke:black; stroke-linecap:round; stroke-width:0.25;"/>
<line x1="433.600000" y1="124.000000" x2="441.600000" y2="124.000000"  style="stroke:black; stroke-linecap:round; stroke-width:0.25;"/>
<line x1="433.600000" y1="196.000000" x2="433.600000" y2="124.000000"  style="stroke:black; stroke-linecap:round; stroke-width:0.25;"/>
<line x1="441.600000" y1="84.000000" x2="441.600000" y2="108.000000"  style="stroke:black; stroke-linecap:round; stroke-width:0.25;"/>
<line x1="441.600000" y1="108.000000" x2="441.600000" y2="108.000000"  style="stroke:black; stroke-linecap:round; stroke-width:0.25;"/>
<line x1="441.600000" y1="108.000000" x2="445.600000" y2="108.000000"  style="stroke:black; stroke-linecap:round; stroke-width:0.25;"/>
<line x1="441.600000" y1="116.000000" x2="445.600000" y2="116.000000"  style="stroke:black; stroke-linecap:round; stroke-width:0.25;"/>
<line x1="441.600000" y1="124.000000" x2="445.600000" y2="124.000000"  style="stroke:black; stroke-linecap:round; stroke-width:0.25;"/>
<line x1="484.300000" y1="116.000000" x2="488.300000" y2="116.000000"  style="stroke:black; stroke-linecap:round; stroke-width:0.25;"/>
<line x1="488.300000" y1="116.000000" x2="488.300000" y2="116.000000"  style="stroke:black; stroke-linecap:round; stroke-width:0.25;"/>
<line x1="488.300000" y1="116.000000" x2="492.300000" y2="116.000000"  style="stroke:black; stroke-linecap:round; stroke-width:0.25;"/>
<line x1="492.300000" y1="116.000000" x2="496.300000" y2="116.000000"  style="stroke:black; stroke-linecap:round; stroke-width:0.25;"/>
<line x1="496.300000" y1="116.000000" x2="506.300000" y2="116.000000"  style="stroke:black; stroke-linecap:round; stroke-width:0.25;"/>
</svg>
