<?xml version="1.0"?>
<svg xmlns="http://www.w3.org/2000/svg" xmlns:xlink="http://www.w3.org/1999/xlink" viewBox="0 0 601.600000 432.000000" width="300.800000mm" height="216.000000mm" version="1.1">
<a xlink:href="compression-0x7faa777f66f0.svg">
<rect x="1.000000" y="1.000000" width="600.600000" height="431.000000" rx="0" ry="0" style="stroke:none;fill:#cccccc;"/>
<rect x="0.000000" y="0.000000" width="600.600000" height="431.000000" rx="0" ry="0" style="stroke:none;fill:#ffffff;"/>
</a>
<text x="10.000000" y="7.000000" font-family="Arial" font-size="7"></text>
<rect x="33.000000" y="205.000000" width="25.800000" height="24.000000" rx="0" ry="0" style="stroke:none;fill:#cccccc;"/>
<rect x="32.000000" y="204.000000" width="25.800000" height="24.000000" rx="0" ry="0" style="stroke:none;fill:#47945E;"/>
<text x="44.900000" y="218.000000" font-family="Arial" font-size="7" text-anchor="middle" fill="#FFFFFF">level</text>
<circle cx="34.000000" cy="206.000000" r="1"/>
<line x1="29.000000" y1="215.000000" x2="32.000000" y2="216.000000"  transform="rotate(0.000000,32.000000,216.000000)" style="stroke: black; stroke-width:0.25;"/>
<line x1="29.000000" y1="217.000000" x2="32.000000" y2="216.000000"  transform="rotate(0.000000,32.000000,216.000000)" style="stroke: black; stroke-width:0.25;"/>
<rect x="245.800000" y="25.000000" width="25.800000" height="24.000000" rx="0" ry="0" style="stroke:none;fill:#cccccc;"/>
<rect x="244.800000" y="24.000000" width="25.800000" height="24.000000" rx="0" ry="0" style="stroke:none;fill:#47945E;"/>
<text x="257.700000" y="38.000000" font-family="Arial" font-size="7" text-anchor="middle" fill="#FFFFFF">level</text>
<circle cx="246.800000" cy="26.000000" r="1"/>
<rect x="116.800000" y="107.000000" width="283.800000" height="24.000000" rx="0" ry="0" style="stroke:none;fill:#cccccc;"/>
<rect x="115.800000" y="106.000000" width="283.800000" height="24.000000" rx="0" ry="0" style="stroke:none;fill:#477881;"/>
<text x="257.700000" y="120.000000" font-family="Arial" font-size="7" text-anchor="middle" fill="#FFFFFF">vslider(Threshold, -30.0f, -100.0f, 10.0f, 0.10000000000000001f)</text>
<circle cx="117.800000" cy="108.000000" r="1"/>
<line x1="106.800000" y1="97.000000" x2="106.800000" y2="139.000000"  style="stroke: black; stroke-linecap:round; stroke-width:0.25; stroke-dasharray:3,3;"/>
<line x1="106.800000" y1="139.000000" x2="408.600000" y2="139.000000"  style="stroke: black; stroke-linecap:round; stroke-width:0.25; stroke-dasharray:3,3;"/>
<line x1="408.600000" y1="139.000000" x2="408.600000" y2="97.000000"  style="stroke: black; stroke-linecap:round; stroke-width:0.25; stroke-dasharray:3,3;"/>
<line x1="106.800000" y1="97.000000" x2="111.800000" y2="97.000000"  style="stroke: black; stroke-linecap:round; stroke-width:0.25; stroke-dasharray:3,3;"/>
<line x1="205.325000" y1="97.000000" x2="408.600000" y2="97.000000"  style="stroke: black; stroke-linecap:round; stroke-width:0.25; stroke-dasharray:3,3;"/>
<text x="111.800000" y="99.000000" font-family="Arial" font-size="7">hgroup(Compression Control)</text>
<line x1="96.800000" y1="87.000000" x2="96.800000" y2="149.000000"  style="stroke: black; stroke-linecap:round; stroke-width:0.25; stroke-dasharray:3,3;"/>
<line x1="96.800000" y1="149.000000" x2="418.600000" y2="149.000000"  style="stroke: black; stroke-linecap:round; stroke-width:0.25; stroke-dasharray:3,3;"/>
<line x1="418.600000" y1="149.000000" x2="418.600000" y2="87.000000"  style="stroke: black; stroke-linecap:round; stroke-width:0.25; stroke-dasharray:3,3;"/>
<line x1="96.800000" y1="87.000000" x2="101.800000" y2="87.000000"  style="stroke: black; stroke-linecap:round; stroke-width:0.25; stroke-dasharray:3,3;"/>
<line x1="134.050000" y1="87.000000" x2="418.600000" y2="87.000000"  style="stroke: black; stroke-linecap:round; stroke-width:0.25; stroke-dasharray:3,3;"/>
<text x="101.800000" y="89.000000" font-family="Arial" font-size="7">hgroup()</text>
<line x1="86.800000" y1="77.000000" x2="86.800000" y2="159.000000"  style="stroke: black; stroke-linecap:round; stroke-width:0.25; stroke-dasharray:3,3;"/>
<line x1="86.800000" y1="159.000000" x2="428.600000" y2="159.000000"  style="stroke: black; stroke-linecap:round; stroke-width:0.25; stroke-dasharray:3,3;"/>
<line x1="428.600000" y1="159.000000" x2="428.600000" y2="77.000000"  style="stroke: black; stroke-linecap:round; stroke-width:0.25; stroke-dasharray:3,3;"/>
<line x1="86.800000" y1="77.000000" x2="91.800000" y2="77.000000"  style="stroke: black; stroke-linecap:round; stroke-width:0.25; stroke-dasharray:3,3;"/>
<line x1="156.300000" y1="77.000000" x2="428.600000" y2="77.000000"  style="stroke: black; stroke-linecap:round; stroke-width:0.25; stroke-dasharray:3,3;"/>
<text x="91.800000" y="79.000000" font-family="Arial" font-size="7">vgroup(COMPRESSOR)</text>
<line x1="76.800000" y1="67.000000" x2="76.800000" y2="169.000000"  style="stroke: black; stroke-linecap:round; stroke-width:0.25; stroke-dasharray:3,3;"/>
<line x1="76.800000" y1="169.000000" x2="438.600000" y2="169.000000"  style="stroke: black; stroke-linecap:round; stroke-width:0.25; stroke-dasharray:3,3;"/>
<line x1="438.600000" y1="169.000000" x2="438.600000" y2="67.000000"  style="stroke: black; stroke-linecap:round; stroke-width:0.25; stroke-dasharray:3,3;"/>
<line x1="76.800000" y1="67.000000" x2="81.800000" y2="67.000000"  style="stroke: black; stroke-linecap:round; stroke-width:0.25; stroke-dasharray:3,3;"/>
<line x1="168.875000" y1="67.000000" x2="438.600000" y2="67.000000"  style="stroke: black; stroke-linecap:round; stroke-width:0.25; stroke-dasharray:3,3;"/>
<text x="81.800000" y="69.000000" font-family="Arial" font-size="7">vgroup(----- FLUTE -----)</text>
<line x1="66.800000" y1="57.000000" x2="66.800000" y2="179.000000"  style="stroke: black; stroke-linecap:round; stroke-width:0.25; stroke-dasharray:3,3;"/>
<line x1="66.800000" y1="179.000000" x2="448.600000" y2="179.000000"  style="stroke: black; stroke-linecap:round; stroke-width:0.25; stroke-dasharray:3,3;"/>
<line x1="448.600000" y1="179.000000" x2="448.600000" y2="57.000000"  style="stroke: black; stroke-linecap:round; stroke-width:0.25; stroke-dasharray:3,3;"/>
<line x1="66.800000" y1="57.000000" x2="71.800000" y2="57.000000"  style="stroke: black; stroke-linecap:round; stroke-width:0.25; stroke-dasharray:3,3;"/>
<line x1="107.275000" y1="57.000000" x2="448.600000" y2="57.000000"  style="stroke: black; stroke-linecap:round; stroke-width:0.25; stroke-dasharray:3,3;"/>
<text x="71.800000" y="59.000000" font-family="Arial" font-size="7">threshold</text>
<rect x="466.600000" y="91.000000" width="24.000000" height="24.000000" rx="0" ry="0" style="stroke:none;fill:#cccccc;"/>
<rect x="465.600000" y="90.000000" width="24.000000" height="24.000000" rx="0" ry="0" style="stroke:none;fill:#4B71A1;"/>
<text x="477.600000" y="104.000000" font-family="Arial" font-size="7" text-anchor="middle" fill="#FFFFFF">-</text>
<circle cx="467.600000" cy="92.000000" r="1"/>
<line x1="462.600000" y1="97.000000" x2="465.600000" y2="98.000000"  transform="rotate(0.000000,465.600000,98.000000)" style="stroke: black; stroke-width:0.25;"/>
<line x1="462.600000" y1="99.000000" x2="465.600000" y2="98.000000"  transform="rotate(0.000000,465.600000,98.000000)" style="stroke: black; stroke-width:0.25;"/>
<line x1="462.600000" y1="105.000000" x2="465.600000" y2="106.000000"  transform="rotate(0.000000,465.600000,106.000000)" style="stroke: black; stroke-width:0.25;"/>
<line x1="462.600000" y1="107.000000" x2="465.600000" y2="106.000000"  transform="rotate(0.000000,465.600000,106.000000)" style="stroke: black; stroke-width:0.25;"/>
<rect x="266.700000" y="189.000000" width="24.000000" height="24.000000" rx="0" ry="0" style="stroke:none;fill:#cccccc;"/>
<rect x="265.700000" y="188.000000" width="24.000000" height="24.000000" rx="0" ry="0" style="stroke:none;fill:#f44800;"/>
<text x="277.700000" y="202.000000" font-family="Arial" font-size="7" text-anchor="middle" fill="#FFFFFF">0</text>
<circle cx="267.700000" cy="190.000000" r="1"/>
<rect x="506.600000" y="107.000000" width="24.000000" height="24.000000" rx="0" ry="0" style="stroke:none;fill:#cccccc;"/>
<rect x="505.600000" y="106.000000" width="24.000000" height="24.000000" rx="0" ry="0" style="stroke:none;fill:#4B71A1;"/>
<text x="517.600000" y="120.000000" font-family="Arial" font-size="7" text-anchor="middle" fill="#FFFFFF">max</text>
<circle cx="507.600000" cy="108.000000" r="1"/>
<line x1="502.600000" y1="113.000000" x2="505.600000" y2="114.000000"  transform="rotate(0.000000,505.600000,114.000000)" style="stroke: black; stroke-width:0.25;"/>
<line x1="502.600000" y1="115.000000" x2="505.600000" y2="114.000000"  transform="rotate(0.000000,505.600000,114.000000)" style="stroke: black; stroke-width:0.25;"/>
<line x1="502.600000" y1="121.000000" x2="505.600000" y2="122.000000"  transform="rotate(0.000000,505.600000,122.000000)" style="stroke: black; stroke-width:0.25;"/>
<line x1="502.600000" y1="123.000000" x2="505.600000" y2="122.000000"  transform="rotate(0.000000,505.600000,122.000000)" style="stroke: black; stroke-width:0.25;"/>
<rect x="246.700000" y="221.000000" width="24.000000" height="24.000000" rx="0" ry="0" style="stroke:none;fill:#cccccc;"/>
<rect x="245.700000" y="220.000000" width="24.000000" height="24.000000" rx="0" ry="0" style="stroke:none;fill:#f44800;"/>
<text x="257.700000" y="234.000000" font-family="Arial" font-size="7" text-anchor="middle" fill="#FFFFFF">1</text>
<circle cx="247.700000" cy="222.000000" r="1"/>
<rect x="119.250000" y="303.000000" width="245.100000" height="24.000000" rx="0" ry="0" style="stroke:none;fill:#cccccc;"/>
<rect x="118.250000" y="302.000000" width="245.100000" height="24.000000" rx="0" ry="0" style="stroke:none;fill:#477881;"/>
<text x="240.800000" y="316.000000" font-family="Arial" font-size="7" text-anchor="middle" fill="#FFFFFF">vslider(Ratio, 5.0f, 1.0f, 20.0f, 0.10000000000000001f)</text>
<circle cx="120.250000" cy="304.000000" r="1"/>
<line x1="109.250000" y1="293.000000" x2="109.250000" y2="335.000000"  style="stroke: black; stroke-linecap:round; stroke-width:0.25; stroke-dasharray:3,3;"/>
<line x1="109.250000" y1="335.000000" x2="372.350000" y2="335.000000"  style="stroke: black; stroke-linecap:round; stroke-width:0.25; stroke-dasharray:3,3;"/>
<line x1="372.350000" y1="335.000000" x2="372.350000" y2="293.000000"  style="stroke: black; stroke-linecap:round; stroke-width:0.25; stroke-dasharray:3,3;"/>
<line x1="109.250000" y1="293.000000" x2="114.250000" y2="293.000000"  style="stroke: black; stroke-linecap:round; stroke-width:0.25; stroke-dasharray:3,3;"/>
<line x1="207.775000" y1="293.000000" x2="372.350000" y2="293.000000"  style="stroke: black; stroke-linecap:round; stroke-width:0.25; stroke-dasharray:3,3;"/>
<text x="114.250000" y="295.000000" font-family="Arial" font-size="7">hgroup(Compression Control)</text>
<line x1="99.250000" y1="283.000000" x2="99.250000" y2="345.000000"  style="stroke: black; stroke-linecap:round; stroke-width:0.25; stroke-dasharray:3,3;"/>
<line x1="99.250000" y1="345.000000" x2="382.350000" y2="345.000000"  style="stroke: black; stroke-linecap:round; stroke-width:0.25; stroke-dasharray:3,3;"/>
<line x1="382.350000" y1="345.000000" x2="382.350000" y2="283.000000"  style="stroke: black; stroke-linecap:round; stroke-width:0.25; stroke-dasharray:3,3;"/>
<line x1="99.250000" y1="283.000000" x2="104.250000" y2="283.000000"  style="stroke: black; stroke-linecap:round; stroke-width:0.25; stroke-dasharray:3,3;"/>
<line x1="136.500000" y1="283.000000" x2="382.350000" y2="283.000000"  style="stroke: black; stroke-linecap:round; stroke-width:0.25; stroke-dasharray:3,3;"/>
<text x="104.250000" y="285.000000" font-family="Arial" font-size="7">hgroup()</text>
<line x1="89.250000" y1="273.000000" x2="89.250000" y2="355.000000"  style="stroke: black; stroke-linecap:round; stroke-width:0.25; stroke-dasharray:3,3;"/>
<line x1="89.250000" y1="355.000000" x2="392.350000" y2="355.000000"  style="stroke: black; stroke-linecap:round; stroke-width:0.25; stroke-dasharray:3,3;"/>
<line x1="392.350000" y1="355.000000" x2="392.350000" y2="273.000000"  style="stroke: black; stroke-linecap:round; stroke-width:0.25; stroke-dasharray:3,3;"/>
<line x1="89.250000" y1="273.000000" x2="94.250000" y2="273.000000"  style="stroke: black; stroke-linecap:round; stroke-width:0.25; stroke-dasharray:3,3;"/>
<line x1="158.750000" y1="273.000000" x2="392.350000" y2="273.000000"  style="stroke: black; stroke-linecap:round; stroke-width:0.25; stroke-dasharray:3,3;"/>
<text x="94.250000" y="275.000000" font-family="Arial" font-size="7">vgroup(COMPRESSOR)</text>
<line x1="79.250000" y1="263.000000" x2="79.250000" y2="365.000000"  style="stroke: black; stroke-linecap:round; stroke-width:0.25; stroke-dasharray:3,3;"/>
<line x1="79.250000" y1="365.000000" x2="402.350000" y2="365.000000"  style="stroke: black; stroke-linecap:round; stroke-width:0.25; stroke-dasharray:3,3;"/>
<line x1="402.350000" y1="365.000000" x2="402.350000" y2="263.000000"  style="stroke: black; stroke-linecap:round; stroke-width:0.25; stroke-dasharray:3,3;"/>
<line x1="79.250000" y1="263.000000" x2="84.250000" y2="263.000000"  style="stroke: black; stroke-linecap:round; stroke-width:0.25; stroke-dasharray:3,3;"/>
<line x1="171.325000" y1="263.000000" x2="402.350000" y2="263.000000"  style="stroke: black; stroke-linecap:round; stroke-width:0.25; stroke-dasharray:3,3;"/>
<text x="84.250000" y="265.000000" font-family="Arial" font-size="7">vgroup(----- FLUTE -----)</text>
<line x1="69.250000" y1="253.000000" x2="69.250000" y2="375.000000"  style="stroke: black; stroke-linecap:round; stroke-width:0.25; stroke-dasharray:3,3;"/>
<line x1="69.250000" y1="375.000000" x2="412.350000" y2="375.000000"  style="stroke: black; stroke-linecap:round; stroke-width:0.25; stroke-dasharray:3,3;"/>
<line x1="412.350000" y1="375.000000" x2="412.350000" y2="253.000000"  style="stroke: black; stroke-linecap:round; stroke-width:0.25; stroke-dasharray:3,3;"/>
<line x1="69.250000" y1="253.000000" x2="74.250000" y2="253.000000"  style="stroke: black; stroke-linecap:round; stroke-width:0.25; stroke-dasharray:3,3;"/>
<line x1="96.825000" y1="253.000000" x2="412.350000" y2="253.000000"  style="stroke: black; stroke-linecap:round; stroke-width:0.25; stroke-dasharray:3,3;"/>
<text x="74.250000" y="255.000000" font-family="Arial" font-size="7">ratio</text>
<rect x="422.350000" y="303.000000" width="25.800000" height="24.000000" rx="0" ry="0" style="stroke:none;fill:#cccccc;"/>
<rect x="421.350000" y="302.000000" width="25.800000" height="24.000000" rx="0" ry="0" style="stroke:none;fill:#4B71A1;"/>
<text x="434.250000" y="316.000000" font-family="Arial" font-size="7" text-anchor="middle" fill="#FFFFFF">float</text>
<circle cx="423.350000" cy="304.000000" r="1"/>
<line x1="418.350000" y1="313.000000" x2="421.350000" y2="314.000000"  transform="rotate(0.000000,421.350000,314.000000)" style="stroke: black; stroke-width:0.25;"/>
<line x1="418.350000" y1="315.000000" x2="421.350000" y2="314.000000"  transform="rotate(0.000000,421.350000,314.000000)" style="stroke: black; stroke-width:0.25;"/>
<rect x="464.150000" y="287.000000" width="24.000000" height="24.000000" rx="0" ry="0" style="stroke:none;fill:#cccccc;"/>
<rect x="463.150000" y="286.000000" width="24.000000" height="24.000000" rx="0" ry="0" style="stroke:none;fill:#4B71A1;"/>
<text x="475.150000" y="300.000000" font-family="Arial" font-size="7" text-anchor="middle" fill="#FFFFFF">/</text>
<circle cx="465.150000" cy="288.000000" r="1"/>
<line x1="460.150000" y1="293.000000" x2="463.150000" y2="294.000000"  transform="rotate(0.000000,463.150000,294.000000)" style="stroke: black; stroke-width:0.25;"/>
<line x1="460.150000" y1="295.000000" x2="463.150000" y2="294.000000"  transform="rotate(0.000000,463.150000,294.000000)" style="stroke: black; stroke-width:0.25;"/>
<line x1="460.150000" y1="301.000000" x2="463.150000" y2="302.000000"  transform="rotate(0.000000,463.150000,302.000000)" style="stroke: black; stroke-width:0.25;"/>
<line x1="460.150000" y1="303.000000" x2="463.150000" y2="302.000000"  transform="rotate(0.000000,463.150000,302.000000)" style="stroke: black; stroke-width:0.25;"/>
<rect x="266.700000" y="385.000000" width="24.000000" height="24.000000" rx="0" ry="0" style="stroke:none;fill:#cccccc;"/>
<rect x="265.700000" y="384.000000" width="24.000000" height="24.000000" rx="0" ry="0" style="stroke:none;fill:#f44800;"/>
<text x="277.700000" y="398.000000" font-family="Arial" font-size="7" text-anchor="middle" fill="#FFFFFF">1</text>
<circle cx="267.700000" cy="386.000000" r="1"/>
<rect x="504.150000" y="303.000000" width="24.000000" height="24.000000" rx="0" ry="0" style="stroke:none;fill:#cccccc;"/>
<rect x="503.150000" y="302.000000" width="24.000000" height="24.000000" rx="0" ry="0" style="stroke:none;fill:#4B71A1;"/>
<text x="515.150000" y="316.000000" font-family="Arial" font-size="7" text-anchor="middle" fill="#FFFFFF">-</text>
<circle cx="505.150000" cy="304.000000" r="1"/>
<line x1="500.150000" y1="309.000000" x2="503.150000" y2="310.000000"  transform="rotate(0.000000,503.150000,310.000000)" style="stroke: black; stroke-width:0.25;"/>
<line x1="500.150000" y1="311.000000" x2="503.150000" y2="310.000000"  transform="rotate(0.000000,503.150000,310.000000)" style="stroke: black; stroke-width:0.25;"/>
<line x1="500.150000" y1="317.000000" x2="503.150000" y2="318.000000"  transform="rotate(0.000000,503.150000,318.000000)" style="stroke: black; stroke-width:0.25;"/>
<line x1="500.150000" y1="319.000000" x2="503.150000" y2="318.000000"  transform="rotate(0.000000,503.150000,318.000000)" style="stroke: black; stroke-width:0.25;"/>
<rect x="546.600000" y="205.000000" width="24.000000" height="24.000000" rx="0" ry="0" style="stroke:none;fill:#cccccc;"/>
<rect x="545.600000" y="204.000000" width="24.000000" height="24.000000" rx="0" ry="0" style="stroke:none;fill:#4B71A1;"/>
<text x="557.600000" y="218.000000" font-family="Arial" font-size="7" text-anchor="middle" fill="#FFFFFF">*</text>
<circle cx="547.600000" cy="206.000000" r="1"/>
<line x1="542.600000" y1="211.000000" x2="545.600000" y2="212.000000"  transform="rotate(0.000000,545.600000,212.000000)" style="stroke: black; stroke-width:0.25;"/>
<line x1="542.600000" y1="213.000000" x2="545.600000" y2="212.000000"  transform="rotate(0.000000,545.600000,212.000000)" style="stroke: black; stroke-width:0.25;"/>
<line x1="542.600000" y1="219.000000" x2="545.600000" y2="220.000000"  transform="rotate(0.000000,545.600000,220.000000)" style="stroke: black; stroke-width:0.25;"/>
<line x1="542.600000" y1="221.000000" x2="545.600000" y2="220.000000"  transform="rotate(0.000000,545.600000,220.000000)" style="stroke: black; stroke-width:0.25;"/>
<line x1="15.000000" y1="15.000000" x2="15.000000" y2="417.000000"  style="stroke: black; stroke-linecap:round; stroke-width:0.25; stroke-dasharray:3,3;"/>
<line x1="15.000000" y1="417.000000" x2="586.600000" y2="417.000000"  style="stroke: black; stroke-linecap:round; stroke-width:0.25; stroke-dasharray:3,3;"/>
<line x1="586.600000" y1="417.000000" x2="586.600000" y2="15.000000"  style="stroke: black; stroke-linecap:round; stroke-width:0.25; stroke-dasharray:3,3;"/>
<line x1="15.000000" y1="15.000000" x2="20.000000" y2="15.000000"  style="stroke: black; stroke-linecap:round; stroke-width:0.25; stroke-dasharray:3,3;"/>
<line x1="119.975000" y1="15.000000" x2="586.600000" y2="15.000000"  style="stroke: black; stroke-linecap:round; stroke-width:0.25; stroke-dasharray:3,3;"/>
<text x="20.000000" y="17.000000" font-family="Arial" font-size="7">outminusindb(...000001f))))))</text>
<line x1="588.600000" y1="215.000000" x2="591.600000" y2="216.000000"  transform="rotate(0.000000,591.600000,216.000000)" style="stroke: black; stroke-width:0.25;"/>
<line x1="588.600000" y1="217.000000" x2="591.600000" y2="216.000000"  transform="rotate(0.000000,591.600000,216.000000)" style="stroke: black; stroke-width:0.25;"/>
<line x1="10.000000" y1="216.000000" x2="20.000000" y2="216.000000"  style="stroke:black; stroke-linecap:round; stroke-width:0.25;"/>
<line x1="20.000000" y1="216.000000" x2="24.000000" y2="216.000000"  style="stroke:black; stroke-linecap:round; stroke-width:0.25;"/>
<line x1="24.000000" y1="216.000000" x2="28.000000" y2="216.000000"  style="stroke:black; stroke-linecap:round; stroke-width:0.25;"/>
<line x1="28.000000" y1="216.000000" x2="28.000000" y2="216.000000"  style="stroke:black; stroke-linecap:round; stroke-width:0.25;"/>
<line x1="28.000000" y1="216.000000" x2="32.000000" y2="216.000000"  style="stroke:black; stroke-linecap:round; stroke-width:0.25;"/>
<line x1="269.700000" y1="232.000000" x2="273.700000" y2="232.000000"  style="stroke:black; stroke-linecap:round; stroke-width:0.25;"/>
<line x1="270.600000" y1="36.000000" x2="274.600000" y2="36.000000"  style="stroke:black; stroke-linecap:round; stroke-width:0.25;"/>
<line x1="273.700000" y1="232.000000" x2="451.150000" y2="232.000000"  style="stroke:black; stroke-linecap:round; stroke-width:0.25;"/>
<line x1="274.600000" y1="36.000000" x2="453.600000" y2="36.000000"  style="stroke:black; stroke-linecap:round; stroke-width:0.25;"/>
<line x1="289.700000" y1="200.000000" x2="293.700000" y2="200.000000"  style="stroke:black; stroke-linecap:round; stroke-width:0.25;"/>
<line x1="289.700000" y1="396.000000" x2="293.700000" y2="396.000000"  style="stroke:black; stroke-linecap:round; stroke-width:0.25;"/>
<line x1="293.700000" y1="200.000000" x2="493.600000" y2="200.000000"  style="stroke:black; stroke-linecap:round; stroke-width:0.25;"/>
<line x1="293.700000" y1="396.000000" x2="491.150000" y2="396.000000"  style="stroke:black; stroke-linecap:round; stroke-width:0.25;"/>
<line x1="363.350000" y1="314.000000" x2="367.350000" y2="314.000000"  style="stroke:black; stroke-linecap:round; stroke-width:0.25;"/>
<line x1="367.350000" y1="314.000000" x2="377.350000" y2="314.000000"  style="stroke:black; stroke-linecap:round; stroke-width:0.25;"/>
<line x1="377.350000" y1="314.000000" x2="387.350000" y2="314.000000"  style="stroke:black; stroke-linecap:round; stroke-width:0.25;"/>
<line x1="387.350000" y1="314.000000" x2="397.350000" y2="314.000000"  style="stroke:black; stroke-linecap:round; stroke-width:0.25;"/>
<line x1="397.350000" y1="314.000000" x2="407.350000" y2="314.000000"  style="stroke:black; stroke-linecap:round; stroke-width:0.25;"/>
<line x1="399.600000" y1="118.000000" x2="403.600000" y2="118.000000"  style="stroke:black; stroke-linecap:round; stroke-width:0.25;"/>
<line x1="403.600000" y1="118.000000" x2="413.600000" y2="118.000000"  style="stroke:black; stroke-linecap:round; stroke-width:0.25;"/>
<line x1="407.350000" y1="314.000000" x2="417.350000" y2="314.000000"  style="stroke:black; stroke-linecap:round; stroke-width:0.25;"/>
<line x1="413.600000" y1="118.000000" x2="423.600000" y2="118.000000"  style="stroke:black; stroke-linecap:round; stroke-width:0.25;"/>
<line x1="417.350000" y1="314.000000" x2="417.350000" y2="314.000000"  style="stroke:black; stroke-linecap:round; stroke-width:0.25;"/>
<line x1="417.350000" y1="314.000000" x2="421.350000" y2="314.000000"  style="stroke:black; stroke-linecap:round; stroke-width:0.25;"/>
<line x1="423.600000" y1="118.000000" x2="433.600000" y2="118.000000"  style="stroke:black; stroke-linecap:round; stroke-width:0.25;"/>
<line x1="433.600000" y1="118.000000" x2="443.600000" y2="118.000000"  style="stroke:black; stroke-linecap:round; stroke-width:0.25;"/>
<line x1="443.600000" y1="118.000000" x2="453.600000" y2="118.000000"  style="stroke:black; stroke-linecap:round; stroke-width:0.25;"/>
<line x1="447.150000" y1="314.000000" x2="451.150000" y2="314.000000"  style="stroke:black; stroke-linecap:round; stroke-width:0.25;"/>
<line x1="451.150000" y1="232.000000" x2="459.150000" y2="232.000000"  style="stroke:black; stroke-linecap:round; stroke-width:0.25;"/>
<line x1="451.150000" y1="302.000000" x2="459.150000" y2="302.000000"  style="stroke:black; stroke-linecap:round; stroke-width:0.25;"/>
<line x1="451.150000" y1="314.000000" x2="451.150000" y2="302.000000"  style="stroke:black; stroke-linecap:round; stroke-width:0.25;"/>
<line x1="451.150000" y1="314.000000" x2="451.150000" y2="314.000000"  style="stroke:black; stroke-linecap:round; stroke-width:0.25;"/>
<line x1="453.600000" y1="36.000000" x2="461.600000" y2="36.000000"  style="stroke:black; stroke-linecap:round; stroke-width:0.25;"/>
<line x1="453.600000" y1="106.000000" x2="461.600000" y2="106.000000"  style="stroke:black; stroke-linecap:round; stroke-width:0.25;"/>
<line x1="453.600000" y1="118.000000" x2="453.600000" y2="106.000000"  style="stroke:black; stroke-linecap:round; stroke-width:0.25;"/>
<line x1="453.600000" y1="118.000000" x2="453.600000" y2="118.000000"  style="stroke:black; stroke-linecap:round; stroke-width:0.25;"/>
<line x1="459.150000" y1="232.000000" x2="459.150000" y2="294.000000"  style="stroke:black; stroke-linecap:round; stroke-width:0.25;"/>
<line x1="459.150000" y1="294.000000" x2="459.150000" y2="294.000000"  style="stroke:black; stroke-linecap:round; stroke-width:0.25;"/>
<line x1="459.150000" y1="294.000000" x2="463.150000" y2="294.000000"  style="stroke:black; stroke-linecap:round; stroke-width:0.25;"/>
<line x1="459.150000" y1="302.000000" x2="463.150000" y2="302.000000"  style="stroke:black; stroke-linecap:round; stroke-width:0.25;"/>
<line x1="461.600000" y1="36.000000" x2="461.600000" y2="98.000000"  style="stroke:black; stroke-linecap:round; stroke-width:0.25;"/>
<line x1="461.600000" y1="98.000000" x2="461.600000" y2="98.000000"  style="stroke:black; stroke-linecap:round; stroke-width:0.25;"/>
<line x1="461.600000" y1="98.000000" x2="465.600000" y2="98.000000"  style="stroke:black; stroke-linecap:round; stroke-width:0.25;"/>
<line x1="461.600000" y1="106.000000" x2="465.600000" y2="106.000000"  style="stroke:black; stroke-linecap:round; stroke-width:0.25;"/>
<line x1="487.150000" y1="298.000000" x2="491.150000" y2="298.000000"  style="stroke:black; stroke-linecap:round; stroke-width:0.25;"/>
<line x1="489.600000" y1="102.000000" x2="493.600000" y2="102.000000"  style="stroke:black; stroke-linecap:round; stroke-width:0.25;"/>
<line x1="491.150000" y1="318.000000" x2="499.150000" y2="318.000000"  style="stroke:black; stroke-linecap:round; stroke-width:0.25;"/>
<line x1="491.150000" y1="396.000000" x2="491.150000" y2="318.000000"  style="stroke:black; stroke-linecap:round; stroke-width:0.25;"/>
<line x1="491.150000" y1="396.000000" x2="491.150000" y2="396.000000"  style="stroke:black; stroke-linecap:round; stroke-width:0.25;"/>
<line x1="491.150000" y1="298.000000" x2="499.150000" y2="298.000000"  style="stroke:black; stroke-linecap:round; stroke-width:0.25;"/>
<line x1="493.600000" y1="102.000000" x2="501.600000" y2="102.000000"  style="stroke:black; stroke-linecap:round; stroke-width:0.25;"/>
<line x1="493.600000" y1="122.000000" x2="501.600000" y2="122.000000"  style="stroke:black; stroke-linecap:round; stroke-width:0.25;"/>
<line x1="493.600000" y1="200.000000" x2="493.600000" y2="122.000000"  style="stroke:black; stroke-linecap:round; stroke-width:0.25;"/>
<line x1="493.600000" y1="200.000000" x2="493.600000" y2="200.000000"  style="stroke:black; stroke-linecap:round; stroke-width:0.25;"/>
<line x1="499.150000" y1="298.000000" x2="499.150000" y2="310.000000"  style="stroke:black; stroke-linecap:round; stroke-width:0.25;"/>
<line x1="499.150000" y1="310.000000" x2="499.150000" y2="310.000000"  style="stroke:black; stroke-linecap:round; stroke-width:0.25;"/>
<line x1="499.150000" y1="310.000000" x2="503.150000" y2="310.000000"  style="stroke:black; stroke-linecap:round; stroke-width:0.25;"/>
<line x1="499.150000" y1="318.000000" x2="503.150000" y2="318.000000"  style="stroke:black; stroke-linecap:round; stroke-width:0.25;"/>
<line x1="501.600000" y1="102.000000" x2="501.600000" y2="114.000000"  style="stroke:black; stroke-linecap:round; stroke-width:0.25;"/>
<line x1="501.600000" y1="114.000000" x2="501.600000" y2="114.000000"  style="stroke:black; stroke-linecap:round; stroke-width:0.25;"/>
<line x1="501.600000" y1="114.000000" x2="505.600000" y2="114.000000"  style="stroke:black; stroke-linecap:round; stroke-width:0.25;"/>
<line x1="501.600000" y1="122.000000" x2="505.600000" y2="122.000000"  style="stroke:black; stroke-linecap:round; stroke-width:0.25;"/>
<line x1="527.150000" y1="314.000000" x2="531.150000" y2="314.000000"  style="stroke:black; stroke-linecap:round; stroke-width:0.25;"/>
<line x1="529.600000" y1="118.000000" x2="533.600000" y2="118.000000"  style="stroke:black; stroke-linecap:round; stroke-width:0.25;"/>
<line x1="531.150000" y1="314.000000" x2="533.600000" y2="314.000000"  style="stroke:black; stroke-linecap:round; stroke-width:0.25;"/>
<line x1="533.600000" y1="118.000000" x2="541.600000" y2="118.000000"  style="stroke:black; stroke-linecap:round; stroke-width:0.25;"/>
<line x1="533.600000" y1="220.000000" x2="541.600000" y2="220.000000"  style="stroke:black; stroke-linecap:round; stroke-width:0.25;"/>
<line x1="533.600000" y1="314.000000" x2="533.600000" y2="220.000000"  style="stroke:black; stroke-linecap:round; stroke-width:0.25;"/>
<line x1="533.600000" y1="314.000000" x2="533.600000" y2="314.000000"  style="stroke:black; stroke-linecap:round; stroke-width:0.25;"/>
<line x1="541.600000" y1="118.000000" x2="541.600000" y2="212.000000"  style="stroke:black; stroke-linecap:round; stroke-width:0.25;"/>
<line x1="541.600000" y1="212.000000" x2="541.600000" y2="212.000000"  style="stroke:black; stroke-linecap:round; stroke-width:0.25;"/>
<line x1="541.600000" y1="212.000000" x2="545.600000" y2="212.000000"  style="stroke:black; stroke-linecap:round; stroke-width:0.25;"/>
<line x1="541.600000" y1="220.000000" x2="545.600000" y2="220.000000"  style="stroke:black; stroke-linecap:round; stroke-width:0.25;"/>
<line x1="569.600000" y1="216.000000" x2="573.600000" y2="216.000000"  style="stroke:black; stroke-linecap:round; stroke-width:0.25;"/>
<line x1="573.600000" y1="216.000000" x2="573.600000" y2="216.000000"  style="stroke:black; stroke-linecap:round; stroke-width:0.25;"/>
<line x1="573.600000" y1="216.000000" x2="577.600000" y2="216.000000"  style="stroke:black; stroke-linecap:round; stroke-width:0.25;"/>
<line x1="577.600000" y1="216.000000" x2="581.600000" y2="216.000000"  style="stroke:black; stroke-linecap:round; stroke-width:0.25;"/>
<line x1="581.600000" y1="216.000000" x2="591.600000" y2="216.000000"  style="stroke:black; stroke-linecap:round; stroke-width:0.25;"/>
</svg>
