<?xml version="1.0"?>
<svg xmlns="http://www.w3.org/2000/svg" xmlns:xlink="http://www.w3.org/1999/xlink" viewBox="0 0 365.600000 232.000000" width="182.800000mm" height="116.000000mm" version="1.1">
<rect x="1.000000" y="1.000000" width="364.600000" height="231.000000" rx="0" ry="0" style="stroke:none;fill:#cccccc;"/>
<rect x="0.000000" y="0.000000" width="364.600000" height="231.000000" rx="0" ry="0" style="stroke:none;fill:#ffffff;"/>
<text x="10.000000" y="7.000000" font-family="Arial" font-size="7"></text>
<a xlink:href="flute-0x7f8c8acd4020.svg">
<rect x="161.000000" y="37.000000" width="25.800000" height="48.000000" rx="0" ry="0" style="stroke:none;fill:#cccccc;"/>
<rect x="160.000000" y="36.000000" width="25.800000" height="48.000000" rx="0" ry="0" style="stroke:none;fill:#003366;"/>
</a>
<a xlink:href="flute-0x7f8c8acd4020.svg">
<text x="172.900000" y="62.000000" font-family="Arial" font-size="7" text-anchor="middle" fill="#FFFFFF">flute</text>
</a>
<circle cx="162.000000" cy="38.000000" r="1"/>
<line x1="157.000000" y1="51.000000" x2="160.000000" y2="52.000000"  transform="rotate(0.000000,160.000000,52.000000)" style="stroke: black; stroke-width:0.25;"/>
<line x1="157.000000" y1="53.000000" x2="160.000000" y2="52.000000"  transform="rotate(0.000000,160.000000,52.000000)" style="stroke: black; stroke-width:0.25;"/>
<line x1="157.000000" y1="59.000000" x2="160.000000" y2="60.000000"  transform="rotate(0.000000,160.000000,60.000000)" style="stroke: black; stroke-width:0.25;"/>
<line x1="157.000000" y1="61.000000" x2="160.000000" y2="60.000000"  transform="rotate(0.000000,160.000000,60.000000)" style="stroke: black; stroke-width:0.25;"/>
<line x1="157.000000" y1="67.000000" x2="160.000000" y2="68.000000"  transform="rotate(0.000000,160.000000,68.000000)" style="stroke: black; stroke-width:0.25;"/>
<line x1="157.000000" y1="69.000000" x2="160.000000" y2="68.000000"  transform="rotate(0.000000,160.000000,68.000000)" style="stroke: black; stroke-width:0.25;"/>
<a xlink:href="dbass-0x7f8c8b48ad30.svg">
<rect x="161.000000" y="93.000000" width="25.800000" height="48.000000" rx="0" ry="0" style="stroke:none;fill:#cccccc;"/>
<rect x="160.000000" y="92.000000" width="25.800000" height="48.000000" rx="0" ry="0" style="stroke:none;fill:#003366;"/>
</a>
<a xlink:href="dbass-0x7f8c8b48ad30.svg">
<text x="172.900000" y="118.000000" font-family="Arial" font-size="7" text-anchor="middle" fill="#FFFFFF">dbass</text>
</a>
<circle cx="162.000000" cy="94.000000" r="1"/>
<line x1="157.000000" y1="107.000000" x2="160.000000" y2="108.000000"  transform="rotate(0.000000,160.000000,108.000000)" style="stroke: black; stroke-width:0.25;"/>
<line x1="157.000000" y1="109.000000" x2="160.000000" y2="108.000000"  transform="rotate(0.000000,160.000000,108.000000)" style="stroke: black; stroke-width:0.25;"/>
<line x1="157.000000" y1="115.000000" x2="160.000000" y2="116.000000"  transform="rotate(0.000000,160.000000,116.000000)" style="stroke: black; stroke-width:0.25;"/>
<line x1="157.000000" y1="117.000000" x2="160.000000" y2="116.000000"  transform="rotate(0.000000,160.000000,116.000000)" style="stroke: black; stroke-width:0.25;"/>
<line x1="157.000000" y1="123.000000" x2="160.000000" y2="124.000000"  transform="rotate(0.000000,160.000000,124.000000)" style="stroke: black; stroke-width:0.25;"/>
<line x1="157.000000" y1="125.000000" x2="160.000000" y2="124.000000"  transform="rotate(0.000000,160.000000,124.000000)" style="stroke: black; stroke-width:0.25;"/>
<a xlink:href="bsax-0x7f8c8b6236c0.svg">
<rect x="161.000000" y="149.000000" width="25.800000" height="48.000000" rx="0" ry="0" style="stroke:none;fill:#cccccc;"/>
<rect x="160.000000" y="148.000000" width="25.800000" height="48.000000" rx="0" ry="0" style="stroke:none;fill:#003366;"/>
</a>
<a xlink:href="bsax-0x7f8c8b6236c0.svg">
<text x="172.900000" y="174.000000" font-family="Arial" font-size="7" text-anchor="middle" fill="#FFFFFF">bsax</text>
</a>
<circle cx="162.000000" cy="150.000000" r="1"/>
<line x1="157.000000" y1="163.000000" x2="160.000000" y2="164.000000"  transform="rotate(0.000000,160.000000,164.000000)" style="stroke: black; stroke-width:0.25;"/>
<line x1="157.000000" y1="165.000000" x2="160.000000" y2="164.000000"  transform="rotate(0.000000,160.000000,164.000000)" style="stroke: black; stroke-width:0.25;"/>
<line x1="157.000000" y1="171.000000" x2="160.000000" y2="172.000000"  transform="rotate(0.000000,160.000000,172.000000)" style="stroke: black; stroke-width:0.25;"/>
<line x1="157.000000" y1="173.000000" x2="160.000000" y2="172.000000"  transform="rotate(0.000000,160.000000,172.000000)" style="stroke: black; stroke-width:0.25;"/>
<line x1="157.000000" y1="179.000000" x2="160.000000" y2="180.000000"  transform="rotate(0.000000,160.000000,180.000000)" style="stroke: black; stroke-width:0.25;"/>
<line x1="157.000000" y1="181.000000" x2="160.000000" y2="180.000000"  transform="rotate(0.000000,160.000000,180.000000)" style="stroke: black; stroke-width:0.25;"/>
<a xlink:href="hmeter-0x7f8c8b625290.svg">
<rect x="284.800000" y="25.000000" width="25.800000" height="24.000000" rx="0" ry="0" style="stroke:none;fill:#cccccc;"/>
<rect x="283.800000" y="24.000000" width="25.800000" height="24.000000" rx="0" ry="0" style="stroke:none;fill:#003366;"/>
</a>
<a xlink:href="hmeter-0x7f8c8b625290.svg">
<text x="296.700000" y="38.000000" font-family="Arial" font-size="7" text-anchor="middle" fill="#FFFFFF">hmeter</text>
</a>
<circle cx="285.800000" cy="26.000000" r="1"/>
<line x1="280.800000" y1="35.000000" x2="283.800000" y2="36.000000"  transform="rotate(0.000000,283.800000,36.000000)" style="stroke: black; stroke-width:0.25;"/>
<line x1="280.800000" y1="37.000000" x2="283.800000" y2="36.000000"  transform="rotate(0.000000,283.800000,36.000000)" style="stroke: black; stroke-width:0.25;"/>
<a xlink:href="hmeter-0x7f8c8b625290.svg">
<rect x="284.800000" y="57.000000" width="25.800000" height="24.000000" rx="0" ry="0" style="stroke:none;fill:#cccccc;"/>
<rect x="283.800000" y="56.000000" width="25.800000" height="24.000000" rx="0" ry="0" style="stroke:none;fill:#003366;"/>
</a>
<a xlink:href="hmeter-0x7f8c8b625290.svg">
<text x="296.700000" y="70.000000" font-family="Arial" font-size="7" text-anchor="middle" fill="#FFFFFF">hmeter</text>
</a>
<circle cx="285.800000" cy="58.000000" r="1"/>
<line x1="280.800000" y1="67.000000" x2="283.800000" y2="68.000000"  transform="rotate(0.000000,283.800000,68.000000)" style="stroke: black; stroke-width:0.25;"/>
<line x1="280.800000" y1="69.000000" x2="283.800000" y2="68.000000"  transform="rotate(0.000000,283.800000,68.000000)" style="stroke: black; stroke-width:0.25;"/>
<a xlink:href="hmeter-0x7f8c8b625290.svg">
<rect x="284.800000" y="89.000000" width="25.800000" height="24.000000" rx="0" ry="0" style="stroke:none;fill:#cccccc;"/>
<rect x="283.800000" y="88.000000" width="25.800000" height="24.000000" rx="0" ry="0" style="stroke:none;fill:#003366;"/>
</a>
<a xlink:href="hmeter-0x7f8c8b625290.svg">
<text x="296.700000" y="102.000000" font-family="Arial" font-size="7" text-anchor="middle" fill="#FFFFFF">hmeter</text>
</a>
<circle cx="285.800000" cy="90.000000" r="1"/>
<line x1="280.800000" y1="99.000000" x2="283.800000" y2="100.000000"  transform="rotate(0.000000,283.800000,100.000000)" style="stroke: black; stroke-width:0.25;"/>
<line x1="280.800000" y1="101.000000" x2="283.800000" y2="100.000000"  transform="rotate(0.000000,283.800000,100.000000)" style="stroke: black; stroke-width:0.25;"/>
<a xlink:href="hmeter-0x7f8c8b625290.svg">
<rect x="284.800000" y="121.000000" width="25.800000" height="24.000000" rx="0" ry="0" style="stroke:none;fill:#cccccc;"/>
<rect x="283.800000" y="120.000000" width="25.800000" height="24.000000" rx="0" ry="0" style="stroke:none;fill:#003366;"/>
</a>
<a xlink:href="hmeter-0x7f8c8b625290.svg">
<text x="296.700000" y="134.000000" font-family="Arial" font-size="7" text-anchor="middle" fill="#FFFFFF">hmeter</text>
</a>
<circle cx="285.800000" cy="122.000000" r="1"/>
<line x1="280.800000" y1="131.000000" x2="283.800000" y2="132.000000"  transform="rotate(0.000000,283.800000,132.000000)" style="stroke: black; stroke-width:0.25;"/>
<line x1="280.800000" y1="133.000000" x2="283.800000" y2="132.000000"  transform="rotate(0.000000,283.800000,132.000000)" style="stroke: black; stroke-width:0.25;"/>
<a xlink:href="hmeter-0x7f8c8b625290.svg">
<rect x="284.800000" y="153.000000" width="25.800000" height="24.000000" rx="0" ry="0" style="stroke:none;fill:#cccccc;"/>
<rect x="283.800000" y="152.000000" width="25.800000" height="24.000000" rx="0" ry="0" style="stroke:none;fill:#003366;"/>
</a>
<a xlink:href="hmeter-0x7f8c8b625290.svg">
<text x="296.700000" y="166.000000" font-family="Arial" font-size="7" text-anchor="middle" fill="#FFFFFF">hmeter</text>
</a>
<circle cx="285.800000" cy="154.000000" r="1"/>
<line x1="280.800000" y1="163.000000" x2="283.800000" y2="164.000000"  transform="rotate(0.000000,283.800000,164.000000)" style="stroke: black; stroke-width:0.25;"/>
<line x1="280.800000" y1="165.000000" x2="283.800000" y2="164.000000"  transform="rotate(0.000000,283.800000,164.000000)" style="stroke: black; stroke-width:0.25;"/>
<a xlink:href="hmeter-0x7f8c8b625290.svg">
<rect x="284.800000" y="185.000000" width="25.800000" height="24.000000" rx="0" ry="0" style="stroke:none;fill:#cccccc;"/>
<rect x="283.800000" y="184.000000" width="25.800000" height="24.000000" rx="0" ry="0" style="stroke:none;fill:#003366;"/>
</a>
<a xlink:href="hmeter-0x7f8c8b625290.svg">
<text x="296.700000" y="198.000000" font-family="Arial" font-size="7" text-anchor="middle" fill="#FFFFFF">hmeter</text>
</a>
<circle cx="285.800000" cy="186.000000" r="1"/>
<line x1="280.800000" y1="195.000000" x2="283.800000" y2="196.000000"  transform="rotate(0.000000,283.800000,196.000000)" style="stroke: black; stroke-width:0.25;"/>
<line x1="280.800000" y1="197.000000" x2="283.800000" y2="196.000000"  transform="rotate(0.000000,283.800000,196.000000)" style="stroke: black; stroke-width:0.25;"/>
<line x1="15.000000" y1="15.000000" x2="15.000000" y2="217.000000"  style="stroke: black; stroke-linecap:round; stroke-width:0.25; stroke-dasharray:3,3;"/>
<line x1="15.000000" y1="217.000000" x2="350.600000" y2="217.000000"  style="stroke: black; stroke-linecap:round; stroke-width:0.25; stroke-dasharray:3,3;"/>
<line x1="350.600000" y1="217.000000" x2="350.600000" y2="15.000000"  style="stroke: black; stroke-linecap:round; stroke-width:0.25; stroke-dasharray:3,3;"/>
<line x1="15.000000" y1="15.000000" x2="20.000000" y2="15.000000"  style="stroke: black; stroke-linecap:round; stroke-width:0.25; stroke-dasharray:3,3;"/>
<line x1="49.025000" y1="15.000000" x2="350.600000" y2="15.000000"  style="stroke: black; stroke-linecap:round; stroke-width:0.25; stroke-dasharray:3,3;"/>
<text x="20.000000" y="17.000000" font-family="Arial" font-size="7">process</text>
<line x1="352.600000" y1="95.000000" x2="355.600000" y2="96.000000"  transform="rotate(0.000000,355.600000,96.000000)" style="stroke: black; stroke-width:0.25;"/>
<line x1="352.600000" y1="97.000000" x2="355.600000" y2="96.000000"  transform="rotate(0.000000,355.600000,96.000000)" style="stroke: black; stroke-width:0.25;"/>
<line x1="352.600000" y1="103.000000" x2="355.600000" y2="104.000000"  transform="rotate(0.000000,355.600000,104.000000)" style="stroke: black; stroke-width:0.25;"/>
<line x1="352.600000" y1="105.000000" x2="355.600000" y2="104.000000"  transform="rotate(0.000000,355.600000,104.000000)" style="stroke: black; stroke-width:0.25;"/>
<line x1="352.600000" y1="111.000000" x2="355.600000" y2="112.000000"  transform="rotate(0.000000,355.600000,112.000000)" style="stroke: black; stroke-width:0.25;"/>
<line x1="352.600000" y1="113.000000" x2="355.600000" y2="112.000000"  transform="rotate(0.000000,355.600000,112.000000)" style="stroke: black; stroke-width:0.25;"/>
<line x1="352.600000" y1="119.000000" x2="355.600000" y2="120.000000"  transform="rotate(0.000000,355.600000,120.000000)" style="stroke: black; stroke-width:0.25;"/>
<line x1="352.600000" y1="121.000000" x2="355.600000" y2="120.000000"  transform="rotate(0.000000,355.600000,120.000000)" style="stroke: black; stroke-width:0.25;"/>
<line x1="352.600000" y1="127.000000" x2="355.600000" y2="128.000000"  transform="rotate(0.000000,355.600000,128.000000)" style="stroke: black; stroke-width:0.25;"/>
<line x1="352.600000" y1="129.000000" x2="355.600000" y2="128.000000"  transform="rotate(0.000000,355.600000,128.000000)" style="stroke: black; stroke-width:0.25;"/>
<line x1="352.600000" y1="135.000000" x2="355.600000" y2="136.000000"  transform="rotate(0.000000,355.600000,136.000000)" style="stroke: black; stroke-width:0.25;"/>
<line x1="352.600000" y1="137.000000" x2="355.600000" y2="136.000000"  transform="rotate(0.000000,355.600000,136.000000)" style="stroke: black; stroke-width:0.25;"/>
<line x1="10.000000" y1="72.000000" x2="20.000000" y2="72.000000"  style="stroke:black; stroke-linecap:round; stroke-width:0.25;"/>
<line x1="10.000000" y1="80.000000" x2="20.000000" y2="80.000000"  style="stroke:black; stroke-linecap:round; stroke-width:0.25;"/>
<line x1="10.000000" y1="88.000000" x2="20.000000" y2="88.000000"  style="stroke:black; stroke-linecap:round; stroke-width:0.25;"/>
<line x1="10.000000" y1="96.000000" x2="20.000000" y2="96.000000"  style="stroke:black; stroke-linecap:round; stroke-width:0.25;"/>
<line x1="10.000000" y1="104.000000" x2="20.000000" y2="104.000000"  style="stroke:black; stroke-linecap:round; stroke-width:0.25;"/>
<line x1="10.000000" y1="112.000000" x2="20.000000" y2="112.000000"  style="stroke:black; stroke-linecap:round; stroke-width:0.25;"/>
<line x1="10.000000" y1="120.000000" x2="20.000000" y2="120.000000"  style="stroke:black; stroke-linecap:round; stroke-width:0.25;"/>
<line x1="10.000000" y1="128.000000" x2="20.000000" y2="128.000000"  style="stroke:black; stroke-linecap:round; stroke-width:0.25;"/>
<line x1="10.000000" y1="136.000000" x2="20.000000" y2="136.000000"  style="stroke:black; stroke-linecap:round; stroke-width:0.25;"/>
<line x1="10.000000" y1="144.000000" x2="20.000000" y2="144.000000"  style="stroke:black; stroke-linecap:round; stroke-width:0.25;"/>
<line x1="10.000000" y1="152.000000" x2="20.000000" y2="152.000000"  style="stroke:black; stroke-linecap:round; stroke-width:0.25;"/>
<line x1="10.000000" y1="160.000000" x2="20.000000" y2="160.000000"  style="stroke:black; stroke-linecap:round; stroke-width:0.25;"/>
<line x1="20.000000" y1="72.000000" x2="24.000000" y2="72.000000"  style="stroke:black; stroke-linecap:round; stroke-width:0.25;"/>
<line x1="20.000000" y1="80.000000" x2="24.000000" y2="80.000000"  style="stroke:black; stroke-linecap:round; stroke-width:0.25;"/>
<line x1="20.000000" y1="88.000000" x2="24.000000" y2="88.000000"  style="stroke:black; stroke-linecap:round; stroke-width:0.25;"/>
<line x1="20.000000" y1="96.000000" x2="24.000000" y2="96.000000"  style="stroke:black; stroke-linecap:round; stroke-width:0.25;"/>
<line x1="20.000000" y1="104.000000" x2="24.000000" y2="104.000000"  style="stroke:black; stroke-linecap:round; stroke-width:0.25;"/>
<line x1="20.000000" y1="112.000000" x2="24.000000" y2="112.000000"  style="stroke:black; stroke-linecap:round; stroke-width:0.25;"/>
<line x1="20.000000" y1="120.000000" x2="24.000000" y2="120.000000"  style="stroke:black; stroke-linecap:round; stroke-width:0.25;"/>
<line x1="20.000000" y1="128.000000" x2="24.000000" y2="128.000000"  style="stroke:black; stroke-linecap:round; stroke-width:0.25;"/>
<line x1="20.000000" y1="136.000000" x2="24.000000" y2="136.000000"  style="stroke:black; stroke-linecap:round; stroke-width:0.25;"/>
<line x1="20.000000" y1="144.000000" x2="24.000000" y2="144.000000"  style="stroke:black; stroke-linecap:round; stroke-width:0.25;"/>
<line x1="20.000000" y1="152.000000" x2="24.000000" y2="152.000000"  style="stroke:black; stroke-linecap:round; stroke-width:0.25;"/>
<line x1="20.000000" y1="160.000000" x2="24.000000" y2="160.000000"  style="stroke:black; stroke-linecap:round; stroke-width:0.25;"/>
<line x1="24.000000" y1="136.000000" x2="28.000000" y2="136.000000"  style="stroke:black; stroke-linecap:round; stroke-width:0.25;"/>
<line x1="24.000000" y1="144.000000" x2="28.000000" y2="144.000000"  style="stroke:black; stroke-linecap:round; stroke-width:0.25;"/>
<line x1="24.000000" y1="152.000000" x2="28.000000" y2="152.000000"  style="stroke:black; stroke-linecap:round; stroke-width:0.25;"/>
<line x1="28.000000" y1="136.000000" x2="28.000000" y2="136.000000"  style="stroke:black; stroke-linecap:round; stroke-width:0.25;"/>
<line x1="28.000000" y1="136.000000" x2="52.000000" y2="136.000000"  style="stroke:black; stroke-linecap:round; stroke-width:0.25;"/>
<line x1="28.000000" y1="144.000000" x2="28.000000" y2="144.000000"  style="stroke:black; stroke-linecap:round; stroke-width:0.25;"/>
<line x1="28.000000" y1="144.000000" x2="60.000000" y2="144.000000"  style="stroke:black; stroke-linecap:round; stroke-width:0.25;"/>
<line x1="28.000000" y1="152.000000" x2="28.000000" y2="152.000000"  style="stroke:black; stroke-linecap:round; stroke-width:0.25;"/>
<line x1="28.000000" y1="152.000000" x2="68.000000" y2="152.000000"  style="stroke:black; stroke-linecap:round; stroke-width:0.25;"/>
<line x1="52.000000" y1="108.280000" x2="84.000000" y2="108.280000"  style="stroke:black; stroke-linecap:round; stroke-width:0.25;"/>
<line x1="52.000000" y1="136.000000" x2="52.000000" y2="108.280000"  style="stroke:black; stroke-linecap:round; stroke-width:0.25;"/>
<line x1="60.000000" y1="116.280000" x2="84.000000" y2="116.280000"  style="stroke:black; stroke-linecap:round; stroke-width:0.25;"/>
<line x1="60.000000" y1="144.000000" x2="60.000000" y2="116.280000"  style="stroke:black; stroke-linecap:round; stroke-width:0.25;"/>
<line x1="68.000000" y1="124.280000" x2="84.000000" y2="124.280000"  style="stroke:black; stroke-linecap:round; stroke-width:0.25;"/>
<line x1="68.000000" y1="152.000000" x2="68.000000" y2="124.280000"  style="stroke:black; stroke-linecap:round; stroke-width:0.25;"/>
<line x1="84.000000" y1="108.280000" x2="156.000000" y2="52.000000"  style="stroke:black; stroke-linecap:round; stroke-width:0.25;"/>
<line x1="84.000000" y1="108.280000" x2="156.000000" y2="108.000000"  style="stroke:black; stroke-linecap:round; stroke-width:0.25;"/>
<line x1="84.000000" y1="108.280000" x2="156.000000" y2="164.000000"  style="stroke:black; stroke-linecap:round; stroke-width:0.25;"/>
<line x1="84.000000" y1="116.280000" x2="156.000000" y2="60.000000"  style="stroke:black; stroke-linecap:round; stroke-width:0.25;"/>
<line x1="84.000000" y1="116.280000" x2="156.000000" y2="116.000000"  style="stroke:black; stroke-linecap:round; stroke-width:0.25;"/>
<line x1="84.000000" y1="116.280000" x2="156.000000" y2="172.000000"  style="stroke:black; stroke-linecap:round; stroke-width:0.25;"/>
<line x1="84.000000" y1="124.280000" x2="156.000000" y2="68.000000"  style="stroke:black; stroke-linecap:round; stroke-width:0.25;"/>
<line x1="84.000000" y1="124.280000" x2="156.000000" y2="124.000000"  style="stroke:black; stroke-linecap:round; stroke-width:0.25;"/>
<line x1="84.000000" y1="124.280000" x2="156.000000" y2="180.000000"  style="stroke:black; stroke-linecap:round; stroke-width:0.25;"/>
<line x1="156.000000" y1="52.000000" x2="160.000000" y2="52.000000"  style="stroke:black; stroke-linecap:round; stroke-width:0.25;"/>
<line x1="156.000000" y1="60.000000" x2="160.000000" y2="60.000000"  style="stroke:black; stroke-linecap:round; stroke-width:0.25;"/>
<line x1="156.000000" y1="68.000000" x2="160.000000" y2="68.000000"  style="stroke:black; stroke-linecap:round; stroke-width:0.25;"/>
<line x1="156.000000" y1="108.000000" x2="160.000000" y2="108.000000"  style="stroke:black; stroke-linecap:round; stroke-width:0.25;"/>
<line x1="156.000000" y1="116.000000" x2="160.000000" y2="116.000000"  style="stroke:black; stroke-linecap:round; stroke-width:0.25;"/>
<line x1="156.000000" y1="124.000000" x2="160.000000" y2="124.000000"  style="stroke:black; stroke-linecap:round; stroke-width:0.25;"/>
<line x1="156.000000" y1="164.000000" x2="160.000000" y2="164.000000"  style="stroke:black; stroke-linecap:round; stroke-width:0.25;"/>
<line x1="156.000000" y1="172.000000" x2="160.000000" y2="172.000000"  style="stroke:black; stroke-linecap:round; stroke-width:0.25;"/>
<line x1="156.000000" y1="180.000000" x2="160.000000" y2="180.000000"  style="stroke:black; stroke-linecap:round; stroke-width:0.25;"/>
<line x1="185.800000" y1="40.000000" x2="189.800000" y2="40.000000"  style="stroke:black; stroke-linecap:round; stroke-width:0.25;"/>
<line x1="185.800000" y1="48.000000" x2="189.800000" y2="48.000000"  style="stroke:black; stroke-linecap:round; stroke-width:0.25;"/>
<line x1="185.800000" y1="56.000000" x2="189.800000" y2="56.000000"  style="stroke:black; stroke-linecap:round; stroke-width:0.25;"/>
<line x1="185.800000" y1="64.000000" x2="189.800000" y2="64.000000"  style="stroke:black; stroke-linecap:round; stroke-width:0.25;"/>
<line x1="185.800000" y1="72.000000" x2="189.800000" y2="72.000000"  style="stroke:black; stroke-linecap:round; stroke-width:0.25;"/>
<line x1="185.800000" y1="80.000000" x2="189.800000" y2="80.000000"  style="stroke:black; stroke-linecap:round; stroke-width:0.25;"/>
<line x1="185.800000" y1="96.000000" x2="189.800000" y2="96.000000"  style="stroke:black; stroke-linecap:round; stroke-width:0.25;"/>
<line x1="185.800000" y1="104.000000" x2="189.800000" y2="104.000000"  style="stroke:black; stroke-linecap:round; stroke-width:0.25;"/>
<line x1="185.800000" y1="112.000000" x2="189.800000" y2="112.000000"  style="stroke:black; stroke-linecap:round; stroke-width:0.25;"/>
<line x1="185.800000" y1="120.000000" x2="189.800000" y2="120.000000"  style="stroke:black; stroke-linecap:round; stroke-width:0.25;"/>
<line x1="185.800000" y1="128.000000" x2="189.800000" y2="128.000000"  style="stroke:black; stroke-linecap:round; stroke-width:0.25;"/>
<line x1="185.800000" y1="136.000000" x2="189.800000" y2="136.000000"  style="stroke:black; stroke-linecap:round; stroke-width:0.25;"/>
<line x1="185.800000" y1="152.000000" x2="189.800000" y2="152.000000"  style="stroke:black; stroke-linecap:round; stroke-width:0.25;"/>
<line x1="185.800000" y1="160.000000" x2="189.800000" y2="160.000000"  style="stroke:black; stroke-linecap:round; stroke-width:0.25;"/>
<line x1="185.800000" y1="168.000000" x2="189.800000" y2="168.000000"  style="stroke:black; stroke-linecap:round; stroke-width:0.25;"/>
<line x1="185.800000" y1="176.000000" x2="189.800000" y2="176.000000"  style="stroke:black; stroke-linecap:round; stroke-width:0.25;"/>
<line x1="185.800000" y1="184.000000" x2="189.800000" y2="184.000000"  style="stroke:black; stroke-linecap:round; stroke-width:0.25;"/>
<line x1="185.800000" y1="192.000000" x2="189.800000" y2="192.000000"  style="stroke:black; stroke-linecap:round; stroke-width:0.25;"/>
<line x1="189.800000" y1="40.000000" x2="279.800000" y2="36.000000"  style="stroke:black; stroke-linecap:round; stroke-width:0.25;"/>
<line x1="189.800000" y1="48.000000" x2="279.800000" y2="68.000000"  style="stroke:black; stroke-linecap:round; stroke-width:0.25;"/>
<line x1="189.800000" y1="56.000000" x2="279.800000" y2="100.000000"  style="stroke:black; stroke-linecap:round; stroke-width:0.25;"/>
<line x1="189.800000" y1="64.000000" x2="279.800000" y2="132.000000"  style="stroke:black; stroke-linecap:round; stroke-width:0.25;"/>
<line x1="189.800000" y1="72.000000" x2="279.800000" y2="164.000000"  style="stroke:black; stroke-linecap:round; stroke-width:0.25;"/>
<line x1="189.800000" y1="80.000000" x2="279.800000" y2="196.000000"  style="stroke:black; stroke-linecap:round; stroke-width:0.25;"/>
<line x1="189.800000" y1="96.000000" x2="279.800000" y2="36.000000"  style="stroke:black; stroke-linecap:round; stroke-width:0.25;"/>
<line x1="189.800000" y1="104.000000" x2="279.800000" y2="68.000000"  style="stroke:black; stroke-linecap:round; stroke-width:0.25;"/>
<line x1="189.800000" y1="112.000000" x2="279.800000" y2="100.000000"  style="stroke:black; stroke-linecap:round; stroke-width:0.25;"/>
<line x1="189.800000" y1="120.000000" x2="279.800000" y2="132.000000"  style="stroke:black; stroke-linecap:round; stroke-width:0.25;"/>
<line x1="189.800000" y1="128.000000" x2="279.800000" y2="164.000000"  style="stroke:black; stroke-linecap:round; stroke-width:0.25;"/>
<line x1="189.800000" y1="136.000000" x2="279.800000" y2="196.000000"  style="stroke:black; stroke-linecap:round; stroke-width:0.25;"/>
<line x1="189.800000" y1="152.000000" x2="279.800000" y2="36.000000"  style="stroke:black; stroke-linecap:round; stroke-width:0.25;"/>
<line x1="189.800000" y1="160.000000" x2="279.800000" y2="68.000000"  style="stroke:black; stroke-linecap:round; stroke-width:0.25;"/>
<line x1="189.800000" y1="168.000000" x2="279.800000" y2="100.000000"  style="stroke:black; stroke-linecap:round; stroke-width:0.25;"/>
<line x1="189.800000" y1="176.000000" x2="279.800000" y2="132.000000"  style="stroke:black; stroke-linecap:round; stroke-width:0.25;"/>
<line x1="189.800000" y1="184.000000" x2="279.800000" y2="164.000000"  style="stroke:black; stroke-linecap:round; stroke-width:0.25;"/>
<line x1="189.800000" y1="192.000000" x2="279.800000" y2="196.000000"  style="stroke:black; stroke-linecap:round; stroke-width:0.25;"/>
<line x1="279.800000" y1="36.000000" x2="283.800000" y2="36.000000"  style="stroke:black; stroke-linecap:round; stroke-width:0.25;"/>
<line x1="279.800000" y1="68.000000" x2="283.800000" y2="68.000000"  style="stroke:black; stroke-linecap:round; stroke-width:0.25;"/>
<line x1="279.800000" y1="100.000000" x2="283.800000" y2="100.000000"  style="stroke:black; stroke-linecap:round; stroke-width:0.25;"/>
<line x1="279.800000" y1="132.000000" x2="283.800000" y2="132.000000"  style="stroke:black; stroke-linecap:round; stroke-width:0.25;"/>
<line x1="279.800000" y1="164.000000" x2="283.800000" y2="164.000000"  style="stroke:black; stroke-linecap:round; stroke-width:0.25;"/>
<line x1="279.800000" y1="196.000000" x2="283.800000" y2="196.000000"  style="stroke:black; stroke-linecap:round; stroke-width:0.25;"/>
<line x1="309.600000" y1="36.000000" x2="313.600000" y2="36.000000"  style="stroke:black; stroke-linecap:round; stroke-width:0.25;"/>
<line x1="309.600000" y1="68.000000" x2="313.600000" y2="68.000000"  style="stroke:black; stroke-linecap:round; stroke-width:0.25;"/>
<line x1="309.600000" y1="100.000000" x2="313.600000" y2="100.000000"  style="stroke:black; stroke-linecap:round; stroke-width:0.25;"/>
<line x1="309.600000" y1="132.000000" x2="313.600000" y2="132.000000"  style="stroke:black; stroke-linecap:round; stroke-width:0.25;"/>
<line x1="309.600000" y1="164.000000" x2="313.600000" y2="164.000000"  style="stroke:black; stroke-linecap:round; stroke-width:0.25;"/>
<line x1="309.600000" y1="196.000000" x2="313.600000" y2="196.000000"  style="stroke:black; stroke-linecap:round; stroke-width:0.25;"/>
<line x1="313.600000" y1="36.000000" x2="337.600000" y2="36.000000"  style="stroke:black; stroke-linecap:round; stroke-width:0.25;"/>
<line x1="313.600000" y1="68.000000" x2="329.600000" y2="68.000000"  style="stroke:black; stroke-linecap:round; stroke-width:0.25;"/>
<line x1="313.600000" y1="100.000000" x2="321.600000" y2="100.000000"  style="stroke:black; stroke-linecap:round; stroke-width:0.25;"/>
<line x1="313.600000" y1="120.000000" x2="337.600000" y2="120.000000"  style="stroke:black; stroke-linecap:round; stroke-width:0.25;"/>
<line x1="313.600000" y1="132.000000" x2="313.600000" y2="120.000000"  style="stroke:black; stroke-linecap:round; stroke-width:0.25;"/>
<line x1="313.600000" y1="132.000000" x2="313.600000" y2="132.000000"  style="stroke:black; stroke-linecap:round; stroke-width:0.25;"/>
<line x1="313.600000" y1="164.000000" x2="321.600000" y2="164.000000"  style="stroke:black; stroke-linecap:round; stroke-width:0.25;"/>
<line x1="313.600000" y1="196.000000" x2="329.600000" y2="196.000000"  style="stroke:black; stroke-linecap:round; stroke-width:0.25;"/>
<line x1="321.600000" y1="100.000000" x2="321.600000" y2="112.000000"  style="stroke:black; stroke-linecap:round; stroke-width:0.25;"/>
<line x1="321.600000" y1="112.000000" x2="337.600000" y2="112.000000"  style="stroke:black; stroke-linecap:round; stroke-width:0.25;"/>
<line x1="321.600000" y1="128.000000" x2="337.600000" y2="128.000000"  style="stroke:black; stroke-linecap:round; stroke-width:0.25;"/>
<line x1="321.600000" y1="164.000000" x2="321.600000" y2="128.000000"  style="stroke:black; stroke-linecap:round; stroke-width:0.25;"/>
<line x1="329.600000" y1="68.000000" x2="329.600000" y2="104.000000"  style="stroke:black; stroke-linecap:round; stroke-width:0.25;"/>
<line x1="329.600000" y1="104.000000" x2="337.600000" y2="104.000000"  style="stroke:black; stroke-linecap:round; stroke-width:0.25;"/>
<line x1="329.600000" y1="136.000000" x2="337.600000" y2="136.000000"  style="stroke:black; stroke-linecap:round; stroke-width:0.25;"/>
<line x1="329.600000" y1="196.000000" x2="329.600000" y2="136.000000"  style="stroke:black; stroke-linecap:round; stroke-width:0.25;"/>
<line x1="337.600000" y1="36.000000" x2="337.600000" y2="96.000000"  style="stroke:black; stroke-linecap:round; stroke-width:0.25;"/>
<line x1="337.600000" y1="96.000000" x2="337.600000" y2="96.000000"  style="stroke:black; stroke-linecap:round; stroke-width:0.25;"/>
<line x1="337.600000" y1="96.000000" x2="341.600000" y2="96.000000"  style="stroke:black; stroke-linecap:round; stroke-width:0.25;"/>
<line x1="337.600000" y1="104.000000" x2="341.600000" y2="104.000000"  style="stroke:black; stroke-linecap:round; stroke-width:0.25;"/>
<line x1="337.600000" y1="112.000000" x2="341.600000" y2="112.000000"  style="stroke:black; stroke-linecap:round; stroke-width:0.25;"/>
<line x1="337.600000" y1="120.000000" x2="341.600000" y2="120.000000"  style="stroke:black; stroke-linecap:round; stroke-width:0.25;"/>
<line x1="337.600000" y1="128.000000" x2="341.600000" y2="128.000000"  style="stroke:black; stroke-linecap:round; stroke-width:0.25;"/>
<line x1="337.600000" y1="136.000000" x2="341.600000" y2="136.000000"  style="stroke:black; stroke-linecap:round; stroke-width:0.25;"/>
<line x1="341.600000" y1="96.000000" x2="345.600000" y2="96.000000"  style="stroke:black; stroke-linecap:round; stroke-width:0.25;"/>
<line x1="341.600000" y1="104.000000" x2="345.600000" y2="104.000000"  style="stroke:black; stroke-linecap:round; stroke-width:0.25;"/>
<line x1="341.600000" y1="112.000000" x2="345.600000" y2="112.000000"  style="stroke:black; stroke-linecap:round; stroke-width:0.25;"/>
<line x1="341.600000" y1="120.000000" x2="345.600000" y2="120.000000"  style="stroke:black; stroke-linecap:round; stroke-width:0.25;"/>
<line x1="341.600000" y1="128.000000" x2="345.600000" y2="128.000000"  style="stroke:black; stroke-linecap:round; stroke-width:0.25;"/>
<line x1="341.600000" y1="136.000000" x2="345.600000" y2="136.000000"  style="stroke:black; stroke-linecap:round; stroke-width:0.25;"/>
<line x1="345.600000" y1="96.000000" x2="355.600000" y2="96.000000"  style="stroke:black; stroke-linecap:round; stroke-width:0.25;"/>
<line x1="345.600000" y1="104.000000" x2="355.600000" y2="104.000000"  style="stroke:black; stroke-linecap:round; stroke-width:0.25;"/>
<line x1="345.600000" y1="112.000000" x2="355.600000" y2="112.000000"  style="stroke:black; stroke-linecap:round; stroke-width:0.25;"/>
<line x1="345.600000" y1="120.000000" x2="355.600000" y2="120.000000"  style="stroke:black; stroke-linecap:round; stroke-width:0.25;"/>
<line x1="345.600000" y1="128.000000" x2="355.600000" y2="128.000000"  style="stroke:black; stroke-linecap:round; stroke-width:0.25;"/>
<line x1="345.600000" y1="136.000000" x2="355.600000" y2="136.000000"  style="stroke:black; stroke-linecap:round; stroke-width:0.25;"/>
</svg>
