<?xml version="1.0"?>
<svg xmlns="http://www.w3.org/2000/svg" xmlns:xlink="http://www.w3.org/1999/xlink" viewBox="0 0 648.700000 172.000000" width="324.350000mm" height="86.000000mm" version="1.1">
<a xlink:href="tau2pole-0x7faa77731500.svg">
<rect x="1.000000" y="1.000000" width="647.700000" height="171.000000" rx="0" ry="0" style="stroke:none;fill:#cccccc;"/>
<rect x="0.000000" y="0.000000" width="647.700000" height="171.000000" rx="0" ry="0" style="stroke:none;fill:#ffffff;"/>
</a>
<text x="10.000000" y="7.000000" font-family="Arial" font-size="7"></text>
<rect x="75.000000" y="75.000000" width="270.900000" height="24.000000" rx="0" ry="0" style="stroke:none;fill:#cccccc;"/>
<rect x="74.000000" y="74.000000" width="270.900000" height="24.000000" rx="0" ry="0" style="stroke:none;fill:#477881;"/>
<text x="209.450000" y="88.000000" font-family="Arial" font-size="7" text-anchor="middle" fill="#FFFFFF">vslider(Release, 500.0f, 1.0f, 1000.0f, 0.10000000000000001f)</text>
<circle cx="76.000000" cy="76.000000" r="1"/>
<line x1="65.000000" y1="65.000000" x2="65.000000" y2="107.000000"  style="stroke: black; stroke-linecap:round; stroke-width:0.25; stroke-dasharray:3,3;"/>
<line x1="65.000000" y1="107.000000" x2="353.900000" y2="107.000000"  style="stroke: black; stroke-linecap:round; stroke-width:0.25; stroke-dasharray:3,3;"/>
<line x1="353.900000" y1="107.000000" x2="353.900000" y2="65.000000"  style="stroke: black; stroke-linecap:round; stroke-width:0.25; stroke-dasharray:3,3;"/>
<line x1="65.000000" y1="65.000000" x2="70.000000" y2="65.000000"  style="stroke: black; stroke-linecap:round; stroke-width:0.25; stroke-dasharray:3,3;"/>
<line x1="163.525000" y1="65.000000" x2="353.900000" y2="65.000000"  style="stroke: black; stroke-linecap:round; stroke-width:0.25; stroke-dasharray:3,3;"/>
<text x="70.000000" y="67.000000" font-family="Arial" font-size="7">hgroup(Compression Control)</text>
<line x1="55.000000" y1="55.000000" x2="55.000000" y2="117.000000"  style="stroke: black; stroke-linecap:round; stroke-width:0.25; stroke-dasharray:3,3;"/>
<line x1="55.000000" y1="117.000000" x2="363.900000" y2="117.000000"  style="stroke: black; stroke-linecap:round; stroke-width:0.25; stroke-dasharray:3,3;"/>
<line x1="363.900000" y1="117.000000" x2="363.900000" y2="55.000000"  style="stroke: black; stroke-linecap:round; stroke-width:0.25; stroke-dasharray:3,3;"/>
<line x1="55.000000" y1="55.000000" x2="60.000000" y2="55.000000"  style="stroke: black; stroke-linecap:round; stroke-width:0.25; stroke-dasharray:3,3;"/>
<line x1="92.250000" y1="55.000000" x2="363.900000" y2="55.000000"  style="stroke: black; stroke-linecap:round; stroke-width:0.25; stroke-dasharray:3,3;"/>
<text x="60.000000" y="57.000000" font-family="Arial" font-size="7">hgroup()</text>
<line x1="45.000000" y1="45.000000" x2="45.000000" y2="127.000000"  style="stroke: black; stroke-linecap:round; stroke-width:0.25; stroke-dasharray:3,3;"/>
<line x1="45.000000" y1="127.000000" x2="373.900000" y2="127.000000"  style="stroke: black; stroke-linecap:round; stroke-width:0.25; stroke-dasharray:3,3;"/>
<line x1="373.900000" y1="127.000000" x2="373.900000" y2="45.000000"  style="stroke: black; stroke-linecap:round; stroke-width:0.25; stroke-dasharray:3,3;"/>
<line x1="45.000000" y1="45.000000" x2="50.000000" y2="45.000000"  style="stroke: black; stroke-linecap:round; stroke-width:0.25; stroke-dasharray:3,3;"/>
<line x1="114.500000" y1="45.000000" x2="373.900000" y2="45.000000"  style="stroke: black; stroke-linecap:round; stroke-width:0.25; stroke-dasharray:3,3;"/>
<text x="50.000000" y="47.000000" font-family="Arial" font-size="7">vgroup(COMPRESSOR)</text>
<line x1="35.000000" y1="35.000000" x2="35.000000" y2="137.000000"  style="stroke: black; stroke-linecap:round; stroke-width:0.25; stroke-dasharray:3,3;"/>
<line x1="35.000000" y1="137.000000" x2="383.900000" y2="137.000000"  style="stroke: black; stroke-linecap:round; stroke-width:0.25; stroke-dasharray:3,3;"/>
<line x1="383.900000" y1="137.000000" x2="383.900000" y2="35.000000"  style="stroke: black; stroke-linecap:round; stroke-width:0.25; stroke-dasharray:3,3;"/>
<line x1="35.000000" y1="35.000000" x2="40.000000" y2="35.000000"  style="stroke: black; stroke-linecap:round; stroke-width:0.25; stroke-dasharray:3,3;"/>
<line x1="127.075000" y1="35.000000" x2="383.900000" y2="35.000000"  style="stroke: black; stroke-linecap:round; stroke-width:0.25; stroke-dasharray:3,3;"/>
<text x="40.000000" y="37.000000" font-family="Arial" font-size="7">vgroup(----- FLUTE -----)</text>
<line x1="25.000000" y1="25.000000" x2="25.000000" y2="147.000000"  style="stroke: black; stroke-linecap:round; stroke-width:0.25; stroke-dasharray:3,3;"/>
<line x1="25.000000" y1="147.000000" x2="393.900000" y2="147.000000"  style="stroke: black; stroke-linecap:round; stroke-width:0.25; stroke-dasharray:3,3;"/>
<line x1="393.900000" y1="147.000000" x2="393.900000" y2="25.000000"  style="stroke: black; stroke-linecap:round; stroke-width:0.25; stroke-dasharray:3,3;"/>
<line x1="25.000000" y1="25.000000" x2="30.000000" y2="25.000000"  style="stroke: black; stroke-linecap:round; stroke-width:0.25; stroke-dasharray:3,3;"/>
<line x1="129.975000" y1="25.000000" x2="393.900000" y2="25.000000"  style="stroke: black; stroke-linecap:round; stroke-width:0.25; stroke-dasharray:3,3;"/>
<text x="30.000000" y="27.000000" font-family="Arial" font-size="7">ctl_group(vsl...0000000001f))</text>
<rect x="411.900000" y="79.000000" width="25.800000" height="24.000000" rx="0" ry="0" style="stroke:none;fill:#cccccc;"/>
<rect x="410.900000" y="78.000000" width="25.800000" height="24.000000" rx="0" ry="0" style="stroke:none;fill:#f44800;"/>
<text x="423.800000" y="92.000000" font-family="Arial" font-size="7" text-anchor="middle" fill="#FFFFFF">0.001</text>
<circle cx="412.900000" cy="80.000000" r="1"/>
<rect x="453.700000" y="75.000000" width="24.000000" height="24.000000" rx="0" ry="0" style="stroke:none;fill:#cccccc;"/>
<rect x="452.700000" y="74.000000" width="24.000000" height="24.000000" rx="0" ry="0" style="stroke:none;fill:#4B71A1;"/>
<text x="464.700000" y="88.000000" font-family="Arial" font-size="7" text-anchor="middle" fill="#FFFFFF">*</text>
<circle cx="454.700000" cy="76.000000" r="1"/>
<line x1="449.700000" y1="81.000000" x2="452.700000" y2="82.000000"  transform="rotate(0.000000,452.700000,82.000000)" style="stroke: black; stroke-width:0.25;"/>
<line x1="449.700000" y1="83.000000" x2="452.700000" y2="82.000000"  transform="rotate(0.000000,452.700000,82.000000)" style="stroke: black; stroke-width:0.25;"/>
<line x1="449.700000" y1="89.000000" x2="452.700000" y2="90.000000"  transform="rotate(0.000000,452.700000,90.000000)" style="stroke: black; stroke-width:0.25;"/>
<line x1="449.700000" y1="91.000000" x2="452.700000" y2="90.000000"  transform="rotate(0.000000,452.700000,90.000000)" style="stroke: black; stroke-width:0.25;"/>
<rect x="503.700000" y="55.000000" width="24.000000" height="24.000000" rx="0" ry="0" style="stroke:none;fill:#cccccc;"/>
<rect x="502.700000" y="54.000000" width="24.000000" height="24.000000" rx="0" ry="0" style="stroke:none;fill:#f44800;"/>
<text x="514.700000" y="68.000000" font-family="Arial" font-size="7" text-anchor="middle" fill="#FFFFFF">1</text>
<circle cx="504.700000" cy="56.000000" r="1"/>
<line x1="493.700000" y1="45.000000" x2="493.700000" y2="87.000000"  style="stroke: black; stroke-linecap:round; stroke-width:0.25; stroke-dasharray:3,3;"/>
<line x1="493.700000" y1="87.000000" x2="535.700000" y2="87.000000"  style="stroke: black; stroke-linecap:round; stroke-width:0.25; stroke-dasharray:3,3;"/>
<line x1="535.700000" y1="87.000000" x2="535.700000" y2="45.000000"  style="stroke: black; stroke-linecap:round; stroke-width:0.25; stroke-dasharray:3,3;"/>
<line x1="493.700000" y1="45.000000" x2="498.700000" y2="45.000000"  style="stroke: black; stroke-linecap:round; stroke-width:0.25; stroke-dasharray:3,3;"/>
<line x1="521.275000" y1="45.000000" x2="535.700000" y2="45.000000"  style="stroke: black; stroke-linecap:round; stroke-width:0.25; stroke-dasharray:3,3;"/>
<text x="498.700000" y="47.000000" font-family="Arial" font-size="7">right</text>
<a xlink:href="SR-0x7faa774ad700.svg">
<rect x="503.700000" y="97.000000" width="24.000000" height="24.000000" rx="0" ry="0" style="stroke:none;fill:#cccccc;"/>
<rect x="502.700000" y="96.000000" width="24.000000" height="24.000000" rx="0" ry="0" style="stroke:none;fill:#003366;"/>
</a>
<a xlink:href="SR-0x7faa774ad700.svg">
<text x="514.700000" y="110.000000" font-family="Arial" font-size="7" text-anchor="middle" fill="#FFFFFF">SR</text>
</a>
<circle cx="504.700000" cy="98.000000" r="1"/>
<rect x="553.700000" y="71.000000" width="24.000000" height="24.000000" rx="0" ry="0" style="stroke:none;fill:#cccccc;"/>
<rect x="552.700000" y="70.000000" width="24.000000" height="24.000000" rx="0" ry="0" style="stroke:none;fill:#4B71A1;"/>
<text x="564.700000" y="84.000000" font-family="Arial" font-size="7" text-anchor="middle" fill="#FFFFFF">/</text>
<circle cx="554.700000" cy="72.000000" r="1"/>
<line x1="549.700000" y1="77.000000" x2="552.700000" y2="78.000000"  transform="rotate(0.000000,552.700000,78.000000)" style="stroke: black; stroke-width:0.25;"/>
<line x1="549.700000" y1="79.000000" x2="552.700000" y2="78.000000"  transform="rotate(0.000000,552.700000,78.000000)" style="stroke: black; stroke-width:0.25;"/>
<line x1="549.700000" y1="85.000000" x2="552.700000" y2="86.000000"  transform="rotate(0.000000,552.700000,86.000000)" style="stroke: black; stroke-width:0.25;"/>
<line x1="549.700000" y1="87.000000" x2="552.700000" y2="86.000000"  transform="rotate(0.000000,552.700000,86.000000)" style="stroke: black; stroke-width:0.25;"/>
<rect x="593.700000" y="75.000000" width="24.000000" height="24.000000" rx="0" ry="0" style="stroke:none;fill:#cccccc;"/>
<rect x="592.700000" y="74.000000" width="24.000000" height="24.000000" rx="0" ry="0" style="stroke:none;fill:#4B71A1;"/>
<text x="604.700000" y="88.000000" font-family="Arial" font-size="7" text-anchor="middle" fill="#FFFFFF">max</text>
<circle cx="594.700000" cy="76.000000" r="1"/>
<line x1="589.700000" y1="81.000000" x2="592.700000" y2="82.000000"  transform="rotate(0.000000,592.700000,82.000000)" style="stroke: black; stroke-width:0.25;"/>
<line x1="589.700000" y1="83.000000" x2="592.700000" y2="82.000000"  transform="rotate(0.000000,592.700000,82.000000)" style="stroke: black; stroke-width:0.25;"/>
<line x1="589.700000" y1="89.000000" x2="592.700000" y2="90.000000"  transform="rotate(0.000000,592.700000,90.000000)" style="stroke: black; stroke-width:0.25;"/>
<line x1="589.700000" y1="91.000000" x2="592.700000" y2="90.000000"  transform="rotate(0.000000,592.700000,90.000000)" style="stroke: black; stroke-width:0.25;"/>
<line x1="15.000000" y1="15.000000" x2="15.000000" y2="157.000000"  style="stroke: black; stroke-linecap:round; stroke-width:0.25; stroke-dasharray:3,3;"/>
<line x1="15.000000" y1="157.000000" x2="633.700000" y2="157.000000"  style="stroke: black; stroke-linecap:round; stroke-width:0.25; stroke-dasharray:3,3;"/>
<line x1="633.700000" y1="157.000000" x2="633.700000" y2="15.000000"  style="stroke: black; stroke-linecap:round; stroke-width:0.25; stroke-dasharray:3,3;"/>
<line x1="15.000000" y1="15.000000" x2="20.000000" y2="15.000000"  style="stroke: black; stroke-linecap:round; stroke-width:0.25; stroke-dasharray:3,3;"/>
<line x1="49.025000" y1="15.000000" x2="633.700000" y2="15.000000"  style="stroke: black; stroke-linecap:round; stroke-width:0.25; stroke-dasharray:3,3;"/>
<text x="20.000000" y="17.000000" font-family="Arial" font-size="7">release</text>
<line x1="635.700000" y1="85.000000" x2="638.700000" y2="86.000000"  transform="rotate(0.000000,638.700000,86.000000)" style="stroke: black; stroke-width:0.25;"/>
<line x1="635.700000" y1="87.000000" x2="638.700000" y2="86.000000"  transform="rotate(0.000000,638.700000,86.000000)" style="stroke: black; stroke-width:0.25;"/>
<line x1="344.900000" y1="86.000000" x2="348.900000" y2="86.000000"  style="stroke:black; stroke-linecap:round; stroke-width:0.25;"/>
<line x1="348.900000" y1="86.000000" x2="358.900000" y2="86.000000"  style="stroke:black; stroke-linecap:round; stroke-width:0.25;"/>
<line x1="358.900000" y1="86.000000" x2="368.900000" y2="86.000000"  style="stroke:black; stroke-linecap:round; stroke-width:0.25;"/>
<line x1="368.900000" y1="86.000000" x2="378.900000" y2="86.000000"  style="stroke:black; stroke-linecap:round; stroke-width:0.25;"/>
<line x1="378.900000" y1="86.000000" x2="388.900000" y2="86.000000"  style="stroke:black; stroke-linecap:round; stroke-width:0.25;"/>
<line x1="388.900000" y1="86.000000" x2="398.900000" y2="86.000000"  style="stroke:black; stroke-linecap:round; stroke-width:0.25;"/>
<line x1="398.900000" y1="70.000000" x2="406.900000" y2="70.000000"  style="stroke:black; stroke-linecap:round; stroke-width:0.25;"/>
<line x1="398.900000" y1="86.000000" x2="398.900000" y2="70.000000"  style="stroke:black; stroke-linecap:round; stroke-width:0.25;"/>
<line x1="398.900000" y1="86.000000" x2="398.900000" y2="86.000000"  style="stroke:black; stroke-linecap:round; stroke-width:0.25;"/>
<line x1="406.900000" y1="70.000000" x2="423.800000" y2="70.000000"  style="stroke:black; stroke-linecap:round; stroke-width:0.25;"/>
<line x1="423.800000" y1="70.000000" x2="440.700000" y2="70.000000"  style="stroke:black; stroke-linecap:round; stroke-width:0.25;"/>
<line x1="436.700000" y1="90.000000" x2="440.700000" y2="90.000000"  style="stroke:black; stroke-linecap:round; stroke-width:0.25;"/>
<line x1="440.700000" y1="70.000000" x2="448.700000" y2="70.000000"  style="stroke:black; stroke-linecap:round; stroke-width:0.25;"/>
<line x1="440.700000" y1="90.000000" x2="448.700000" y2="90.000000"  style="stroke:black; stroke-linecap:round; stroke-width:0.25;"/>
<line x1="448.700000" y1="70.000000" x2="448.700000" y2="82.000000"  style="stroke:black; stroke-linecap:round; stroke-width:0.25;"/>
<line x1="448.700000" y1="82.000000" x2="448.700000" y2="82.000000"  style="stroke:black; stroke-linecap:round; stroke-width:0.25;"/>
<line x1="448.700000" y1="82.000000" x2="452.700000" y2="82.000000"  style="stroke:black; stroke-linecap:round; stroke-width:0.25;"/>
<line x1="448.700000" y1="90.000000" x2="452.700000" y2="90.000000"  style="stroke:black; stroke-linecap:round; stroke-width:0.25;"/>
<line x1="476.700000" y1="86.000000" x2="480.700000" y2="86.000000"  style="stroke:black; stroke-linecap:round; stroke-width:0.25;"/>
<line x1="480.700000" y1="86.000000" x2="488.700000" y2="86.000000"  style="stroke:black; stroke-linecap:round; stroke-width:0.25;"/>
<line x1="488.700000" y1="86.000000" x2="488.700000" y2="128.000000"  style="stroke:black; stroke-linecap:round; stroke-width:0.25;"/>
<line x1="488.700000" y1="128.000000" x2="488.700000" y2="128.000000"  style="stroke:black; stroke-linecap:round; stroke-width:0.25;"/>
<line x1="488.700000" y1="128.000000" x2="534.700000" y2="128.000000"  style="stroke:black; stroke-linecap:round; stroke-width:0.25;"/>
<line x1="526.700000" y1="66.000000" x2="530.700000" y2="66.000000"  style="stroke:black; stroke-linecap:round; stroke-width:0.25;"/>
<line x1="526.700000" y1="108.000000" x2="530.700000" y2="108.000000"  style="stroke:black; stroke-linecap:round; stroke-width:0.25;"/>
<line x1="530.700000" y1="66.000000" x2="540.700000" y2="66.000000"  style="stroke:black; stroke-linecap:round; stroke-width:0.25;"/>
<line x1="530.700000" y1="108.000000" x2="540.700000" y2="108.000000"  style="stroke:black; stroke-linecap:round; stroke-width:0.25;"/>
<line x1="534.700000" y1="128.000000" x2="580.700000" y2="128.000000"  style="stroke:black; stroke-linecap:round; stroke-width:0.25;"/>
<line x1="540.700000" y1="66.000000" x2="548.700000" y2="66.000000"  style="stroke:black; stroke-linecap:round; stroke-width:0.25;"/>
<line x1="540.700000" y1="86.000000" x2="548.700000" y2="86.000000"  style="stroke:black; stroke-linecap:round; stroke-width:0.25;"/>
<line x1="540.700000" y1="108.000000" x2="540.700000" y2="86.000000"  style="stroke:black; stroke-linecap:round; stroke-width:0.25;"/>
<line x1="540.700000" y1="108.000000" x2="540.700000" y2="108.000000"  style="stroke:black; stroke-linecap:round; stroke-width:0.25;"/>
<line x1="548.700000" y1="66.000000" x2="548.700000" y2="78.000000"  style="stroke:black; stroke-linecap:round; stroke-width:0.25;"/>
<line x1="548.700000" y1="78.000000" x2="548.700000" y2="78.000000"  style="stroke:black; stroke-linecap:round; stroke-width:0.25;"/>
<line x1="548.700000" y1="78.000000" x2="552.700000" y2="78.000000"  style="stroke:black; stroke-linecap:round; stroke-width:0.25;"/>
<line x1="548.700000" y1="86.000000" x2="552.700000" y2="86.000000"  style="stroke:black; stroke-linecap:round; stroke-width:0.25;"/>
<line x1="576.700000" y1="82.000000" x2="580.700000" y2="82.000000"  style="stroke:black; stroke-linecap:round; stroke-width:0.25;"/>
<line x1="580.700000" y1="82.000000" x2="588.700000" y2="82.000000"  style="stroke:black; stroke-linecap:round; stroke-width:0.25;"/>
<line x1="580.700000" y1="90.000000" x2="588.700000" y2="90.000000"  style="stroke:black; stroke-linecap:round; stroke-width:0.25;"/>
<line x1="580.700000" y1="128.000000" x2="580.700000" y2="90.000000"  style="stroke:black; stroke-linecap:round; stroke-width:0.25;"/>
<line x1="580.700000" y1="128.000000" x2="580.700000" y2="128.000000"  style="stroke:black; stroke-linecap:round; stroke-width:0.25;"/>
<line x1="588.700000" y1="82.000000" x2="592.700000" y2="82.000000"  style="stroke:black; stroke-linecap:round; stroke-width:0.25;"/>
<line x1="588.700000" y1="90.000000" x2="592.700000" y2="90.000000"  style="stroke:black; stroke-linecap:round; stroke-width:0.25;"/>
<line x1="616.700000" y1="86.000000" x2="620.700000" y2="86.000000"  style="stroke:black; stroke-linecap:round; stroke-width:0.25;"/>
<line x1="620.700000" y1="86.000000" x2="620.700000" y2="86.000000"  style="stroke:black; stroke-linecap:round; stroke-width:0.25;"/>
<line x1="620.700000" y1="86.000000" x2="624.700000" y2="86.000000"  style="stroke:black; stroke-linecap:round; stroke-width:0.25;"/>
<line x1="624.700000" y1="86.000000" x2="628.700000" y2="86.000000"  style="stroke:black; stroke-linecap:round; stroke-width:0.25;"/>
<line x1="628.700000" y1="86.000000" x2="638.700000" y2="86.000000"  style="stroke:black; stroke-linecap:round; stroke-width:0.25;"/>
</svg>
