<?xml version="1.0"?>
<svg xmlns="http://www.w3.org/2000/svg" xmlns:xlink="http://www.w3.org/1999/xlink" viewBox="0 0 441.000000 160.000000" width="220.500000mm" height="80.000000mm" version="1.1">
<a xlink:href="bsax-0x7fee100b3570.svg">
<rect x="1.000000" y="1.000000" width="440.000000" height="159.000000" rx="0" ry="0" style="stroke:none;fill:#cccccc;"/>
<rect x="0.000000" y="0.000000" width="440.000000" height="159.000000" rx="0" ry="0" style="stroke:none;fill:#ffffff;"/>
</a>
<text x="10.000000" y="7.000000" font-family="Arial" font-size="7"></text>
<rect x="77.900000" y="25.000000" width="24.000000" height="24.000000" rx="0" ry="0" style="stroke:none;fill:#cccccc;"/>
<rect x="76.900000" y="24.000000" width="24.000000" height="24.000000" rx="0" ry="0" style="stroke:none;fill:#f44800;"/>
<text x="88.900000" y="38.000000" font-family="Arial" font-size="7" text-anchor="middle" fill="#FFFFFF">0</text>
<circle cx="78.900000" cy="26.000000" r="1"/>
<rect x="57.900000" y="57.000000" width="24.000000" height="24.000000" rx="0" ry="0" style="stroke:none;fill:#cccccc;"/>
<rect x="56.900000" y="56.000000" width="24.000000" height="24.000000" rx="0" ry="0" style="stroke:none;fill:#f44800;"/>
<text x="68.900000" y="70.000000" font-family="Arial" font-size="7" text-anchor="middle" fill="#FFFFFF">0</text>
<circle cx="58.900000" cy="58.000000" r="1"/>
<a xlink:href="left-0x7fee0e466cf0.svg">
<rect x="57.000000" y="89.000000" width="25.800000" height="24.000000" rx="0" ry="0" style="stroke:none;fill:#cccccc;"/>
<rect x="56.000000" y="88.000000" width="25.800000" height="24.000000" rx="0" ry="0" style="stroke:none;fill:#003366;"/>
</a>
<a xlink:href="left-0x7fee0e466cf0.svg">
<text x="68.900000" y="102.000000" font-family="Arial" font-size="7" text-anchor="middle" fill="#FFFFFF">left</text>
</a>
<circle cx="58.000000" cy="90.000000" r="1"/>
<rect x="98.800000" y="73.000000" width="24.000000" height="24.000000" rx="0" ry="0" style="stroke:none;fill:#cccccc;"/>
<rect x="97.800000" y="72.000000" width="24.000000" height="24.000000" rx="0" ry="0" style="stroke:none;fill:#4B71A1;"/>
<text x="109.800000" y="86.000000" font-family="Arial" font-size="7" text-anchor="middle" fill="#FFFFFF">+</text>
<circle cx="99.800000" cy="74.000000" r="1"/>
<line x1="94.800000" y1="79.000000" x2="97.800000" y2="80.000000"  transform="rotate(0.000000,97.800000,80.000000)" style="stroke: black; stroke-width:0.25;"/>
<line x1="94.800000" y1="81.000000" x2="97.800000" y2="80.000000"  transform="rotate(0.000000,97.800000,80.000000)" style="stroke: black; stroke-width:0.25;"/>
<line x1="94.800000" y1="87.000000" x2="97.800000" y2="88.000000"  transform="rotate(0.000000,97.800000,88.000000)" style="stroke: black; stroke-width:0.25;"/>
<line x1="94.800000" y1="89.000000" x2="97.800000" y2="88.000000"  transform="rotate(0.000000,97.800000,88.000000)" style="stroke: black; stroke-width:0.25;"/>
<rect x="138.800000" y="57.000000" width="24.000000" height="24.000000" rx="0" ry="0" style="stroke:none;fill:#cccccc;"/>
<rect x="137.800000" y="56.000000" width="24.000000" height="24.000000" rx="0" ry="0" style="stroke:none;fill:#4B71A1;"/>
<text x="149.800000" y="70.000000" font-family="Arial" font-size="7" text-anchor="middle" fill="#FFFFFF">&gt;=</text>
<circle cx="139.800000" cy="58.000000" r="1"/>
<line x1="134.800000" y1="63.000000" x2="137.800000" y2="64.000000"  transform="rotate(0.000000,137.800000,64.000000)" style="stroke: black; stroke-width:0.25;"/>
<line x1="134.800000" y1="65.000000" x2="137.800000" y2="64.000000"  transform="rotate(0.000000,137.800000,64.000000)" style="stroke: black; stroke-width:0.25;"/>
<line x1="134.800000" y1="71.000000" x2="137.800000" y2="72.000000"  transform="rotate(0.000000,137.800000,72.000000)" style="stroke: black; stroke-width:0.25;"/>
<line x1="134.800000" y1="73.000000" x2="137.800000" y2="72.000000"  transform="rotate(0.000000,137.800000,72.000000)" style="stroke: black; stroke-width:0.25;"/>
<rect x="186.800000" y="65.000000" width="38.700000" height="24.000000" rx="0" ry="0" style="stroke:none;fill:#cccccc;"/>
<rect x="185.800000" y="64.000000" width="38.700000" height="24.000000" rx="0" ry="0" style="stroke:none;fill:#4B71A1;"/>
<text x="205.150000" y="78.000000" font-family="Arial" font-size="7" text-anchor="middle" fill="#FFFFFF">select2</text>
<circle cx="187.800000" cy="66.000000" r="1"/>
<line x1="182.800000" y1="67.000000" x2="185.800000" y2="68.000000"  transform="rotate(0.000000,185.800000,68.000000)" style="stroke: black; stroke-width:0.25;"/>
<line x1="182.800000" y1="69.000000" x2="185.800000" y2="68.000000"  transform="rotate(0.000000,185.800000,68.000000)" style="stroke: black; stroke-width:0.25;"/>
<line x1="182.800000" y1="75.000000" x2="185.800000" y2="76.000000"  transform="rotate(0.000000,185.800000,76.000000)" style="stroke: black; stroke-width:0.25;"/>
<line x1="182.800000" y1="77.000000" x2="185.800000" y2="76.000000"  transform="rotate(0.000000,185.800000,76.000000)" style="stroke: black; stroke-width:0.25;"/>
<line x1="182.800000" y1="83.000000" x2="185.800000" y2="84.000000"  transform="rotate(0.000000,185.800000,84.000000)" style="stroke: black; stroke-width:0.25;"/>
<line x1="182.800000" y1="85.000000" x2="185.800000" y2="84.000000"  transform="rotate(0.000000,185.800000,84.000000)" style="stroke: black; stroke-width:0.25;"/>
<rect x="262.400000" y="29.000000" width="24.000000" height="24.000000" rx="0" ry="0" style="stroke:none;fill:#cccccc;"/>
<rect x="261.400000" y="28.000000" width="24.000000" height="24.000000" rx="0" ry="0" style="stroke:none;fill:#f44800;"/>
<text x="273.400000" y="42.000000" font-family="Arial" font-size="7" text-anchor="middle" fill="#FFFFFF">0</text>
<circle cx="263.400000" cy="30.000000" r="1"/>
<rect x="242.400000" y="61.000000" width="24.000000" height="24.000000" rx="0" ry="0" style="stroke:none;fill:#cccccc;"/>
<rect x="241.400000" y="60.000000" width="24.000000" height="24.000000" rx="0" ry="0" style="stroke:none;fill:#f44800;"/>
<text x="253.400000" y="74.000000" font-family="Arial" font-size="7" text-anchor="middle" fill="#FFFFFF">0</text>
<circle cx="243.400000" cy="62.000000" r="1"/>
<a xlink:href="left-0x7fee0e463e10.svg">
<rect x="241.500000" y="93.000000" width="25.800000" height="24.000000" rx="0" ry="0" style="stroke:none;fill:#cccccc;"/>
<rect x="240.500000" y="92.000000" width="25.800000" height="24.000000" rx="0" ry="0" style="stroke:none;fill:#003366;"/>
</a>
<a xlink:href="left-0x7fee0e463e10.svg">
<text x="253.400000" y="106.000000" font-family="Arial" font-size="7" text-anchor="middle" fill="#FFFFFF">left</text>
</a>
<circle cx="242.500000" cy="94.000000" r="1"/>
<rect x="283.300000" y="77.000000" width="24.000000" height="24.000000" rx="0" ry="0" style="stroke:none;fill:#cccccc;"/>
<rect x="282.300000" y="76.000000" width="24.000000" height="24.000000" rx="0" ry="0" style="stroke:none;fill:#4B71A1;"/>
<text x="294.300000" y="90.000000" font-family="Arial" font-size="7" text-anchor="middle" fill="#FFFFFF">+</text>
<circle cx="284.300000" cy="78.000000" r="1"/>
<line x1="279.300000" y1="83.000000" x2="282.300000" y2="84.000000"  transform="rotate(0.000000,282.300000,84.000000)" style="stroke: black; stroke-width:0.25;"/>
<line x1="279.300000" y1="85.000000" x2="282.300000" y2="84.000000"  transform="rotate(0.000000,282.300000,84.000000)" style="stroke: black; stroke-width:0.25;"/>
<line x1="279.300000" y1="91.000000" x2="282.300000" y2="92.000000"  transform="rotate(0.000000,282.300000,92.000000)" style="stroke: black; stroke-width:0.25;"/>
<line x1="279.300000" y1="93.000000" x2="282.300000" y2="92.000000"  transform="rotate(0.000000,282.300000,92.000000)" style="stroke: black; stroke-width:0.25;"/>
<rect x="323.300000" y="61.000000" width="24.000000" height="24.000000" rx="0" ry="0" style="stroke:none;fill:#cccccc;"/>
<rect x="322.300000" y="60.000000" width="24.000000" height="24.000000" rx="0" ry="0" style="stroke:none;fill:#4B71A1;"/>
<text x="334.300000" y="74.000000" font-family="Arial" font-size="7" text-anchor="middle" fill="#FFFFFF">&gt;=</text>
<circle cx="324.300000" cy="62.000000" r="1"/>
<line x1="319.300000" y1="67.000000" x2="322.300000" y2="68.000000"  transform="rotate(0.000000,322.300000,68.000000)" style="stroke: black; stroke-width:0.25;"/>
<line x1="319.300000" y1="69.000000" x2="322.300000" y2="68.000000"  transform="rotate(0.000000,322.300000,68.000000)" style="stroke: black; stroke-width:0.25;"/>
<line x1="319.300000" y1="75.000000" x2="322.300000" y2="76.000000"  transform="rotate(0.000000,322.300000,76.000000)" style="stroke: black; stroke-width:0.25;"/>
<line x1="319.300000" y1="77.000000" x2="322.300000" y2="76.000000"  transform="rotate(0.000000,322.300000,76.000000)" style="stroke: black; stroke-width:0.25;"/>
<rect x="371.300000" y="69.000000" width="38.700000" height="24.000000" rx="0" ry="0" style="stroke:none;fill:#cccccc;"/>
<rect x="370.300000" y="68.000000" width="38.700000" height="24.000000" rx="0" ry="0" style="stroke:none;fill:#4B71A1;"/>
<text x="389.650000" y="82.000000" font-family="Arial" font-size="7" text-anchor="middle" fill="#FFFFFF">select2</text>
<circle cx="372.300000" cy="70.000000" r="1"/>
<line x1="367.300000" y1="71.000000" x2="370.300000" y2="72.000000"  transform="rotate(0.000000,370.300000,72.000000)" style="stroke: black; stroke-width:0.25;"/>
<line x1="367.300000" y1="73.000000" x2="370.300000" y2="72.000000"  transform="rotate(0.000000,370.300000,72.000000)" style="stroke: black; stroke-width:0.25;"/>
<line x1="367.300000" y1="79.000000" x2="370.300000" y2="80.000000"  transform="rotate(0.000000,370.300000,80.000000)" style="stroke: black; stroke-width:0.25;"/>
<line x1="367.300000" y1="81.000000" x2="370.300000" y2="80.000000"  transform="rotate(0.000000,370.300000,80.000000)" style="stroke: black; stroke-width:0.25;"/>
<line x1="367.300000" y1="87.000000" x2="370.300000" y2="88.000000"  transform="rotate(0.000000,370.300000,88.000000)" style="stroke: black; stroke-width:0.25;"/>
<line x1="367.300000" y1="89.000000" x2="370.300000" y2="88.000000"  transform="rotate(0.000000,370.300000,88.000000)" style="stroke: black; stroke-width:0.25;"/>
<line x1="15.000000" y1="15.000000" x2="15.000000" y2="145.000000"  style="stroke: black; stroke-linecap:round; stroke-width:0.25; stroke-dasharray:3,3;"/>
<line x1="15.000000" y1="145.000000" x2="426.000000" y2="145.000000"  style="stroke: black; stroke-linecap:round; stroke-width:0.25; stroke-dasharray:3,3;"/>
<line x1="426.000000" y1="145.000000" x2="426.000000" y2="15.000000"  style="stroke: black; stroke-linecap:round; stroke-width:0.25; stroke-dasharray:3,3;"/>
<line x1="15.000000" y1="15.000000" x2="20.000000" y2="15.000000"  style="stroke: black; stroke-linecap:round; stroke-width:0.25; stroke-dasharray:3,3;"/>
<line x1="68.375000" y1="15.000000" x2="426.000000" y2="15.000000"  style="stroke: black; stroke-linecap:round; stroke-width:0.25; stroke-dasharray:3,3;"/>
<text x="20.000000" y="17.000000" font-family="Arial" font-size="7">selectn(3)(0)</text>
<line x1="428.000000" y1="79.000000" x2="431.000000" y2="80.000000"  transform="rotate(0.000000,431.000000,80.000000)" style="stroke: black; stroke-width:0.25;"/>
<line x1="428.000000" y1="81.000000" x2="431.000000" y2="80.000000"  transform="rotate(0.000000,431.000000,80.000000)" style="stroke: black; stroke-width:0.25;"/>
<line x1="10.000000" y1="72.000000" x2="20.000000" y2="72.000000"  style="stroke:black; stroke-linecap:round; stroke-width:0.25;"/>
<line x1="10.000000" y1="80.000000" x2="20.000000" y2="80.000000"  style="stroke:black; stroke-linecap:round; stroke-width:0.25;"/>
<line x1="10.000000" y1="88.000000" x2="20.000000" y2="88.000000"  style="stroke:black; stroke-linecap:round; stroke-width:0.25;"/>
<line x1="20.000000" y1="72.000000" x2="24.000000" y2="72.000000"  style="stroke:black; stroke-linecap:round; stroke-width:0.25;"/>
<line x1="20.000000" y1="80.000000" x2="24.000000" y2="80.000000"  style="stroke:black; stroke-linecap:round; stroke-width:0.25;"/>
<line x1="20.000000" y1="88.000000" x2="24.000000" y2="88.000000"  style="stroke:black; stroke-linecap:round; stroke-width:0.25;"/>
<line x1="24.000000" y1="72.000000" x2="28.000000" y2="72.000000"  style="stroke:black; stroke-linecap:round; stroke-width:0.25;"/>
<line x1="24.000000" y1="80.000000" x2="28.000000" y2="80.000000"  style="stroke:black; stroke-linecap:round; stroke-width:0.25;"/>
<line x1="24.000000" y1="88.000000" x2="28.000000" y2="88.000000"  style="stroke:black; stroke-linecap:round; stroke-width:0.25;"/>
<line x1="28.000000" y1="72.000000" x2="36.000000" y2="72.000000"  style="stroke:black; stroke-linecap:round; stroke-width:0.25;"/>
<line x1="28.000000" y1="80.000000" x2="36.000000" y2="80.000000"  style="stroke:black; stroke-linecap:round; stroke-width:0.25;"/>
<line x1="28.000000" y1="88.000000" x2="36.000000" y2="88.000000"  style="stroke:black; stroke-linecap:round; stroke-width:0.25;"/>
<line x1="36.000000" y1="72.000000" x2="52.000000" y2="72.000000"  style="stroke:black; stroke-linecap:round; stroke-width:0.25;"/>
<line x1="36.000000" y1="80.000000" x2="44.000000" y2="80.000000"  style="stroke:black; stroke-linecap:round; stroke-width:0.25;"/>
<line x1="36.000000" y1="88.000000" x2="36.000000" y2="136.000000"  style="stroke:black; stroke-linecap:round; stroke-width:0.25;"/>
<line x1="36.000000" y1="136.000000" x2="36.000000" y2="136.000000"  style="stroke:black; stroke-linecap:round; stroke-width:0.25;"/>
<line x1="36.000000" y1="136.000000" x2="132.250000" y2="136.000000"  style="stroke:black; stroke-linecap:round; stroke-width:0.25;"/>
<line x1="44.000000" y1="80.000000" x2="44.000000" y2="128.000000"  style="stroke:black; stroke-linecap:round; stroke-width:0.25;"/>
<line x1="44.000000" y1="128.000000" x2="52.000000" y2="128.000000"  style="stroke:black; stroke-linecap:round; stroke-width:0.25;"/>
<line x1="52.000000" y1="72.000000" x2="52.000000" y2="120.000000"  style="stroke:black; stroke-linecap:round; stroke-width:0.25;"/>
<line x1="52.000000" y1="120.000000" x2="52.000000" y2="120.000000"  style="stroke:black; stroke-linecap:round; stroke-width:0.25;"/>
<line x1="52.000000" y1="120.000000" x2="108.900000" y2="120.000000"  style="stroke:black; stroke-linecap:round; stroke-width:0.25;"/>
<line x1="52.000000" y1="128.000000" x2="108.900000" y2="128.000000"  style="stroke:black; stroke-linecap:round; stroke-width:0.25;"/>
<line x1="80.900000" y1="68.000000" x2="84.900000" y2="68.000000"  style="stroke:black; stroke-linecap:round; stroke-width:0.25;"/>
<line x1="81.800000" y1="100.000000" x2="85.800000" y2="100.000000"  style="stroke:black; stroke-linecap:round; stroke-width:0.25;"/>
<line x1="84.900000" y1="68.000000" x2="85.800000" y2="68.000000"  style="stroke:black; stroke-linecap:round; stroke-width:0.25;"/>
<line x1="85.800000" y1="88.000000" x2="93.800000" y2="88.000000"  style="stroke:black; stroke-linecap:round; stroke-width:0.25;"/>
<line x1="85.800000" y1="100.000000" x2="85.800000" y2="88.000000"  style="stroke:black; stroke-linecap:round; stroke-width:0.25;"/>
<line x1="85.800000" y1="100.000000" x2="85.800000" y2="100.000000"  style="stroke:black; stroke-linecap:round; stroke-width:0.25;"/>
<line x1="85.800000" y1="68.000000" x2="93.800000" y2="68.000000"  style="stroke:black; stroke-linecap:round; stroke-width:0.25;"/>
<line x1="93.800000" y1="80.000000" x2="97.800000" y2="80.000000"  style="stroke:black; stroke-linecap:round; stroke-width:0.25;"/>
<line x1="93.800000" y1="88.000000" x2="97.800000" y2="88.000000"  style="stroke:black; stroke-linecap:round; stroke-width:0.25;"/>
<line x1="93.800000" y1="68.000000" x2="93.800000" y2="80.000000"  style="stroke:black; stroke-linecap:round; stroke-width:0.25;"/>
<line x1="93.800000" y1="80.000000" x2="93.800000" y2="80.000000"  style="stroke:black; stroke-linecap:round; stroke-width:0.25;"/>
<line x1="100.900000" y1="36.000000" x2="104.900000" y2="36.000000"  style="stroke:black; stroke-linecap:round; stroke-width:0.25;"/>
<line x1="104.900000" y1="36.000000" x2="125.800000" y2="36.000000"  style="stroke:black; stroke-linecap:round; stroke-width:0.25;"/>
<line x1="108.900000" y1="120.000000" x2="165.800000" y2="120.000000"  style="stroke:black; stroke-linecap:round; stroke-width:0.25;"/>
<line x1="108.900000" y1="128.000000" x2="165.800000" y2="128.000000"  style="stroke:black; stroke-linecap:round; stroke-width:0.25;"/>
<line x1="121.800000" y1="84.000000" x2="125.800000" y2="84.000000"  style="stroke:black; stroke-linecap:round; stroke-width:0.25;"/>
<line x1="125.800000" y1="72.000000" x2="133.800000" y2="72.000000"  style="stroke:black; stroke-linecap:round; stroke-width:0.25;"/>
<line x1="125.800000" y1="84.000000" x2="125.800000" y2="72.000000"  style="stroke:black; stroke-linecap:round; stroke-width:0.25;"/>
<line x1="125.800000" y1="84.000000" x2="125.800000" y2="84.000000"  style="stroke:black; stroke-linecap:round; stroke-width:0.25;"/>
<line x1="125.800000" y1="36.000000" x2="133.800000" y2="36.000000"  style="stroke:black; stroke-linecap:round; stroke-width:0.25;"/>
<line x1="132.250000" y1="136.000000" x2="228.500000" y2="136.000000"  style="stroke:black; stroke-linecap:round; stroke-width:0.25;"/>
<line x1="133.800000" y1="36.000000" x2="133.800000" y2="64.000000"  style="stroke:black; stroke-linecap:round; stroke-width:0.25;"/>
<line x1="133.800000" y1="64.000000" x2="133.800000" y2="64.000000"  style="stroke:black; stroke-linecap:round; stroke-width:0.25;"/>
<line x1="133.800000" y1="64.000000" x2="137.800000" y2="64.000000"  style="stroke:black; stroke-linecap:round; stroke-width:0.25;"/>
<line x1="133.800000" y1="72.000000" x2="137.800000" y2="72.000000"  style="stroke:black; stroke-linecap:round; stroke-width:0.25;"/>
<line x1="161.800000" y1="68.000000" x2="165.800000" y2="68.000000"  style="stroke:black; stroke-linecap:round; stroke-width:0.25;"/>
<line x1="165.800000" y1="68.000000" x2="181.800000" y2="68.000000"  style="stroke:black; stroke-linecap:round; stroke-width:0.25;"/>
<line x1="165.800000" y1="76.000000" x2="181.800000" y2="76.000000"  style="stroke:black; stroke-linecap:round; stroke-width:0.25;"/>
<line x1="165.800000" y1="120.000000" x2="165.800000" y2="76.000000"  style="stroke:black; stroke-linecap:round; stroke-width:0.25;"/>
<line x1="165.800000" y1="120.000000" x2="165.800000" y2="120.000000"  style="stroke:black; stroke-linecap:round; stroke-width:0.25;"/>
<line x1="165.800000" y1="128.000000" x2="173.800000" y2="128.000000"  style="stroke:black; stroke-linecap:round; stroke-width:0.25;"/>
<line x1="173.800000" y1="84.000000" x2="181.800000" y2="84.000000"  style="stroke:black; stroke-linecap:round; stroke-width:0.25;"/>
<line x1="173.800000" y1="128.000000" x2="173.800000" y2="84.000000"  style="stroke:black; stroke-linecap:round; stroke-width:0.25;"/>
<line x1="181.800000" y1="68.000000" x2="185.800000" y2="68.000000"  style="stroke:black; stroke-linecap:round; stroke-width:0.25;"/>
<line x1="181.800000" y1="76.000000" x2="185.800000" y2="76.000000"  style="stroke:black; stroke-linecap:round; stroke-width:0.25;"/>
<line x1="181.800000" y1="84.000000" x2="185.800000" y2="84.000000"  style="stroke:black; stroke-linecap:round; stroke-width:0.25;"/>
<line x1="224.500000" y1="76.000000" x2="228.500000" y2="76.000000"  style="stroke:black; stroke-linecap:round; stroke-width:0.25;"/>
<line x1="228.500000" y1="76.000000" x2="236.500000" y2="76.000000"  style="stroke:black; stroke-linecap:round; stroke-width:0.25;"/>
<line x1="228.500000" y1="132.000000" x2="236.500000" y2="132.000000"  style="stroke:black; stroke-linecap:round; stroke-width:0.25;"/>
<line x1="228.500000" y1="136.000000" x2="228.500000" y2="132.000000"  style="stroke:black; stroke-linecap:round; stroke-width:0.25;"/>
<line x1="228.500000" y1="136.000000" x2="228.500000" y2="136.000000"  style="stroke:black; stroke-linecap:round; stroke-width:0.25;"/>
<line x1="236.500000" y1="124.000000" x2="293.400000" y2="124.000000"  style="stroke:black; stroke-linecap:round; stroke-width:0.25;"/>
<line x1="236.500000" y1="132.000000" x2="293.400000" y2="132.000000"  style="stroke:black; stroke-linecap:round; stroke-width:0.25;"/>
<line x1="236.500000" y1="76.000000" x2="236.500000" y2="124.000000"  style="stroke:black; stroke-linecap:round; stroke-width:0.25;"/>
<line x1="236.500000" y1="124.000000" x2="236.500000" y2="124.000000"  style="stroke:black; stroke-linecap:round; stroke-width:0.25;"/>
<line x1="265.400000" y1="72.000000" x2="269.400000" y2="72.000000"  style="stroke:black; stroke-linecap:round; stroke-width:0.25;"/>
<line x1="266.300000" y1="104.000000" x2="270.300000" y2="104.000000"  style="stroke:black; stroke-linecap:round; stroke-width:0.25;"/>
<line x1="269.400000" y1="72.000000" x2="270.300000" y2="72.000000"  style="stroke:black; stroke-linecap:round; stroke-width:0.25;"/>
<line x1="270.300000" y1="72.000000" x2="278.300000" y2="72.000000"  style="stroke:black; stroke-linecap:round; stroke-width:0.25;"/>
<line x1="270.300000" y1="92.000000" x2="278.300000" y2="92.000000"  style="stroke:black; stroke-linecap:round; stroke-width:0.25;"/>
<line x1="270.300000" y1="104.000000" x2="270.300000" y2="92.000000"  style="stroke:black; stroke-linecap:round; stroke-width:0.25;"/>
<line x1="270.300000" y1="104.000000" x2="270.300000" y2="104.000000"  style="stroke:black; stroke-linecap:round; stroke-width:0.25;"/>
<line x1="278.300000" y1="72.000000" x2="278.300000" y2="84.000000"  style="stroke:black; stroke-linecap:round; stroke-width:0.25;"/>
<line x1="278.300000" y1="84.000000" x2="278.300000" y2="84.000000"  style="stroke:black; stroke-linecap:round; stroke-width:0.25;"/>
<line x1="278.300000" y1="84.000000" x2="282.300000" y2="84.000000"  style="stroke:black; stroke-linecap:round; stroke-width:0.25;"/>
<line x1="278.300000" y1="92.000000" x2="282.300000" y2="92.000000"  style="stroke:black; stroke-linecap:round; stroke-width:0.25;"/>
<line x1="285.400000" y1="40.000000" x2="289.400000" y2="40.000000"  style="stroke:black; stroke-linecap:round; stroke-width:0.25;"/>
<line x1="289.400000" y1="40.000000" x2="310.300000" y2="40.000000"  style="stroke:black; stroke-linecap:round; stroke-width:0.25;"/>
<line x1="293.400000" y1="124.000000" x2="350.300000" y2="124.000000"  style="stroke:black; stroke-linecap:round; stroke-width:0.25;"/>
<line x1="293.400000" y1="132.000000" x2="350.300000" y2="132.000000"  style="stroke:black; stroke-linecap:round; stroke-width:0.25;"/>
<line x1="306.300000" y1="88.000000" x2="310.300000" y2="88.000000"  style="stroke:black; stroke-linecap:round; stroke-width:0.25;"/>
<line x1="310.300000" y1="40.000000" x2="318.300000" y2="40.000000"  style="stroke:black; stroke-linecap:round; stroke-width:0.25;"/>
<line x1="310.300000" y1="76.000000" x2="318.300000" y2="76.000000"  style="stroke:black; stroke-linecap:round; stroke-width:0.25;"/>
<line x1="310.300000" y1="88.000000" x2="310.300000" y2="76.000000"  style="stroke:black; stroke-linecap:round; stroke-width:0.25;"/>
<line x1="310.300000" y1="88.000000" x2="310.300000" y2="88.000000"  style="stroke:black; stroke-linecap:round; stroke-width:0.25;"/>
<line x1="318.300000" y1="40.000000" x2="318.300000" y2="68.000000"  style="stroke:black; stroke-linecap:round; stroke-width:0.25;"/>
<line x1="318.300000" y1="68.000000" x2="318.300000" y2="68.000000"  style="stroke:black; stroke-linecap:round; stroke-width:0.25;"/>
<line x1="318.300000" y1="68.000000" x2="322.300000" y2="68.000000"  style="stroke:black; stroke-linecap:round; stroke-width:0.25;"/>
<line x1="318.300000" y1="76.000000" x2="322.300000" y2="76.000000"  style="stroke:black; stroke-linecap:round; stroke-width:0.25;"/>
<line x1="346.300000" y1="72.000000" x2="350.300000" y2="72.000000"  style="stroke:black; stroke-linecap:round; stroke-width:0.25;"/>
<line x1="350.300000" y1="80.000000" x2="366.300000" y2="80.000000"  style="stroke:black; stroke-linecap:round; stroke-width:0.25;"/>
<line x1="350.300000" y1="124.000000" x2="350.300000" y2="80.000000"  style="stroke:black; stroke-linecap:round; stroke-width:0.25;"/>
<line x1="350.300000" y1="124.000000" x2="350.300000" y2="124.000000"  style="stroke:black; stroke-linecap:round; stroke-width:0.25;"/>
<line x1="350.300000" y1="132.000000" x2="358.300000" y2="132.000000"  style="stroke:black; stroke-linecap:round; stroke-width:0.25;"/>
<line x1="350.300000" y1="72.000000" x2="366.300000" y2="72.000000"  style="stroke:black; stroke-linecap:round; stroke-width:0.25;"/>
<line x1="358.300000" y1="88.000000" x2="366.300000" y2="88.000000"  style="stroke:black; stroke-linecap:round; stroke-width:0.25;"/>
<line x1="358.300000" y1="132.000000" x2="358.300000" y2="88.000000"  style="stroke:black; stroke-linecap:round; stroke-width:0.25;"/>
<line x1="366.300000" y1="72.000000" x2="370.300000" y2="72.000000"  style="stroke:black; stroke-linecap:round; stroke-width:0.25;"/>
<line x1="366.300000" y1="80.000000" x2="370.300000" y2="80.000000"  style="stroke:black; stroke-linecap:round; stroke-width:0.25;"/>
<line x1="366.300000" y1="88.000000" x2="370.300000" y2="88.000000"  style="stroke:black; stroke-linecap:round; stroke-width:0.25;"/>
<line x1="409.000000" y1="80.000000" x2="413.000000" y2="80.000000"  style="stroke:black; stroke-linecap:round; stroke-width:0.25;"/>
<line x1="413.000000" y1="80.000000" x2="413.000000" y2="80.000000"  style="stroke:black; stroke-linecap:round; stroke-width:0.25;"/>
<line x1="413.000000" y1="80.000000" x2="417.000000" y2="80.000000"  style="stroke:black; stroke-linecap:round; stroke-width:0.25;"/>
<line x1="417.000000" y1="80.000000" x2="421.000000" y2="80.000000"  style="stroke:black; stroke-linecap:round; stroke-width:0.25;"/>
<line x1="421.000000" y1="80.000000" x2="431.000000" y2="80.000000"  style="stroke:black; stroke-linecap:round; stroke-width:0.25;"/>
</svg>
