<?xml version="1.0"?>
<svg xmlns="http://www.w3.org/2000/svg" xmlns:xlink="http://www.w3.org/1999/xlink" viewBox="0 0 1240.800000 152.000000" width="620.400000mm" height="76.000000mm" version="1.1">
<a xlink:href="tau2pole-0x7fde07f94040.svg">
<rect x="1.000000" y="1.000000" width="1239.800000" height="151.000000" rx="0" ry="0" style="stroke:none;fill:#cccccc;"/>
<rect x="0.000000" y="0.000000" width="1239.800000" height="151.000000" rx="0" ry="0" style="stroke:none;fill:#ffffff;"/>
</a>
<text x="10.000000" y="7.000000" font-family="Arial" font-size="7"></text>
<rect x="65.000000" y="65.000000" width="903.000000" height="24.000000" rx="0" ry="0" style="stroke:none;fill:#cccccc;"/>
<rect x="64.000000" y="64.000000" width="903.000000" height="24.000000" rx="0" ry="0" style="stroke:none;fill:#477881;"/>
<text x="515.500000" y="78.000000" font-family="Arial" font-size="7" text-anchor="middle" fill="#FFFFFF">hslider(Attack     tooltip: Time constant in ms (1/e smoothing time) for the compression gain  to approach (exponentially) a new lower target level (the compression  `kicking in&apos;)], 5e+01f, 1.0f, 1e+03f, 0.1f)</text>
<circle cx="66.000000" cy="66.000000" r="1"/>
<line x1="55.000000" y1="55.000000" x2="55.000000" y2="97.000000"  style="stroke: black; stroke-linecap:round; stroke-width:0.25; stroke-dasharray:3,3;"/>
<line x1="55.000000" y1="97.000000" x2="976.000000" y2="97.000000"  style="stroke: black; stroke-linecap:round; stroke-width:0.25; stroke-dasharray:3,3;"/>
<line x1="976.000000" y1="97.000000" x2="976.000000" y2="55.000000"  style="stroke: black; stroke-linecap:round; stroke-width:0.25; stroke-dasharray:3,3;"/>
<line x1="55.000000" y1="55.000000" x2="60.000000" y2="55.000000"  style="stroke: black; stroke-linecap:round; stroke-width:0.25; stroke-dasharray:3,3;"/>
<line x1="156.750000" y1="55.000000" x2="976.000000" y2="55.000000"  style="stroke: black; stroke-linecap:round; stroke-width:0.25; stroke-dasharray:3,3;"/>
<text x="60.000000" y="57.000000" font-family="Arial" font-size="7">hgroup(Compression Response)</text>
<line x1="45.000000" y1="45.000000" x2="45.000000" y2="107.000000"  style="stroke: black; stroke-linecap:round; stroke-width:0.25; stroke-dasharray:3,3;"/>
<line x1="45.000000" y1="107.000000" x2="986.000000" y2="107.000000"  style="stroke: black; stroke-linecap:round; stroke-width:0.25; stroke-dasharray:3,3;"/>
<line x1="986.000000" y1="107.000000" x2="986.000000" y2="45.000000"  style="stroke: black; stroke-linecap:round; stroke-width:0.25; stroke-dasharray:3,3;"/>
<line x1="45.000000" y1="45.000000" x2="50.000000" y2="45.000000"  style="stroke: black; stroke-linecap:round; stroke-width:0.25; stroke-dasharray:3,3;"/>
<line x1="82.250000" y1="45.000000" x2="986.000000" y2="45.000000"  style="stroke: black; stroke-linecap:round; stroke-width:0.25; stroke-dasharray:3,3;"/>
<text x="50.000000" y="47.000000" font-family="Arial" font-size="7">hgroup()</text>
<line x1="35.000000" y1="35.000000" x2="35.000000" y2="117.000000"  style="stroke: black; stroke-linecap:round; stroke-width:0.25; stroke-dasharray:3,3;"/>
<line x1="35.000000" y1="117.000000" x2="996.000000" y2="117.000000"  style="stroke: black; stroke-linecap:round; stroke-width:0.25; stroke-dasharray:3,3;"/>
<line x1="996.000000" y1="117.000000" x2="996.000000" y2="35.000000"  style="stroke: black; stroke-linecap:round; stroke-width:0.25; stroke-dasharray:3,3;"/>
<line x1="35.000000" y1="35.000000" x2="40.000000" y2="35.000000"  style="stroke: black; stroke-linecap:round; stroke-width:0.25; stroke-dasharray:3,3;"/>
<line x1="104.500000" y1="35.000000" x2="996.000000" y2="35.000000"  style="stroke: black; stroke-linecap:round; stroke-width:0.25; stroke-dasharray:3,3;"/>
<text x="40.000000" y="37.000000" font-family="Arial" font-size="7">vgroup(COMPRESSOR)</text>
<line x1="25.000000" y1="25.000000" x2="25.000000" y2="127.000000"  style="stroke: black; stroke-linecap:round; stroke-width:0.25; stroke-dasharray:3,3;"/>
<line x1="25.000000" y1="127.000000" x2="1006.000000" y2="127.000000"  style="stroke: black; stroke-linecap:round; stroke-width:0.25; stroke-dasharray:3,3;"/>
<line x1="1006.000000" y1="127.000000" x2="1006.000000" y2="25.000000"  style="stroke: black; stroke-linecap:round; stroke-width:0.25; stroke-dasharray:3,3;"/>
<line x1="25.000000" y1="25.000000" x2="30.000000" y2="25.000000"  style="stroke: black; stroke-linecap:round; stroke-width:0.25; stroke-dasharray:3,3;"/>
<line x1="129.975000" y1="25.000000" x2="1006.000000" y2="25.000000"  style="stroke: black; stroke-linecap:round; stroke-width:0.25; stroke-dasharray:3,3;"/>
<text x="30.000000" y="27.000000" font-family="Arial" font-size="7">env_group(hsl...e+03f, 0.1f))</text>
<rect x="1024.000000" y="69.000000" width="25.800000" height="24.000000" rx="0" ry="0" style="stroke:none;fill:#cccccc;"/>
<rect x="1023.000000" y="68.000000" width="25.800000" height="24.000000" rx="0" ry="0" style="stroke:none;fill:#f44800;"/>
<text x="1035.900000" y="82.000000" font-family="Arial" font-size="7" text-anchor="middle" fill="#FFFFFF">0.001</text>
<circle cx="1025.000000" cy="70.000000" r="1"/>
<rect x="1065.800000" y="65.000000" width="24.000000" height="24.000000" rx="0" ry="0" style="stroke:none;fill:#cccccc;"/>
<rect x="1064.800000" y="64.000000" width="24.000000" height="24.000000" rx="0" ry="0" style="stroke:none;fill:#4B71A1;"/>
<text x="1076.800000" y="78.000000" font-family="Arial" font-size="7" text-anchor="middle" fill="#FFFFFF">*</text>
<circle cx="1066.800000" cy="66.000000" r="1"/>
<line x1="1061.800000" y1="71.000000" x2="1064.800000" y2="72.000000"  transform="rotate(0.000000,1064.800000,72.000000)" style="stroke: black; stroke-width:0.25;"/>
<line x1="1061.800000" y1="73.000000" x2="1064.800000" y2="72.000000"  transform="rotate(0.000000,1064.800000,72.000000)" style="stroke: black; stroke-width:0.25;"/>
<line x1="1061.800000" y1="79.000000" x2="1064.800000" y2="80.000000"  transform="rotate(0.000000,1064.800000,80.000000)" style="stroke: black; stroke-width:0.25;"/>
<line x1="1061.800000" y1="81.000000" x2="1064.800000" y2="80.000000"  transform="rotate(0.000000,1064.800000,80.000000)" style="stroke: black; stroke-width:0.25;"/>
<rect x="1105.800000" y="45.000000" width="24.000000" height="24.000000" rx="0" ry="0" style="stroke:none;fill:#cccccc;"/>
<rect x="1104.800000" y="44.000000" width="24.000000" height="24.000000" rx="0" ry="0" style="stroke:none;fill:#f44800;"/>
<text x="1116.800000" y="58.000000" font-family="Arial" font-size="7" text-anchor="middle" fill="#FFFFFF">1</text>
<circle cx="1106.800000" cy="46.000000" r="1"/>
<a xlink:href="SR-0x7fde07f21850.svg">
<rect x="1105.800000" y="77.000000" width="24.000000" height="24.000000" rx="0" ry="0" style="stroke:none;fill:#cccccc;"/>
<rect x="1104.800000" y="76.000000" width="24.000000" height="24.000000" rx="0" ry="0" style="stroke:none;fill:#003366;"/>
</a>
<a xlink:href="SR-0x7fde07f21850.svg">
<text x="1116.800000" y="90.000000" font-family="Arial" font-size="7" text-anchor="middle" fill="#FFFFFF">SR</text>
</a>
<circle cx="1106.800000" cy="78.000000" r="1"/>
<rect x="1145.800000" y="61.000000" width="24.000000" height="24.000000" rx="0" ry="0" style="stroke:none;fill:#cccccc;"/>
<rect x="1144.800000" y="60.000000" width="24.000000" height="24.000000" rx="0" ry="0" style="stroke:none;fill:#4B71A1;"/>
<text x="1156.800000" y="74.000000" font-family="Arial" font-size="7" text-anchor="middle" fill="#FFFFFF">/</text>
<circle cx="1146.800000" cy="62.000000" r="1"/>
<line x1="1141.800000" y1="67.000000" x2="1144.800000" y2="68.000000"  transform="rotate(0.000000,1144.800000,68.000000)" style="stroke: black; stroke-width:0.25;"/>
<line x1="1141.800000" y1="69.000000" x2="1144.800000" y2="68.000000"  transform="rotate(0.000000,1144.800000,68.000000)" style="stroke: black; stroke-width:0.25;"/>
<line x1="1141.800000" y1="75.000000" x2="1144.800000" y2="76.000000"  transform="rotate(0.000000,1144.800000,76.000000)" style="stroke: black; stroke-width:0.25;"/>
<line x1="1141.800000" y1="77.000000" x2="1144.800000" y2="76.000000"  transform="rotate(0.000000,1144.800000,76.000000)" style="stroke: black; stroke-width:0.25;"/>
<rect x="1185.800000" y="65.000000" width="24.000000" height="24.000000" rx="0" ry="0" style="stroke:none;fill:#cccccc;"/>
<rect x="1184.800000" y="64.000000" width="24.000000" height="24.000000" rx="0" ry="0" style="stroke:none;fill:#4B71A1;"/>
<text x="1196.800000" y="78.000000" font-family="Arial" font-size="7" text-anchor="middle" fill="#FFFFFF">max</text>
<circle cx="1186.800000" cy="66.000000" r="1"/>
<line x1="1181.800000" y1="71.000000" x2="1184.800000" y2="72.000000"  transform="rotate(0.000000,1184.800000,72.000000)" style="stroke: black; stroke-width:0.25;"/>
<line x1="1181.800000" y1="73.000000" x2="1184.800000" y2="72.000000"  transform="rotate(0.000000,1184.800000,72.000000)" style="stroke: black; stroke-width:0.25;"/>
<line x1="1181.800000" y1="79.000000" x2="1184.800000" y2="80.000000"  transform="rotate(0.000000,1184.800000,80.000000)" style="stroke: black; stroke-width:0.25;"/>
<line x1="1181.800000" y1="81.000000" x2="1184.800000" y2="80.000000"  transform="rotate(0.000000,1184.800000,80.000000)" style="stroke: black; stroke-width:0.25;"/>
<line x1="15.000000" y1="15.000000" x2="15.000000" y2="137.000000"  style="stroke: black; stroke-linecap:round; stroke-width:0.25; stroke-dasharray:3,3;"/>
<line x1="15.000000" y1="137.000000" x2="1225.800000" y2="137.000000"  style="stroke: black; stroke-linecap:round; stroke-width:0.25; stroke-dasharray:3,3;"/>
<line x1="1225.800000" y1="137.000000" x2="1225.800000" y2="15.000000"  style="stroke: black; stroke-linecap:round; stroke-width:0.25; stroke-dasharray:3,3;"/>
<line x1="15.000000" y1="15.000000" x2="20.000000" y2="15.000000"  style="stroke: black; stroke-linecap:round; stroke-width:0.25; stroke-dasharray:3,3;"/>
<line x1="45.800000" y1="15.000000" x2="1225.800000" y2="15.000000"  style="stroke: black; stroke-linecap:round; stroke-width:0.25; stroke-dasharray:3,3;"/>
<text x="20.000000" y="17.000000" font-family="Arial" font-size="7">attack</text>
<line x1="1227.800000" y1="75.000000" x2="1230.800000" y2="76.000000"  transform="rotate(0.000000,1230.800000,76.000000)" style="stroke: black; stroke-width:0.25;"/>
<line x1="1227.800000" y1="77.000000" x2="1230.800000" y2="76.000000"  transform="rotate(0.000000,1230.800000,76.000000)" style="stroke: black; stroke-width:0.25;"/>
<line x1="967.000000" y1="76.000000" x2="971.000000" y2="76.000000"  style="stroke:black; stroke-linecap:round; stroke-width:0.25;"/>
<line x1="971.000000" y1="76.000000" x2="981.000000" y2="76.000000"  style="stroke:black; stroke-linecap:round; stroke-width:0.25;"/>
<line x1="981.000000" y1="76.000000" x2="991.000000" y2="76.000000"  style="stroke:black; stroke-linecap:round; stroke-width:0.25;"/>
<line x1="991.000000" y1="76.000000" x2="1001.000000" y2="76.000000"  style="stroke:black; stroke-linecap:round; stroke-width:0.25;"/>
<line x1="1001.000000" y1="76.000000" x2="1011.000000" y2="76.000000"  style="stroke:black; stroke-linecap:round; stroke-width:0.25;"/>
<line x1="1011.000000" y1="60.000000" x2="1019.000000" y2="60.000000"  style="stroke:black; stroke-linecap:round; stroke-width:0.25;"/>
<line x1="1011.000000" y1="76.000000" x2="1011.000000" y2="60.000000"  style="stroke:black; stroke-linecap:round; stroke-width:0.25;"/>
<line x1="1011.000000" y1="76.000000" x2="1011.000000" y2="76.000000"  style="stroke:black; stroke-linecap:round; stroke-width:0.25;"/>
<line x1="1019.000000" y1="60.000000" x2="1035.900000" y2="60.000000"  style="stroke:black; stroke-linecap:round; stroke-width:0.25;"/>
<line x1="1035.900000" y1="60.000000" x2="1052.800000" y2="60.000000"  style="stroke:black; stroke-linecap:round; stroke-width:0.25;"/>
<line x1="1048.800000" y1="80.000000" x2="1052.800000" y2="80.000000"  style="stroke:black; stroke-linecap:round; stroke-width:0.25;"/>
<line x1="1052.800000" y1="80.000000" x2="1060.800000" y2="80.000000"  style="stroke:black; stroke-linecap:round; stroke-width:0.25;"/>
<line x1="1052.800000" y1="60.000000" x2="1060.800000" y2="60.000000"  style="stroke:black; stroke-linecap:round; stroke-width:0.25;"/>
<line x1="1060.800000" y1="72.000000" x2="1064.800000" y2="72.000000"  style="stroke:black; stroke-linecap:round; stroke-width:0.25;"/>
<line x1="1060.800000" y1="80.000000" x2="1064.800000" y2="80.000000"  style="stroke:black; stroke-linecap:round; stroke-width:0.25;"/>
<line x1="1060.800000" y1="60.000000" x2="1060.800000" y2="72.000000"  style="stroke:black; stroke-linecap:round; stroke-width:0.25;"/>
<line x1="1060.800000" y1="72.000000" x2="1060.800000" y2="72.000000"  style="stroke:black; stroke-linecap:round; stroke-width:0.25;"/>
<line x1="1088.800000" y1="76.000000" x2="1092.800000" y2="76.000000"  style="stroke:black; stroke-linecap:round; stroke-width:0.25;"/>
<line x1="1092.800000" y1="76.000000" x2="1100.800000" y2="76.000000"  style="stroke:black; stroke-linecap:round; stroke-width:0.25;"/>
<line x1="1100.800000" y1="76.000000" x2="1100.800000" y2="108.000000"  style="stroke:black; stroke-linecap:round; stroke-width:0.25;"/>
<line x1="1100.800000" y1="108.000000" x2="1100.800000" y2="108.000000"  style="stroke:black; stroke-linecap:round; stroke-width:0.25;"/>
<line x1="1100.800000" y1="108.000000" x2="1136.800000" y2="108.000000"  style="stroke:black; stroke-linecap:round; stroke-width:0.25;"/>
<line x1="1128.800000" y1="56.000000" x2="1132.800000" y2="56.000000"  style="stroke:black; stroke-linecap:round; stroke-width:0.25;"/>
<line x1="1128.800000" y1="88.000000" x2="1132.800000" y2="88.000000"  style="stroke:black; stroke-linecap:round; stroke-width:0.25;"/>
<line x1="1132.800000" y1="56.000000" x2="1140.800000" y2="56.000000"  style="stroke:black; stroke-linecap:round; stroke-width:0.25;"/>
<line x1="1132.800000" y1="76.000000" x2="1140.800000" y2="76.000000"  style="stroke:black; stroke-linecap:round; stroke-width:0.25;"/>
<line x1="1132.800000" y1="88.000000" x2="1132.800000" y2="76.000000"  style="stroke:black; stroke-linecap:round; stroke-width:0.25;"/>
<line x1="1132.800000" y1="88.000000" x2="1132.800000" y2="88.000000"  style="stroke:black; stroke-linecap:round; stroke-width:0.25;"/>
<line x1="1136.800000" y1="108.000000" x2="1172.800000" y2="108.000000"  style="stroke:black; stroke-linecap:round; stroke-width:0.25;"/>
<line x1="1140.800000" y1="56.000000" x2="1140.800000" y2="68.000000"  style="stroke:black; stroke-linecap:round; stroke-width:0.25;"/>
<line x1="1140.800000" y1="68.000000" x2="1140.800000" y2="68.000000"  style="stroke:black; stroke-linecap:round; stroke-width:0.25;"/>
<line x1="1140.800000" y1="68.000000" x2="1144.800000" y2="68.000000"  style="stroke:black; stroke-linecap:round; stroke-width:0.25;"/>
<line x1="1140.800000" y1="76.000000" x2="1144.800000" y2="76.000000"  style="stroke:black; stroke-linecap:round; stroke-width:0.25;"/>
<line x1="1168.800000" y1="72.000000" x2="1172.800000" y2="72.000000"  style="stroke:black; stroke-linecap:round; stroke-width:0.25;"/>
<line x1="1172.800000" y1="72.000000" x2="1180.800000" y2="72.000000"  style="stroke:black; stroke-linecap:round; stroke-width:0.25;"/>
<line x1="1172.800000" y1="80.000000" x2="1180.800000" y2="80.000000"  style="stroke:black; stroke-linecap:round; stroke-width:0.25;"/>
<line x1="1172.800000" y1="108.000000" x2="1172.800000" y2="80.000000"  style="stroke:black; stroke-linecap:round; stroke-width:0.25;"/>
<line x1="1172.800000" y1="108.000000" x2="1172.800000" y2="108.000000"  style="stroke:black; stroke-linecap:round; stroke-width:0.25;"/>
<line x1="1180.800000" y1="72.000000" x2="1184.800000" y2="72.000000"  style="stroke:black; stroke-linecap:round; stroke-width:0.25;"/>
<line x1="1180.800000" y1="80.000000" x2="1184.800000" y2="80.000000"  style="stroke:black; stroke-linecap:round; stroke-width:0.25;"/>
<line x1="1208.800000" y1="76.000000" x2="1212.800000" y2="76.000000"  style="stroke:black; stroke-linecap:round; stroke-width:0.25;"/>
<line x1="1212.800000" y1="76.000000" x2="1212.800000" y2="76.000000"  style="stroke:black; stroke-linecap:round; stroke-width:0.25;"/>
<line x1="1212.800000" y1="76.000000" x2="1216.800000" y2="76.000000"  style="stroke:black; stroke-linecap:round; stroke-width:0.25;"/>
<line x1="1216.800000" y1="76.000000" x2="1220.800000" y2="76.000000"  style="stroke:black; stroke-linecap:round; stroke-width:0.25;"/>
<line x1="1220.800000" y1="76.000000" x2="1230.800000" y2="76.000000"  style="stroke:black; stroke-linecap:round; stroke-width:0.25;"/>
</svg>
