<?xml version="1.0"?>
<svg xmlns="http://www.w3.org/2000/svg" xmlns:xlink="http://www.w3.org/1999/xlink" viewBox="0 0 630.500000 112.000000" width="315.250000mm" height="56.000000mm" version="1.1">
<a xlink:href="display-0x7ff567014ed0.svg">
<rect x="1.000000" y="1.000000" width="629.500000" height="111.000000" rx="0" ry="0" style="stroke:none;fill:#cccccc;"/>
<rect x="0.000000" y="0.000000" width="629.500000" height="111.000000" rx="0" ry="0" style="stroke:none;fill:#ffffff;"/>
</a>
<text x="10.000000" y="7.000000" font-family="Arial" font-size="7"></text>
<rect x="33.000000" y="45.000000" width="24.000000" height="24.000000" rx="0" ry="0" style="stroke:none;fill:#cccccc;"/>
<rect x="32.000000" y="44.000000" width="24.000000" height="24.000000" rx="0" ry="0" style="stroke:none;fill:#4B71A1;"/>
<text x="44.000000" y="58.000000" font-family="Arial" font-size="7" text-anchor="middle" fill="#FFFFFF">abs</text>
<circle cx="34.000000" cy="46.000000" r="1"/>
<line x1="29.000000" y1="55.000000" x2="32.000000" y2="56.000000"  transform="rotate(0.000000,32.000000,56.000000)" style="stroke: black; stroke-width:0.25;"/>
<line x1="29.000000" y1="57.000000" x2="32.000000" y2="56.000000"  transform="rotate(0.000000,32.000000,56.000000)" style="stroke: black; stroke-width:0.25;"/>
<a xlink:href="smooth-0x7ff566f3ab50.svg">
<rect x="65.000000" y="45.000000" width="129.000000" height="24.000000" rx="0" ry="0" style="stroke:none;fill:#cccccc;"/>
<rect x="64.000000" y="44.000000" width="129.000000" height="24.000000" rx="0" ry="0" style="stroke:none;fill:#003366;"/>
</a>
<a xlink:href="smooth-0x7ff566f3ab50.svg">
<text x="128.500000" y="58.000000" font-family="Arial" font-size="7" text-anchor="middle" fill="#FFFFFF">smooth(-1.0f,...*) : / : exp)</text>
</a>
<circle cx="66.000000" cy="46.000000" r="1"/>
<line x1="61.000000" y1="55.000000" x2="64.000000" y2="56.000000"  transform="rotate(0.000000,64.000000,56.000000)" style="stroke: black; stroke-width:0.25;"/>
<line x1="61.000000" y1="57.000000" x2="64.000000" y2="56.000000"  transform="rotate(0.000000,64.000000,56.000000)" style="stroke: black; stroke-width:0.25;"/>
<rect x="210.000000" y="41.000000" width="25.800000" height="24.000000" rx="0" ry="0" style="stroke:none;fill:#cccccc;"/>
<rect x="209.000000" y="40.000000" width="25.800000" height="24.000000" rx="0" ry="0" style="stroke:none;fill:#f44800;"/>
<text x="221.900000" y="54.000000" font-family="Arial" font-size="7" text-anchor="middle" fill="#FFFFFF">1e-07</text>
<circle cx="211.000000" cy="42.000000" r="1"/>
<rect x="251.800000" y="45.000000" width="24.000000" height="24.000000" rx="0" ry="0" style="stroke:none;fill:#cccccc;"/>
<rect x="250.800000" y="44.000000" width="24.000000" height="24.000000" rx="0" ry="0" style="stroke:none;fill:#4B71A1;"/>
<text x="262.800000" y="58.000000" font-family="Arial" font-size="7" text-anchor="middle" fill="#FFFFFF">max</text>
<circle cx="252.800000" cy="46.000000" r="1"/>
<line x1="247.800000" y1="51.000000" x2="250.800000" y2="52.000000"  transform="rotate(0.000000,250.800000,52.000000)" style="stroke: black; stroke-width:0.25;"/>
<line x1="247.800000" y1="53.000000" x2="250.800000" y2="52.000000"  transform="rotate(0.000000,250.800000,52.000000)" style="stroke: black; stroke-width:0.25;"/>
<line x1="247.800000" y1="59.000000" x2="250.800000" y2="60.000000"  transform="rotate(0.000000,250.800000,60.000000)" style="stroke: black; stroke-width:0.25;"/>
<line x1="247.800000" y1="61.000000" x2="250.800000" y2="60.000000"  transform="rotate(0.000000,250.800000,60.000000)" style="stroke: black; stroke-width:0.25;"/>
<a xlink:href="linear2db-0x7ff566fb9a20.svg">
<rect x="283.800000" y="45.000000" width="38.700000" height="24.000000" rx="0" ry="0" style="stroke:none;fill:#cccccc;"/>
<rect x="282.800000" y="44.000000" width="38.700000" height="24.000000" rx="0" ry="0" style="stroke:none;fill:#003366;"/>
</a>
<a xlink:href="linear2db-0x7ff566fb9a20.svg">
<text x="302.150000" y="58.000000" font-family="Arial" font-size="7" text-anchor="middle" fill="#FFFFFF">linear2db</text>
</a>
<circle cx="284.800000" cy="46.000000" r="1"/>
<line x1="279.800000" y1="55.000000" x2="282.800000" y2="56.000000"  transform="rotate(0.000000,282.800000,56.000000)" style="stroke: black; stroke-width:0.25;"/>
<line x1="279.800000" y1="57.000000" x2="282.800000" y2="56.000000"  transform="rotate(0.000000,282.800000,56.000000)" style="stroke: black; stroke-width:0.25;"/>
<rect x="348.500000" y="49.000000" width="24.000000" height="24.000000" rx="0" ry="0" style="stroke:none;fill:#cccccc;"/>
<rect x="347.500000" y="48.000000" width="24.000000" height="24.000000" rx="0" ry="0" style="stroke:none;fill:#f44800;"/>
<text x="359.500000" y="62.000000" font-family="Arial" font-size="7" text-anchor="middle" fill="#FFFFFF">0</text>
<circle cx="349.500000" cy="50.000000" r="1"/>
<line x1="338.500000" y1="39.000000" x2="338.500000" y2="81.000000"  style="stroke: black; stroke-linecap:round; stroke-width:0.25; stroke-dasharray:3,3;"/>
<line x1="338.500000" y1="81.000000" x2="380.500000" y2="81.000000"  style="stroke: black; stroke-linecap:round; stroke-width:0.25; stroke-dasharray:3,3;"/>
<line x1="380.500000" y1="81.000000" x2="380.500000" y2="39.000000"  style="stroke: black; stroke-linecap:round; stroke-width:0.25; stroke-dasharray:3,3;"/>
<line x1="338.500000" y1="39.000000" x2="343.500000" y2="39.000000"  style="stroke: black; stroke-linecap:round; stroke-width:0.25; stroke-dasharray:3,3;"/>
<line x1="359.625000" y1="39.000000" x2="380.500000" y2="39.000000"  style="stroke: black; stroke-linecap:round; stroke-width:0.25; stroke-dasharray:3,3;"/>
<text x="343.500000" y="41.000000" font-family="Arial" font-size="7">b13</text>
<rect x="398.500000" y="45.000000" width="24.000000" height="24.000000" rx="0" ry="0" style="stroke:none;fill:#cccccc;"/>
<rect x="397.500000" y="44.000000" width="24.000000" height="24.000000" rx="0" ry="0" style="stroke:none;fill:#4B71A1;"/>
<text x="409.500000" y="58.000000" font-family="Arial" font-size="7" text-anchor="middle" fill="#FFFFFF">+</text>
<circle cx="399.500000" cy="46.000000" r="1"/>
<line x1="394.500000" y1="51.000000" x2="397.500000" y2="52.000000"  transform="rotate(0.000000,397.500000,52.000000)" style="stroke: black; stroke-width:0.25;"/>
<line x1="394.500000" y1="53.000000" x2="397.500000" y2="52.000000"  transform="rotate(0.000000,397.500000,52.000000)" style="stroke: black; stroke-width:0.25;"/>
<line x1="394.500000" y1="59.000000" x2="397.500000" y2="60.000000"  transform="rotate(0.000000,397.500000,60.000000)" style="stroke: black; stroke-width:0.25;"/>
<line x1="394.500000" y1="61.000000" x2="397.500000" y2="60.000000"  transform="rotate(0.000000,397.500000,60.000000)" style="stroke: black; stroke-width:0.25;"/>
<rect x="450.500000" y="45.000000" width="129.000000" height="24.000000" rx="0" ry="0" style="stroke:none;fill:#cccccc;"/>
<rect x="449.500000" y="44.000000" width="129.000000" height="24.000000" rx="0" ry="0" style="stroke:none;fill:#477881;"/>
<text x="514.000000" y="58.000000" font-family="Arial" font-size="7" text-anchor="middle" fill="#FFFFFF">vbargraph(, -5e+01f, 1e+01f)</text>
<circle cx="451.500000" cy="46.000000" r="1"/>
<line x1="446.500000" y1="55.000000" x2="449.500000" y2="56.000000"  transform="rotate(0.000000,449.500000,56.000000)" style="stroke: black; stroke-width:0.25;"/>
<line x1="446.500000" y1="57.000000" x2="449.500000" y2="56.000000"  transform="rotate(0.000000,449.500000,56.000000)" style="stroke: black; stroke-width:0.25;"/>
<line x1="440.500000" y1="35.000000" x2="440.500000" y2="77.000000"  style="stroke: black; stroke-linecap:round; stroke-width:0.25; stroke-dasharray:3,3;"/>
<line x1="440.500000" y1="77.000000" x2="587.500000" y2="77.000000"  style="stroke: black; stroke-linecap:round; stroke-width:0.25; stroke-dasharray:3,3;"/>
<line x1="587.500000" y1="77.000000" x2="587.500000" y2="35.000000"  style="stroke: black; stroke-linecap:round; stroke-width:0.25; stroke-dasharray:3,3;"/>
<line x1="440.500000" y1="35.000000" x2="445.500000" y2="35.000000"  style="stroke: black; stroke-linecap:round; stroke-width:0.25; stroke-dasharray:3,3;"/>
<line x1="587.500000" y1="35.000000" x2="587.500000" y2="35.000000"  style="stroke: black; stroke-linecap:round; stroke-width:0.25; stroke-dasharray:3,3;"/>
<text x="445.500000" y="37.000000" font-family="Arial" font-size="7">hgroup(CONSTANT-Q SPECTRUM ANALYZER (6E), 20 bands spanning    LP, 9 octaves below 10000 Hz, HP)</text>
<line x1="430.500000" y1="25.000000" x2="430.500000" y2="87.000000"  style="stroke: black; stroke-linecap:round; stroke-width:0.25; stroke-dasharray:3,3;"/>
<line x1="430.500000" y1="87.000000" x2="597.500000" y2="87.000000"  style="stroke: black; stroke-linecap:round; stroke-width:0.25; stroke-dasharray:3,3;"/>
<line x1="597.500000" y1="87.000000" x2="597.500000" y2="25.000000"  style="stroke: black; stroke-linecap:round; stroke-width:0.25; stroke-dasharray:3,3;"/>
<line x1="430.500000" y1="25.000000" x2="435.500000" y2="25.000000"  style="stroke: black; stroke-linecap:round; stroke-width:0.25; stroke-dasharray:3,3;"/>
<line x1="467.750000" y1="25.000000" x2="597.500000" y2="25.000000"  style="stroke: black; stroke-linecap:round; stroke-width:0.25; stroke-dasharray:3,3;"/>
<text x="435.500000" y="27.000000" font-family="Arial" font-size="7">meter(1)</text>
<line x1="15.000000" y1="15.000000" x2="15.000000" y2="97.000000"  style="stroke: black; stroke-linecap:round; stroke-width:0.25; stroke-dasharray:3,3;"/>
<line x1="15.000000" y1="97.000000" x2="615.500000" y2="97.000000"  style="stroke: black; stroke-linecap:round; stroke-width:0.25; stroke-dasharray:3,3;"/>
<line x1="615.500000" y1="97.000000" x2="615.500000" y2="15.000000"  style="stroke: black; stroke-linecap:round; stroke-width:0.25; stroke-dasharray:3,3;"/>
<line x1="15.000000" y1="15.000000" x2="20.000000" y2="15.000000"  style="stroke: black; stroke-linecap:round; stroke-width:0.25; stroke-dasharray:3,3;"/>
<line x1="61.925000" y1="15.000000" x2="615.500000" y2="15.000000"  style="stroke: black; stroke-linecap:round; stroke-width:0.25; stroke-dasharray:3,3;"/>
<text x="20.000000" y="17.000000" font-family="Arial" font-size="7">dbmeter(18)</text>
<line x1="617.500000" y1="55.000000" x2="620.500000" y2="56.000000"  transform="rotate(0.000000,620.500000,56.000000)" style="stroke: black; stroke-width:0.25;"/>
<line x1="617.500000" y1="57.000000" x2="620.500000" y2="56.000000"  transform="rotate(0.000000,620.500000,56.000000)" style="stroke: black; stroke-width:0.25;"/>
<line x1="10.000000" y1="56.000000" x2="20.000000" y2="56.000000"  style="stroke:black; stroke-linecap:round; stroke-width:0.25;"/>
<line x1="20.000000" y1="56.000000" x2="24.000000" y2="56.000000"  style="stroke:black; stroke-linecap:round; stroke-width:0.25;"/>
<line x1="24.000000" y1="56.000000" x2="28.000000" y2="56.000000"  style="stroke:black; stroke-linecap:round; stroke-width:0.25;"/>
<line x1="28.000000" y1="56.000000" x2="28.000000" y2="56.000000"  style="stroke:black; stroke-linecap:round; stroke-width:0.25;"/>
<line x1="28.000000" y1="56.000000" x2="32.000000" y2="56.000000"  style="stroke:black; stroke-linecap:round; stroke-width:0.25;"/>
<line x1="56.000000" y1="56.000000" x2="60.000000" y2="56.000000"  style="stroke:black; stroke-linecap:round; stroke-width:0.25;"/>
<line x1="60.000000" y1="56.000000" x2="60.000000" y2="56.000000"  style="stroke:black; stroke-linecap:round; stroke-width:0.25;"/>
<line x1="60.000000" y1="56.000000" x2="64.000000" y2="56.000000"  style="stroke:black; stroke-linecap:round; stroke-width:0.25;"/>
<line x1="193.000000" y1="56.000000" x2="197.000000" y2="56.000000"  style="stroke:black; stroke-linecap:round; stroke-width:0.25;"/>
<line x1="197.000000" y1="56.000000" x2="205.000000" y2="56.000000"  style="stroke:black; stroke-linecap:round; stroke-width:0.25;"/>
<line x1="205.000000" y1="56.000000" x2="205.000000" y2="72.000000"  style="stroke:black; stroke-linecap:round; stroke-width:0.25;"/>
<line x1="205.000000" y1="72.000000" x2="205.000000" y2="72.000000"  style="stroke:black; stroke-linecap:round; stroke-width:0.25;"/>
<line x1="205.000000" y1="72.000000" x2="221.900000" y2="72.000000"  style="stroke:black; stroke-linecap:round; stroke-width:0.25;"/>
<line x1="221.900000" y1="72.000000" x2="238.800000" y2="72.000000"  style="stroke:black; stroke-linecap:round; stroke-width:0.25;"/>
<line x1="234.800000" y1="52.000000" x2="238.800000" y2="52.000000"  style="stroke:black; stroke-linecap:round; stroke-width:0.25;"/>
<line x1="238.800000" y1="52.000000" x2="246.800000" y2="52.000000"  style="stroke:black; stroke-linecap:round; stroke-width:0.25;"/>
<line x1="238.800000" y1="60.000000" x2="246.800000" y2="60.000000"  style="stroke:black; stroke-linecap:round; stroke-width:0.25;"/>
<line x1="238.800000" y1="72.000000" x2="238.800000" y2="60.000000"  style="stroke:black; stroke-linecap:round; stroke-width:0.25;"/>
<line x1="238.800000" y1="72.000000" x2="238.800000" y2="72.000000"  style="stroke:black; stroke-linecap:round; stroke-width:0.25;"/>
<line x1="246.800000" y1="52.000000" x2="250.800000" y2="52.000000"  style="stroke:black; stroke-linecap:round; stroke-width:0.25;"/>
<line x1="246.800000" y1="60.000000" x2="250.800000" y2="60.000000"  style="stroke:black; stroke-linecap:round; stroke-width:0.25;"/>
<line x1="274.800000" y1="56.000000" x2="278.800000" y2="56.000000"  style="stroke:black; stroke-linecap:round; stroke-width:0.25;"/>
<line x1="278.800000" y1="56.000000" x2="278.800000" y2="56.000000"  style="stroke:black; stroke-linecap:round; stroke-width:0.25;"/>
<line x1="278.800000" y1="56.000000" x2="282.800000" y2="56.000000"  style="stroke:black; stroke-linecap:round; stroke-width:0.25;"/>
<line x1="321.500000" y1="56.000000" x2="325.500000" y2="56.000000"  style="stroke:black; stroke-linecap:round; stroke-width:0.25;"/>
<line x1="325.500000" y1="30.000000" x2="333.500000" y2="30.000000"  style="stroke:black; stroke-linecap:round; stroke-width:0.25;"/>
<line x1="325.500000" y1="56.000000" x2="325.500000" y2="30.000000"  style="stroke:black; stroke-linecap:round; stroke-width:0.25;"/>
<line x1="325.500000" y1="56.000000" x2="325.500000" y2="56.000000"  style="stroke:black; stroke-linecap:round; stroke-width:0.25;"/>
<line x1="333.500000" y1="30.000000" x2="359.500000" y2="30.000000"  style="stroke:black; stroke-linecap:round; stroke-width:0.25;"/>
<line x1="359.500000" y1="30.000000" x2="385.500000" y2="30.000000"  style="stroke:black; stroke-linecap:round; stroke-width:0.25;"/>
<line x1="371.500000" y1="60.000000" x2="375.500000" y2="60.000000"  style="stroke:black; stroke-linecap:round; stroke-width:0.25;"/>
<line x1="375.500000" y1="60.000000" x2="385.500000" y2="60.000000"  style="stroke:black; stroke-linecap:round; stroke-width:0.25;"/>
<line x1="385.500000" y1="30.000000" x2="393.500000" y2="30.000000"  style="stroke:black; stroke-linecap:round; stroke-width:0.25;"/>
<line x1="385.500000" y1="60.000000" x2="393.500000" y2="60.000000"  style="stroke:black; stroke-linecap:round; stroke-width:0.25;"/>
<line x1="393.500000" y1="30.000000" x2="393.500000" y2="52.000000"  style="stroke:black; stroke-linecap:round; stroke-width:0.25;"/>
<line x1="393.500000" y1="52.000000" x2="393.500000" y2="52.000000"  style="stroke:black; stroke-linecap:round; stroke-width:0.25;"/>
<line x1="393.500000" y1="52.000000" x2="397.500000" y2="52.000000"  style="stroke:black; stroke-linecap:round; stroke-width:0.25;"/>
<line x1="393.500000" y1="60.000000" x2="397.500000" y2="60.000000"  style="stroke:black; stroke-linecap:round; stroke-width:0.25;"/>
<line x1="421.500000" y1="56.000000" x2="425.500000" y2="56.000000"  style="stroke:black; stroke-linecap:round; stroke-width:0.25;"/>
<line x1="425.500000" y1="56.000000" x2="425.500000" y2="56.000000"  style="stroke:black; stroke-linecap:round; stroke-width:0.25;"/>
<line x1="425.500000" y1="56.000000" x2="435.500000" y2="56.000000"  style="stroke:black; stroke-linecap:round; stroke-width:0.25;"/>
<line x1="435.500000" y1="56.000000" x2="445.500000" y2="56.000000"  style="stroke:black; stroke-linecap:round; stroke-width:0.25;"/>
<line x1="445.500000" y1="56.000000" x2="449.500000" y2="56.000000"  style="stroke:black; stroke-linecap:round; stroke-width:0.25;"/>
<line x1="578.500000" y1="56.000000" x2="582.500000" y2="56.000000"  style="stroke:black; stroke-linecap:round; stroke-width:0.25;"/>
<line x1="582.500000" y1="56.000000" x2="592.500000" y2="56.000000"  style="stroke:black; stroke-linecap:round; stroke-width:0.25;"/>
<line x1="592.500000" y1="56.000000" x2="602.500000" y2="56.000000"  style="stroke:black; stroke-linecap:round; stroke-width:0.25;"/>
<line x1="602.500000" y1="56.000000" x2="602.500000" y2="56.000000"  style="stroke:black; stroke-linecap:round; stroke-width:0.25;"/>
<line x1="602.500000" y1="56.000000" x2="606.500000" y2="56.000000"  style="stroke:black; stroke-linecap:round; stroke-width:0.25;"/>
<line x1="606.500000" y1="56.000000" x2="610.500000" y2="56.000000"  style="stroke:black; stroke-linecap:round; stroke-width:0.25;"/>
<line x1="610.500000" y1="56.000000" x2="620.500000" y2="56.000000"  style="stroke:black; stroke-linecap:round; stroke-width:0.25;"/>
</svg>
