<?xml version="1.0"?>
<svg xmlns="http://www.w3.org/2000/svg" xmlns:xlink="http://www.w3.org/1999/xlink" viewBox="0 0 269.600000 272.000000" width="134.800000mm" height="136.000000mm" version="1.1">
<a xlink:href="process.svg">
<rect x="1.000000" y="1.000000" width="268.600000" height="271.000000" rx="0" ry="0" style="stroke:none;fill:#cccccc;"/>
<rect x="0.000000" y="0.000000" width="268.600000" height="271.000000" rx="0" ry="0" style="stroke:none;fill:#ffffff;"/>
</a>
<text x="10.000000" y="7.000000" font-family="Arial" font-size="7"></text>
<a xlink:href="adly-0x7fea31229990.svg">
<rect x="135.000000" y="45.000000" width="25.800000" height="24.000000" rx="0" ry="0" style="stroke:none;fill:#cccccc;"/>
<rect x="134.000000" y="44.000000" width="25.800000" height="24.000000" rx="0" ry="0" style="stroke:none;fill:#003366;"/>
</a>
<a xlink:href="adly-0x7fea31229990.svg">
<text x="146.900000" y="58.000000" font-family="Arial" font-size="7" text-anchor="middle" fill="#FFFFFF">adly</text>
</a>
<circle cx="136.000000" cy="46.000000" r="1"/>
<line x1="131.000000" y1="55.000000" x2="134.000000" y2="56.000000"  transform="rotate(0.000000,134.000000,56.000000)" style="stroke: black; stroke-width:0.25;"/>
<line x1="131.000000" y1="57.000000" x2="134.000000" y2="56.000000"  transform="rotate(0.000000,134.000000,56.000000)" style="stroke: black; stroke-width:0.25;"/>
<a xlink:href="adly-0x7fea31229990.svg">
<rect x="135.000000" y="77.000000" width="25.800000" height="24.000000" rx="0" ry="0" style="stroke:none;fill:#cccccc;"/>
<rect x="134.000000" y="76.000000" width="25.800000" height="24.000000" rx="0" ry="0" style="stroke:none;fill:#003366;"/>
</a>
<a xlink:href="adly-0x7fea31229990.svg">
<text x="146.900000" y="90.000000" font-family="Arial" font-size="7" text-anchor="middle" fill="#FFFFFF">adly</text>
</a>
<circle cx="136.000000" cy="78.000000" r="1"/>
<line x1="131.000000" y1="87.000000" x2="134.000000" y2="88.000000"  transform="rotate(0.000000,134.000000,88.000000)" style="stroke: black; stroke-width:0.25;"/>
<line x1="131.000000" y1="89.000000" x2="134.000000" y2="88.000000"  transform="rotate(0.000000,134.000000,88.000000)" style="stroke: black; stroke-width:0.25;"/>
<a xlink:href="adly-0x7fea31229990.svg">
<rect x="135.000000" y="109.000000" width="25.800000" height="24.000000" rx="0" ry="0" style="stroke:none;fill:#cccccc;"/>
<rect x="134.000000" y="108.000000" width="25.800000" height="24.000000" rx="0" ry="0" style="stroke:none;fill:#003366;"/>
</a>
<a xlink:href="adly-0x7fea31229990.svg">
<text x="146.900000" y="122.000000" font-family="Arial" font-size="7" text-anchor="middle" fill="#FFFFFF">adly</text>
</a>
<circle cx="136.000000" cy="110.000000" r="1"/>
<line x1="131.000000" y1="119.000000" x2="134.000000" y2="120.000000"  transform="rotate(0.000000,134.000000,120.000000)" style="stroke: black; stroke-width:0.25;"/>
<line x1="131.000000" y1="121.000000" x2="134.000000" y2="120.000000"  transform="rotate(0.000000,134.000000,120.000000)" style="stroke: black; stroke-width:0.25;"/>
<a xlink:href="adly-0x7fea31229990.svg">
<rect x="135.000000" y="141.000000" width="25.800000" height="24.000000" rx="0" ry="0" style="stroke:none;fill:#cccccc;"/>
<rect x="134.000000" y="140.000000" width="25.800000" height="24.000000" rx="0" ry="0" style="stroke:none;fill:#003366;"/>
</a>
<a xlink:href="adly-0x7fea31229990.svg">
<text x="146.900000" y="154.000000" font-family="Arial" font-size="7" text-anchor="middle" fill="#FFFFFF">adly</text>
</a>
<circle cx="136.000000" cy="142.000000" r="1"/>
<line x1="131.000000" y1="151.000000" x2="134.000000" y2="152.000000"  transform="rotate(0.000000,134.000000,152.000000)" style="stroke: black; stroke-width:0.25;"/>
<line x1="131.000000" y1="153.000000" x2="134.000000" y2="152.000000"  transform="rotate(0.000000,134.000000,152.000000)" style="stroke: black; stroke-width:0.25;"/>
<a xlink:href="adly-0x7fea31229990.svg">
<rect x="135.000000" y="173.000000" width="25.800000" height="24.000000" rx="0" ry="0" style="stroke:none;fill:#cccccc;"/>
<rect x="134.000000" y="172.000000" width="25.800000" height="24.000000" rx="0" ry="0" style="stroke:none;fill:#003366;"/>
</a>
<a xlink:href="adly-0x7fea31229990.svg">
<text x="146.900000" y="186.000000" font-family="Arial" font-size="7" text-anchor="middle" fill="#FFFFFF">adly</text>
</a>
<circle cx="136.000000" cy="174.000000" r="1"/>
<line x1="131.000000" y1="183.000000" x2="134.000000" y2="184.000000"  transform="rotate(0.000000,134.000000,184.000000)" style="stroke: black; stroke-width:0.25;"/>
<line x1="131.000000" y1="185.000000" x2="134.000000" y2="184.000000"  transform="rotate(0.000000,134.000000,184.000000)" style="stroke: black; stroke-width:0.25;"/>
<a xlink:href="adly-0x7fea31229990.svg">
<rect x="135.000000" y="205.000000" width="25.800000" height="24.000000" rx="0" ry="0" style="stroke:none;fill:#cccccc;"/>
<rect x="134.000000" y="204.000000" width="25.800000" height="24.000000" rx="0" ry="0" style="stroke:none;fill:#003366;"/>
</a>
<a xlink:href="adly-0x7fea31229990.svg">
<text x="146.900000" y="218.000000" font-family="Arial" font-size="7" text-anchor="middle" fill="#FFFFFF">adly</text>
</a>
<circle cx="136.000000" cy="206.000000" r="1"/>
<line x1="131.000000" y1="215.000000" x2="134.000000" y2="216.000000"  transform="rotate(0.000000,134.000000,216.000000)" style="stroke: black; stroke-width:0.25;"/>
<line x1="131.000000" y1="217.000000" x2="134.000000" y2="216.000000"  transform="rotate(0.000000,134.000000,216.000000)" style="stroke: black; stroke-width:0.25;"/>
<a xlink:href="hmeter-0x7fea2f49a970.svg">
<rect x="168.800000" y="45.000000" width="25.800000" height="24.000000" rx="0" ry="0" style="stroke:none;fill:#cccccc;"/>
<rect x="167.800000" y="44.000000" width="25.800000" height="24.000000" rx="0" ry="0" style="stroke:none;fill:#003366;"/>
</a>
<a xlink:href="hmeter-0x7fea2f49a970.svg">
<text x="180.700000" y="58.000000" font-family="Arial" font-size="7" text-anchor="middle" fill="#FFFFFF">hmeter</text>
</a>
<circle cx="169.800000" cy="46.000000" r="1"/>
<line x1="164.800000" y1="55.000000" x2="167.800000" y2="56.000000"  transform="rotate(0.000000,167.800000,56.000000)" style="stroke: black; stroke-width:0.25;"/>
<line x1="164.800000" y1="57.000000" x2="167.800000" y2="56.000000"  transform="rotate(0.000000,167.800000,56.000000)" style="stroke: black; stroke-width:0.25;"/>
<a xlink:href="hmeter-0x7fea2f49a970.svg">
<rect x="168.800000" y="77.000000" width="25.800000" height="24.000000" rx="0" ry="0" style="stroke:none;fill:#cccccc;"/>
<rect x="167.800000" y="76.000000" width="25.800000" height="24.000000" rx="0" ry="0" style="stroke:none;fill:#003366;"/>
</a>
<a xlink:href="hmeter-0x7fea2f49a970.svg">
<text x="180.700000" y="90.000000" font-family="Arial" font-size="7" text-anchor="middle" fill="#FFFFFF">hmeter</text>
</a>
<circle cx="169.800000" cy="78.000000" r="1"/>
<line x1="164.800000" y1="87.000000" x2="167.800000" y2="88.000000"  transform="rotate(0.000000,167.800000,88.000000)" style="stroke: black; stroke-width:0.25;"/>
<line x1="164.800000" y1="89.000000" x2="167.800000" y2="88.000000"  transform="rotate(0.000000,167.800000,88.000000)" style="stroke: black; stroke-width:0.25;"/>
<a xlink:href="hmeter-0x7fea2f49a970.svg">
<rect x="168.800000" y="109.000000" width="25.800000" height="24.000000" rx="0" ry="0" style="stroke:none;fill:#cccccc;"/>
<rect x="167.800000" y="108.000000" width="25.800000" height="24.000000" rx="0" ry="0" style="stroke:none;fill:#003366;"/>
</a>
<a xlink:href="hmeter-0x7fea2f49a970.svg">
<text x="180.700000" y="122.000000" font-family="Arial" font-size="7" text-anchor="middle" fill="#FFFFFF">hmeter</text>
</a>
<circle cx="169.800000" cy="110.000000" r="1"/>
<line x1="164.800000" y1="119.000000" x2="167.800000" y2="120.000000"  transform="rotate(0.000000,167.800000,120.000000)" style="stroke: black; stroke-width:0.25;"/>
<line x1="164.800000" y1="121.000000" x2="167.800000" y2="120.000000"  transform="rotate(0.000000,167.800000,120.000000)" style="stroke: black; stroke-width:0.25;"/>
<a xlink:href="hmeter-0x7fea2f49a970.svg">
<rect x="168.800000" y="141.000000" width="25.800000" height="24.000000" rx="0" ry="0" style="stroke:none;fill:#cccccc;"/>
<rect x="167.800000" y="140.000000" width="25.800000" height="24.000000" rx="0" ry="0" style="stroke:none;fill:#003366;"/>
</a>
<a xlink:href="hmeter-0x7fea2f49a970.svg">
<text x="180.700000" y="154.000000" font-family="Arial" font-size="7" text-anchor="middle" fill="#FFFFFF">hmeter</text>
</a>
<circle cx="169.800000" cy="142.000000" r="1"/>
<line x1="164.800000" y1="151.000000" x2="167.800000" y2="152.000000"  transform="rotate(0.000000,167.800000,152.000000)" style="stroke: black; stroke-width:0.25;"/>
<line x1="164.800000" y1="153.000000" x2="167.800000" y2="152.000000"  transform="rotate(0.000000,167.800000,152.000000)" style="stroke: black; stroke-width:0.25;"/>
<a xlink:href="hmeter-0x7fea2f49a970.svg">
<rect x="168.800000" y="173.000000" width="25.800000" height="24.000000" rx="0" ry="0" style="stroke:none;fill:#cccccc;"/>
<rect x="167.800000" y="172.000000" width="25.800000" height="24.000000" rx="0" ry="0" style="stroke:none;fill:#003366;"/>
</a>
<a xlink:href="hmeter-0x7fea2f49a970.svg">
<text x="180.700000" y="186.000000" font-family="Arial" font-size="7" text-anchor="middle" fill="#FFFFFF">hmeter</text>
</a>
<circle cx="169.800000" cy="174.000000" r="1"/>
<line x1="164.800000" y1="183.000000" x2="167.800000" y2="184.000000"  transform="rotate(0.000000,167.800000,184.000000)" style="stroke: black; stroke-width:0.25;"/>
<line x1="164.800000" y1="185.000000" x2="167.800000" y2="184.000000"  transform="rotate(0.000000,167.800000,184.000000)" style="stroke: black; stroke-width:0.25;"/>
<a xlink:href="hmeter-0x7fea2f49a970.svg">
<rect x="168.800000" y="205.000000" width="25.800000" height="24.000000" rx="0" ry="0" style="stroke:none;fill:#cccccc;"/>
<rect x="167.800000" y="204.000000" width="25.800000" height="24.000000" rx="0" ry="0" style="stroke:none;fill:#003366;"/>
</a>
<a xlink:href="hmeter-0x7fea2f49a970.svg">
<text x="180.700000" y="218.000000" font-family="Arial" font-size="7" text-anchor="middle" fill="#FFFFFF">hmeter</text>
</a>
<circle cx="169.800000" cy="206.000000" r="1"/>
<line x1="164.800000" y1="215.000000" x2="167.800000" y2="216.000000"  transform="rotate(0.000000,167.800000,216.000000)" style="stroke: black; stroke-width:0.25;"/>
<line x1="164.800000" y1="217.000000" x2="167.800000" y2="216.000000"  transform="rotate(0.000000,167.800000,216.000000)" style="stroke: black; stroke-width:0.25;"/>
<line x1="43.000000" y1="35.000000" x2="43.000000" y2="237.000000"  style="stroke: black; stroke-linecap:round; stroke-width:0.25; stroke-dasharray:3,3;"/>
<line x1="43.000000" y1="237.000000" x2="202.600000" y2="237.000000"  style="stroke: black; stroke-linecap:round; stroke-width:0.25; stroke-dasharray:3,3;"/>
<line x1="202.600000" y1="237.000000" x2="202.600000" y2="35.000000"  style="stroke: black; stroke-linecap:round; stroke-width:0.25; stroke-dasharray:3,3;"/>
<line x1="43.000000" y1="35.000000" x2="48.000000" y2="35.000000"  style="stroke: black; stroke-linecap:round; stroke-width:0.25; stroke-dasharray:3,3;"/>
<line x1="102.825000" y1="35.000000" x2="202.600000" y2="35.000000"  style="stroke: black; stroke-linecap:round; stroke-width:0.25; stroke-dasharray:3,3;"/>
<text x="48.000000" y="37.000000" font-family="Arial" font-size="7">hgroup(OUTPUTS)</text>
<line x1="33.000000" y1="25.000000" x2="33.000000" y2="247.000000"  style="stroke: black; stroke-linecap:round; stroke-width:0.25; stroke-dasharray:3,3;"/>
<line x1="33.000000" y1="247.000000" x2="212.600000" y2="247.000000"  style="stroke: black; stroke-linecap:round; stroke-width:0.25; stroke-dasharray:3,3;"/>
<line x1="212.600000" y1="247.000000" x2="212.600000" y2="25.000000"  style="stroke: black; stroke-linecap:round; stroke-width:0.25; stroke-dasharray:3,3;"/>
<line x1="33.000000" y1="25.000000" x2="38.000000" y2="25.000000"  style="stroke: black; stroke-linecap:round; stroke-width:0.25; stroke-dasharray:3,3;"/>
<line x1="134.750000" y1="25.000000" x2="212.600000" y2="25.000000"  style="stroke: black; stroke-linecap:round; stroke-width:0.25; stroke-dasharray:3,3;"/>
<text x="38.000000" y="27.000000" font-family="Arial" font-size="7">vgroup(---- BASS FLUTE ----)</text>
<line x1="15.000000" y1="15.000000" x2="15.000000" y2="257.000000"  style="stroke: black; stroke-linecap:round; stroke-width:0.25; stroke-dasharray:3,3;"/>
<line x1="15.000000" y1="257.000000" x2="254.600000" y2="257.000000"  style="stroke: black; stroke-linecap:round; stroke-width:0.25; stroke-dasharray:3,3;"/>
<line x1="254.600000" y1="257.000000" x2="254.600000" y2="15.000000"  style="stroke: black; stroke-linecap:round; stroke-width:0.25; stroke-dasharray:3,3;"/>
<line x1="15.000000" y1="15.000000" x2="20.000000" y2="15.000000"  style="stroke: black; stroke-linecap:round; stroke-width:0.25; stroke-dasharray:3,3;"/>
<line x1="45.800000" y1="15.000000" x2="254.600000" y2="15.000000"  style="stroke: black; stroke-linecap:round; stroke-width:0.25; stroke-dasharray:3,3;"/>
<text x="20.000000" y="17.000000" font-family="Arial" font-size="7">fl_out</text>
<line x1="256.600000" y1="115.000000" x2="259.600000" y2="116.000000"  transform="rotate(0.000000,259.600000,116.000000)" style="stroke: black; stroke-width:0.25;"/>
<line x1="256.600000" y1="117.000000" x2="259.600000" y2="116.000000"  transform="rotate(0.000000,259.600000,116.000000)" style="stroke: black; stroke-width:0.25;"/>
<line x1="256.600000" y1="123.000000" x2="259.600000" y2="124.000000"  transform="rotate(0.000000,259.600000,124.000000)" style="stroke: black; stroke-width:0.25;"/>
<line x1="256.600000" y1="125.000000" x2="259.600000" y2="124.000000"  transform="rotate(0.000000,259.600000,124.000000)" style="stroke: black; stroke-width:0.25;"/>
<line x1="256.600000" y1="131.000000" x2="259.600000" y2="132.000000"  transform="rotate(0.000000,259.600000,132.000000)" style="stroke: black; stroke-width:0.25;"/>
<line x1="256.600000" y1="133.000000" x2="259.600000" y2="132.000000"  transform="rotate(0.000000,259.600000,132.000000)" style="stroke: black; stroke-width:0.25;"/>
<line x1="256.600000" y1="139.000000" x2="259.600000" y2="140.000000"  transform="rotate(0.000000,259.600000,140.000000)" style="stroke: black; stroke-width:0.25;"/>
<line x1="256.600000" y1="141.000000" x2="259.600000" y2="140.000000"  transform="rotate(0.000000,259.600000,140.000000)" style="stroke: black; stroke-width:0.25;"/>
<line x1="256.600000" y1="147.000000" x2="259.600000" y2="148.000000"  transform="rotate(0.000000,259.600000,148.000000)" style="stroke: black; stroke-width:0.25;"/>
<line x1="256.600000" y1="149.000000" x2="259.600000" y2="148.000000"  transform="rotate(0.000000,259.600000,148.000000)" style="stroke: black; stroke-width:0.25;"/>
<line x1="256.600000" y1="155.000000" x2="259.600000" y2="156.000000"  transform="rotate(0.000000,259.600000,156.000000)" style="stroke: black; stroke-width:0.25;"/>
<line x1="256.600000" y1="157.000000" x2="259.600000" y2="156.000000"  transform="rotate(0.000000,259.600000,156.000000)" style="stroke: black; stroke-width:0.25;"/>
<line x1="10.000000" y1="136.000000" x2="20.000000" y2="136.000000"  style="stroke:black; stroke-linecap:round; stroke-width:0.25;"/>
<line x1="20.000000" y1="136.000000" x2="24.000000" y2="136.000000"  style="stroke:black; stroke-linecap:round; stroke-width:0.25;"/>
<line x1="24.000000" y1="136.000000" x2="28.000000" y2="136.000000"  style="stroke:black; stroke-linecap:round; stroke-width:0.25;"/>
<line x1="28.000000" y1="136.000000" x2="28.000000" y2="136.000000"  style="stroke:black; stroke-linecap:round; stroke-width:0.25;"/>
<line x1="28.000000" y1="136.000000" x2="38.000000" y2="136.000000"  style="stroke:black; stroke-linecap:round; stroke-width:0.25;"/>
<line x1="38.000000" y1="136.000000" x2="48.000000" y2="136.000000"  style="stroke:black; stroke-linecap:round; stroke-width:0.25;"/>
<line x1="48.000000" y1="136.000000" x2="52.000000" y2="136.000000"  style="stroke:black; stroke-linecap:round; stroke-width:0.25;"/>
<line x1="52.000000" y1="136.000000" x2="56.000000" y2="136.000000"  style="stroke:black; stroke-linecap:round; stroke-width:0.25;"/>
<line x1="56.000000" y1="136.000000" x2="106.000000" y2="116.000000"  style="stroke:black; stroke-linecap:round; stroke-width:0.25;"/>
<line x1="56.000000" y1="136.000000" x2="106.000000" y2="124.000000"  style="stroke:black; stroke-linecap:round; stroke-width:0.25;"/>
<line x1="56.000000" y1="136.000000" x2="106.000000" y2="132.000000"  style="stroke:black; stroke-linecap:round; stroke-width:0.25;"/>
<line x1="56.000000" y1="136.000000" x2="106.000000" y2="140.000000"  style="stroke:black; stroke-linecap:round; stroke-width:0.25;"/>
<line x1="56.000000" y1="136.000000" x2="106.000000" y2="148.000000"  style="stroke:black; stroke-linecap:round; stroke-width:0.25;"/>
<line x1="56.000000" y1="136.000000" x2="106.000000" y2="156.000000"  style="stroke:black; stroke-linecap:round; stroke-width:0.25;"/>
<line x1="106.000000" y1="56.000000" x2="130.000000" y2="56.000000"  style="stroke:black; stroke-linecap:round; stroke-width:0.25;"/>
<line x1="106.000000" y1="116.000000" x2="106.000000" y2="56.000000"  style="stroke:black; stroke-linecap:round; stroke-width:0.25;"/>
<line x1="106.000000" y1="116.000000" x2="106.000000" y2="116.000000"  style="stroke:black; stroke-linecap:round; stroke-width:0.25;"/>
<line x1="106.000000" y1="124.000000" x2="114.000000" y2="124.000000"  style="stroke:black; stroke-linecap:round; stroke-width:0.25;"/>
<line x1="106.000000" y1="132.000000" x2="122.000000" y2="132.000000"  style="stroke:black; stroke-linecap:round; stroke-width:0.25;"/>
<line x1="106.000000" y1="140.000000" x2="130.000000" y2="140.000000"  style="stroke:black; stroke-linecap:round; stroke-width:0.25;"/>
<line x1="106.000000" y1="148.000000" x2="122.000000" y2="148.000000"  style="stroke:black; stroke-linecap:round; stroke-width:0.25;"/>
<line x1="106.000000" y1="156.000000" x2="114.000000" y2="156.000000"  style="stroke:black; stroke-linecap:round; stroke-width:0.25;"/>
<line x1="114.000000" y1="88.000000" x2="130.000000" y2="88.000000"  style="stroke:black; stroke-linecap:round; stroke-width:0.25;"/>
<line x1="114.000000" y1="124.000000" x2="114.000000" y2="88.000000"  style="stroke:black; stroke-linecap:round; stroke-width:0.25;"/>
<line x1="114.000000" y1="156.000000" x2="114.000000" y2="216.000000"  style="stroke:black; stroke-linecap:round; stroke-width:0.25;"/>
<line x1="114.000000" y1="216.000000" x2="130.000000" y2="216.000000"  style="stroke:black; stroke-linecap:round; stroke-width:0.25;"/>
<line x1="122.000000" y1="120.000000" x2="130.000000" y2="120.000000"  style="stroke:black; stroke-linecap:round; stroke-width:0.25;"/>
<line x1="122.000000" y1="132.000000" x2="122.000000" y2="120.000000"  style="stroke:black; stroke-linecap:round; stroke-width:0.25;"/>
<line x1="122.000000" y1="148.000000" x2="122.000000" y2="184.000000"  style="stroke:black; stroke-linecap:round; stroke-width:0.25;"/>
<line x1="122.000000" y1="184.000000" x2="130.000000" y2="184.000000"  style="stroke:black; stroke-linecap:round; stroke-width:0.25;"/>
<line x1="130.000000" y1="56.000000" x2="134.000000" y2="56.000000"  style="stroke:black; stroke-linecap:round; stroke-width:0.25;"/>
<line x1="130.000000" y1="88.000000" x2="134.000000" y2="88.000000"  style="stroke:black; stroke-linecap:round; stroke-width:0.25;"/>
<line x1="130.000000" y1="120.000000" x2="134.000000" y2="120.000000"  style="stroke:black; stroke-linecap:round; stroke-width:0.25;"/>
<line x1="130.000000" y1="140.000000" x2="130.000000" y2="152.000000"  style="stroke:black; stroke-linecap:round; stroke-width:0.25;"/>
<line x1="130.000000" y1="152.000000" x2="130.000000" y2="152.000000"  style="stroke:black; stroke-linecap:round; stroke-width:0.25;"/>
<line x1="130.000000" y1="152.000000" x2="134.000000" y2="152.000000"  style="stroke:black; stroke-linecap:round; stroke-width:0.25;"/>
<line x1="130.000000" y1="184.000000" x2="134.000000" y2="184.000000"  style="stroke:black; stroke-linecap:round; stroke-width:0.25;"/>
<line x1="130.000000" y1="216.000000" x2="134.000000" y2="216.000000"  style="stroke:black; stroke-linecap:round; stroke-width:0.25;"/>
<line x1="159.800000" y1="56.000000" x2="163.800000" y2="56.000000"  style="stroke:black; stroke-linecap:round; stroke-width:0.25;"/>
<line x1="159.800000" y1="88.000000" x2="163.800000" y2="88.000000"  style="stroke:black; stroke-linecap:round; stroke-width:0.25;"/>
<line x1="159.800000" y1="120.000000" x2="163.800000" y2="120.000000"  style="stroke:black; stroke-linecap:round; stroke-width:0.25;"/>
<line x1="159.800000" y1="152.000000" x2="163.800000" y2="152.000000"  style="stroke:black; stroke-linecap:round; stroke-width:0.25;"/>
<line x1="159.800000" y1="184.000000" x2="163.800000" y2="184.000000"  style="stroke:black; stroke-linecap:round; stroke-width:0.25;"/>
<line x1="159.800000" y1="216.000000" x2="163.800000" y2="216.000000"  style="stroke:black; stroke-linecap:round; stroke-width:0.25;"/>
<line x1="163.800000" y1="56.000000" x2="163.800000" y2="56.000000"  style="stroke:black; stroke-linecap:round; stroke-width:0.25;"/>
<line x1="163.800000" y1="56.000000" x2="167.800000" y2="56.000000"  style="stroke:black; stroke-linecap:round; stroke-width:0.25;"/>
<line x1="163.800000" y1="88.000000" x2="163.800000" y2="88.000000"  style="stroke:black; stroke-linecap:round; stroke-width:0.25;"/>
<line x1="163.800000" y1="88.000000" x2="167.800000" y2="88.000000"  style="stroke:black; stroke-linecap:round; stroke-width:0.25;"/>
<line x1="163.800000" y1="120.000000" x2="163.800000" y2="120.000000"  style="stroke:black; stroke-linecap:round; stroke-width:0.25;"/>
<line x1="163.800000" y1="120.000000" x2="167.800000" y2="120.000000"  style="stroke:black; stroke-linecap:round; stroke-width:0.25;"/>
<line x1="163.800000" y1="152.000000" x2="163.800000" y2="152.000000"  style="stroke:black; stroke-linecap:round; stroke-width:0.25;"/>
<line x1="163.800000" y1="152.000000" x2="167.800000" y2="152.000000"  style="stroke:black; stroke-linecap:round; stroke-width:0.25;"/>
<line x1="163.800000" y1="184.000000" x2="163.800000" y2="184.000000"  style="stroke:black; stroke-linecap:round; stroke-width:0.25;"/>
<line x1="163.800000" y1="184.000000" x2="167.800000" y2="184.000000"  style="stroke:black; stroke-linecap:round; stroke-width:0.25;"/>
<line x1="163.800000" y1="216.000000" x2="163.800000" y2="216.000000"  style="stroke:black; stroke-linecap:round; stroke-width:0.25;"/>
<line x1="163.800000" y1="216.000000" x2="167.800000" y2="216.000000"  style="stroke:black; stroke-linecap:round; stroke-width:0.25;"/>
<line x1="193.600000" y1="56.000000" x2="197.600000" y2="56.000000"  style="stroke:black; stroke-linecap:round; stroke-width:0.25;"/>
<line x1="193.600000" y1="88.000000" x2="197.600000" y2="88.000000"  style="stroke:black; stroke-linecap:round; stroke-width:0.25;"/>
<line x1="193.600000" y1="120.000000" x2="197.600000" y2="120.000000"  style="stroke:black; stroke-linecap:round; stroke-width:0.25;"/>
<line x1="193.600000" y1="152.000000" x2="197.600000" y2="152.000000"  style="stroke:black; stroke-linecap:round; stroke-width:0.25;"/>
<line x1="193.600000" y1="184.000000" x2="197.600000" y2="184.000000"  style="stroke:black; stroke-linecap:round; stroke-width:0.25;"/>
<line x1="193.600000" y1="216.000000" x2="197.600000" y2="216.000000"  style="stroke:black; stroke-linecap:round; stroke-width:0.25;"/>
<line x1="197.600000" y1="56.000000" x2="207.600000" y2="56.000000"  style="stroke:black; stroke-linecap:round; stroke-width:0.25;"/>
<line x1="197.600000" y1="88.000000" x2="207.600000" y2="88.000000"  style="stroke:black; stroke-linecap:round; stroke-width:0.25;"/>
<line x1="197.600000" y1="120.000000" x2="207.600000" y2="120.000000"  style="stroke:black; stroke-linecap:round; stroke-width:0.25;"/>
<line x1="197.600000" y1="152.000000" x2="207.600000" y2="152.000000"  style="stroke:black; stroke-linecap:round; stroke-width:0.25;"/>
<line x1="197.600000" y1="184.000000" x2="207.600000" y2="184.000000"  style="stroke:black; stroke-linecap:round; stroke-width:0.25;"/>
<line x1="197.600000" y1="216.000000" x2="207.600000" y2="216.000000"  style="stroke:black; stroke-linecap:round; stroke-width:0.25;"/>
<line x1="207.600000" y1="56.000000" x2="217.600000" y2="56.000000"  style="stroke:black; stroke-linecap:round; stroke-width:0.25;"/>
<line x1="207.600000" y1="88.000000" x2="217.600000" y2="88.000000"  style="stroke:black; stroke-linecap:round; stroke-width:0.25;"/>
<line x1="207.600000" y1="120.000000" x2="217.600000" y2="120.000000"  style="stroke:black; stroke-linecap:round; stroke-width:0.25;"/>
<line x1="207.600000" y1="152.000000" x2="217.600000" y2="152.000000"  style="stroke:black; stroke-linecap:round; stroke-width:0.25;"/>
<line x1="207.600000" y1="184.000000" x2="217.600000" y2="184.000000"  style="stroke:black; stroke-linecap:round; stroke-width:0.25;"/>
<line x1="207.600000" y1="216.000000" x2="217.600000" y2="216.000000"  style="stroke:black; stroke-linecap:round; stroke-width:0.25;"/>
<line x1="217.600000" y1="56.000000" x2="241.600000" y2="56.000000"  style="stroke:black; stroke-linecap:round; stroke-width:0.25;"/>
<line x1="217.600000" y1="88.000000" x2="233.600000" y2="88.000000"  style="stroke:black; stroke-linecap:round; stroke-width:0.25;"/>
<line x1="217.600000" y1="120.000000" x2="225.600000" y2="120.000000"  style="stroke:black; stroke-linecap:round; stroke-width:0.25;"/>
<line x1="217.600000" y1="140.000000" x2="241.600000" y2="140.000000"  style="stroke:black; stroke-linecap:round; stroke-width:0.25;"/>
<line x1="217.600000" y1="152.000000" x2="217.600000" y2="140.000000"  style="stroke:black; stroke-linecap:round; stroke-width:0.25;"/>
<line x1="217.600000" y1="152.000000" x2="217.600000" y2="152.000000"  style="stroke:black; stroke-linecap:round; stroke-width:0.25;"/>
<line x1="217.600000" y1="184.000000" x2="225.600000" y2="184.000000"  style="stroke:black; stroke-linecap:round; stroke-width:0.25;"/>
<line x1="217.600000" y1="216.000000" x2="233.600000" y2="216.000000"  style="stroke:black; stroke-linecap:round; stroke-width:0.25;"/>
<line x1="225.600000" y1="120.000000" x2="225.600000" y2="132.000000"  style="stroke:black; stroke-linecap:round; stroke-width:0.25;"/>
<line x1="225.600000" y1="132.000000" x2="241.600000" y2="132.000000"  style="stroke:black; stroke-linecap:round; stroke-width:0.25;"/>
<line x1="225.600000" y1="148.000000" x2="241.600000" y2="148.000000"  style="stroke:black; stroke-linecap:round; stroke-width:0.25;"/>
<line x1="225.600000" y1="184.000000" x2="225.600000" y2="148.000000"  style="stroke:black; stroke-linecap:round; stroke-width:0.25;"/>
<line x1="233.600000" y1="88.000000" x2="233.600000" y2="124.000000"  style="stroke:black; stroke-linecap:round; stroke-width:0.25;"/>
<line x1="233.600000" y1="124.000000" x2="241.600000" y2="124.000000"  style="stroke:black; stroke-linecap:round; stroke-width:0.25;"/>
<line x1="233.600000" y1="156.000000" x2="241.600000" y2="156.000000"  style="stroke:black; stroke-linecap:round; stroke-width:0.25;"/>
<line x1="233.600000" y1="216.000000" x2="233.600000" y2="156.000000"  style="stroke:black; stroke-linecap:round; stroke-width:0.25;"/>
<line x1="241.600000" y1="116.000000" x2="245.600000" y2="116.000000"  style="stroke:black; stroke-linecap:round; stroke-width:0.25;"/>
<line x1="241.600000" y1="124.000000" x2="245.600000" y2="124.000000"  style="stroke:black; stroke-linecap:round; stroke-width:0.25;"/>
<line x1="241.600000" y1="132.000000" x2="245.600000" y2="132.000000"  style="stroke:black; stroke-linecap:round; stroke-width:0.25;"/>
<line x1="241.600000" y1="140.000000" x2="245.600000" y2="140.000000"  style="stroke:black; stroke-linecap:round; stroke-width:0.25;"/>
<line x1="241.600000" y1="148.000000" x2="245.600000" y2="148.000000"  style="stroke:black; stroke-linecap:round; stroke-width:0.25;"/>
<line x1="241.600000" y1="156.000000" x2="245.600000" y2="156.000000"  style="stroke:black; stroke-linecap:round; stroke-width:0.25;"/>
<line x1="241.600000" y1="56.000000" x2="241.600000" y2="116.000000"  style="stroke:black; stroke-linecap:round; stroke-width:0.25;"/>
<line x1="241.600000" y1="116.000000" x2="241.600000" y2="116.000000"  style="stroke:black; stroke-linecap:round; stroke-width:0.25;"/>
<line x1="245.600000" y1="116.000000" x2="249.600000" y2="116.000000"  style="stroke:black; stroke-linecap:round; stroke-width:0.25;"/>
<line x1="245.600000" y1="124.000000" x2="249.600000" y2="124.000000"  style="stroke:black; stroke-linecap:round; stroke-width:0.25;"/>
<line x1="245.600000" y1="132.000000" x2="249.600000" y2="132.000000"  style="stroke:black; stroke-linecap:round; stroke-width:0.25;"/>
<line x1="245.600000" y1="140.000000" x2="249.600000" y2="140.000000"  style="stroke:black; stroke-linecap:round; stroke-width:0.25;"/>
<line x1="245.600000" y1="148.000000" x2="249.600000" y2="148.000000"  style="stroke:black; stroke-linecap:round; stroke-width:0.25;"/>
<line x1="245.600000" y1="156.000000" x2="249.600000" y2="156.000000"  style="stroke:black; stroke-linecap:round; stroke-width:0.25;"/>
<line x1="249.600000" y1="116.000000" x2="259.600000" y2="116.000000"  style="stroke:black; stroke-linecap:round; stroke-width:0.25;"/>
<line x1="249.600000" y1="124.000000" x2="259.600000" y2="124.000000"  style="stroke:black; stroke-linecap:round; stroke-width:0.25;"/>
<line x1="249.600000" y1="132.000000" x2="259.600000" y2="132.000000"  style="stroke:black; stroke-linecap:round; stroke-width:0.25;"/>
<line x1="249.600000" y1="140.000000" x2="259.600000" y2="140.000000"  style="stroke:black; stroke-linecap:round; stroke-width:0.25;"/>
<line x1="249.600000" y1="148.000000" x2="259.600000" y2="148.000000"  style="stroke:black; stroke-linecap:round; stroke-width:0.25;"/>
<line x1="249.600000" y1="156.000000" x2="259.600000" y2="156.000000"  style="stroke:black; stroke-linecap:round; stroke-width:0.25;"/>
</svg>
