<?xml version="1.0"?>
<svg xmlns="http://www.w3.org/2000/svg" xmlns:xlink="http://www.w3.org/1999/xlink" viewBox="0 0 267.800000 272.000000" width="133.900000mm" height="136.000000mm" version="1.1">
<a xlink:href="process.svg">
<rect x="1.000000" y="1.000000" width="266.800000" height="271.000000" rx="0" ry="0" style="stroke:none;fill:#cccccc;"/>
<rect x="0.000000" y="0.000000" width="266.800000" height="271.000000" rx="0" ry="0" style="stroke:none;fill:#ffffff;"/>
</a>
<text x="10.000000" y="7.000000" font-family="Arial" font-size="7"></text>
<a xlink:href="at1-0x7f9e1403eae0.svg">
<rect x="111.000000" y="105.000000" width="24.000000" height="24.000000" rx="0" ry="0" style="stroke:none;fill:#cccccc;"/>
<rect x="110.000000" y="104.000000" width="24.000000" height="24.000000" rx="0" ry="0" style="stroke:none;fill:#003366;"/>
</a>
<a xlink:href="at1-0x7f9e1403eae0.svg">
<text x="122.000000" y="118.000000" font-family="Arial" font-size="7" text-anchor="middle" fill="#FFFFFF">at1</text>
</a>
<circle cx="112.000000" cy="106.000000" r="1"/>
<line x1="107.000000" y1="115.000000" x2="110.000000" y2="116.000000"  transform="rotate(0.000000,110.000000,116.000000)" style="stroke: black; stroke-width:0.25;"/>
<line x1="107.000000" y1="117.000000" x2="110.000000" y2="116.000000"  transform="rotate(0.000000,110.000000,116.000000)" style="stroke: black; stroke-width:0.25;"/>
<a xlink:href="hmeter-0x7f9e14011470.svg">
<rect x="167.000000" y="45.000000" width="25.800000" height="24.000000" rx="0" ry="0" style="stroke:none;fill:#cccccc;"/>
<rect x="166.000000" y="44.000000" width="25.800000" height="24.000000" rx="0" ry="0" style="stroke:none;fill:#003366;"/>
</a>
<a xlink:href="hmeter-0x7f9e14011470.svg">
<text x="178.900000" y="58.000000" font-family="Arial" font-size="7" text-anchor="middle" fill="#FFFFFF">hmeter</text>
</a>
<circle cx="168.000000" cy="46.000000" r="1"/>
<line x1="163.000000" y1="55.000000" x2="166.000000" y2="56.000000"  transform="rotate(0.000000,166.000000,56.000000)" style="stroke: black; stroke-width:0.25;"/>
<line x1="163.000000" y1="57.000000" x2="166.000000" y2="56.000000"  transform="rotate(0.000000,166.000000,56.000000)" style="stroke: black; stroke-width:0.25;"/>
<a xlink:href="hmeter-0x7f9e14011470.svg">
<rect x="167.000000" y="77.000000" width="25.800000" height="24.000000" rx="0" ry="0" style="stroke:none;fill:#cccccc;"/>
<rect x="166.000000" y="76.000000" width="25.800000" height="24.000000" rx="0" ry="0" style="stroke:none;fill:#003366;"/>
</a>
<a xlink:href="hmeter-0x7f9e14011470.svg">
<text x="178.900000" y="90.000000" font-family="Arial" font-size="7" text-anchor="middle" fill="#FFFFFF">hmeter</text>
</a>
<circle cx="168.000000" cy="78.000000" r="1"/>
<line x1="163.000000" y1="87.000000" x2="166.000000" y2="88.000000"  transform="rotate(0.000000,166.000000,88.000000)" style="stroke: black; stroke-width:0.25;"/>
<line x1="163.000000" y1="89.000000" x2="166.000000" y2="88.000000"  transform="rotate(0.000000,166.000000,88.000000)" style="stroke: black; stroke-width:0.25;"/>
<a xlink:href="hmeter-0x7f9e14011470.svg">
<rect x="167.000000" y="109.000000" width="25.800000" height="24.000000" rx="0" ry="0" style="stroke:none;fill:#cccccc;"/>
<rect x="166.000000" y="108.000000" width="25.800000" height="24.000000" rx="0" ry="0" style="stroke:none;fill:#003366;"/>
</a>
<a xlink:href="hmeter-0x7f9e14011470.svg">
<text x="178.900000" y="122.000000" font-family="Arial" font-size="7" text-anchor="middle" fill="#FFFFFF">hmeter</text>
</a>
<circle cx="168.000000" cy="110.000000" r="1"/>
<line x1="163.000000" y1="119.000000" x2="166.000000" y2="120.000000"  transform="rotate(0.000000,166.000000,120.000000)" style="stroke: black; stroke-width:0.25;"/>
<line x1="163.000000" y1="121.000000" x2="166.000000" y2="120.000000"  transform="rotate(0.000000,166.000000,120.000000)" style="stroke: black; stroke-width:0.25;"/>
<a xlink:href="hmeter-0x7f9e14011470.svg">
<rect x="167.000000" y="141.000000" width="25.800000" height="24.000000" rx="0" ry="0" style="stroke:none;fill:#cccccc;"/>
<rect x="166.000000" y="140.000000" width="25.800000" height="24.000000" rx="0" ry="0" style="stroke:none;fill:#003366;"/>
</a>
<a xlink:href="hmeter-0x7f9e14011470.svg">
<text x="178.900000" y="154.000000" font-family="Arial" font-size="7" text-anchor="middle" fill="#FFFFFF">hmeter</text>
</a>
<circle cx="168.000000" cy="142.000000" r="1"/>
<line x1="163.000000" y1="151.000000" x2="166.000000" y2="152.000000"  transform="rotate(0.000000,166.000000,152.000000)" style="stroke: black; stroke-width:0.25;"/>
<line x1="163.000000" y1="153.000000" x2="166.000000" y2="152.000000"  transform="rotate(0.000000,166.000000,152.000000)" style="stroke: black; stroke-width:0.25;"/>
<a xlink:href="hmeter-0x7f9e14011470.svg">
<rect x="167.000000" y="173.000000" width="25.800000" height="24.000000" rx="0" ry="0" style="stroke:none;fill:#cccccc;"/>
<rect x="166.000000" y="172.000000" width="25.800000" height="24.000000" rx="0" ry="0" style="stroke:none;fill:#003366;"/>
</a>
<a xlink:href="hmeter-0x7f9e14011470.svg">
<text x="178.900000" y="186.000000" font-family="Arial" font-size="7" text-anchor="middle" fill="#FFFFFF">hmeter</text>
</a>
<circle cx="168.000000" cy="174.000000" r="1"/>
<line x1="163.000000" y1="183.000000" x2="166.000000" y2="184.000000"  transform="rotate(0.000000,166.000000,184.000000)" style="stroke: black; stroke-width:0.25;"/>
<line x1="163.000000" y1="185.000000" x2="166.000000" y2="184.000000"  transform="rotate(0.000000,166.000000,184.000000)" style="stroke: black; stroke-width:0.25;"/>
<a xlink:href="hmeter-0x7f9e14011470.svg">
<rect x="167.000000" y="205.000000" width="25.800000" height="24.000000" rx="0" ry="0" style="stroke:none;fill:#cccccc;"/>
<rect x="166.000000" y="204.000000" width="25.800000" height="24.000000" rx="0" ry="0" style="stroke:none;fill:#003366;"/>
</a>
<a xlink:href="hmeter-0x7f9e14011470.svg">
<text x="178.900000" y="218.000000" font-family="Arial" font-size="7" text-anchor="middle" fill="#FFFFFF">hmeter</text>
</a>
<circle cx="168.000000" cy="206.000000" r="1"/>
<line x1="163.000000" y1="215.000000" x2="166.000000" y2="216.000000"  transform="rotate(0.000000,166.000000,216.000000)" style="stroke: black; stroke-width:0.25;"/>
<line x1="163.000000" y1="217.000000" x2="166.000000" y2="216.000000"  transform="rotate(0.000000,166.000000,216.000000)" style="stroke: black; stroke-width:0.25;"/>
<line x1="43.000000" y1="35.000000" x2="43.000000" y2="237.000000"  style="stroke: black; stroke-linecap:round; stroke-width:0.25; stroke-dasharray:3,3;"/>
<line x1="43.000000" y1="237.000000" x2="200.800000" y2="237.000000"  style="stroke: black; stroke-linecap:round; stroke-width:0.25; stroke-dasharray:3,3;"/>
<line x1="200.800000" y1="237.000000" x2="200.800000" y2="35.000000"  style="stroke: black; stroke-linecap:round; stroke-width:0.25; stroke-dasharray:3,3;"/>
<line x1="43.000000" y1="35.000000" x2="48.000000" y2="35.000000"  style="stroke: black; stroke-linecap:round; stroke-width:0.25; stroke-dasharray:3,3;"/>
<line x1="102.825000" y1="35.000000" x2="200.800000" y2="35.000000"  style="stroke: black; stroke-linecap:round; stroke-width:0.25; stroke-dasharray:3,3;"/>
<text x="48.000000" y="37.000000" font-family="Arial" font-size="7">vgroup(OUTPUTS)</text>
<line x1="33.000000" y1="25.000000" x2="33.000000" y2="247.000000"  style="stroke: black; stroke-linecap:round; stroke-width:0.25; stroke-dasharray:3,3;"/>
<line x1="33.000000" y1="247.000000" x2="210.800000" y2="247.000000"  style="stroke: black; stroke-linecap:round; stroke-width:0.25; stroke-dasharray:3,3;"/>
<line x1="210.800000" y1="247.000000" x2="210.800000" y2="25.000000"  style="stroke: black; stroke-linecap:round; stroke-width:0.25; stroke-dasharray:3,3;"/>
<line x1="33.000000" y1="25.000000" x2="38.000000" y2="25.000000"  style="stroke: black; stroke-linecap:round; stroke-width:0.25; stroke-dasharray:3,3;"/>
<line x1="134.750000" y1="25.000000" x2="210.800000" y2="25.000000"  style="stroke: black; stroke-linecap:round; stroke-width:0.25; stroke-dasharray:3,3;"/>
<text x="38.000000" y="27.000000" font-family="Arial" font-size="7">vgroup(---- BASS FLUTE ----)</text>
<line x1="15.000000" y1="15.000000" x2="15.000000" y2="257.000000"  style="stroke: black; stroke-linecap:round; stroke-width:0.25; stroke-dasharray:3,3;"/>
<line x1="15.000000" y1="257.000000" x2="252.800000" y2="257.000000"  style="stroke: black; stroke-linecap:round; stroke-width:0.25; stroke-dasharray:3,3;"/>
<line x1="252.800000" y1="257.000000" x2="252.800000" y2="15.000000"  style="stroke: black; stroke-linecap:round; stroke-width:0.25; stroke-dasharray:3,3;"/>
<line x1="15.000000" y1="15.000000" x2="20.000000" y2="15.000000"  style="stroke: black; stroke-linecap:round; stroke-width:0.25; stroke-dasharray:3,3;"/>
<line x1="45.800000" y1="15.000000" x2="252.800000" y2="15.000000"  style="stroke: black; stroke-linecap:round; stroke-width:0.25; stroke-dasharray:3,3;"/>
<text x="20.000000" y="17.000000" font-family="Arial" font-size="7">fl_out</text>
<line x1="254.800000" y1="115.000000" x2="257.800000" y2="116.000000"  transform="rotate(0.000000,257.800000,116.000000)" style="stroke: black; stroke-width:0.25;"/>
<line x1="254.800000" y1="117.000000" x2="257.800000" y2="116.000000"  transform="rotate(0.000000,257.800000,116.000000)" style="stroke: black; stroke-width:0.25;"/>
<line x1="254.800000" y1="123.000000" x2="257.800000" y2="124.000000"  transform="rotate(0.000000,257.800000,124.000000)" style="stroke: black; stroke-width:0.25;"/>
<line x1="254.800000" y1="125.000000" x2="257.800000" y2="124.000000"  transform="rotate(0.000000,257.800000,124.000000)" style="stroke: black; stroke-width:0.25;"/>
<line x1="254.800000" y1="131.000000" x2="257.800000" y2="132.000000"  transform="rotate(0.000000,257.800000,132.000000)" style="stroke: black; stroke-width:0.25;"/>
<line x1="254.800000" y1="133.000000" x2="257.800000" y2="132.000000"  transform="rotate(0.000000,257.800000,132.000000)" style="stroke: black; stroke-width:0.25;"/>
<line x1="254.800000" y1="139.000000" x2="257.800000" y2="140.000000"  transform="rotate(0.000000,257.800000,140.000000)" style="stroke: black; stroke-width:0.25;"/>
<line x1="254.800000" y1="141.000000" x2="257.800000" y2="140.000000"  transform="rotate(0.000000,257.800000,140.000000)" style="stroke: black; stroke-width:0.25;"/>
<line x1="254.800000" y1="147.000000" x2="257.800000" y2="148.000000"  transform="rotate(0.000000,257.800000,148.000000)" style="stroke: black; stroke-width:0.25;"/>
<line x1="254.800000" y1="149.000000" x2="257.800000" y2="148.000000"  transform="rotate(0.000000,257.800000,148.000000)" style="stroke: black; stroke-width:0.25;"/>
<line x1="254.800000" y1="155.000000" x2="257.800000" y2="156.000000"  transform="rotate(0.000000,257.800000,156.000000)" style="stroke: black; stroke-width:0.25;"/>
<line x1="254.800000" y1="157.000000" x2="257.800000" y2="156.000000"  transform="rotate(0.000000,257.800000,156.000000)" style="stroke: black; stroke-width:0.25;"/>
<line x1="10.000000" y1="136.000000" x2="20.000000" y2="136.000000"  style="stroke:black; stroke-linecap:round; stroke-width:0.25;"/>
<line x1="20.000000" y1="136.000000" x2="24.000000" y2="136.000000"  style="stroke:black; stroke-linecap:round; stroke-width:0.25;"/>
<line x1="24.000000" y1="136.000000" x2="28.000000" y2="136.000000"  style="stroke:black; stroke-linecap:round; stroke-width:0.25;"/>
<line x1="28.000000" y1="136.000000" x2="28.000000" y2="136.000000"  style="stroke:black; stroke-linecap:round; stroke-width:0.25;"/>
<line x1="28.000000" y1="136.000000" x2="38.000000" y2="136.000000"  style="stroke:black; stroke-linecap:round; stroke-width:0.25;"/>
<line x1="38.000000" y1="136.000000" x2="48.000000" y2="136.000000"  style="stroke:black; stroke-linecap:round; stroke-width:0.25;"/>
<line x1="48.000000" y1="136.000000" x2="52.000000" y2="136.000000"  style="stroke:black; stroke-linecap:round; stroke-width:0.25;"/>
<line x1="52.000000" y1="136.000000" x2="56.000000" y2="136.000000"  style="stroke:black; stroke-linecap:round; stroke-width:0.25;"/>
<line x1="56.000000" y1="136.000000" x2="106.000000" y2="116.000000"  style="stroke:black; stroke-linecap:round; stroke-width:0.25;"/>
<line x1="56.000000" y1="136.000000" x2="106.000000" y2="136.000000"  style="stroke:black; stroke-linecap:round; stroke-width:0.25;"/>
<line x1="56.000000" y1="136.000000" x2="106.000000" y2="144.000000"  style="stroke:black; stroke-linecap:round; stroke-width:0.25;"/>
<line x1="56.000000" y1="136.000000" x2="106.000000" y2="152.000000"  style="stroke:black; stroke-linecap:round; stroke-width:0.25;"/>
<line x1="56.000000" y1="136.000000" x2="106.000000" y2="160.000000"  style="stroke:black; stroke-linecap:round; stroke-width:0.25;"/>
<line x1="56.000000" y1="136.000000" x2="106.000000" y2="168.000000"  style="stroke:black; stroke-linecap:round; stroke-width:0.25;"/>
<line x1="106.000000" y1="116.000000" x2="110.000000" y2="116.000000"  style="stroke:black; stroke-linecap:round; stroke-width:0.25;"/>
<line x1="106.000000" y1="136.000000" x2="122.000000" y2="136.000000"  style="stroke:black; stroke-linecap:round; stroke-width:0.25;"/>
<line x1="106.000000" y1="144.000000" x2="122.000000" y2="144.000000"  style="stroke:black; stroke-linecap:round; stroke-width:0.25;"/>
<line x1="106.000000" y1="152.000000" x2="122.000000" y2="152.000000"  style="stroke:black; stroke-linecap:round; stroke-width:0.25;"/>
<line x1="106.000000" y1="160.000000" x2="122.000000" y2="160.000000"  style="stroke:black; stroke-linecap:round; stroke-width:0.25;"/>
<line x1="106.000000" y1="168.000000" x2="122.000000" y2="168.000000"  style="stroke:black; stroke-linecap:round; stroke-width:0.25;"/>
<line x1="122.000000" y1="136.000000" x2="138.000000" y2="136.000000"  style="stroke:black; stroke-linecap:round; stroke-width:0.25;"/>
<line x1="122.000000" y1="144.000000" x2="138.000000" y2="144.000000"  style="stroke:black; stroke-linecap:round; stroke-width:0.25;"/>
<line x1="122.000000" y1="152.000000" x2="138.000000" y2="152.000000"  style="stroke:black; stroke-linecap:round; stroke-width:0.25;"/>
<line x1="122.000000" y1="160.000000" x2="138.000000" y2="160.000000"  style="stroke:black; stroke-linecap:round; stroke-width:0.25;"/>
<line x1="122.000000" y1="168.000000" x2="138.000000" y2="168.000000"  style="stroke:black; stroke-linecap:round; stroke-width:0.25;"/>
<line x1="134.000000" y1="116.000000" x2="138.000000" y2="116.000000"  style="stroke:black; stroke-linecap:round; stroke-width:0.25;"/>
<line x1="138.000000" y1="56.000000" x2="162.000000" y2="56.000000"  style="stroke:black; stroke-linecap:round; stroke-width:0.25;"/>
<line x1="138.000000" y1="116.000000" x2="138.000000" y2="56.000000"  style="stroke:black; stroke-linecap:round; stroke-width:0.25;"/>
<line x1="138.000000" y1="116.000000" x2="138.000000" y2="116.000000"  style="stroke:black; stroke-linecap:round; stroke-width:0.25;"/>
<line x1="138.000000" y1="136.000000" x2="146.000000" y2="136.000000"  style="stroke:black; stroke-linecap:round; stroke-width:0.25;"/>
<line x1="138.000000" y1="144.000000" x2="154.000000" y2="144.000000"  style="stroke:black; stroke-linecap:round; stroke-width:0.25;"/>
<line x1="138.000000" y1="152.000000" x2="162.000000" y2="152.000000"  style="stroke:black; stroke-linecap:round; stroke-width:0.25;"/>
<line x1="138.000000" y1="160.000000" x2="162.000000" y2="160.000000"  style="stroke:black; stroke-linecap:round; stroke-width:0.25;"/>
<line x1="138.000000" y1="168.000000" x2="154.000000" y2="168.000000"  style="stroke:black; stroke-linecap:round; stroke-width:0.25;"/>
<line x1="146.000000" y1="88.000000" x2="162.000000" y2="88.000000"  style="stroke:black; stroke-linecap:round; stroke-width:0.25;"/>
<line x1="146.000000" y1="136.000000" x2="146.000000" y2="88.000000"  style="stroke:black; stroke-linecap:round; stroke-width:0.25;"/>
<line x1="154.000000" y1="120.000000" x2="162.000000" y2="120.000000"  style="stroke:black; stroke-linecap:round; stroke-width:0.25;"/>
<line x1="154.000000" y1="144.000000" x2="154.000000" y2="120.000000"  style="stroke:black; stroke-linecap:round; stroke-width:0.25;"/>
<line x1="154.000000" y1="168.000000" x2="154.000000" y2="216.000000"  style="stroke:black; stroke-linecap:round; stroke-width:0.25;"/>
<line x1="154.000000" y1="216.000000" x2="162.000000" y2="216.000000"  style="stroke:black; stroke-linecap:round; stroke-width:0.25;"/>
<line x1="162.000000" y1="56.000000" x2="166.000000" y2="56.000000"  style="stroke:black; stroke-linecap:round; stroke-width:0.25;"/>
<line x1="162.000000" y1="88.000000" x2="166.000000" y2="88.000000"  style="stroke:black; stroke-linecap:round; stroke-width:0.25;"/>
<line x1="162.000000" y1="120.000000" x2="166.000000" y2="120.000000"  style="stroke:black; stroke-linecap:round; stroke-width:0.25;"/>
<line x1="162.000000" y1="152.000000" x2="166.000000" y2="152.000000"  style="stroke:black; stroke-linecap:round; stroke-width:0.25;"/>
<line x1="162.000000" y1="160.000000" x2="162.000000" y2="184.000000"  style="stroke:black; stroke-linecap:round; stroke-width:0.25;"/>
<line x1="162.000000" y1="184.000000" x2="162.000000" y2="184.000000"  style="stroke:black; stroke-linecap:round; stroke-width:0.25;"/>
<line x1="162.000000" y1="184.000000" x2="166.000000" y2="184.000000"  style="stroke:black; stroke-linecap:round; stroke-width:0.25;"/>
<line x1="162.000000" y1="216.000000" x2="166.000000" y2="216.000000"  style="stroke:black; stroke-linecap:round; stroke-width:0.25;"/>
<line x1="191.800000" y1="56.000000" x2="195.800000" y2="56.000000"  style="stroke:black; stroke-linecap:round; stroke-width:0.25;"/>
<line x1="191.800000" y1="88.000000" x2="195.800000" y2="88.000000"  style="stroke:black; stroke-linecap:round; stroke-width:0.25;"/>
<line x1="191.800000" y1="120.000000" x2="195.800000" y2="120.000000"  style="stroke:black; stroke-linecap:round; stroke-width:0.25;"/>
<line x1="191.800000" y1="152.000000" x2="195.800000" y2="152.000000"  style="stroke:black; stroke-linecap:round; stroke-width:0.25;"/>
<line x1="191.800000" y1="184.000000" x2="195.800000" y2="184.000000"  style="stroke:black; stroke-linecap:round; stroke-width:0.25;"/>
<line x1="191.800000" y1="216.000000" x2="195.800000" y2="216.000000"  style="stroke:black; stroke-linecap:round; stroke-width:0.25;"/>
<line x1="195.800000" y1="56.000000" x2="205.800000" y2="56.000000"  style="stroke:black; stroke-linecap:round; stroke-width:0.25;"/>
<line x1="195.800000" y1="88.000000" x2="205.800000" y2="88.000000"  style="stroke:black; stroke-linecap:round; stroke-width:0.25;"/>
<line x1="195.800000" y1="120.000000" x2="205.800000" y2="120.000000"  style="stroke:black; stroke-linecap:round; stroke-width:0.25;"/>
<line x1="195.800000" y1="152.000000" x2="205.800000" y2="152.000000"  style="stroke:black; stroke-linecap:round; stroke-width:0.25;"/>
<line x1="195.800000" y1="184.000000" x2="205.800000" y2="184.000000"  style="stroke:black; stroke-linecap:round; stroke-width:0.25;"/>
<line x1="195.800000" y1="216.000000" x2="205.800000" y2="216.000000"  style="stroke:black; stroke-linecap:round; stroke-width:0.25;"/>
<line x1="205.800000" y1="56.000000" x2="215.800000" y2="56.000000"  style="stroke:black; stroke-linecap:round; stroke-width:0.25;"/>
<line x1="205.800000" y1="88.000000" x2="215.800000" y2="88.000000"  style="stroke:black; stroke-linecap:round; stroke-width:0.25;"/>
<line x1="205.800000" y1="120.000000" x2="215.800000" y2="120.000000"  style="stroke:black; stroke-linecap:round; stroke-width:0.25;"/>
<line x1="205.800000" y1="152.000000" x2="215.800000" y2="152.000000"  style="stroke:black; stroke-linecap:round; stroke-width:0.25;"/>
<line x1="205.800000" y1="184.000000" x2="215.800000" y2="184.000000"  style="stroke:black; stroke-linecap:round; stroke-width:0.25;"/>
<line x1="205.800000" y1="216.000000" x2="215.800000" y2="216.000000"  style="stroke:black; stroke-linecap:round; stroke-width:0.25;"/>
<line x1="215.800000" y1="56.000000" x2="239.800000" y2="56.000000"  style="stroke:black; stroke-linecap:round; stroke-width:0.25;"/>
<line x1="215.800000" y1="88.000000" x2="231.800000" y2="88.000000"  style="stroke:black; stroke-linecap:round; stroke-width:0.25;"/>
<line x1="215.800000" y1="120.000000" x2="223.800000" y2="120.000000"  style="stroke:black; stroke-linecap:round; stroke-width:0.25;"/>
<line x1="215.800000" y1="140.000000" x2="239.800000" y2="140.000000"  style="stroke:black; stroke-linecap:round; stroke-width:0.25;"/>
<line x1="215.800000" y1="152.000000" x2="215.800000" y2="140.000000"  style="stroke:black; stroke-linecap:round; stroke-width:0.25;"/>
<line x1="215.800000" y1="152.000000" x2="215.800000" y2="152.000000"  style="stroke:black; stroke-linecap:round; stroke-width:0.25;"/>
<line x1="215.800000" y1="184.000000" x2="223.800000" y2="184.000000"  style="stroke:black; stroke-linecap:round; stroke-width:0.25;"/>
<line x1="215.800000" y1="216.000000" x2="231.800000" y2="216.000000"  style="stroke:black; stroke-linecap:round; stroke-width:0.25;"/>
<line x1="223.800000" y1="120.000000" x2="223.800000" y2="132.000000"  style="stroke:black; stroke-linecap:round; stroke-width:0.25;"/>
<line x1="223.800000" y1="132.000000" x2="239.800000" y2="132.000000"  style="stroke:black; stroke-linecap:round; stroke-width:0.25;"/>
<line x1="223.800000" y1="148.000000" x2="239.800000" y2="148.000000"  style="stroke:black; stroke-linecap:round; stroke-width:0.25;"/>
<line x1="223.800000" y1="184.000000" x2="223.800000" y2="148.000000"  style="stroke:black; stroke-linecap:round; stroke-width:0.25;"/>
<line x1="231.800000" y1="88.000000" x2="231.800000" y2="124.000000"  style="stroke:black; stroke-linecap:round; stroke-width:0.25;"/>
<line x1="231.800000" y1="124.000000" x2="239.800000" y2="124.000000"  style="stroke:black; stroke-linecap:round; stroke-width:0.25;"/>
<line x1="231.800000" y1="156.000000" x2="239.800000" y2="156.000000"  style="stroke:black; stroke-linecap:round; stroke-width:0.25;"/>
<line x1="231.800000" y1="216.000000" x2="231.800000" y2="156.000000"  style="stroke:black; stroke-linecap:round; stroke-width:0.25;"/>
<line x1="239.800000" y1="56.000000" x2="239.800000" y2="116.000000"  style="stroke:black; stroke-linecap:round; stroke-width:0.25;"/>
<line x1="239.800000" y1="116.000000" x2="239.800000" y2="116.000000"  style="stroke:black; stroke-linecap:round; stroke-width:0.25;"/>
<line x1="239.800000" y1="116.000000" x2="243.800000" y2="116.000000"  style="stroke:black; stroke-linecap:round; stroke-width:0.25;"/>
<line x1="239.800000" y1="124.000000" x2="243.800000" y2="124.000000"  style="stroke:black; stroke-linecap:round; stroke-width:0.25;"/>
<line x1="239.800000" y1="132.000000" x2="243.800000" y2="132.000000"  style="stroke:black; stroke-linecap:round; stroke-width:0.25;"/>
<line x1="239.800000" y1="140.000000" x2="243.800000" y2="140.000000"  style="stroke:black; stroke-linecap:round; stroke-width:0.25;"/>
<line x1="239.800000" y1="148.000000" x2="243.800000" y2="148.000000"  style="stroke:black; stroke-linecap:round; stroke-width:0.25;"/>
<line x1="239.800000" y1="156.000000" x2="243.800000" y2="156.000000"  style="stroke:black; stroke-linecap:round; stroke-width:0.25;"/>
<line x1="243.800000" y1="116.000000" x2="247.800000" y2="116.000000"  style="stroke:black; stroke-linecap:round; stroke-width:0.25;"/>
<line x1="243.800000" y1="124.000000" x2="247.800000" y2="124.000000"  style="stroke:black; stroke-linecap:round; stroke-width:0.25;"/>
<line x1="243.800000" y1="132.000000" x2="247.800000" y2="132.000000"  style="stroke:black; stroke-linecap:round; stroke-width:0.25;"/>
<line x1="243.800000" y1="140.000000" x2="247.800000" y2="140.000000"  style="stroke:black; stroke-linecap:round; stroke-width:0.25;"/>
<line x1="243.800000" y1="148.000000" x2="247.800000" y2="148.000000"  style="stroke:black; stroke-linecap:round; stroke-width:0.25;"/>
<line x1="243.800000" y1="156.000000" x2="247.800000" y2="156.000000"  style="stroke:black; stroke-linecap:round; stroke-width:0.25;"/>
<line x1="247.800000" y1="116.000000" x2="257.800000" y2="116.000000"  style="stroke:black; stroke-linecap:round; stroke-width:0.25;"/>
<line x1="247.800000" y1="124.000000" x2="257.800000" y2="124.000000"  style="stroke:black; stroke-linecap:round; stroke-width:0.25;"/>
<line x1="247.800000" y1="132.000000" x2="257.800000" y2="132.000000"  style="stroke:black; stroke-linecap:round; stroke-width:0.25;"/>
<line x1="247.800000" y1="140.000000" x2="257.800000" y2="140.000000"  style="stroke:black; stroke-linecap:round; stroke-width:0.25;"/>
<line x1="247.800000" y1="148.000000" x2="257.800000" y2="148.000000"  style="stroke:black; stroke-linecap:round; stroke-width:0.25;"/>
<line x1="247.800000" y1="156.000000" x2="257.800000" y2="156.000000"  style="stroke:black; stroke-linecap:round; stroke-width:0.25;"/>
</svg>
