<?xml version="1.0"?>
<svg xmlns="http://www.w3.org/2000/svg" xmlns:xlink="http://www.w3.org/1999/xlink" viewBox="0 0 501.200000 132.000000" width="250.600000mm" height="66.000000mm" version="1.1">
<a xlink:href="displaygain-0x7fde07e507b0.svg">
<rect x="1.000000" y="1.000000" width="500.200000" height="131.000000" rx="0" ry="0" style="stroke:none;fill:#cccccc;"/>
<rect x="0.000000" y="0.000000" width="500.200000" height="131.000000" rx="0" ry="0" style="stroke:none;fill:#ffffff;"/>
</a>
<text x="10.000000" y="7.000000" font-family="Arial" font-size="7"></text>
<a xlink:href="compression-0x7fde07e4f620.svg">
<rect x="33.000000" y="55.000000" width="129.000000" height="24.000000" rx="0" ry="0" style="stroke:none;fill:#cccccc;"/>
<rect x="32.000000" y="54.000000" width="129.000000" height="24.000000" rx="0" ry="0" style="stroke:none;fill:#003366;"/>
</a>
<a xlink:href="compression-0x7fde07e4f620.svg">
<text x="96.500000" y="68.000000" font-family="Arial" font-size="7" text-anchor="middle" fill="#FFFFFF">compression_g...: /),_ : max)</text>
</a>
<circle cx="34.000000" cy="56.000000" r="1"/>
<line x1="29.000000" y1="65.000000" x2="32.000000" y2="66.000000"  transform="rotate(0.000000,32.000000,66.000000)" style="stroke: black; stroke-width:0.25;"/>
<line x1="29.000000" y1="67.000000" x2="32.000000" y2="66.000000"  transform="rotate(0.000000,32.000000,66.000000)" style="stroke: black; stroke-width:0.25;"/>
<a xlink:href="linear2db-0x7fde07e503f0.svg">
<rect x="170.000000" y="55.000000" width="38.700000" height="24.000000" rx="0" ry="0" style="stroke:none;fill:#cccccc;"/>
<rect x="169.000000" y="54.000000" width="38.700000" height="24.000000" rx="0" ry="0" style="stroke:none;fill:#003366;"/>
</a>
<a xlink:href="linear2db-0x7fde07e503f0.svg">
<text x="188.350000" y="68.000000" font-family="Arial" font-size="7" text-anchor="middle" fill="#FFFFFF">linear2db</text>
</a>
<circle cx="171.000000" cy="56.000000" r="1"/>
<line x1="166.000000" y1="65.000000" x2="169.000000" y2="66.000000"  transform="rotate(0.000000,169.000000,66.000000)" style="stroke: black; stroke-width:0.25;"/>
<line x1="166.000000" y1="67.000000" x2="169.000000" y2="66.000000"  transform="rotate(0.000000,169.000000,66.000000)" style="stroke: black; stroke-width:0.25;"/>
<rect x="246.700000" y="55.000000" width="193.500000" height="24.000000" rx="0" ry="0" style="stroke:none;fill:#cccccc;"/>
<rect x="245.700000" y="54.000000" width="193.500000" height="24.000000" rx="0" ry="0" style="stroke:none;fill:#477881;"/>
<text x="342.450000" y="68.000000" font-family="Arial" font-size="7" text-anchor="middle" fill="#FFFFFF">hbargraph(Compressor Gain, -5e+01f, 1e+01f)</text>
<circle cx="247.700000" cy="56.000000" r="1"/>
<line x1="242.700000" y1="65.000000" x2="245.700000" y2="66.000000"  transform="rotate(0.000000,245.700000,66.000000)" style="stroke: black; stroke-width:0.25;"/>
<line x1="242.700000" y1="67.000000" x2="245.700000" y2="66.000000"  transform="rotate(0.000000,245.700000,66.000000)" style="stroke: black; stroke-width:0.25;"/>
<line x1="236.700000" y1="45.000000" x2="236.700000" y2="87.000000"  style="stroke: black; stroke-linecap:round; stroke-width:0.25; stroke-dasharray:3,3;"/>
<line x1="236.700000" y1="87.000000" x2="448.200000" y2="87.000000"  style="stroke: black; stroke-linecap:round; stroke-width:0.25; stroke-dasharray:3,3;"/>
<line x1="448.200000" y1="87.000000" x2="448.200000" y2="45.000000"  style="stroke: black; stroke-linecap:round; stroke-width:0.25; stroke-dasharray:3,3;"/>
<line x1="236.700000" y1="45.000000" x2="241.700000" y2="45.000000"  style="stroke: black; stroke-linecap:round; stroke-width:0.25; stroke-dasharray:3,3;"/>
<line x1="273.950000" y1="45.000000" x2="448.200000" y2="45.000000"  style="stroke: black; stroke-linecap:round; stroke-width:0.25; stroke-dasharray:3,3;"/>
<text x="241.700000" y="47.000000" font-family="Arial" font-size="7">hgroup()</text>
<line x1="226.700000" y1="35.000000" x2="226.700000" y2="97.000000"  style="stroke: black; stroke-linecap:round; stroke-width:0.25; stroke-dasharray:3,3;"/>
<line x1="226.700000" y1="97.000000" x2="458.200000" y2="97.000000"  style="stroke: black; stroke-linecap:round; stroke-width:0.25; stroke-dasharray:3,3;"/>
<line x1="458.200000" y1="97.000000" x2="458.200000" y2="35.000000"  style="stroke: black; stroke-linecap:round; stroke-width:0.25; stroke-dasharray:3,3;"/>
<line x1="226.700000" y1="35.000000" x2="231.700000" y2="35.000000"  style="stroke: black; stroke-linecap:round; stroke-width:0.25; stroke-dasharray:3,3;"/>
<line x1="296.200000" y1="35.000000" x2="458.200000" y2="35.000000"  style="stroke: black; stroke-linecap:round; stroke-width:0.25; stroke-dasharray:3,3;"/>
<text x="231.700000" y="37.000000" font-family="Arial" font-size="7">vgroup(COMPRESSOR)</text>
<line x1="216.700000" y1="25.000000" x2="216.700000" y2="107.000000"  style="stroke: black; stroke-linecap:round; stroke-width:0.25; stroke-dasharray:3,3;"/>
<line x1="216.700000" y1="107.000000" x2="468.200000" y2="107.000000"  style="stroke: black; stroke-linecap:round; stroke-width:0.25; stroke-dasharray:3,3;"/>
<line x1="468.200000" y1="107.000000" x2="468.200000" y2="25.000000"  style="stroke: black; stroke-linecap:round; stroke-width:0.25; stroke-dasharray:3,3;"/>
<line x1="216.700000" y1="25.000000" x2="221.700000" y2="25.000000"  style="stroke: black; stroke-linecap:round; stroke-width:0.25; stroke-dasharray:3,3;"/>
<line x1="321.675000" y1="25.000000" x2="468.200000" y2="25.000000"  style="stroke: black; stroke-linecap:round; stroke-width:0.25; stroke-dasharray:3,3;"/>
<text x="221.700000" y="27.000000" font-family="Arial" font-size="7">meter_group(h...01f, 1e+01f))</text>
<line x1="15.000000" y1="15.000000" x2="15.000000" y2="117.000000"  style="stroke: black; stroke-linecap:round; stroke-width:0.25; stroke-dasharray:3,3;"/>
<line x1="15.000000" y1="117.000000" x2="486.200000" y2="117.000000"  style="stroke: black; stroke-linecap:round; stroke-width:0.25; stroke-dasharray:3,3;"/>
<line x1="486.200000" y1="117.000000" x2="486.200000" y2="15.000000"  style="stroke: black; stroke-linecap:round; stroke-width:0.25; stroke-dasharray:3,3;"/>
<line x1="15.000000" y1="15.000000" x2="20.000000" y2="15.000000"  style="stroke: black; stroke-linecap:round; stroke-width:0.25; stroke-dasharray:3,3;"/>
<line x1="52.250000" y1="15.000000" x2="486.200000" y2="15.000000"  style="stroke: black; stroke-linecap:round; stroke-width:0.25; stroke-dasharray:3,3;"/>
<text x="20.000000" y="17.000000" font-family="Arial" font-size="7">gainview</text>
<line x1="488.200000" y1="65.000000" x2="491.200000" y2="66.000000"  transform="rotate(0.000000,491.200000,66.000000)" style="stroke: black; stroke-width:0.25;"/>
<line x1="488.200000" y1="67.000000" x2="491.200000" y2="66.000000"  transform="rotate(0.000000,491.200000,66.000000)" style="stroke: black; stroke-width:0.25;"/>
<line x1="10.000000" y1="66.000000" x2="20.000000" y2="66.000000"  style="stroke:black; stroke-linecap:round; stroke-width:0.25;"/>
<line x1="20.000000" y1="66.000000" x2="24.000000" y2="66.000000"  style="stroke:black; stroke-linecap:round; stroke-width:0.25;"/>
<line x1="24.000000" y1="66.000000" x2="28.000000" y2="66.000000"  style="stroke:black; stroke-linecap:round; stroke-width:0.25;"/>
<line x1="28.000000" y1="66.000000" x2="28.000000" y2="66.000000"  style="stroke:black; stroke-linecap:round; stroke-width:0.25;"/>
<line x1="28.000000" y1="66.000000" x2="32.000000" y2="66.000000"  style="stroke:black; stroke-linecap:round; stroke-width:0.25;"/>
<line x1="161.000000" y1="66.000000" x2="165.000000" y2="66.000000"  style="stroke:black; stroke-linecap:round; stroke-width:0.25;"/>
<line x1="165.000000" y1="66.000000" x2="165.000000" y2="66.000000"  style="stroke:black; stroke-linecap:round; stroke-width:0.25;"/>
<line x1="165.000000" y1="66.000000" x2="169.000000" y2="66.000000"  style="stroke:black; stroke-linecap:round; stroke-width:0.25;"/>
<line x1="207.700000" y1="66.000000" x2="211.700000" y2="66.000000"  style="stroke:black; stroke-linecap:round; stroke-width:0.25;"/>
<line x1="211.700000" y1="66.000000" x2="211.700000" y2="66.000000"  style="stroke:black; stroke-linecap:round; stroke-width:0.25;"/>
<line x1="211.700000" y1="66.000000" x2="221.700000" y2="66.000000"  style="stroke:black; stroke-linecap:round; stroke-width:0.25;"/>
<line x1="221.700000" y1="66.000000" x2="231.700000" y2="66.000000"  style="stroke:black; stroke-linecap:round; stroke-width:0.25;"/>
<line x1="231.700000" y1="66.000000" x2="241.700000" y2="66.000000"  style="stroke:black; stroke-linecap:round; stroke-width:0.25;"/>
<line x1="241.700000" y1="66.000000" x2="245.700000" y2="66.000000"  style="stroke:black; stroke-linecap:round; stroke-width:0.25;"/>
<line x1="439.200000" y1="66.000000" x2="443.200000" y2="66.000000"  style="stroke:black; stroke-linecap:round; stroke-width:0.25;"/>
<line x1="443.200000" y1="66.000000" x2="453.200000" y2="66.000000"  style="stroke:black; stroke-linecap:round; stroke-width:0.25;"/>
<line x1="453.200000" y1="66.000000" x2="463.200000" y2="66.000000"  style="stroke:black; stroke-linecap:round; stroke-width:0.25;"/>
<line x1="463.200000" y1="66.000000" x2="473.200000" y2="66.000000"  style="stroke:black; stroke-linecap:round; stroke-width:0.25;"/>
<line x1="473.200000" y1="66.000000" x2="473.200000" y2="66.000000"  style="stroke:black; stroke-linecap:round; stroke-width:0.25;"/>
<line x1="473.200000" y1="66.000000" x2="477.200000" y2="66.000000"  style="stroke:black; stroke-linecap:round; stroke-width:0.25;"/>
<line x1="477.200000" y1="66.000000" x2="481.200000" y2="66.000000"  style="stroke:black; stroke-linecap:round; stroke-width:0.25;"/>
<line x1="481.200000" y1="66.000000" x2="491.200000" y2="66.000000"  style="stroke:black; stroke-linecap:round; stroke-width:0.25;"/>
</svg>
