<?xml version="1.0"?>
<svg xmlns="http://www.w3.org/2000/svg" xmlns:xlink="http://www.w3.org/1999/xlink" viewBox="0 0 521.200000 152.000000" width="260.600000mm" height="76.000000mm" version="1.1">
<a xlink:href="displaygain-0x7fd31b118a20.svg">
<rect x="1.000000" y="1.000000" width="520.200000" height="151.000000" rx="0" ry="0" style="stroke:none;fill:#cccccc;"/>
<rect x="0.000000" y="0.000000" width="520.200000" height="151.000000" rx="0" ry="0" style="stroke:none;fill:#ffffff;"/>
</a>
<text x="10.000000" y="7.000000" font-family="Arial" font-size="7"></text>
<a xlink:href="compression-0x7fd31b117750.svg">
<rect x="33.000000" y="65.000000" width="129.000000" height="24.000000" rx="0" ry="0" style="stroke:none;fill:#cccccc;"/>
<rect x="32.000000" y="64.000000" width="129.000000" height="24.000000" rx="0" ry="0" style="stroke:none;fill:#003366;"/>
</a>
<a xlink:href="compression-0x7fd31b117750.svg">
<text x="96.500000" y="78.000000" font-family="Arial" font-size="7" text-anchor="middle" fill="#FFFFFF">compression_g...: /),_ : max)</text>
</a>
<circle cx="34.000000" cy="66.000000" r="1"/>
<line x1="29.000000" y1="75.000000" x2="32.000000" y2="76.000000"  transform="rotate(0.000000,32.000000,76.000000)" style="stroke: black; stroke-width:0.25;"/>
<line x1="29.000000" y1="77.000000" x2="32.000000" y2="76.000000"  transform="rotate(0.000000,32.000000,76.000000)" style="stroke: black; stroke-width:0.25;"/>
<a xlink:href="linear2db-0x7fd31b118660.svg">
<rect x="170.000000" y="65.000000" width="38.700000" height="24.000000" rx="0" ry="0" style="stroke:none;fill:#cccccc;"/>
<rect x="169.000000" y="64.000000" width="38.700000" height="24.000000" rx="0" ry="0" style="stroke:none;fill:#003366;"/>
</a>
<a xlink:href="linear2db-0x7fd31b118660.svg">
<text x="188.350000" y="78.000000" font-family="Arial" font-size="7" text-anchor="middle" fill="#FFFFFF">linear2db</text>
</a>
<circle cx="171.000000" cy="66.000000" r="1"/>
<line x1="166.000000" y1="75.000000" x2="169.000000" y2="76.000000"  transform="rotate(0.000000,169.000000,76.000000)" style="stroke: black; stroke-width:0.25;"/>
<line x1="166.000000" y1="77.000000" x2="169.000000" y2="76.000000"  transform="rotate(0.000000,169.000000,76.000000)" style="stroke: black; stroke-width:0.25;"/>
<rect x="256.700000" y="65.000000" width="193.500000" height="24.000000" rx="0" ry="0" style="stroke:none;fill:#cccccc;"/>
<rect x="255.700000" y="64.000000" width="193.500000" height="24.000000" rx="0" ry="0" style="stroke:none;fill:#477881;"/>
<text x="352.450000" y="78.000000" font-family="Arial" font-size="7" text-anchor="middle" fill="#FFFFFF">hbargraph(Compressor Gain, -5e+01f, 1e+01f)</text>
<circle cx="257.700000" cy="66.000000" r="1"/>
<line x1="252.700000" y1="75.000000" x2="255.700000" y2="76.000000"  transform="rotate(0.000000,255.700000,76.000000)" style="stroke: black; stroke-width:0.25;"/>
<line x1="252.700000" y1="77.000000" x2="255.700000" y2="76.000000"  transform="rotate(0.000000,255.700000,76.000000)" style="stroke: black; stroke-width:0.25;"/>
<line x1="246.700000" y1="55.000000" x2="246.700000" y2="97.000000"  style="stroke: black; stroke-linecap:round; stroke-width:0.25; stroke-dasharray:3,3;"/>
<line x1="246.700000" y1="97.000000" x2="458.200000" y2="97.000000"  style="stroke: black; stroke-linecap:round; stroke-width:0.25; stroke-dasharray:3,3;"/>
<line x1="458.200000" y1="97.000000" x2="458.200000" y2="55.000000"  style="stroke: black; stroke-linecap:round; stroke-width:0.25; stroke-dasharray:3,3;"/>
<line x1="246.700000" y1="55.000000" x2="251.700000" y2="55.000000"  style="stroke: black; stroke-linecap:round; stroke-width:0.25; stroke-dasharray:3,3;"/>
<line x1="283.950000" y1="55.000000" x2="458.200000" y2="55.000000"  style="stroke: black; stroke-linecap:round; stroke-width:0.25; stroke-dasharray:3,3;"/>
<text x="251.700000" y="57.000000" font-family="Arial" font-size="7">hgroup()</text>
<line x1="236.700000" y1="45.000000" x2="236.700000" y2="107.000000"  style="stroke: black; stroke-linecap:round; stroke-width:0.25; stroke-dasharray:3,3;"/>
<line x1="236.700000" y1="107.000000" x2="468.200000" y2="107.000000"  style="stroke: black; stroke-linecap:round; stroke-width:0.25; stroke-dasharray:3,3;"/>
<line x1="468.200000" y1="107.000000" x2="468.200000" y2="45.000000"  style="stroke: black; stroke-linecap:round; stroke-width:0.25; stroke-dasharray:3,3;"/>
<line x1="236.700000" y1="45.000000" x2="241.700000" y2="45.000000"  style="stroke: black; stroke-linecap:round; stroke-width:0.25; stroke-dasharray:3,3;"/>
<line x1="306.200000" y1="45.000000" x2="468.200000" y2="45.000000"  style="stroke: black; stroke-linecap:round; stroke-width:0.25; stroke-dasharray:3,3;"/>
<text x="241.700000" y="47.000000" font-family="Arial" font-size="7">vgroup(COMPRESSOR)</text>
<line x1="226.700000" y1="35.000000" x2="226.700000" y2="117.000000"  style="stroke: black; stroke-linecap:round; stroke-width:0.25; stroke-dasharray:3,3;"/>
<line x1="226.700000" y1="117.000000" x2="478.200000" y2="117.000000"  style="stroke: black; stroke-linecap:round; stroke-width:0.25; stroke-dasharray:3,3;"/>
<line x1="478.200000" y1="117.000000" x2="478.200000" y2="35.000000"  style="stroke: black; stroke-linecap:round; stroke-width:0.25; stroke-dasharray:3,3;"/>
<line x1="226.700000" y1="35.000000" x2="231.700000" y2="35.000000"  style="stroke: black; stroke-linecap:round; stroke-width:0.25; stroke-dasharray:3,3;"/>
<line x1="328.450000" y1="35.000000" x2="478.200000" y2="35.000000"  style="stroke: black; stroke-linecap:round; stroke-width:0.25; stroke-dasharray:3,3;"/>
<text x="231.700000" y="37.000000" font-family="Arial" font-size="7">vgroup(---- BASS FLUTE ----)</text>
<line x1="216.700000" y1="25.000000" x2="216.700000" y2="127.000000"  style="stroke: black; stroke-linecap:round; stroke-width:0.25; stroke-dasharray:3,3;"/>
<line x1="216.700000" y1="127.000000" x2="488.200000" y2="127.000000"  style="stroke: black; stroke-linecap:round; stroke-width:0.25; stroke-dasharray:3,3;"/>
<line x1="488.200000" y1="127.000000" x2="488.200000" y2="25.000000"  style="stroke: black; stroke-linecap:round; stroke-width:0.25; stroke-dasharray:3,3;"/>
<line x1="216.700000" y1="25.000000" x2="221.700000" y2="25.000000"  style="stroke: black; stroke-linecap:round; stroke-width:0.25; stroke-dasharray:3,3;"/>
<line x1="321.675000" y1="25.000000" x2="488.200000" y2="25.000000"  style="stroke: black; stroke-linecap:round; stroke-width:0.25; stroke-dasharray:3,3;"/>
<text x="221.700000" y="27.000000" font-family="Arial" font-size="7">meter_group(h...01f, 1e+01f))</text>
<line x1="15.000000" y1="15.000000" x2="15.000000" y2="137.000000"  style="stroke: black; stroke-linecap:round; stroke-width:0.25; stroke-dasharray:3,3;"/>
<line x1="15.000000" y1="137.000000" x2="506.200000" y2="137.000000"  style="stroke: black; stroke-linecap:round; stroke-width:0.25; stroke-dasharray:3,3;"/>
<line x1="506.200000" y1="137.000000" x2="506.200000" y2="15.000000"  style="stroke: black; stroke-linecap:round; stroke-width:0.25; stroke-dasharray:3,3;"/>
<line x1="15.000000" y1="15.000000" x2="20.000000" y2="15.000000"  style="stroke: black; stroke-linecap:round; stroke-width:0.25; stroke-dasharray:3,3;"/>
<line x1="52.250000" y1="15.000000" x2="506.200000" y2="15.000000"  style="stroke: black; stroke-linecap:round; stroke-width:0.25; stroke-dasharray:3,3;"/>
<text x="20.000000" y="17.000000" font-family="Arial" font-size="7">gainview</text>
<line x1="508.200000" y1="75.000000" x2="511.200000" y2="76.000000"  transform="rotate(0.000000,511.200000,76.000000)" style="stroke: black; stroke-width:0.25;"/>
<line x1="508.200000" y1="77.000000" x2="511.200000" y2="76.000000"  transform="rotate(0.000000,511.200000,76.000000)" style="stroke: black; stroke-width:0.25;"/>
<line x1="10.000000" y1="76.000000" x2="20.000000" y2="76.000000"  style="stroke:black; stroke-linecap:round; stroke-width:0.25;"/>
<line x1="20.000000" y1="76.000000" x2="24.000000" y2="76.000000"  style="stroke:black; stroke-linecap:round; stroke-width:0.25;"/>
<line x1="24.000000" y1="76.000000" x2="28.000000" y2="76.000000"  style="stroke:black; stroke-linecap:round; stroke-width:0.25;"/>
<line x1="28.000000" y1="76.000000" x2="28.000000" y2="76.000000"  style="stroke:black; stroke-linecap:round; stroke-width:0.25;"/>
<line x1="28.000000" y1="76.000000" x2="32.000000" y2="76.000000"  style="stroke:black; stroke-linecap:round; stroke-width:0.25;"/>
<line x1="161.000000" y1="76.000000" x2="165.000000" y2="76.000000"  style="stroke:black; stroke-linecap:round; stroke-width:0.25;"/>
<line x1="165.000000" y1="76.000000" x2="165.000000" y2="76.000000"  style="stroke:black; stroke-linecap:round; stroke-width:0.25;"/>
<line x1="165.000000" y1="76.000000" x2="169.000000" y2="76.000000"  style="stroke:black; stroke-linecap:round; stroke-width:0.25;"/>
<line x1="207.700000" y1="76.000000" x2="211.700000" y2="76.000000"  style="stroke:black; stroke-linecap:round; stroke-width:0.25;"/>
<line x1="211.700000" y1="76.000000" x2="211.700000" y2="76.000000"  style="stroke:black; stroke-linecap:round; stroke-width:0.25;"/>
<line x1="211.700000" y1="76.000000" x2="221.700000" y2="76.000000"  style="stroke:black; stroke-linecap:round; stroke-width:0.25;"/>
<line x1="221.700000" y1="76.000000" x2="231.700000" y2="76.000000"  style="stroke:black; stroke-linecap:round; stroke-width:0.25;"/>
<line x1="231.700000" y1="76.000000" x2="241.700000" y2="76.000000"  style="stroke:black; stroke-linecap:round; stroke-width:0.25;"/>
<line x1="241.700000" y1="76.000000" x2="251.700000" y2="76.000000"  style="stroke:black; stroke-linecap:round; stroke-width:0.25;"/>
<line x1="251.700000" y1="76.000000" x2="255.700000" y2="76.000000"  style="stroke:black; stroke-linecap:round; stroke-width:0.25;"/>
<line x1="449.200000" y1="76.000000" x2="453.200000" y2="76.000000"  style="stroke:black; stroke-linecap:round; stroke-width:0.25;"/>
<line x1="453.200000" y1="76.000000" x2="463.200000" y2="76.000000"  style="stroke:black; stroke-linecap:round; stroke-width:0.25;"/>
<line x1="463.200000" y1="76.000000" x2="473.200000" y2="76.000000"  style="stroke:black; stroke-linecap:round; stroke-width:0.25;"/>
<line x1="473.200000" y1="76.000000" x2="483.200000" y2="76.000000"  style="stroke:black; stroke-linecap:round; stroke-width:0.25;"/>
<line x1="483.200000" y1="76.000000" x2="493.200000" y2="76.000000"  style="stroke:black; stroke-linecap:round; stroke-width:0.25;"/>
<line x1="493.200000" y1="76.000000" x2="493.200000" y2="76.000000"  style="stroke:black; stroke-linecap:round; stroke-width:0.25;"/>
<line x1="493.200000" y1="76.000000" x2="497.200000" y2="76.000000"  style="stroke:black; stroke-linecap:round; stroke-width:0.25;"/>
<line x1="497.200000" y1="76.000000" x2="501.200000" y2="76.000000"  style="stroke:black; stroke-linecap:round; stroke-width:0.25;"/>
<line x1="501.200000" y1="76.000000" x2="511.200000" y2="76.000000"  style="stroke:black; stroke-linecap:round; stroke-width:0.25;"/>
</svg>
