<?xml version="1.0"?>
<svg xmlns="http://www.w3.org/2000/svg" xmlns:xlink="http://www.w3.org/1999/xlink" viewBox="0 0 332.100000 192.000000" width="166.050000mm" height="96.000000mm" version="1.1">
<a xlink:href="process.svg">
<rect x="1.000000" y="1.000000" width="331.100000" height="191.000000" rx="0" ry="0" style="stroke:none;fill:#cccccc;"/>
<rect x="0.000000" y="0.000000" width="331.100000" height="191.000000" rx="0" ry="0" style="stroke:none;fill:#ffffff;"/>
</a>
<text x="10.000000" y="7.000000" font-family="Arial" font-size="7"></text>
<rect x="121.000000" y="65.000000" width="77.400000" height="24.000000" rx="0" ry="0" style="stroke:none;fill:#cccccc;"/>
<rect x="120.000000" y="64.000000" width="77.400000" height="24.000000" rx="0" ry="0" style="stroke:none;fill:#477881;"/>
<text x="158.700000" y="78.000000" font-family="Arial" font-size="7" text-anchor="middle" fill="#FFFFFF">checkbox(Bypass)</text>
<circle cx="122.000000" cy="66.000000" r="1"/>
<line x1="111.000000" y1="55.000000" x2="111.000000" y2="97.000000"  style="stroke: black; stroke-linecap:round; stroke-width:0.25; stroke-dasharray:3,3;"/>
<line x1="111.000000" y1="97.000000" x2="206.400000" y2="97.000000"  style="stroke: black; stroke-linecap:round; stroke-width:0.25; stroke-dasharray:3,3;"/>
<line x1="206.400000" y1="97.000000" x2="206.400000" y2="55.000000"  style="stroke: black; stroke-linecap:round; stroke-width:0.25; stroke-dasharray:3,3;"/>
<line x1="111.000000" y1="55.000000" x2="116.000000" y2="55.000000"  style="stroke: black; stroke-linecap:round; stroke-width:0.25; stroke-dasharray:3,3;"/>
<line x1="148.250000" y1="55.000000" x2="206.400000" y2="55.000000"  style="stroke: black; stroke-linecap:round; stroke-width:0.25; stroke-dasharray:3,3;"/>
<text x="116.000000" y="57.000000" font-family="Arial" font-size="7">hgroup()</text>
<line x1="101.000000" y1="45.000000" x2="101.000000" y2="107.000000"  style="stroke: black; stroke-linecap:round; stroke-width:0.25; stroke-dasharray:3,3;"/>
<line x1="101.000000" y1="107.000000" x2="216.400000" y2="107.000000"  style="stroke: black; stroke-linecap:round; stroke-width:0.25; stroke-dasharray:3,3;"/>
<line x1="216.400000" y1="107.000000" x2="216.400000" y2="45.000000"  style="stroke: black; stroke-linecap:round; stroke-width:0.25; stroke-dasharray:3,3;"/>
<line x1="101.000000" y1="45.000000" x2="106.000000" y2="45.000000"  style="stroke: black; stroke-linecap:round; stroke-width:0.25; stroke-dasharray:3,3;"/>
<line x1="170.500000" y1="45.000000" x2="216.400000" y2="45.000000"  style="stroke: black; stroke-linecap:round; stroke-width:0.25; stroke-dasharray:3,3;"/>
<text x="106.000000" y="47.000000" font-family="Arial" font-size="7">vgroup(COMPRESSOR)</text>
<line x1="91.000000" y1="35.000000" x2="91.000000" y2="117.000000"  style="stroke: black; stroke-linecap:round; stroke-width:0.25; stroke-dasharray:3,3;"/>
<line x1="91.000000" y1="117.000000" x2="226.400000" y2="117.000000"  style="stroke: black; stroke-linecap:round; stroke-width:0.25; stroke-dasharray:3,3;"/>
<line x1="226.400000" y1="117.000000" x2="226.400000" y2="35.000000"  style="stroke: black; stroke-linecap:round; stroke-width:0.25; stroke-dasharray:3,3;"/>
<line x1="91.000000" y1="35.000000" x2="96.000000" y2="35.000000"  style="stroke: black; stroke-linecap:round; stroke-width:0.25; stroke-dasharray:3,3;"/>
<line x1="192.750000" y1="35.000000" x2="226.400000" y2="35.000000"  style="stroke: black; stroke-linecap:round; stroke-width:0.25; stroke-dasharray:3,3;"/>
<text x="96.000000" y="37.000000" font-family="Arial" font-size="7">vgroup(---- BASS FLUTE ----)</text>
<line x1="81.000000" y1="25.000000" x2="81.000000" y2="127.000000"  style="stroke: black; stroke-linecap:round; stroke-width:0.25; stroke-dasharray:3,3;"/>
<line x1="81.000000" y1="127.000000" x2="236.400000" y2="127.000000"  style="stroke: black; stroke-linecap:round; stroke-width:0.25; stroke-dasharray:3,3;"/>
<line x1="236.400000" y1="127.000000" x2="236.400000" y2="25.000000"  style="stroke: black; stroke-linecap:round; stroke-width:0.25; stroke-dasharray:3,3;"/>
<line x1="81.000000" y1="25.000000" x2="86.000000" y2="25.000000"  style="stroke: black; stroke-linecap:round; stroke-width:0.25; stroke-dasharray:3,3;"/>
<line x1="102.125000" y1="25.000000" x2="236.400000" y2="25.000000"  style="stroke: black; stroke-linecap:round; stroke-width:0.25; stroke-dasharray:3,3;"/>
<text x="86.000000" y="27.000000" font-family="Arial" font-size="7">cbp</text>
<a xlink:href="inswitch-0x7fc729912030.svg">
<rect x="97.650000" y="137.000000" width="38.700000" height="24.000000" rx="0" ry="0" style="stroke:none;fill:#cccccc;"/>
<rect x="96.650000" y="136.000000" width="38.700000" height="24.000000" rx="0" ry="0" style="stroke:none;fill:#003366;"/>
</a>
<a xlink:href="inswitch-0x7fc729912030.svg">
<text x="116.000000" y="150.000000" font-family="Arial" font-size="7" text-anchor="middle" fill="#FFFFFF">inswitch</text>
</a>
<circle cx="98.650000" cy="138.000000" r="1"/>
<line x1="93.650000" y1="147.000000" x2="96.650000" y2="148.000000"  transform="rotate(0.000000,96.650000,148.000000)" style="stroke: black; stroke-width:0.25;"/>
<line x1="93.650000" y1="149.000000" x2="96.650000" y2="148.000000"  transform="rotate(0.000000,96.650000,148.000000)" style="stroke: black; stroke-width:0.25;"/>
<a xlink:href="gs-0x7fc729935810.svg">
<rect x="144.350000" y="137.000000" width="77.400000" height="24.000000" rx="0" ry="0" style="stroke:none;fill:#cccccc;"/>
<rect x="143.350000" y="136.000000" width="77.400000" height="24.000000" rx="0" ry="0" style="stroke:none;fill:#003366;"/>
</a>
<a xlink:href="gs-0x7fc729935810.svg">
<text x="182.050000" y="150.000000" font-family="Arial" font-size="7" text-anchor="middle" fill="#FFFFFF">gs_mono_compressor</text>
</a>
<circle cx="145.350000" cy="138.000000" r="1"/>
<line x1="140.350000" y1="147.000000" x2="143.350000" y2="148.000000"  transform="rotate(0.000000,143.350000,148.000000)" style="stroke: black; stroke-width:0.25;"/>
<line x1="140.350000" y1="149.000000" x2="143.350000" y2="148.000000"  transform="rotate(0.000000,143.350000,148.000000)" style="stroke: black; stroke-width:0.25;"/>
<rect x="262.400000" y="85.000000" width="38.700000" height="24.000000" rx="0" ry="0" style="stroke:none;fill:#cccccc;"/>
<rect x="261.400000" y="84.000000" width="38.700000" height="24.000000" rx="0" ry="0" style="stroke:none;fill:#4B71A1;"/>
<text x="280.750000" y="98.000000" font-family="Arial" font-size="7" text-anchor="middle" fill="#FFFFFF">select2</text>
<circle cx="263.400000" cy="86.000000" r="1"/>
<line x1="258.400000" y1="87.000000" x2="261.400000" y2="88.000000"  transform="rotate(0.000000,261.400000,88.000000)" style="stroke: black; stroke-width:0.25;"/>
<line x1="258.400000" y1="89.000000" x2="261.400000" y2="88.000000"  transform="rotate(0.000000,261.400000,88.000000)" style="stroke: black; stroke-width:0.25;"/>
<line x1="258.400000" y1="95.000000" x2="261.400000" y2="96.000000"  transform="rotate(0.000000,261.400000,96.000000)" style="stroke: black; stroke-width:0.25;"/>
<line x1="258.400000" y1="97.000000" x2="261.400000" y2="96.000000"  transform="rotate(0.000000,261.400000,96.000000)" style="stroke: black; stroke-width:0.25;"/>
<line x1="258.400000" y1="103.000000" x2="261.400000" y2="104.000000"  transform="rotate(0.000000,261.400000,104.000000)" style="stroke: black; stroke-width:0.25;"/>
<line x1="258.400000" y1="105.000000" x2="261.400000" y2="104.000000"  transform="rotate(0.000000,261.400000,104.000000)" style="stroke: black; stroke-width:0.25;"/>
<line x1="15.000000" y1="15.000000" x2="15.000000" y2="177.000000"  style="stroke: black; stroke-linecap:round; stroke-width:0.25; stroke-dasharray:3,3;"/>
<line x1="15.000000" y1="177.000000" x2="317.100000" y2="177.000000"  style="stroke: black; stroke-linecap:round; stroke-width:0.25; stroke-dasharray:3,3;"/>
<line x1="317.100000" y1="177.000000" x2="317.100000" y2="15.000000"  style="stroke: black; stroke-linecap:round; stroke-width:0.25; stroke-dasharray:3,3;"/>
<line x1="15.000000" y1="15.000000" x2="20.000000" y2="15.000000"  style="stroke: black; stroke-linecap:round; stroke-width:0.25; stroke-dasharray:3,3;"/>
<line x1="55.475000" y1="15.000000" x2="317.100000" y2="15.000000"  style="stroke: black; stroke-linecap:round; stroke-width:0.25; stroke-dasharray:3,3;"/>
<text x="20.000000" y="17.000000" font-family="Arial" font-size="7">gs_m_comp</text>
<line x1="319.100000" y1="95.000000" x2="322.100000" y2="96.000000"  transform="rotate(0.000000,322.100000,96.000000)" style="stroke: black; stroke-width:0.25;"/>
<line x1="319.100000" y1="97.000000" x2="322.100000" y2="96.000000"  transform="rotate(0.000000,322.100000,96.000000)" style="stroke: black; stroke-width:0.25;"/>
<line x1="10.000000" y1="96.000000" x2="20.000000" y2="96.000000"  style="stroke:black; stroke-linecap:round; stroke-width:0.25;"/>
<line x1="20.000000" y1="96.000000" x2="24.000000" y2="96.000000"  style="stroke:black; stroke-linecap:round; stroke-width:0.25;"/>
<line x1="24.000000" y1="96.000000" x2="28.000000" y2="96.000000"  style="stroke:black; stroke-linecap:round; stroke-width:0.25;"/>
<line x1="28.000000" y1="96.000000" x2="28.000000" y2="96.000000"  style="stroke:black; stroke-linecap:round; stroke-width:0.25;"/>
<line x1="28.000000" y1="96.000000" x2="32.000000" y2="96.000000"  style="stroke:black; stroke-linecap:round; stroke-width:0.25;"/>
<line x1="32.000000" y1="96.000000" x2="36.000000" y2="96.000000"  style="stroke:black; stroke-linecap:round; stroke-width:0.25;"/>
<line x1="36.000000" y1="96.000000" x2="76.000000" y2="148.000000"  style="stroke:black; stroke-linecap:round; stroke-width:0.25;"/>
<line x1="36.000000" y1="96.000000" x2="76.000000" y2="168.000000"  style="stroke:black; stroke-linecap:round; stroke-width:0.25;"/>
<line x1="76.000000" y1="148.000000" x2="92.650000" y2="148.000000"  style="stroke:black; stroke-linecap:round; stroke-width:0.25;"/>
<line x1="76.000000" y1="168.000000" x2="92.650000" y2="168.000000"  style="stroke:black; stroke-linecap:round; stroke-width:0.25;"/>
<line x1="92.650000" y1="148.000000" x2="96.650000" y2="148.000000"  style="stroke:black; stroke-linecap:round; stroke-width:0.25;"/>
<line x1="92.650000" y1="168.000000" x2="158.700000" y2="168.000000"  style="stroke:black; stroke-linecap:round; stroke-width:0.25;"/>
<line x1="135.350000" y1="148.000000" x2="139.350000" y2="148.000000"  style="stroke:black; stroke-linecap:round; stroke-width:0.25;"/>
<line x1="139.350000" y1="148.000000" x2="139.350000" y2="148.000000"  style="stroke:black; stroke-linecap:round; stroke-width:0.25;"/>
<line x1="139.350000" y1="148.000000" x2="143.350000" y2="148.000000"  style="stroke:black; stroke-linecap:round; stroke-width:0.25;"/>
<line x1="158.700000" y1="168.000000" x2="224.750000" y2="168.000000"  style="stroke:black; stroke-linecap:round; stroke-width:0.25;"/>
<line x1="197.400000" y1="76.000000" x2="201.400000" y2="76.000000"  style="stroke:black; stroke-linecap:round; stroke-width:0.25;"/>
<line x1="201.400000" y1="76.000000" x2="211.400000" y2="76.000000"  style="stroke:black; stroke-linecap:round; stroke-width:0.25;"/>
<line x1="211.400000" y1="76.000000" x2="221.400000" y2="76.000000"  style="stroke:black; stroke-linecap:round; stroke-width:0.25;"/>
<line x1="220.750000" y1="148.000000" x2="224.750000" y2="148.000000"  style="stroke:black; stroke-linecap:round; stroke-width:0.25;"/>
<line x1="221.400000" y1="76.000000" x2="231.400000" y2="76.000000"  style="stroke:black; stroke-linecap:round; stroke-width:0.25;"/>
<line x1="224.750000" y1="148.000000" x2="241.400000" y2="148.000000"  style="stroke:black; stroke-linecap:round; stroke-width:0.25;"/>
<line x1="224.750000" y1="168.000000" x2="241.400000" y2="168.000000"  style="stroke:black; stroke-linecap:round; stroke-width:0.25;"/>
<line x1="231.400000" y1="76.000000" x2="241.400000" y2="76.000000"  style="stroke:black; stroke-linecap:round; stroke-width:0.25;"/>
<line x1="241.400000" y1="76.000000" x2="257.400000" y2="76.000000"  style="stroke:black; stroke-linecap:round; stroke-width:0.25;"/>
<line x1="241.400000" y1="96.000000" x2="257.400000" y2="96.000000"  style="stroke:black; stroke-linecap:round; stroke-width:0.25;"/>
<line x1="241.400000" y1="148.000000" x2="241.400000" y2="96.000000"  style="stroke:black; stroke-linecap:round; stroke-width:0.25;"/>
<line x1="241.400000" y1="148.000000" x2="241.400000" y2="148.000000"  style="stroke:black; stroke-linecap:round; stroke-width:0.25;"/>
<line x1="241.400000" y1="168.000000" x2="249.400000" y2="168.000000"  style="stroke:black; stroke-linecap:round; stroke-width:0.25;"/>
<line x1="249.400000" y1="104.000000" x2="257.400000" y2="104.000000"  style="stroke:black; stroke-linecap:round; stroke-width:0.25;"/>
<line x1="249.400000" y1="168.000000" x2="249.400000" y2="104.000000"  style="stroke:black; stroke-linecap:round; stroke-width:0.25;"/>
<line x1="257.400000" y1="76.000000" x2="257.400000" y2="88.000000"  style="stroke:black; stroke-linecap:round; stroke-width:0.25;"/>
<line x1="257.400000" y1="88.000000" x2="257.400000" y2="88.000000"  style="stroke:black; stroke-linecap:round; stroke-width:0.25;"/>
<line x1="257.400000" y1="88.000000" x2="261.400000" y2="88.000000"  style="stroke:black; stroke-linecap:round; stroke-width:0.25;"/>
<line x1="257.400000" y1="96.000000" x2="261.400000" y2="96.000000"  style="stroke:black; stroke-linecap:round; stroke-width:0.25;"/>
<line x1="257.400000" y1="104.000000" x2="261.400000" y2="104.000000"  style="stroke:black; stroke-linecap:round; stroke-width:0.25;"/>
<line x1="300.100000" y1="96.000000" x2="304.100000" y2="96.000000"  style="stroke:black; stroke-linecap:round; stroke-width:0.25;"/>
<line x1="304.100000" y1="96.000000" x2="304.100000" y2="96.000000"  style="stroke:black; stroke-linecap:round; stroke-width:0.25;"/>
<line x1="304.100000" y1="96.000000" x2="308.100000" y2="96.000000"  style="stroke:black; stroke-linecap:round; stroke-width:0.25;"/>
<line x1="308.100000" y1="96.000000" x2="312.100000" y2="96.000000"  style="stroke:black; stroke-linecap:round; stroke-width:0.25;"/>
<line x1="312.100000" y1="96.000000" x2="322.100000" y2="96.000000"  style="stroke:black; stroke-linecap:round; stroke-width:0.25;"/>
</svg>
