<?xml version="1.0"?>
<svg xmlns="http://www.w3.org/2000/svg" xmlns:xlink="http://www.w3.org/1999/xlink" viewBox="0 0 464.700000 232.000000" width="232.350000mm" height="116.000000mm" version="1.1">
<a xlink:href="if-0x7f9e1401ffb0.svg">
<rect x="1.000000" y="1.000000" width="463.700000" height="231.000000" rx="0" ry="0" style="stroke:none;fill:#cccccc;"/>
<rect x="0.000000" y="0.000000" width="463.700000" height="231.000000" rx="0" ry="0" style="stroke:none;fill:#ffffff;"/>
</a>
<text x="10.000000" y="7.000000" font-family="Arial" font-size="7"></text>
<rect x="146.000000" y="25.000000" width="24.000000" height="24.000000" rx="0" ry="0" style="stroke:none;fill:#cccccc;"/>
<rect x="145.000000" y="24.000000" width="24.000000" height="24.000000" rx="0" ry="0" style="stroke:none;fill:#47945E;"/>
<text x="157.000000" y="38.000000" font-family="Arial" font-size="7" text-anchor="middle" fill="#FFFFFF">ip</text>
<circle cx="147.000000" cy="26.000000" r="1"/>
<rect x="146.000000" y="57.000000" width="24.000000" height="24.000000" rx="0" ry="0" style="stroke:none;fill:#cccccc;"/>
<rect x="145.000000" y="56.000000" width="24.000000" height="24.000000" rx="0" ry="0" style="stroke:none;fill:#f44800;"/>
<text x="157.000000" y="70.000000" font-family="Arial" font-size="7" text-anchor="middle" fill="#FFFFFF">1</text>
<circle cx="147.000000" cy="58.000000" r="1"/>
<rect x="186.000000" y="41.000000" width="24.000000" height="24.000000" rx="0" ry="0" style="stroke:none;fill:#cccccc;"/>
<rect x="185.000000" y="40.000000" width="24.000000" height="24.000000" rx="0" ry="0" style="stroke:none;fill:#4B71A1;"/>
<text x="197.000000" y="54.000000" font-family="Arial" font-size="7" text-anchor="middle" fill="#FFFFFF">==</text>
<circle cx="187.000000" cy="42.000000" r="1"/>
<line x1="182.000000" y1="47.000000" x2="185.000000" y2="48.000000"  transform="rotate(0.000000,185.000000,48.000000)" style="stroke: black; stroke-width:0.25;"/>
<line x1="182.000000" y1="49.000000" x2="185.000000" y2="48.000000"  transform="rotate(0.000000,185.000000,48.000000)" style="stroke: black; stroke-width:0.25;"/>
<line x1="182.000000" y1="55.000000" x2="185.000000" y2="56.000000"  transform="rotate(0.000000,185.000000,56.000000)" style="stroke: black; stroke-width:0.25;"/>
<line x1="182.000000" y1="57.000000" x2="185.000000" y2="56.000000"  transform="rotate(0.000000,185.000000,56.000000)" style="stroke: black; stroke-width:0.25;"/>
<rect x="25.000000" y="89.000000" width="219.300000" height="24.000000" rx="0" ry="0" style="stroke:none;fill:#cccccc;"/>
<rect x="24.000000" y="88.000000" width="219.300000" height="24.000000" rx="0" ry="0" style="stroke:none;fill:#477881;"/>
<text x="133.650000" y="102.000000" font-family="Arial" font-size="7" text-anchor="middle" fill="#FFFFFF">nentry(ch1 to ch2 delay, 0.01f, 0.0f, 1.0f, 0.001f)</text>
<circle cx="26.000000" cy="90.000000" r="1"/>
<a xlink:href="sec2samp-0x7f9e12fc83c0.svg">
<rect x="252.300000" y="89.000000" width="38.700000" height="24.000000" rx="0" ry="0" style="stroke:none;fill:#cccccc;"/>
<rect x="251.300000" y="88.000000" width="38.700000" height="24.000000" rx="0" ry="0" style="stroke:none;fill:#003366;"/>
</a>
<a xlink:href="sec2samp-0x7f9e12fc83c0.svg">
<text x="270.650000" y="102.000000" font-family="Arial" font-size="7" text-anchor="middle" fill="#FFFFFF">sec2samp</text>
</a>
<circle cx="253.300000" cy="90.000000" r="1"/>
<line x1="248.300000" y1="99.000000" x2="251.300000" y2="100.000000"  transform="rotate(0.000000,251.300000,100.000000)" style="stroke: black; stroke-width:0.25;"/>
<line x1="248.300000" y1="101.000000" x2="251.300000" y2="100.000000"  transform="rotate(0.000000,251.300000,100.000000)" style="stroke: black; stroke-width:0.25;"/>
<rect x="146.000000" y="121.000000" width="24.000000" height="24.000000" rx="0" ry="0" style="stroke:none;fill:#cccccc;"/>
<rect x="145.000000" y="120.000000" width="24.000000" height="24.000000" rx="0" ry="0" style="stroke:none;fill:#47945E;"/>
<text x="157.000000" y="134.000000" font-family="Arial" font-size="7" text-anchor="middle" fill="#FFFFFF">d1</text>
<circle cx="147.000000" cy="122.000000" r="1"/>
<rect x="307.000000" y="105.000000" width="24.000000" height="24.000000" rx="0" ry="0" style="stroke:none;fill:#cccccc;"/>
<rect x="306.000000" y="104.000000" width="24.000000" height="24.000000" rx="0" ry="0" style="stroke:none;fill:#4B71A1;"/>
<text x="318.000000" y="118.000000" font-family="Arial" font-size="7" text-anchor="middle" fill="#FFFFFF">!=</text>
<circle cx="308.000000" cy="106.000000" r="1"/>
<line x1="303.000000" y1="111.000000" x2="306.000000" y2="112.000000"  transform="rotate(0.000000,306.000000,112.000000)" style="stroke: black; stroke-width:0.25;"/>
<line x1="303.000000" y1="113.000000" x2="306.000000" y2="112.000000"  transform="rotate(0.000000,306.000000,112.000000)" style="stroke: black; stroke-width:0.25;"/>
<line x1="303.000000" y1="119.000000" x2="306.000000" y2="120.000000"  transform="rotate(0.000000,306.000000,120.000000)" style="stroke: black; stroke-width:0.25;"/>
<line x1="303.000000" y1="121.000000" x2="306.000000" y2="120.000000"  transform="rotate(0.000000,306.000000,120.000000)" style="stroke: black; stroke-width:0.25;"/>
<rect x="347.000000" y="73.000000" width="24.000000" height="24.000000" rx="0" ry="0" style="stroke:none;fill:#cccccc;"/>
<rect x="346.000000" y="72.000000" width="24.000000" height="24.000000" rx="0" ry="0" style="stroke:none;fill:#4B71A1;"/>
<text x="358.000000" y="86.000000" font-family="Arial" font-size="7" text-anchor="middle" fill="#FFFFFF">&amp;</text>
<circle cx="348.000000" cy="74.000000" r="1"/>
<line x1="343.000000" y1="79.000000" x2="346.000000" y2="80.000000"  transform="rotate(0.000000,346.000000,80.000000)" style="stroke: black; stroke-width:0.25;"/>
<line x1="343.000000" y1="81.000000" x2="346.000000" y2="80.000000"  transform="rotate(0.000000,346.000000,80.000000)" style="stroke: black; stroke-width:0.25;"/>
<line x1="343.000000" y1="87.000000" x2="346.000000" y2="88.000000"  transform="rotate(0.000000,346.000000,88.000000)" style="stroke: black; stroke-width:0.25;"/>
<line x1="343.000000" y1="89.000000" x2="346.000000" y2="88.000000"  transform="rotate(0.000000,346.000000,88.000000)" style="stroke: black; stroke-width:0.25;"/>
<rect x="186.000000" y="153.000000" width="24.000000" height="24.000000" rx="0" ry="0" style="stroke:none;fill:#cccccc;"/>
<rect x="185.000000" y="152.000000" width="24.000000" height="24.000000" rx="0" ry="0" style="stroke:none;fill:#f44800;"/>
<text x="197.000000" y="166.000000" font-family="Arial" font-size="7" text-anchor="middle" fill="#FFFFFF">0</text>
<circle cx="187.000000" cy="154.000000" r="1"/>
<rect x="172.200000" y="185.000000" width="51.600000" height="24.000000" rx="0" ry="0" style="stroke:none;fill:#cccccc;"/>
<rect x="171.200000" y="184.000000" width="51.600000" height="24.000000" rx="0" ry="0" style="stroke:none;fill:#f44800;"/>
<text x="197.000000" y="198.000000" font-family="Arial" font-size="7" text-anchor="middle" fill="#FFFFFF">-0.000976562</text>
<circle cx="173.200000" cy="186.000000" r="1"/>
<rect x="395.000000" y="105.000000" width="38.700000" height="24.000000" rx="0" ry="0" style="stroke:none;fill:#cccccc;"/>
<rect x="394.000000" y="104.000000" width="38.700000" height="24.000000" rx="0" ry="0" style="stroke:none;fill:#4B71A1;"/>
<text x="413.350000" y="118.000000" font-family="Arial" font-size="7" text-anchor="middle" fill="#FFFFFF">select2</text>
<circle cx="396.000000" cy="106.000000" r="1"/>
<line x1="391.000000" y1="107.000000" x2="394.000000" y2="108.000000"  transform="rotate(0.000000,394.000000,108.000000)" style="stroke: black; stroke-width:0.25;"/>
<line x1="391.000000" y1="109.000000" x2="394.000000" y2="108.000000"  transform="rotate(0.000000,394.000000,108.000000)" style="stroke: black; stroke-width:0.25;"/>
<line x1="391.000000" y1="115.000000" x2="394.000000" y2="116.000000"  transform="rotate(0.000000,394.000000,116.000000)" style="stroke: black; stroke-width:0.25;"/>
<line x1="391.000000" y1="117.000000" x2="394.000000" y2="116.000000"  transform="rotate(0.000000,394.000000,116.000000)" style="stroke: black; stroke-width:0.25;"/>
<line x1="391.000000" y1="123.000000" x2="394.000000" y2="124.000000"  transform="rotate(0.000000,394.000000,124.000000)" style="stroke: black; stroke-width:0.25;"/>
<line x1="391.000000" y1="125.000000" x2="394.000000" y2="124.000000"  transform="rotate(0.000000,394.000000,124.000000)" style="stroke: black; stroke-width:0.25;"/>
<line x1="15.000000" y1="15.000000" x2="15.000000" y2="217.000000"  style="stroke: black; stroke-linecap:round; stroke-width:0.25; stroke-dasharray:3,3;"/>
<line x1="15.000000" y1="217.000000" x2="449.700000" y2="217.000000"  style="stroke: black; stroke-linecap:round; stroke-width:0.25; stroke-dasharray:3,3;"/>
<line x1="449.700000" y1="217.000000" x2="449.700000" y2="15.000000"  style="stroke: black; stroke-linecap:round; stroke-width:0.25; stroke-dasharray:3,3;"/>
<line x1="15.000000" y1="15.000000" x2="20.000000" y2="15.000000"  style="stroke: black; stroke-linecap:round; stroke-width:0.25; stroke-dasharray:3,3;"/>
<line x1="129.650000" y1="15.000000" x2="449.700000" y2="15.000000"  style="stroke: black; stroke-linecap:round; stroke-width:0.25; stroke-dasharray:3,3;"/>
<text x="20.000000" y="17.000000" font-family="Arial" font-size="7">if((x39,1.0f ....0009765625f)(0)</text>
<line x1="451.700000" y1="115.000000" x2="454.700000" y2="116.000000"  transform="rotate(0.000000,454.700000,116.000000)" style="stroke: black; stroke-width:0.25;"/>
<line x1="451.700000" y1="117.000000" x2="454.700000" y2="116.000000"  transform="rotate(0.000000,454.700000,116.000000)" style="stroke: black; stroke-width:0.25;"/>
<line x1="169.000000" y1="36.000000" x2="173.000000" y2="36.000000"  style="stroke:black; stroke-linecap:round; stroke-width:0.25;"/>
<line x1="169.000000" y1="68.000000" x2="173.000000" y2="68.000000"  style="stroke:black; stroke-linecap:round; stroke-width:0.25;"/>
<line x1="169.000000" y1="132.000000" x2="173.000000" y2="132.000000"  style="stroke:black; stroke-linecap:round; stroke-width:0.25;"/>
<line x1="173.000000" y1="36.000000" x2="181.000000" y2="36.000000"  style="stroke:black; stroke-linecap:round; stroke-width:0.25;"/>
<line x1="173.000000" y1="56.000000" x2="181.000000" y2="56.000000"  style="stroke:black; stroke-linecap:round; stroke-width:0.25;"/>
<line x1="173.000000" y1="68.000000" x2="173.000000" y2="56.000000"  style="stroke:black; stroke-linecap:round; stroke-width:0.25;"/>
<line x1="173.000000" y1="68.000000" x2="173.000000" y2="68.000000"  style="stroke:black; stroke-linecap:round; stroke-width:0.25;"/>
<line x1="173.000000" y1="132.000000" x2="294.000000" y2="132.000000"  style="stroke:black; stroke-linecap:round; stroke-width:0.25;"/>
<line x1="181.000000" y1="36.000000" x2="181.000000" y2="48.000000"  style="stroke:black; stroke-linecap:round; stroke-width:0.25;"/>
<line x1="181.000000" y1="48.000000" x2="181.000000" y2="48.000000"  style="stroke:black; stroke-linecap:round; stroke-width:0.25;"/>
<line x1="181.000000" y1="48.000000" x2="185.000000" y2="48.000000"  style="stroke:black; stroke-linecap:round; stroke-width:0.25;"/>
<line x1="181.000000" y1="56.000000" x2="185.000000" y2="56.000000"  style="stroke:black; stroke-linecap:round; stroke-width:0.25;"/>
<line x1="209.000000" y1="52.000000" x2="213.000000" y2="52.000000"  style="stroke:black; stroke-linecap:round; stroke-width:0.25;"/>
<line x1="209.000000" y1="164.000000" x2="213.000000" y2="164.000000"  style="stroke:black; stroke-linecap:round; stroke-width:0.25;"/>
<line x1="213.000000" y1="52.000000" x2="334.000000" y2="52.000000"  style="stroke:black; stroke-linecap:round; stroke-width:0.25;"/>
<line x1="213.000000" y1="164.000000" x2="226.800000" y2="164.000000"  style="stroke:black; stroke-linecap:round; stroke-width:0.25;"/>
<line x1="222.800000" y1="196.000000" x2="226.800000" y2="196.000000"  style="stroke:black; stroke-linecap:round; stroke-width:0.25;"/>
<line x1="226.800000" y1="196.000000" x2="374.000000" y2="196.000000"  style="stroke:black; stroke-linecap:round; stroke-width:0.25;"/>
<line x1="226.800000" y1="164.000000" x2="374.000000" y2="164.000000"  style="stroke:black; stroke-linecap:round; stroke-width:0.25;"/>
<line x1="243.300000" y1="100.000000" x2="247.300000" y2="100.000000"  style="stroke:black; stroke-linecap:round; stroke-width:0.25;"/>
<line x1="247.300000" y1="100.000000" x2="247.300000" y2="100.000000"  style="stroke:black; stroke-linecap:round; stroke-width:0.25;"/>
<line x1="247.300000" y1="100.000000" x2="251.300000" y2="100.000000"  style="stroke:black; stroke-linecap:round; stroke-width:0.25;"/>
<line x1="290.000000" y1="100.000000" x2="294.000000" y2="100.000000"  style="stroke:black; stroke-linecap:round; stroke-width:0.25;"/>
<line x1="294.000000" y1="100.000000" x2="302.000000" y2="100.000000"  style="stroke:black; stroke-linecap:round; stroke-width:0.25;"/>
<line x1="294.000000" y1="120.000000" x2="302.000000" y2="120.000000"  style="stroke:black; stroke-linecap:round; stroke-width:0.25;"/>
<line x1="294.000000" y1="132.000000" x2="294.000000" y2="120.000000"  style="stroke:black; stroke-linecap:round; stroke-width:0.25;"/>
<line x1="294.000000" y1="132.000000" x2="294.000000" y2="132.000000"  style="stroke:black; stroke-linecap:round; stroke-width:0.25;"/>
<line x1="302.000000" y1="100.000000" x2="302.000000" y2="112.000000"  style="stroke:black; stroke-linecap:round; stroke-width:0.25;"/>
<line x1="302.000000" y1="112.000000" x2="302.000000" y2="112.000000"  style="stroke:black; stroke-linecap:round; stroke-width:0.25;"/>
<line x1="302.000000" y1="112.000000" x2="306.000000" y2="112.000000"  style="stroke:black; stroke-linecap:round; stroke-width:0.25;"/>
<line x1="302.000000" y1="120.000000" x2="306.000000" y2="120.000000"  style="stroke:black; stroke-linecap:round; stroke-width:0.25;"/>
<line x1="330.000000" y1="116.000000" x2="334.000000" y2="116.000000"  style="stroke:black; stroke-linecap:round; stroke-width:0.25;"/>
<line x1="334.000000" y1="52.000000" x2="342.000000" y2="52.000000"  style="stroke:black; stroke-linecap:round; stroke-width:0.25;"/>
<line x1="334.000000" y1="88.000000" x2="342.000000" y2="88.000000"  style="stroke:black; stroke-linecap:round; stroke-width:0.25;"/>
<line x1="334.000000" y1="116.000000" x2="334.000000" y2="88.000000"  style="stroke:black; stroke-linecap:round; stroke-width:0.25;"/>
<line x1="334.000000" y1="116.000000" x2="334.000000" y2="116.000000"  style="stroke:black; stroke-linecap:round; stroke-width:0.25;"/>
<line x1="342.000000" y1="52.000000" x2="342.000000" y2="80.000000"  style="stroke:black; stroke-linecap:round; stroke-width:0.25;"/>
<line x1="342.000000" y1="80.000000" x2="342.000000" y2="80.000000"  style="stroke:black; stroke-linecap:round; stroke-width:0.25;"/>
<line x1="342.000000" y1="80.000000" x2="346.000000" y2="80.000000"  style="stroke:black; stroke-linecap:round; stroke-width:0.25;"/>
<line x1="342.000000" y1="88.000000" x2="346.000000" y2="88.000000"  style="stroke:black; stroke-linecap:round; stroke-width:0.25;"/>
<line x1="370.000000" y1="84.000000" x2="374.000000" y2="84.000000"  style="stroke:black; stroke-linecap:round; stroke-width:0.25;"/>
<line x1="374.000000" y1="84.000000" x2="390.000000" y2="84.000000"  style="stroke:black; stroke-linecap:round; stroke-width:0.25;"/>
<line x1="374.000000" y1="116.000000" x2="390.000000" y2="116.000000"  style="stroke:black; stroke-linecap:round; stroke-width:0.25;"/>
<line x1="374.000000" y1="164.000000" x2="374.000000" y2="116.000000"  style="stroke:black; stroke-linecap:round; stroke-width:0.25;"/>
<line x1="374.000000" y1="164.000000" x2="374.000000" y2="164.000000"  style="stroke:black; stroke-linecap:round; stroke-width:0.25;"/>
<line x1="374.000000" y1="196.000000" x2="382.000000" y2="196.000000"  style="stroke:black; stroke-linecap:round; stroke-width:0.25;"/>
<line x1="382.000000" y1="124.000000" x2="390.000000" y2="124.000000"  style="stroke:black; stroke-linecap:round; stroke-width:0.25;"/>
<line x1="382.000000" y1="196.000000" x2="382.000000" y2="124.000000"  style="stroke:black; stroke-linecap:round; stroke-width:0.25;"/>
<line x1="390.000000" y1="84.000000" x2="390.000000" y2="108.000000"  style="stroke:black; stroke-linecap:round; stroke-width:0.25;"/>
<line x1="390.000000" y1="108.000000" x2="390.000000" y2="108.000000"  style="stroke:black; stroke-linecap:round; stroke-width:0.25;"/>
<line x1="390.000000" y1="108.000000" x2="394.000000" y2="108.000000"  style="stroke:black; stroke-linecap:round; stroke-width:0.25;"/>
<line x1="390.000000" y1="116.000000" x2="394.000000" y2="116.000000"  style="stroke:black; stroke-linecap:round; stroke-width:0.25;"/>
<line x1="390.000000" y1="124.000000" x2="394.000000" y2="124.000000"  style="stroke:black; stroke-linecap:round; stroke-width:0.25;"/>
<line x1="432.700000" y1="116.000000" x2="436.700000" y2="116.000000"  style="stroke:black; stroke-linecap:round; stroke-width:0.25;"/>
<line x1="436.700000" y1="116.000000" x2="436.700000" y2="116.000000"  style="stroke:black; stroke-linecap:round; stroke-width:0.25;"/>
<line x1="436.700000" y1="116.000000" x2="440.700000" y2="116.000000"  style="stroke:black; stroke-linecap:round; stroke-width:0.25;"/>
<line x1="440.700000" y1="116.000000" x2="444.700000" y2="116.000000"  style="stroke:black; stroke-linecap:round; stroke-width:0.25;"/>
<line x1="444.700000" y1="116.000000" x2="454.700000" y2="116.000000"  style="stroke:black; stroke-linecap:round; stroke-width:0.25;"/>
</svg>
