<?xml version="1.0"?>
<svg xmlns="http://www.w3.org/2000/svg" xmlns:xlink="http://www.w3.org/1999/xlink" viewBox="0 0 413.100000 232.000000" width="206.550000mm" height="116.000000mm" version="1.1">
<a xlink:href="nv-0x7feef899c8a0.svg">
<rect x="1.000000" y="1.000000" width="412.100000" height="231.000000" rx="0" ry="0" style="stroke:none;fill:#cccccc;"/>
<rect x="0.000000" y="0.000000" width="412.100000" height="231.000000" rx="0" ry="0" style="stroke:none;fill:#ffffff;"/>
</a>
<text x="10.000000" y="7.000000" font-family="Arial" font-size="7"></text>
<rect x="120.200000" y="25.000000" width="24.000000" height="24.000000" rx="0" ry="0" style="stroke:none;fill:#cccccc;"/>
<rect x="119.200000" y="24.000000" width="24.000000" height="24.000000" rx="0" ry="0" style="stroke:none;fill:#47945E;"/>
<text x="131.200000" y="38.000000" font-family="Arial" font-size="7" text-anchor="middle" fill="#FFFFFF">ip</text>
<circle cx="121.200000" cy="26.000000" r="1"/>
<rect x="120.200000" y="57.000000" width="24.000000" height="24.000000" rx="0" ry="0" style="stroke:none;fill:#cccccc;"/>
<rect x="119.200000" y="56.000000" width="24.000000" height="24.000000" rx="0" ry="0" style="stroke:none;fill:#f44800;"/>
<text x="131.200000" y="70.000000" font-family="Arial" font-size="7" text-anchor="middle" fill="#FFFFFF">0</text>
<circle cx="121.200000" cy="58.000000" r="1"/>
<rect x="160.200000" y="41.000000" width="24.000000" height="24.000000" rx="0" ry="0" style="stroke:none;fill:#cccccc;"/>
<rect x="159.200000" y="40.000000" width="24.000000" height="24.000000" rx="0" ry="0" style="stroke:none;fill:#4B71A1;"/>
<text x="171.200000" y="54.000000" font-family="Arial" font-size="7" text-anchor="middle" fill="#FFFFFF">==</text>
<circle cx="161.200000" cy="42.000000" r="1"/>
<line x1="156.200000" y1="47.000000" x2="159.200000" y2="48.000000"  transform="rotate(0.000000,159.200000,48.000000)" style="stroke: black; stroke-width:0.25;"/>
<line x1="156.200000" y1="49.000000" x2="159.200000" y2="48.000000"  transform="rotate(0.000000,159.200000,48.000000)" style="stroke: black; stroke-width:0.25;"/>
<line x1="156.200000" y1="55.000000" x2="159.200000" y2="56.000000"  transform="rotate(0.000000,159.200000,56.000000)" style="stroke: black; stroke-width:0.25;"/>
<line x1="156.200000" y1="57.000000" x2="159.200000" y2="56.000000"  transform="rotate(0.000000,159.200000,56.000000)" style="stroke: black; stroke-width:0.25;"/>
<rect x="25.000000" y="89.000000" width="167.700000" height="24.000000" rx="0" ry="0" style="stroke:none;fill:#cccccc;"/>
<rect x="24.000000" y="88.000000" width="167.700000" height="24.000000" rx="0" ry="0" style="stroke:none;fill:#477881;"/>
<text x="107.850000" y="102.000000" font-family="Arial" font-size="7" text-anchor="middle" fill="#FFFFFF">nentry(ch1, 0.01f, 0.0f, 1.0f, 0.001f)</text>
<circle cx="26.000000" cy="90.000000" r="1"/>
<a xlink:href="sec2samp-0x7feef8832270.svg">
<rect x="200.700000" y="89.000000" width="38.700000" height="24.000000" rx="0" ry="0" style="stroke:none;fill:#cccccc;"/>
<rect x="199.700000" y="88.000000" width="38.700000" height="24.000000" rx="0" ry="0" style="stroke:none;fill:#003366;"/>
</a>
<a xlink:href="sec2samp-0x7feef8832270.svg">
<text x="219.050000" y="102.000000" font-family="Arial" font-size="7" text-anchor="middle" fill="#FFFFFF">sec2samp</text>
</a>
<circle cx="201.700000" cy="90.000000" r="1"/>
<line x1="196.700000" y1="99.000000" x2="199.700000" y2="100.000000"  transform="rotate(0.000000,199.700000,100.000000)" style="stroke: black; stroke-width:0.25;"/>
<line x1="196.700000" y1="101.000000" x2="199.700000" y2="100.000000"  transform="rotate(0.000000,199.700000,100.000000)" style="stroke: black; stroke-width:0.25;"/>
<rect x="120.200000" y="121.000000" width="24.000000" height="24.000000" rx="0" ry="0" style="stroke:none;fill:#cccccc;"/>
<rect x="119.200000" y="120.000000" width="24.000000" height="24.000000" rx="0" ry="0" style="stroke:none;fill:#47945E;"/>
<text x="131.200000" y="134.000000" font-family="Arial" font-size="7" text-anchor="middle" fill="#FFFFFF">d0</text>
<circle cx="121.200000" cy="122.000000" r="1"/>
<rect x="255.400000" y="105.000000" width="24.000000" height="24.000000" rx="0" ry="0" style="stroke:none;fill:#cccccc;"/>
<rect x="254.400000" y="104.000000" width="24.000000" height="24.000000" rx="0" ry="0" style="stroke:none;fill:#4B71A1;"/>
<text x="266.400000" y="118.000000" font-family="Arial" font-size="7" text-anchor="middle" fill="#FFFFFF">!=</text>
<circle cx="256.400000" cy="106.000000" r="1"/>
<line x1="251.400000" y1="111.000000" x2="254.400000" y2="112.000000"  transform="rotate(0.000000,254.400000,112.000000)" style="stroke: black; stroke-width:0.25;"/>
<line x1="251.400000" y1="113.000000" x2="254.400000" y2="112.000000"  transform="rotate(0.000000,254.400000,112.000000)" style="stroke: black; stroke-width:0.25;"/>
<line x1="251.400000" y1="119.000000" x2="254.400000" y2="120.000000"  transform="rotate(0.000000,254.400000,120.000000)" style="stroke: black; stroke-width:0.25;"/>
<line x1="251.400000" y1="121.000000" x2="254.400000" y2="120.000000"  transform="rotate(0.000000,254.400000,120.000000)" style="stroke: black; stroke-width:0.25;"/>
<rect x="295.400000" y="73.000000" width="24.000000" height="24.000000" rx="0" ry="0" style="stroke:none;fill:#cccccc;"/>
<rect x="294.400000" y="72.000000" width="24.000000" height="24.000000" rx="0" ry="0" style="stroke:none;fill:#4B71A1;"/>
<text x="306.400000" y="86.000000" font-family="Arial" font-size="7" text-anchor="middle" fill="#FFFFFF">&amp;</text>
<circle cx="296.400000" cy="74.000000" r="1"/>
<line x1="291.400000" y1="79.000000" x2="294.400000" y2="80.000000"  transform="rotate(0.000000,294.400000,80.000000)" style="stroke: black; stroke-width:0.25;"/>
<line x1="291.400000" y1="81.000000" x2="294.400000" y2="80.000000"  transform="rotate(0.000000,294.400000,80.000000)" style="stroke: black; stroke-width:0.25;"/>
<line x1="291.400000" y1="87.000000" x2="294.400000" y2="88.000000"  transform="rotate(0.000000,294.400000,88.000000)" style="stroke: black; stroke-width:0.25;"/>
<line x1="291.400000" y1="89.000000" x2="294.400000" y2="88.000000"  transform="rotate(0.000000,294.400000,88.000000)" style="stroke: black; stroke-width:0.25;"/>
<a xlink:href="if-0x7feef898be70.svg">
<rect x="101.250000" y="153.000000" width="141.900000" height="24.000000" rx="0" ry="0" style="stroke:none;fill:#cccccc;"/>
<rect x="100.250000" y="152.000000" width="141.900000" height="24.000000" rx="0" ry="0" style="stroke:none;fill:#003366;"/>
</a>
<a xlink:href="if-0x7feef898be70.svg">
<text x="171.200000" y="166.000000" font-family="Arial" font-size="7" text-anchor="middle" fill="#FFFFFF">if((x84,1.0f ....0009765625f)(0)</text>
</a>
<circle cx="102.250000" cy="154.000000" r="1"/>
<rect x="146.400000" y="185.000000" width="51.600000" height="24.000000" rx="0" ry="0" style="stroke:none;fill:#cccccc;"/>
<rect x="145.400000" y="184.000000" width="51.600000" height="24.000000" rx="0" ry="0" style="stroke:none;fill:#f44800;"/>
<text x="171.200000" y="198.000000" font-family="Arial" font-size="7" text-anchor="middle" fill="#FFFFFF">0.000976562</text>
<circle cx="147.400000" cy="186.000000" r="1"/>
<rect x="343.400000" y="105.000000" width="38.700000" height="24.000000" rx="0" ry="0" style="stroke:none;fill:#cccccc;"/>
<rect x="342.400000" y="104.000000" width="38.700000" height="24.000000" rx="0" ry="0" style="stroke:none;fill:#4B71A1;"/>
<text x="361.750000" y="118.000000" font-family="Arial" font-size="7" text-anchor="middle" fill="#FFFFFF">select2</text>
<circle cx="344.400000" cy="106.000000" r="1"/>
<line x1="339.400000" y1="107.000000" x2="342.400000" y2="108.000000"  transform="rotate(0.000000,342.400000,108.000000)" style="stroke: black; stroke-width:0.25;"/>
<line x1="339.400000" y1="109.000000" x2="342.400000" y2="108.000000"  transform="rotate(0.000000,342.400000,108.000000)" style="stroke: black; stroke-width:0.25;"/>
<line x1="339.400000" y1="115.000000" x2="342.400000" y2="116.000000"  transform="rotate(0.000000,342.400000,116.000000)" style="stroke: black; stroke-width:0.25;"/>
<line x1="339.400000" y1="117.000000" x2="342.400000" y2="116.000000"  transform="rotate(0.000000,342.400000,116.000000)" style="stroke: black; stroke-width:0.25;"/>
<line x1="339.400000" y1="123.000000" x2="342.400000" y2="124.000000"  transform="rotate(0.000000,342.400000,124.000000)" style="stroke: black; stroke-width:0.25;"/>
<line x1="339.400000" y1="125.000000" x2="342.400000" y2="124.000000"  transform="rotate(0.000000,342.400000,124.000000)" style="stroke: black; stroke-width:0.25;"/>
<line x1="15.000000" y1="15.000000" x2="15.000000" y2="217.000000"  style="stroke: black; stroke-linecap:round; stroke-width:0.25; stroke-dasharray:3,3;"/>
<line x1="15.000000" y1="217.000000" x2="398.100000" y2="217.000000"  style="stroke: black; stroke-linecap:round; stroke-width:0.25; stroke-dasharray:3,3;"/>
<line x1="398.100000" y1="217.000000" x2="398.100000" y2="15.000000"  style="stroke: black; stroke-linecap:round; stroke-width:0.25; stroke-dasharray:3,3;"/>
<line x1="15.000000" y1="15.000000" x2="20.000000" y2="15.000000"  style="stroke: black; stroke-linecap:round; stroke-width:0.25; stroke-dasharray:3,3;"/>
<line x1="119.975000" y1="15.000000" x2="398.100000" y2="15.000000"  style="stroke: black; stroke-linecap:round; stroke-width:0.25; stroke-dasharray:3,3;"/>
<text x="20.000000" y="17.000000" font-family="Arial" font-size="7">if((x84,0.0f ...5f : select2)</text>
<line x1="400.100000" y1="115.000000" x2="403.100000" y2="116.000000"  transform="rotate(0.000000,403.100000,116.000000)" style="stroke: black; stroke-width:0.25;"/>
<line x1="400.100000" y1="117.000000" x2="403.100000" y2="116.000000"  transform="rotate(0.000000,403.100000,116.000000)" style="stroke: black; stroke-width:0.25;"/>
<line x1="143.200000" y1="36.000000" x2="147.200000" y2="36.000000"  style="stroke:black; stroke-linecap:round; stroke-width:0.25;"/>
<line x1="143.200000" y1="68.000000" x2="147.200000" y2="68.000000"  style="stroke:black; stroke-linecap:round; stroke-width:0.25;"/>
<line x1="143.200000" y1="132.000000" x2="147.200000" y2="132.000000"  style="stroke:black; stroke-linecap:round; stroke-width:0.25;"/>
<line x1="147.200000" y1="36.000000" x2="155.200000" y2="36.000000"  style="stroke:black; stroke-linecap:round; stroke-width:0.25;"/>
<line x1="147.200000" y1="56.000000" x2="155.200000" y2="56.000000"  style="stroke:black; stroke-linecap:round; stroke-width:0.25;"/>
<line x1="147.200000" y1="68.000000" x2="147.200000" y2="56.000000"  style="stroke:black; stroke-linecap:round; stroke-width:0.25;"/>
<line x1="147.200000" y1="68.000000" x2="147.200000" y2="68.000000"  style="stroke:black; stroke-linecap:round; stroke-width:0.25;"/>
<line x1="147.200000" y1="132.000000" x2="242.400000" y2="132.000000"  style="stroke:black; stroke-linecap:round; stroke-width:0.25;"/>
<line x1="155.200000" y1="36.000000" x2="155.200000" y2="48.000000"  style="stroke:black; stroke-linecap:round; stroke-width:0.25;"/>
<line x1="155.200000" y1="48.000000" x2="155.200000" y2="48.000000"  style="stroke:black; stroke-linecap:round; stroke-width:0.25;"/>
<line x1="155.200000" y1="48.000000" x2="159.200000" y2="48.000000"  style="stroke:black; stroke-linecap:round; stroke-width:0.25;"/>
<line x1="155.200000" y1="56.000000" x2="159.200000" y2="56.000000"  style="stroke:black; stroke-linecap:round; stroke-width:0.25;"/>
<line x1="183.200000" y1="52.000000" x2="187.200000" y2="52.000000"  style="stroke:black; stroke-linecap:round; stroke-width:0.25;"/>
<line x1="187.200000" y1="52.000000" x2="282.400000" y2="52.000000"  style="stroke:black; stroke-linecap:round; stroke-width:0.25;"/>
<line x1="191.700000" y1="100.000000" x2="195.700000" y2="100.000000"  style="stroke:black; stroke-linecap:round; stroke-width:0.25;"/>
<line x1="195.700000" y1="100.000000" x2="195.700000" y2="100.000000"  style="stroke:black; stroke-linecap:round; stroke-width:0.25;"/>
<line x1="195.700000" y1="100.000000" x2="199.700000" y2="100.000000"  style="stroke:black; stroke-linecap:round; stroke-width:0.25;"/>
<line x1="197.000000" y1="196.000000" x2="201.000000" y2="196.000000"  style="stroke:black; stroke-linecap:round; stroke-width:0.25;"/>
<line x1="201.000000" y1="196.000000" x2="246.150000" y2="196.000000"  style="stroke:black; stroke-linecap:round; stroke-width:0.25;"/>
<line x1="238.400000" y1="100.000000" x2="242.400000" y2="100.000000"  style="stroke:black; stroke-linecap:round; stroke-width:0.25;"/>
<line x1="242.150000" y1="164.000000" x2="246.150000" y2="164.000000"  style="stroke:black; stroke-linecap:round; stroke-width:0.25;"/>
<line x1="242.400000" y1="100.000000" x2="250.400000" y2="100.000000"  style="stroke:black; stroke-linecap:round; stroke-width:0.25;"/>
<line x1="242.400000" y1="120.000000" x2="250.400000" y2="120.000000"  style="stroke:black; stroke-linecap:round; stroke-width:0.25;"/>
<line x1="242.400000" y1="132.000000" x2="242.400000" y2="120.000000"  style="stroke:black; stroke-linecap:round; stroke-width:0.25;"/>
<line x1="242.400000" y1="132.000000" x2="242.400000" y2="132.000000"  style="stroke:black; stroke-linecap:round; stroke-width:0.25;"/>
<line x1="246.150000" y1="164.000000" x2="322.400000" y2="164.000000"  style="stroke:black; stroke-linecap:round; stroke-width:0.25;"/>
<line x1="246.150000" y1="196.000000" x2="322.400000" y2="196.000000"  style="stroke:black; stroke-linecap:round; stroke-width:0.25;"/>
<line x1="250.400000" y1="100.000000" x2="250.400000" y2="112.000000"  style="stroke:black; stroke-linecap:round; stroke-width:0.25;"/>
<line x1="250.400000" y1="112.000000" x2="250.400000" y2="112.000000"  style="stroke:black; stroke-linecap:round; stroke-width:0.25;"/>
<line x1="250.400000" y1="112.000000" x2="254.400000" y2="112.000000"  style="stroke:black; stroke-linecap:round; stroke-width:0.25;"/>
<line x1="250.400000" y1="120.000000" x2="254.400000" y2="120.000000"  style="stroke:black; stroke-linecap:round; stroke-width:0.25;"/>
<line x1="278.400000" y1="116.000000" x2="282.400000" y2="116.000000"  style="stroke:black; stroke-linecap:round; stroke-width:0.25;"/>
<line x1="282.400000" y1="52.000000" x2="290.400000" y2="52.000000"  style="stroke:black; stroke-linecap:round; stroke-width:0.25;"/>
<line x1="282.400000" y1="88.000000" x2="290.400000" y2="88.000000"  style="stroke:black; stroke-linecap:round; stroke-width:0.25;"/>
<line x1="282.400000" y1="116.000000" x2="282.400000" y2="88.000000"  style="stroke:black; stroke-linecap:round; stroke-width:0.25;"/>
<line x1="282.400000" y1="116.000000" x2="282.400000" y2="116.000000"  style="stroke:black; stroke-linecap:round; stroke-width:0.25;"/>
<line x1="290.400000" y1="52.000000" x2="290.400000" y2="80.000000"  style="stroke:black; stroke-linecap:round; stroke-width:0.25;"/>
<line x1="290.400000" y1="80.000000" x2="290.400000" y2="80.000000"  style="stroke:black; stroke-linecap:round; stroke-width:0.25;"/>
<line x1="290.400000" y1="80.000000" x2="294.400000" y2="80.000000"  style="stroke:black; stroke-linecap:round; stroke-width:0.25;"/>
<line x1="290.400000" y1="88.000000" x2="294.400000" y2="88.000000"  style="stroke:black; stroke-linecap:round; stroke-width:0.25;"/>
<line x1="318.400000" y1="84.000000" x2="322.400000" y2="84.000000"  style="stroke:black; stroke-linecap:round; stroke-width:0.25;"/>
<line x1="322.400000" y1="84.000000" x2="338.400000" y2="84.000000"  style="stroke:black; stroke-linecap:round; stroke-width:0.25;"/>
<line x1="322.400000" y1="116.000000" x2="338.400000" y2="116.000000"  style="stroke:black; stroke-linecap:round; stroke-width:0.25;"/>
<line x1="322.400000" y1="164.000000" x2="322.400000" y2="116.000000"  style="stroke:black; stroke-linecap:round; stroke-width:0.25;"/>
<line x1="322.400000" y1="164.000000" x2="322.400000" y2="164.000000"  style="stroke:black; stroke-linecap:round; stroke-width:0.25;"/>
<line x1="322.400000" y1="196.000000" x2="330.400000" y2="196.000000"  style="stroke:black; stroke-linecap:round; stroke-width:0.25;"/>
<line x1="330.400000" y1="124.000000" x2="338.400000" y2="124.000000"  style="stroke:black; stroke-linecap:round; stroke-width:0.25;"/>
<line x1="330.400000" y1="196.000000" x2="330.400000" y2="124.000000"  style="stroke:black; stroke-linecap:round; stroke-width:0.25;"/>
<line x1="338.400000" y1="84.000000" x2="338.400000" y2="108.000000"  style="stroke:black; stroke-linecap:round; stroke-width:0.25;"/>
<line x1="338.400000" y1="108.000000" x2="338.400000" y2="108.000000"  style="stroke:black; stroke-linecap:round; stroke-width:0.25;"/>
<line x1="338.400000" y1="108.000000" x2="342.400000" y2="108.000000"  style="stroke:black; stroke-linecap:round; stroke-width:0.25;"/>
<line x1="338.400000" y1="116.000000" x2="342.400000" y2="116.000000"  style="stroke:black; stroke-linecap:round; stroke-width:0.25;"/>
<line x1="338.400000" y1="124.000000" x2="342.400000" y2="124.000000"  style="stroke:black; stroke-linecap:round; stroke-width:0.25;"/>
<line x1="381.100000" y1="116.000000" x2="385.100000" y2="116.000000"  style="stroke:black; stroke-linecap:round; stroke-width:0.25;"/>
<line x1="385.100000" y1="116.000000" x2="385.100000" y2="116.000000"  style="stroke:black; stroke-linecap:round; stroke-width:0.25;"/>
<line x1="385.100000" y1="116.000000" x2="389.100000" y2="116.000000"  style="stroke:black; stroke-linecap:round; stroke-width:0.25;"/>
<line x1="389.100000" y1="116.000000" x2="393.100000" y2="116.000000"  style="stroke:black; stroke-linecap:round; stroke-width:0.25;"/>
<line x1="393.100000" y1="116.000000" x2="403.100000" y2="116.000000"  style="stroke:black; stroke-linecap:round; stroke-width:0.25;"/>
</svg>
