<?xml version="1.0"?>
<svg xmlns="http://www.w3.org/2000/svg" xmlns:xlink="http://www.w3.org/1999/xlink" viewBox="0 0 621.800000 72.000000" width="310.900000mm" height="36.000000mm" version="1.1">
<a xlink:href="third-0x7fe2e5849680.svg">
<rect x="1.000000" y="1.000000" width="620.800000" height="71.000000" rx="0" ry="0" style="stroke:none;fill:#cccccc;"/>
<rect x="0.000000" y="0.000000" width="620.800000" height="71.000000" rx="0" ry="0" style="stroke:none;fill:#ffffff;"/>
</a>
<text x="10.000000" y="7.000000" font-family="Arial" font-size="7"></text>
<a xlink:href="tf2s-0x7fe2e5820e60.svg">
<rect x="33.000000" y="25.000000" width="180.600000" height="24.000000" rx="0" ry="0" style="stroke:none;fill:#cccccc;"/>
<rect x="32.000000" y="24.000000" width="180.600000" height="24.000000" rx="0" ry="0" style="stroke:none;fill:#003366;"/>
</a>
<a xlink:href="tf2s-0x7fe2e5820e60.svg">
<text x="122.300000" y="38.000000" font-family="Arial" font-size="7" text-anchor="middle" fill="#FFFFFF">tf2s(0.0001f)...)(0.2452915f)(62831.85f)</text>
</a>
<circle cx="34.000000" cy="26.000000" r="1"/>
<line x1="29.000000" y1="35.000000" x2="32.000000" y2="36.000000"  transform="rotate(0.000000,32.000000,36.000000)" style="stroke: black; stroke-width:0.25;"/>
<line x1="29.000000" y1="37.000000" x2="32.000000" y2="36.000000"  transform="rotate(0.000000,32.000000,36.000000)" style="stroke: black; stroke-width:0.25;"/>
<a xlink:href="tf2s-0x7fe2e58213a0.svg">
<rect x="221.600000" y="25.000000" width="180.600000" height="24.000000" rx="0" ry="0" style="stroke:none;fill:#cccccc;"/>
<rect x="220.600000" y="24.000000" width="180.600000" height="24.000000" rx="0" ry="0" style="stroke:none;fill:#003366;"/>
</a>
<a xlink:href="tf2s-0x7fe2e58213a0.svg">
<text x="310.900000" y="38.000000" font-family="Arial" font-size="7" text-anchor="middle" fill="#FFFFFF">tf2s(1)(0)(7....)(0.6896214f)(62831.85f)</text>
</a>
<circle cx="222.600000" cy="26.000000" r="1"/>
<line x1="217.600000" y1="35.000000" x2="220.600000" y2="36.000000"  transform="rotate(0.000000,220.600000,36.000000)" style="stroke: black; stroke-width:0.25;"/>
<line x1="217.600000" y1="37.000000" x2="220.600000" y2="36.000000"  transform="rotate(0.000000,220.600000,36.000000)" style="stroke: black; stroke-width:0.25;"/>
<a xlink:href="tf2s-0x7fe2e58218d0.svg">
<rect x="410.200000" y="25.000000" width="180.600000" height="24.000000" rx="0" ry="0" style="stroke:none;fill:#cccccc;"/>
<rect x="409.200000" y="24.000000" width="180.600000" height="24.000000" rx="0" ry="0" style="stroke:none;fill:#003366;"/>
</a>
<a xlink:href="tf2s-0x7fe2e58218d0.svg">
<text x="499.500000" y="38.000000" font-family="Arial" font-size="7" text-anchor="middle" fill="#FFFFFF">tf2s(1)(0)(53...)(1.0693583f)(62831.85f)</text>
</a>
<circle cx="411.200000" cy="26.000000" r="1"/>
<line x1="406.200000" y1="35.000000" x2="409.200000" y2="36.000000"  transform="rotate(0.000000,409.200000,36.000000)" style="stroke: black; stroke-width:0.25;"/>
<line x1="406.200000" y1="37.000000" x2="409.200000" y2="36.000000"  transform="rotate(0.000000,409.200000,36.000000)" style="stroke: black; stroke-width:0.25;"/>
<line x1="15.000000" y1="15.000000" x2="15.000000" y2="57.000000"  style="stroke: black; stroke-linecap:round; stroke-width:0.25; stroke-dasharray:3,3;"/>
<line x1="15.000000" y1="57.000000" x2="606.800000" y2="57.000000"  style="stroke: black; stroke-linecap:round; stroke-width:0.25; stroke-dasharray:3,3;"/>
<line x1="606.800000" y1="57.000000" x2="606.800000" y2="15.000000"  style="stroke: black; stroke-linecap:round; stroke-width:0.25; stroke-dasharray:3,3;"/>
<line x1="15.000000" y1="15.000000" x2="20.000000" y2="15.000000"  style="stroke: black; stroke-linecap:round; stroke-width:0.25; stroke-dasharray:3,3;"/>
<line x1="45.800000" y1="15.000000" x2="606.800000" y2="15.000000"  style="stroke: black; stroke-linecap:round; stroke-width:0.25; stroke-dasharray:3,3;"/>
<text x="20.000000" y="17.000000" font-family="Arial" font-size="7">lp(19)</text>
<line x1="608.800000" y1="35.000000" x2="611.800000" y2="36.000000"  transform="rotate(0.000000,611.800000,36.000000)" style="stroke: black; stroke-width:0.25;"/>
<line x1="608.800000" y1="37.000000" x2="611.800000" y2="36.000000"  transform="rotate(0.000000,611.800000,36.000000)" style="stroke: black; stroke-width:0.25;"/>
<line x1="10.000000" y1="36.000000" x2="20.000000" y2="36.000000"  style="stroke:black; stroke-linecap:round; stroke-width:0.25;"/>
<line x1="20.000000" y1="36.000000" x2="24.000000" y2="36.000000"  style="stroke:black; stroke-linecap:round; stroke-width:0.25;"/>
<line x1="24.000000" y1="36.000000" x2="28.000000" y2="36.000000"  style="stroke:black; stroke-linecap:round; stroke-width:0.25;"/>
<line x1="28.000000" y1="36.000000" x2="28.000000" y2="36.000000"  style="stroke:black; stroke-linecap:round; stroke-width:0.25;"/>
<line x1="28.000000" y1="36.000000" x2="32.000000" y2="36.000000"  style="stroke:black; stroke-linecap:round; stroke-width:0.25;"/>
<line x1="212.600000" y1="36.000000" x2="216.600000" y2="36.000000"  style="stroke:black; stroke-linecap:round; stroke-width:0.25;"/>
<line x1="216.600000" y1="36.000000" x2="216.600000" y2="36.000000"  style="stroke:black; stroke-linecap:round; stroke-width:0.25;"/>
<line x1="216.600000" y1="36.000000" x2="220.600000" y2="36.000000"  style="stroke:black; stroke-linecap:round; stroke-width:0.25;"/>
<line x1="401.200000" y1="36.000000" x2="405.200000" y2="36.000000"  style="stroke:black; stroke-linecap:round; stroke-width:0.25;"/>
<line x1="405.200000" y1="36.000000" x2="405.200000" y2="36.000000"  style="stroke:black; stroke-linecap:round; stroke-width:0.25;"/>
<line x1="405.200000" y1="36.000000" x2="409.200000" y2="36.000000"  style="stroke:black; stroke-linecap:round; stroke-width:0.25;"/>
<line x1="589.800000" y1="36.000000" x2="593.800000" y2="36.000000"  style="stroke:black; stroke-linecap:round; stroke-width:0.25;"/>
<line x1="593.800000" y1="36.000000" x2="593.800000" y2="36.000000"  style="stroke:black; stroke-linecap:round; stroke-width:0.25;"/>
<line x1="593.800000" y1="36.000000" x2="597.800000" y2="36.000000"  style="stroke:black; stroke-linecap:round; stroke-width:0.25;"/>
<line x1="597.800000" y1="36.000000" x2="601.800000" y2="36.000000"  style="stroke:black; stroke-linecap:round; stroke-width:0.25;"/>
<line x1="601.800000" y1="36.000000" x2="611.800000" y2="36.000000"  style="stroke:black; stroke-linecap:round; stroke-width:0.25;"/>
</svg>
