<?xml version="1.0"?>
<svg xmlns="http://www.w3.org/2000/svg" xmlns:xlink="http://www.w3.org/1999/xlink" viewBox="0 0 537.100000 432.000000" width="268.550000mm" height="216.000000mm" version="1.1">
<a xlink:href="compression-0x7f92f2dadb60.svg">
<rect x="1.000000" y="1.000000" width="536.100000" height="431.000000" rx="0" ry="0" style="stroke:none;fill:#cccccc;"/>
<rect x="0.000000" y="0.000000" width="536.100000" height="431.000000" rx="0" ry="0" style="stroke:none;fill:#ffffff;"/>
</a>
<text x="10.000000" y="7.000000" font-family="Arial" font-size="7"></text>
<rect x="33.000000" y="205.000000" width="25.800000" height="24.000000" rx="0" ry="0" style="stroke:none;fill:#cccccc;"/>
<rect x="32.000000" y="204.000000" width="25.800000" height="24.000000" rx="0" ry="0" style="stroke:none;fill:#47945E;"/>
<text x="44.900000" y="218.000000" font-family="Arial" font-size="7" text-anchor="middle" fill="#FFFFFF">level</text>
<circle cx="34.000000" cy="206.000000" r="1"/>
<line x1="29.000000" y1="215.000000" x2="32.000000" y2="216.000000"  transform="rotate(0.000000,32.000000,216.000000)" style="stroke: black; stroke-width:0.25;"/>
<line x1="29.000000" y1="217.000000" x2="32.000000" y2="216.000000"  transform="rotate(0.000000,32.000000,216.000000)" style="stroke: black; stroke-width:0.25;"/>
<rect x="213.550000" y="25.000000" width="25.800000" height="24.000000" rx="0" ry="0" style="stroke:none;fill:#cccccc;"/>
<rect x="212.550000" y="24.000000" width="25.800000" height="24.000000" rx="0" ry="0" style="stroke:none;fill:#47945E;"/>
<text x="225.450000" y="38.000000" font-family="Arial" font-size="7" text-anchor="middle" fill="#FFFFFF">level</text>
<circle cx="214.550000" cy="26.000000" r="1"/>
<rect x="116.800000" y="107.000000" width="219.300000" height="24.000000" rx="0" ry="0" style="stroke:none;fill:#cccccc;"/>
<rect x="115.800000" y="106.000000" width="219.300000" height="24.000000" rx="0" ry="0" style="stroke:none;fill:#477881;"/>
<text x="225.450000" y="120.000000" font-family="Arial" font-size="7" text-anchor="middle" fill="#FFFFFF">hslider(Threshold, -3e+01f, -1e+02f, 1e+01f, 0.1f)</text>
<circle cx="117.800000" cy="108.000000" r="1"/>
<line x1="106.800000" y1="97.000000" x2="106.800000" y2="139.000000"  style="stroke: black; stroke-linecap:round; stroke-width:0.25; stroke-dasharray:3,3;"/>
<line x1="106.800000" y1="139.000000" x2="344.100000" y2="139.000000"  style="stroke: black; stroke-linecap:round; stroke-width:0.25; stroke-dasharray:3,3;"/>
<line x1="344.100000" y1="139.000000" x2="344.100000" y2="97.000000"  style="stroke: black; stroke-linecap:round; stroke-width:0.25; stroke-dasharray:3,3;"/>
<line x1="106.800000" y1="97.000000" x2="111.800000" y2="97.000000"  style="stroke: black; stroke-linecap:round; stroke-width:0.25; stroke-dasharray:3,3;"/>
<line x1="205.325000" y1="97.000000" x2="344.100000" y2="97.000000"  style="stroke: black; stroke-linecap:round; stroke-width:0.25; stroke-dasharray:3,3;"/>
<text x="111.800000" y="99.000000" font-family="Arial" font-size="7">hgroup(Compression Control)</text>
<line x1="96.800000" y1="87.000000" x2="96.800000" y2="149.000000"  style="stroke: black; stroke-linecap:round; stroke-width:0.25; stroke-dasharray:3,3;"/>
<line x1="96.800000" y1="149.000000" x2="354.100000" y2="149.000000"  style="stroke: black; stroke-linecap:round; stroke-width:0.25; stroke-dasharray:3,3;"/>
<line x1="354.100000" y1="149.000000" x2="354.100000" y2="87.000000"  style="stroke: black; stroke-linecap:round; stroke-width:0.25; stroke-dasharray:3,3;"/>
<line x1="96.800000" y1="87.000000" x2="101.800000" y2="87.000000"  style="stroke: black; stroke-linecap:round; stroke-width:0.25; stroke-dasharray:3,3;"/>
<line x1="134.050000" y1="87.000000" x2="354.100000" y2="87.000000"  style="stroke: black; stroke-linecap:round; stroke-width:0.25; stroke-dasharray:3,3;"/>
<text x="101.800000" y="89.000000" font-family="Arial" font-size="7">hgroup()</text>
<line x1="86.800000" y1="77.000000" x2="86.800000" y2="159.000000"  style="stroke: black; stroke-linecap:round; stroke-width:0.25; stroke-dasharray:3,3;"/>
<line x1="86.800000" y1="159.000000" x2="364.100000" y2="159.000000"  style="stroke: black; stroke-linecap:round; stroke-width:0.25; stroke-dasharray:3,3;"/>
<line x1="364.100000" y1="159.000000" x2="364.100000" y2="77.000000"  style="stroke: black; stroke-linecap:round; stroke-width:0.25; stroke-dasharray:3,3;"/>
<line x1="86.800000" y1="77.000000" x2="91.800000" y2="77.000000"  style="stroke: black; stroke-linecap:round; stroke-width:0.25; stroke-dasharray:3,3;"/>
<line x1="156.300000" y1="77.000000" x2="364.100000" y2="77.000000"  style="stroke: black; stroke-linecap:round; stroke-width:0.25; stroke-dasharray:3,3;"/>
<text x="91.800000" y="79.000000" font-family="Arial" font-size="7">vgroup(COMPRESSOR)</text>
<line x1="76.800000" y1="67.000000" x2="76.800000" y2="169.000000"  style="stroke: black; stroke-linecap:round; stroke-width:0.25; stroke-dasharray:3,3;"/>
<line x1="76.800000" y1="169.000000" x2="374.100000" y2="169.000000"  style="stroke: black; stroke-linecap:round; stroke-width:0.25; stroke-dasharray:3,3;"/>
<line x1="374.100000" y1="169.000000" x2="374.100000" y2="67.000000"  style="stroke: black; stroke-linecap:round; stroke-width:0.25; stroke-dasharray:3,3;"/>
<line x1="76.800000" y1="67.000000" x2="81.800000" y2="67.000000"  style="stroke: black; stroke-linecap:round; stroke-width:0.25; stroke-dasharray:3,3;"/>
<line x1="178.550000" y1="67.000000" x2="374.100000" y2="67.000000"  style="stroke: black; stroke-linecap:round; stroke-width:0.25; stroke-dasharray:3,3;"/>
<text x="81.800000" y="69.000000" font-family="Arial" font-size="7">vgroup(---- BASS FLUTE ----)</text>
<line x1="66.800000" y1="57.000000" x2="66.800000" y2="179.000000"  style="stroke: black; stroke-linecap:round; stroke-width:0.25; stroke-dasharray:3,3;"/>
<line x1="66.800000" y1="179.000000" x2="384.100000" y2="179.000000"  style="stroke: black; stroke-linecap:round; stroke-width:0.25; stroke-dasharray:3,3;"/>
<line x1="384.100000" y1="179.000000" x2="384.100000" y2="57.000000"  style="stroke: black; stroke-linecap:round; stroke-width:0.25; stroke-dasharray:3,3;"/>
<line x1="66.800000" y1="57.000000" x2="71.800000" y2="57.000000"  style="stroke: black; stroke-linecap:round; stroke-width:0.25; stroke-dasharray:3,3;"/>
<line x1="107.275000" y1="57.000000" x2="384.100000" y2="57.000000"  style="stroke: black; stroke-linecap:round; stroke-width:0.25; stroke-dasharray:3,3;"/>
<text x="71.800000" y="59.000000" font-family="Arial" font-size="7">threshold</text>
<rect x="402.100000" y="91.000000" width="24.000000" height="24.000000" rx="0" ry="0" style="stroke:none;fill:#cccccc;"/>
<rect x="401.100000" y="90.000000" width="24.000000" height="24.000000" rx="0" ry="0" style="stroke:none;fill:#4B71A1;"/>
<text x="413.100000" y="104.000000" font-family="Arial" font-size="7" text-anchor="middle" fill="#FFFFFF">-</text>
<circle cx="403.100000" cy="92.000000" r="1"/>
<line x1="398.100000" y1="97.000000" x2="401.100000" y2="98.000000"  transform="rotate(0.000000,401.100000,98.000000)" style="stroke: black; stroke-width:0.25;"/>
<line x1="398.100000" y1="99.000000" x2="401.100000" y2="98.000000"  transform="rotate(0.000000,401.100000,98.000000)" style="stroke: black; stroke-width:0.25;"/>
<line x1="398.100000" y1="105.000000" x2="401.100000" y2="106.000000"  transform="rotate(0.000000,401.100000,106.000000)" style="stroke: black; stroke-width:0.25;"/>
<line x1="398.100000" y1="107.000000" x2="401.100000" y2="106.000000"  transform="rotate(0.000000,401.100000,106.000000)" style="stroke: black; stroke-width:0.25;"/>
<rect x="234.450000" y="189.000000" width="24.000000" height="24.000000" rx="0" ry="0" style="stroke:none;fill:#cccccc;"/>
<rect x="233.450000" y="188.000000" width="24.000000" height="24.000000" rx="0" ry="0" style="stroke:none;fill:#f44800;"/>
<text x="245.450000" y="202.000000" font-family="Arial" font-size="7" text-anchor="middle" fill="#FFFFFF">0</text>
<circle cx="235.450000" cy="190.000000" r="1"/>
<rect x="442.100000" y="107.000000" width="24.000000" height="24.000000" rx="0" ry="0" style="stroke:none;fill:#cccccc;"/>
<rect x="441.100000" y="106.000000" width="24.000000" height="24.000000" rx="0" ry="0" style="stroke:none;fill:#4B71A1;"/>
<text x="453.100000" y="120.000000" font-family="Arial" font-size="7" text-anchor="middle" fill="#FFFFFF">max</text>
<circle cx="443.100000" cy="108.000000" r="1"/>
<line x1="438.100000" y1="113.000000" x2="441.100000" y2="114.000000"  transform="rotate(0.000000,441.100000,114.000000)" style="stroke: black; stroke-width:0.25;"/>
<line x1="438.100000" y1="115.000000" x2="441.100000" y2="114.000000"  transform="rotate(0.000000,441.100000,114.000000)" style="stroke: black; stroke-width:0.25;"/>
<line x1="438.100000" y1="121.000000" x2="441.100000" y2="122.000000"  transform="rotate(0.000000,441.100000,122.000000)" style="stroke: black; stroke-width:0.25;"/>
<line x1="438.100000" y1="123.000000" x2="441.100000" y2="122.000000"  transform="rotate(0.000000,441.100000,122.000000)" style="stroke: black; stroke-width:0.25;"/>
<rect x="214.450000" y="221.000000" width="24.000000" height="24.000000" rx="0" ry="0" style="stroke:none;fill:#cccccc;"/>
<rect x="213.450000" y="220.000000" width="24.000000" height="24.000000" rx="0" ry="0" style="stroke:none;fill:#f44800;"/>
<text x="225.450000" y="234.000000" font-family="Arial" font-size="7" text-anchor="middle" fill="#FFFFFF">1</text>
<circle cx="215.450000" cy="222.000000" r="1"/>
<rect x="119.250000" y="303.000000" width="180.600000" height="24.000000" rx="0" ry="0" style="stroke:none;fill:#cccccc;"/>
<rect x="118.250000" y="302.000000" width="180.600000" height="24.000000" rx="0" ry="0" style="stroke:none;fill:#477881;"/>
<text x="208.550000" y="316.000000" font-family="Arial" font-size="7" text-anchor="middle" fill="#FFFFFF">hslider(Ratio, 5.0f, 1.0f, 2e+01f, 0.1f)</text>
<circle cx="120.250000" cy="304.000000" r="1"/>
<line x1="109.250000" y1="293.000000" x2="109.250000" y2="335.000000"  style="stroke: black; stroke-linecap:round; stroke-width:0.25; stroke-dasharray:3,3;"/>
<line x1="109.250000" y1="335.000000" x2="307.850000" y2="335.000000"  style="stroke: black; stroke-linecap:round; stroke-width:0.25; stroke-dasharray:3,3;"/>
<line x1="307.850000" y1="335.000000" x2="307.850000" y2="293.000000"  style="stroke: black; stroke-linecap:round; stroke-width:0.25; stroke-dasharray:3,3;"/>
<line x1="109.250000" y1="293.000000" x2="114.250000" y2="293.000000"  style="stroke: black; stroke-linecap:round; stroke-width:0.25; stroke-dasharray:3,3;"/>
<line x1="207.775000" y1="293.000000" x2="307.850000" y2="293.000000"  style="stroke: black; stroke-linecap:round; stroke-width:0.25; stroke-dasharray:3,3;"/>
<text x="114.250000" y="295.000000" font-family="Arial" font-size="7">hgroup(Compression Control)</text>
<line x1="99.250000" y1="283.000000" x2="99.250000" y2="345.000000"  style="stroke: black; stroke-linecap:round; stroke-width:0.25; stroke-dasharray:3,3;"/>
<line x1="99.250000" y1="345.000000" x2="317.850000" y2="345.000000"  style="stroke: black; stroke-linecap:round; stroke-width:0.25; stroke-dasharray:3,3;"/>
<line x1="317.850000" y1="345.000000" x2="317.850000" y2="283.000000"  style="stroke: black; stroke-linecap:round; stroke-width:0.25; stroke-dasharray:3,3;"/>
<line x1="99.250000" y1="283.000000" x2="104.250000" y2="283.000000"  style="stroke: black; stroke-linecap:round; stroke-width:0.25; stroke-dasharray:3,3;"/>
<line x1="136.500000" y1="283.000000" x2="317.850000" y2="283.000000"  style="stroke: black; stroke-linecap:round; stroke-width:0.25; stroke-dasharray:3,3;"/>
<text x="104.250000" y="285.000000" font-family="Arial" font-size="7">hgroup()</text>
<line x1="89.250000" y1="273.000000" x2="89.250000" y2="355.000000"  style="stroke: black; stroke-linecap:round; stroke-width:0.25; stroke-dasharray:3,3;"/>
<line x1="89.250000" y1="355.000000" x2="327.850000" y2="355.000000"  style="stroke: black; stroke-linecap:round; stroke-width:0.25; stroke-dasharray:3,3;"/>
<line x1="327.850000" y1="355.000000" x2="327.850000" y2="273.000000"  style="stroke: black; stroke-linecap:round; stroke-width:0.25; stroke-dasharray:3,3;"/>
<line x1="89.250000" y1="273.000000" x2="94.250000" y2="273.000000"  style="stroke: black; stroke-linecap:round; stroke-width:0.25; stroke-dasharray:3,3;"/>
<line x1="158.750000" y1="273.000000" x2="327.850000" y2="273.000000"  style="stroke: black; stroke-linecap:round; stroke-width:0.25; stroke-dasharray:3,3;"/>
<text x="94.250000" y="275.000000" font-family="Arial" font-size="7">vgroup(COMPRESSOR)</text>
<line x1="79.250000" y1="263.000000" x2="79.250000" y2="365.000000"  style="stroke: black; stroke-linecap:round; stroke-width:0.25; stroke-dasharray:3,3;"/>
<line x1="79.250000" y1="365.000000" x2="337.850000" y2="365.000000"  style="stroke: black; stroke-linecap:round; stroke-width:0.25; stroke-dasharray:3,3;"/>
<line x1="337.850000" y1="365.000000" x2="337.850000" y2="263.000000"  style="stroke: black; stroke-linecap:round; stroke-width:0.25; stroke-dasharray:3,3;"/>
<line x1="79.250000" y1="263.000000" x2="84.250000" y2="263.000000"  style="stroke: black; stroke-linecap:round; stroke-width:0.25; stroke-dasharray:3,3;"/>
<line x1="181.000000" y1="263.000000" x2="337.850000" y2="263.000000"  style="stroke: black; stroke-linecap:round; stroke-width:0.25; stroke-dasharray:3,3;"/>
<text x="84.250000" y="265.000000" font-family="Arial" font-size="7">vgroup(---- BASS FLUTE ----)</text>
<line x1="69.250000" y1="253.000000" x2="69.250000" y2="375.000000"  style="stroke: black; stroke-linecap:round; stroke-width:0.25; stroke-dasharray:3,3;"/>
<line x1="69.250000" y1="375.000000" x2="347.850000" y2="375.000000"  style="stroke: black; stroke-linecap:round; stroke-width:0.25; stroke-dasharray:3,3;"/>
<line x1="347.850000" y1="375.000000" x2="347.850000" y2="253.000000"  style="stroke: black; stroke-linecap:round; stroke-width:0.25; stroke-dasharray:3,3;"/>
<line x1="69.250000" y1="253.000000" x2="74.250000" y2="253.000000"  style="stroke: black; stroke-linecap:round; stroke-width:0.25; stroke-dasharray:3,3;"/>
<line x1="96.825000" y1="253.000000" x2="347.850000" y2="253.000000"  style="stroke: black; stroke-linecap:round; stroke-width:0.25; stroke-dasharray:3,3;"/>
<text x="74.250000" y="255.000000" font-family="Arial" font-size="7">ratio</text>
<rect x="357.850000" y="303.000000" width="25.800000" height="24.000000" rx="0" ry="0" style="stroke:none;fill:#cccccc;"/>
<rect x="356.850000" y="302.000000" width="25.800000" height="24.000000" rx="0" ry="0" style="stroke:none;fill:#4B71A1;"/>
<text x="369.750000" y="316.000000" font-family="Arial" font-size="7" text-anchor="middle" fill="#FFFFFF">float</text>
<circle cx="358.850000" cy="304.000000" r="1"/>
<line x1="353.850000" y1="313.000000" x2="356.850000" y2="314.000000"  transform="rotate(0.000000,356.850000,314.000000)" style="stroke: black; stroke-width:0.25;"/>
<line x1="353.850000" y1="315.000000" x2="356.850000" y2="314.000000"  transform="rotate(0.000000,356.850000,314.000000)" style="stroke: black; stroke-width:0.25;"/>
<rect x="399.650000" y="287.000000" width="24.000000" height="24.000000" rx="0" ry="0" style="stroke:none;fill:#cccccc;"/>
<rect x="398.650000" y="286.000000" width="24.000000" height="24.000000" rx="0" ry="0" style="stroke:none;fill:#4B71A1;"/>
<text x="410.650000" y="300.000000" font-family="Arial" font-size="7" text-anchor="middle" fill="#FFFFFF">/</text>
<circle cx="400.650000" cy="288.000000" r="1"/>
<line x1="395.650000" y1="293.000000" x2="398.650000" y2="294.000000"  transform="rotate(0.000000,398.650000,294.000000)" style="stroke: black; stroke-width:0.25;"/>
<line x1="395.650000" y1="295.000000" x2="398.650000" y2="294.000000"  transform="rotate(0.000000,398.650000,294.000000)" style="stroke: black; stroke-width:0.25;"/>
<line x1="395.650000" y1="301.000000" x2="398.650000" y2="302.000000"  transform="rotate(0.000000,398.650000,302.000000)" style="stroke: black; stroke-width:0.25;"/>
<line x1="395.650000" y1="303.000000" x2="398.650000" y2="302.000000"  transform="rotate(0.000000,398.650000,302.000000)" style="stroke: black; stroke-width:0.25;"/>
<rect x="234.450000" y="385.000000" width="24.000000" height="24.000000" rx="0" ry="0" style="stroke:none;fill:#cccccc;"/>
<rect x="233.450000" y="384.000000" width="24.000000" height="24.000000" rx="0" ry="0" style="stroke:none;fill:#f44800;"/>
<text x="245.450000" y="398.000000" font-family="Arial" font-size="7" text-anchor="middle" fill="#FFFFFF">1</text>
<circle cx="235.450000" cy="386.000000" r="1"/>
<rect x="439.650000" y="303.000000" width="24.000000" height="24.000000" rx="0" ry="0" style="stroke:none;fill:#cccccc;"/>
<rect x="438.650000" y="302.000000" width="24.000000" height="24.000000" rx="0" ry="0" style="stroke:none;fill:#4B71A1;"/>
<text x="450.650000" y="316.000000" font-family="Arial" font-size="7" text-anchor="middle" fill="#FFFFFF">-</text>
<circle cx="440.650000" cy="304.000000" r="1"/>
<line x1="435.650000" y1="309.000000" x2="438.650000" y2="310.000000"  transform="rotate(0.000000,438.650000,310.000000)" style="stroke: black; stroke-width:0.25;"/>
<line x1="435.650000" y1="311.000000" x2="438.650000" y2="310.000000"  transform="rotate(0.000000,438.650000,310.000000)" style="stroke: black; stroke-width:0.25;"/>
<line x1="435.650000" y1="317.000000" x2="438.650000" y2="318.000000"  transform="rotate(0.000000,438.650000,318.000000)" style="stroke: black; stroke-width:0.25;"/>
<line x1="435.650000" y1="319.000000" x2="438.650000" y2="318.000000"  transform="rotate(0.000000,438.650000,318.000000)" style="stroke: black; stroke-width:0.25;"/>
<rect x="482.100000" y="205.000000" width="24.000000" height="24.000000" rx="0" ry="0" style="stroke:none;fill:#cccccc;"/>
<rect x="481.100000" y="204.000000" width="24.000000" height="24.000000" rx="0" ry="0" style="stroke:none;fill:#4B71A1;"/>
<text x="493.100000" y="218.000000" font-family="Arial" font-size="7" text-anchor="middle" fill="#FFFFFF">*</text>
<circle cx="483.100000" cy="206.000000" r="1"/>
<line x1="478.100000" y1="211.000000" x2="481.100000" y2="212.000000"  transform="rotate(0.000000,481.100000,212.000000)" style="stroke: black; stroke-width:0.25;"/>
<line x1="478.100000" y1="213.000000" x2="481.100000" y2="212.000000"  transform="rotate(0.000000,481.100000,212.000000)" style="stroke: black; stroke-width:0.25;"/>
<line x1="478.100000" y1="219.000000" x2="481.100000" y2="220.000000"  transform="rotate(0.000000,481.100000,220.000000)" style="stroke: black; stroke-width:0.25;"/>
<line x1="478.100000" y1="221.000000" x2="481.100000" y2="220.000000"  transform="rotate(0.000000,481.100000,220.000000)" style="stroke: black; stroke-width:0.25;"/>
<line x1="15.000000" y1="15.000000" x2="15.000000" y2="417.000000"  style="stroke: black; stroke-linecap:round; stroke-width:0.25; stroke-dasharray:3,3;"/>
<line x1="15.000000" y1="417.000000" x2="522.100000" y2="417.000000"  style="stroke: black; stroke-linecap:round; stroke-width:0.25; stroke-dasharray:3,3;"/>
<line x1="522.100000" y1="417.000000" x2="522.100000" y2="15.000000"  style="stroke: black; stroke-linecap:round; stroke-width:0.25; stroke-dasharray:3,3;"/>
<line x1="15.000000" y1="15.000000" x2="20.000000" y2="15.000000"  style="stroke: black; stroke-linecap:round; stroke-width:0.25; stroke-dasharray:3,3;"/>
<line x1="119.975000" y1="15.000000" x2="522.100000" y2="15.000000"  style="stroke: black; stroke-linecap:round; stroke-width:0.25; stroke-dasharray:3,3;"/>
<text x="20.000000" y="17.000000" font-family="Arial" font-size="7">outminusindb(...f, 0.1f))))))</text>
<line x1="524.100000" y1="215.000000" x2="527.100000" y2="216.000000"  transform="rotate(0.000000,527.100000,216.000000)" style="stroke: black; stroke-width:0.25;"/>
<line x1="524.100000" y1="217.000000" x2="527.100000" y2="216.000000"  transform="rotate(0.000000,527.100000,216.000000)" style="stroke: black; stroke-width:0.25;"/>
<line x1="10.000000" y1="216.000000" x2="20.000000" y2="216.000000"  style="stroke:black; stroke-linecap:round; stroke-width:0.25;"/>
<line x1="20.000000" y1="216.000000" x2="24.000000" y2="216.000000"  style="stroke:black; stroke-linecap:round; stroke-width:0.25;"/>
<line x1="24.000000" y1="216.000000" x2="28.000000" y2="216.000000"  style="stroke:black; stroke-linecap:round; stroke-width:0.25;"/>
<line x1="28.000000" y1="216.000000" x2="28.000000" y2="216.000000"  style="stroke:black; stroke-linecap:round; stroke-width:0.25;"/>
<line x1="28.000000" y1="216.000000" x2="32.000000" y2="216.000000"  style="stroke:black; stroke-linecap:round; stroke-width:0.25;"/>
<line x1="237.450000" y1="232.000000" x2="241.450000" y2="232.000000"  style="stroke:black; stroke-linecap:round; stroke-width:0.25;"/>
<line x1="238.350000" y1="36.000000" x2="242.350000" y2="36.000000"  style="stroke:black; stroke-linecap:round; stroke-width:0.25;"/>
<line x1="241.450000" y1="232.000000" x2="386.650000" y2="232.000000"  style="stroke:black; stroke-linecap:round; stroke-width:0.25;"/>
<line x1="242.350000" y1="36.000000" x2="389.100000" y2="36.000000"  style="stroke:black; stroke-linecap:round; stroke-width:0.25;"/>
<line x1="257.450000" y1="200.000000" x2="261.450000" y2="200.000000"  style="stroke:black; stroke-linecap:round; stroke-width:0.25;"/>
<line x1="257.450000" y1="396.000000" x2="261.450000" y2="396.000000"  style="stroke:black; stroke-linecap:round; stroke-width:0.25;"/>
<line x1="261.450000" y1="200.000000" x2="429.100000" y2="200.000000"  style="stroke:black; stroke-linecap:round; stroke-width:0.25;"/>
<line x1="261.450000" y1="396.000000" x2="426.650000" y2="396.000000"  style="stroke:black; stroke-linecap:round; stroke-width:0.25;"/>
<line x1="298.850000" y1="314.000000" x2="302.850000" y2="314.000000"  style="stroke:black; stroke-linecap:round; stroke-width:0.25;"/>
<line x1="302.850000" y1="314.000000" x2="312.850000" y2="314.000000"  style="stroke:black; stroke-linecap:round; stroke-width:0.25;"/>
<line x1="312.850000" y1="314.000000" x2="322.850000" y2="314.000000"  style="stroke:black; stroke-linecap:round; stroke-width:0.25;"/>
<line x1="322.850000" y1="314.000000" x2="332.850000" y2="314.000000"  style="stroke:black; stroke-linecap:round; stroke-width:0.25;"/>
<line x1="332.850000" y1="314.000000" x2="342.850000" y2="314.000000"  style="stroke:black; stroke-linecap:round; stroke-width:0.25;"/>
<line x1="335.100000" y1="118.000000" x2="339.100000" y2="118.000000"  style="stroke:black; stroke-linecap:round; stroke-width:0.25;"/>
<line x1="339.100000" y1="118.000000" x2="349.100000" y2="118.000000"  style="stroke:black; stroke-linecap:round; stroke-width:0.25;"/>
<line x1="342.850000" y1="314.000000" x2="352.850000" y2="314.000000"  style="stroke:black; stroke-linecap:round; stroke-width:0.25;"/>
<line x1="349.100000" y1="118.000000" x2="359.100000" y2="118.000000"  style="stroke:black; stroke-linecap:round; stroke-width:0.25;"/>
<line x1="352.850000" y1="314.000000" x2="352.850000" y2="314.000000"  style="stroke:black; stroke-linecap:round; stroke-width:0.25;"/>
<line x1="352.850000" y1="314.000000" x2="356.850000" y2="314.000000"  style="stroke:black; stroke-linecap:round; stroke-width:0.25;"/>
<line x1="359.100000" y1="118.000000" x2="369.100000" y2="118.000000"  style="stroke:black; stroke-linecap:round; stroke-width:0.25;"/>
<line x1="369.100000" y1="118.000000" x2="379.100000" y2="118.000000"  style="stroke:black; stroke-linecap:round; stroke-width:0.25;"/>
<line x1="379.100000" y1="118.000000" x2="389.100000" y2="118.000000"  style="stroke:black; stroke-linecap:round; stroke-width:0.25;"/>
<line x1="382.650000" y1="314.000000" x2="386.650000" y2="314.000000"  style="stroke:black; stroke-linecap:round; stroke-width:0.25;"/>
<line x1="386.650000" y1="232.000000" x2="394.650000" y2="232.000000"  style="stroke:black; stroke-linecap:round; stroke-width:0.25;"/>
<line x1="386.650000" y1="302.000000" x2="394.650000" y2="302.000000"  style="stroke:black; stroke-linecap:round; stroke-width:0.25;"/>
<line x1="386.650000" y1="314.000000" x2="386.650000" y2="302.000000"  style="stroke:black; stroke-linecap:round; stroke-width:0.25;"/>
<line x1="386.650000" y1="314.000000" x2="386.650000" y2="314.000000"  style="stroke:black; stroke-linecap:round; stroke-width:0.25;"/>
<line x1="389.100000" y1="36.000000" x2="397.100000" y2="36.000000"  style="stroke:black; stroke-linecap:round; stroke-width:0.25;"/>
<line x1="389.100000" y1="106.000000" x2="397.100000" y2="106.000000"  style="stroke:black; stroke-linecap:round; stroke-width:0.25;"/>
<line x1="389.100000" y1="118.000000" x2="389.100000" y2="106.000000"  style="stroke:black; stroke-linecap:round; stroke-width:0.25;"/>
<line x1="389.100000" y1="118.000000" x2="389.100000" y2="118.000000"  style="stroke:black; stroke-linecap:round; stroke-width:0.25;"/>
<line x1="394.650000" y1="232.000000" x2="394.650000" y2="294.000000"  style="stroke:black; stroke-linecap:round; stroke-width:0.25;"/>
<line x1="394.650000" y1="294.000000" x2="394.650000" y2="294.000000"  style="stroke:black; stroke-linecap:round; stroke-width:0.25;"/>
<line x1="394.650000" y1="294.000000" x2="398.650000" y2="294.000000"  style="stroke:black; stroke-linecap:round; stroke-width:0.25;"/>
<line x1="394.650000" y1="302.000000" x2="398.650000" y2="302.000000"  style="stroke:black; stroke-linecap:round; stroke-width:0.25;"/>
<line x1="397.100000" y1="36.000000" x2="397.100000" y2="98.000000"  style="stroke:black; stroke-linecap:round; stroke-width:0.25;"/>
<line x1="397.100000" y1="98.000000" x2="397.100000" y2="98.000000"  style="stroke:black; stroke-linecap:round; stroke-width:0.25;"/>
<line x1="397.100000" y1="98.000000" x2="401.100000" y2="98.000000"  style="stroke:black; stroke-linecap:round; stroke-width:0.25;"/>
<line x1="397.100000" y1="106.000000" x2="401.100000" y2="106.000000"  style="stroke:black; stroke-linecap:round; stroke-width:0.25;"/>
<line x1="422.650000" y1="298.000000" x2="426.650000" y2="298.000000"  style="stroke:black; stroke-linecap:round; stroke-width:0.25;"/>
<line x1="425.100000" y1="102.000000" x2="429.100000" y2="102.000000"  style="stroke:black; stroke-linecap:round; stroke-width:0.25;"/>
<line x1="426.650000" y1="298.000000" x2="434.650000" y2="298.000000"  style="stroke:black; stroke-linecap:round; stroke-width:0.25;"/>
<line x1="426.650000" y1="318.000000" x2="434.650000" y2="318.000000"  style="stroke:black; stroke-linecap:round; stroke-width:0.25;"/>
<line x1="426.650000" y1="396.000000" x2="426.650000" y2="318.000000"  style="stroke:black; stroke-linecap:round; stroke-width:0.25;"/>
<line x1="426.650000" y1="396.000000" x2="426.650000" y2="396.000000"  style="stroke:black; stroke-linecap:round; stroke-width:0.25;"/>
<line x1="429.100000" y1="102.000000" x2="437.100000" y2="102.000000"  style="stroke:black; stroke-linecap:round; stroke-width:0.25;"/>
<line x1="429.100000" y1="122.000000" x2="437.100000" y2="122.000000"  style="stroke:black; stroke-linecap:round; stroke-width:0.25;"/>
<line x1="429.100000" y1="200.000000" x2="429.100000" y2="122.000000"  style="stroke:black; stroke-linecap:round; stroke-width:0.25;"/>
<line x1="429.100000" y1="200.000000" x2="429.100000" y2="200.000000"  style="stroke:black; stroke-linecap:round; stroke-width:0.25;"/>
<line x1="434.650000" y1="298.000000" x2="434.650000" y2="310.000000"  style="stroke:black; stroke-linecap:round; stroke-width:0.25;"/>
<line x1="434.650000" y1="310.000000" x2="434.650000" y2="310.000000"  style="stroke:black; stroke-linecap:round; stroke-width:0.25;"/>
<line x1="434.650000" y1="310.000000" x2="438.650000" y2="310.000000"  style="stroke:black; stroke-linecap:round; stroke-width:0.25;"/>
<line x1="434.650000" y1="318.000000" x2="438.650000" y2="318.000000"  style="stroke:black; stroke-linecap:round; stroke-width:0.25;"/>
<line x1="437.100000" y1="102.000000" x2="437.100000" y2="114.000000"  style="stroke:black; stroke-linecap:round; stroke-width:0.25;"/>
<line x1="437.100000" y1="114.000000" x2="437.100000" y2="114.000000"  style="stroke:black; stroke-linecap:round; stroke-width:0.25;"/>
<line x1="437.100000" y1="114.000000" x2="441.100000" y2="114.000000"  style="stroke:black; stroke-linecap:round; stroke-width:0.25;"/>
<line x1="437.100000" y1="122.000000" x2="441.100000" y2="122.000000"  style="stroke:black; stroke-linecap:round; stroke-width:0.25;"/>
<line x1="462.650000" y1="314.000000" x2="466.650000" y2="314.000000"  style="stroke:black; stroke-linecap:round; stroke-width:0.25;"/>
<line x1="465.100000" y1="118.000000" x2="469.100000" y2="118.000000"  style="stroke:black; stroke-linecap:round; stroke-width:0.25;"/>
<line x1="466.650000" y1="314.000000" x2="469.100000" y2="314.000000"  style="stroke:black; stroke-linecap:round; stroke-width:0.25;"/>
<line x1="469.100000" y1="220.000000" x2="477.100000" y2="220.000000"  style="stroke:black; stroke-linecap:round; stroke-width:0.25;"/>
<line x1="469.100000" y1="314.000000" x2="469.100000" y2="220.000000"  style="stroke:black; stroke-linecap:round; stroke-width:0.25;"/>
<line x1="469.100000" y1="314.000000" x2="469.100000" y2="314.000000"  style="stroke:black; stroke-linecap:round; stroke-width:0.25;"/>
<line x1="469.100000" y1="118.000000" x2="477.100000" y2="118.000000"  style="stroke:black; stroke-linecap:round; stroke-width:0.25;"/>
<line x1="477.100000" y1="118.000000" x2="477.100000" y2="212.000000"  style="stroke:black; stroke-linecap:round; stroke-width:0.25;"/>
<line x1="477.100000" y1="212.000000" x2="477.100000" y2="212.000000"  style="stroke:black; stroke-linecap:round; stroke-width:0.25;"/>
<line x1="477.100000" y1="212.000000" x2="481.100000" y2="212.000000"  style="stroke:black; stroke-linecap:round; stroke-width:0.25;"/>
<line x1="477.100000" y1="220.000000" x2="481.100000" y2="220.000000"  style="stroke:black; stroke-linecap:round; stroke-width:0.25;"/>
<line x1="505.100000" y1="216.000000" x2="509.100000" y2="216.000000"  style="stroke:black; stroke-linecap:round; stroke-width:0.25;"/>
<line x1="509.100000" y1="216.000000" x2="509.100000" y2="216.000000"  style="stroke:black; stroke-linecap:round; stroke-width:0.25;"/>
<line x1="509.100000" y1="216.000000" x2="513.100000" y2="216.000000"  style="stroke:black; stroke-linecap:round; stroke-width:0.25;"/>
<line x1="513.100000" y1="216.000000" x2="517.100000" y2="216.000000"  style="stroke:black; stroke-linecap:round; stroke-width:0.25;"/>
<line x1="517.100000" y1="216.000000" x2="527.100000" y2="216.000000"  style="stroke:black; stroke-linecap:round; stroke-width:0.25;"/>
</svg>
