<?xml version="1.0"?>
<svg xmlns="http://www.w3.org/2000/svg" xmlns:xlink="http://www.w3.org/1999/xlink" viewBox="0 0 320.140000 256.000000" width="160.070000mm" height="128.000000mm" version="1.1">
<a xlink:href="compressor-0x7ff8eff7ac30.svg">
<rect x="1.000000" y="1.000000" width="319.140000" height="255.000000" rx="0" ry="0" style="stroke:none;fill:#cccccc;"/>
<rect x="0.000000" y="0.000000" width="319.140000" height="255.000000" rx="0" ry="0" style="stroke:none;fill:#ffffff;"/>
</a>
<text x="10.000000" y="7.000000" font-family="Arial" font-size="7"></text>
<rect x="111.040000" y="55.000000" width="77.400000" height="24.000000" rx="0" ry="0" style="stroke:none;fill:#cccccc;"/>
<rect x="110.040000" y="54.000000" width="77.400000" height="24.000000" rx="0" ry="0" style="stroke:none;fill:#477881;"/>
<text x="148.740000" y="68.000000" font-family="Arial" font-size="7" text-anchor="middle" fill="#FFFFFF">checkbox(Bypass)</text>
<circle cx="112.040000" cy="56.000000" r="1"/>
<line x1="101.040000" y1="45.000000" x2="101.040000" y2="87.000000"  style="stroke: black; stroke-linecap:round; stroke-width:0.25; stroke-dasharray:3,3;"/>
<line x1="101.040000" y1="87.000000" x2="196.440000" y2="87.000000"  style="stroke: black; stroke-linecap:round; stroke-width:0.25; stroke-dasharray:3,3;"/>
<line x1="196.440000" y1="87.000000" x2="196.440000" y2="45.000000"  style="stroke: black; stroke-linecap:round; stroke-width:0.25; stroke-dasharray:3,3;"/>
<line x1="101.040000" y1="45.000000" x2="106.040000" y2="45.000000"  style="stroke: black; stroke-linecap:round; stroke-width:0.25; stroke-dasharray:3,3;"/>
<line x1="138.290000" y1="45.000000" x2="196.440000" y2="45.000000"  style="stroke: black; stroke-linecap:round; stroke-width:0.25; stroke-dasharray:3,3;"/>
<text x="106.040000" y="47.000000" font-family="Arial" font-size="7">hgroup()</text>
<line x1="91.040000" y1="35.000000" x2="91.040000" y2="97.000000"  style="stroke: black; stroke-linecap:round; stroke-width:0.25; stroke-dasharray:3,3;"/>
<line x1="91.040000" y1="97.000000" x2="206.440000" y2="97.000000"  style="stroke: black; stroke-linecap:round; stroke-width:0.25; stroke-dasharray:3,3;"/>
<line x1="206.440000" y1="97.000000" x2="206.440000" y2="35.000000"  style="stroke: black; stroke-linecap:round; stroke-width:0.25; stroke-dasharray:3,3;"/>
<line x1="91.040000" y1="35.000000" x2="96.040000" y2="35.000000"  style="stroke: black; stroke-linecap:round; stroke-width:0.25; stroke-dasharray:3,3;"/>
<line x1="160.540000" y1="35.000000" x2="206.440000" y2="35.000000"  style="stroke: black; stroke-linecap:round; stroke-width:0.25; stroke-dasharray:3,3;"/>
<text x="96.040000" y="37.000000" font-family="Arial" font-size="7">vgroup(COMPRESSOR)</text>
<line x1="81.040000" y1="25.000000" x2="81.040000" y2="107.000000"  style="stroke: black; stroke-linecap:round; stroke-width:0.25; stroke-dasharray:3,3;"/>
<line x1="81.040000" y1="107.000000" x2="216.440000" y2="107.000000"  style="stroke: black; stroke-linecap:round; stroke-width:0.25; stroke-dasharray:3,3;"/>
<line x1="216.440000" y1="107.000000" x2="216.440000" y2="25.000000"  style="stroke: black; stroke-linecap:round; stroke-width:0.25; stroke-dasharray:3,3;"/>
<line x1="81.040000" y1="25.000000" x2="86.040000" y2="25.000000"  style="stroke: black; stroke-linecap:round; stroke-width:0.25; stroke-dasharray:3,3;"/>
<line x1="102.165000" y1="25.000000" x2="216.440000" y2="25.000000"  style="stroke: black; stroke-linecap:round; stroke-width:0.25; stroke-dasharray:3,3;"/>
<text x="86.040000" y="27.000000" font-family="Arial" font-size="7">cbp</text>
<rect x="242.440000" y="63.000000" width="38.700000" height="24.000000" rx="0" ry="0" style="stroke:none;fill:#cccccc;"/>
<rect x="241.440000" y="62.000000" width="38.700000" height="24.000000" rx="0" ry="0" style="stroke:none;fill:#4B71A1;"/>
<text x="260.790000" y="76.000000" font-family="Arial" font-size="7" text-anchor="middle" fill="#FFFFFF">select2</text>
<circle cx="243.440000" cy="64.000000" r="1"/>
<line x1="238.440000" y1="65.000000" x2="241.440000" y2="66.000000"  transform="rotate(0.000000,241.440000,66.000000)" style="stroke: black; stroke-width:0.25;"/>
<line x1="238.440000" y1="67.000000" x2="241.440000" y2="66.000000"  transform="rotate(0.000000,241.440000,66.000000)" style="stroke: black; stroke-width:0.25;"/>
<line x1="238.440000" y1="73.000000" x2="241.440000" y2="74.000000"  transform="rotate(0.000000,241.440000,74.000000)" style="stroke: black; stroke-width:0.25;"/>
<line x1="238.440000" y1="75.000000" x2="241.440000" y2="74.000000"  transform="rotate(0.000000,241.440000,74.000000)" style="stroke: black; stroke-width:0.25;"/>
<line x1="238.440000" y1="81.000000" x2="241.440000" y2="82.000000"  transform="rotate(0.000000,241.440000,82.000000)" style="stroke: black; stroke-width:0.25;"/>
<line x1="238.440000" y1="83.000000" x2="241.440000" y2="82.000000"  transform="rotate(0.000000,241.440000,82.000000)" style="stroke: black; stroke-width:0.25;"/>
<rect x="111.040000" y="163.000000" width="77.400000" height="24.000000" rx="0" ry="0" style="stroke:none;fill:#cccccc;"/>
<rect x="110.040000" y="162.000000" width="77.400000" height="24.000000" rx="0" ry="0" style="stroke:none;fill:#477881;"/>
<text x="148.740000" y="176.000000" font-family="Arial" font-size="7" text-anchor="middle" fill="#FFFFFF">checkbox(Bypass)</text>
<circle cx="112.040000" cy="164.000000" r="1"/>
<line x1="101.040000" y1="153.000000" x2="101.040000" y2="195.000000"  style="stroke: black; stroke-linecap:round; stroke-width:0.25; stroke-dasharray:3,3;"/>
<line x1="101.040000" y1="195.000000" x2="196.440000" y2="195.000000"  style="stroke: black; stroke-linecap:round; stroke-width:0.25; stroke-dasharray:3,3;"/>
<line x1="196.440000" y1="195.000000" x2="196.440000" y2="153.000000"  style="stroke: black; stroke-linecap:round; stroke-width:0.25; stroke-dasharray:3,3;"/>
<line x1="101.040000" y1="153.000000" x2="106.040000" y2="153.000000"  style="stroke: black; stroke-linecap:round; stroke-width:0.25; stroke-dasharray:3,3;"/>
<line x1="138.290000" y1="153.000000" x2="196.440000" y2="153.000000"  style="stroke: black; stroke-linecap:round; stroke-width:0.25; stroke-dasharray:3,3;"/>
<text x="106.040000" y="155.000000" font-family="Arial" font-size="7">hgroup()</text>
<line x1="91.040000" y1="143.000000" x2="91.040000" y2="205.000000"  style="stroke: black; stroke-linecap:round; stroke-width:0.25; stroke-dasharray:3,3;"/>
<line x1="91.040000" y1="205.000000" x2="206.440000" y2="205.000000"  style="stroke: black; stroke-linecap:round; stroke-width:0.25; stroke-dasharray:3,3;"/>
<line x1="206.440000" y1="205.000000" x2="206.440000" y2="143.000000"  style="stroke: black; stroke-linecap:round; stroke-width:0.25; stroke-dasharray:3,3;"/>
<line x1="91.040000" y1="143.000000" x2="96.040000" y2="143.000000"  style="stroke: black; stroke-linecap:round; stroke-width:0.25; stroke-dasharray:3,3;"/>
<line x1="160.540000" y1="143.000000" x2="206.440000" y2="143.000000"  style="stroke: black; stroke-linecap:round; stroke-width:0.25; stroke-dasharray:3,3;"/>
<text x="96.040000" y="145.000000" font-family="Arial" font-size="7">vgroup(COMPRESSOR)</text>
<line x1="81.040000" y1="133.000000" x2="81.040000" y2="215.000000"  style="stroke: black; stroke-linecap:round; stroke-width:0.25; stroke-dasharray:3,3;"/>
<line x1="81.040000" y1="215.000000" x2="216.440000" y2="215.000000"  style="stroke: black; stroke-linecap:round; stroke-width:0.25; stroke-dasharray:3,3;"/>
<line x1="216.440000" y1="215.000000" x2="216.440000" y2="133.000000"  style="stroke: black; stroke-linecap:round; stroke-width:0.25; stroke-dasharray:3,3;"/>
<line x1="81.040000" y1="133.000000" x2="86.040000" y2="133.000000"  style="stroke: black; stroke-linecap:round; stroke-width:0.25; stroke-dasharray:3,3;"/>
<line x1="102.165000" y1="133.000000" x2="216.440000" y2="133.000000"  style="stroke: black; stroke-linecap:round; stroke-width:0.25; stroke-dasharray:3,3;"/>
<text x="86.040000" y="135.000000" font-family="Arial" font-size="7">cbp</text>
<rect x="242.440000" y="171.000000" width="38.700000" height="24.000000" rx="0" ry="0" style="stroke:none;fill:#cccccc;"/>
<rect x="241.440000" y="170.000000" width="38.700000" height="24.000000" rx="0" ry="0" style="stroke:none;fill:#4B71A1;"/>
<text x="260.790000" y="184.000000" font-family="Arial" font-size="7" text-anchor="middle" fill="#FFFFFF">select2</text>
<circle cx="243.440000" cy="172.000000" r="1"/>
<line x1="238.440000" y1="173.000000" x2="241.440000" y2="174.000000"  transform="rotate(0.000000,241.440000,174.000000)" style="stroke: black; stroke-width:0.25;"/>
<line x1="238.440000" y1="175.000000" x2="241.440000" y2="174.000000"  transform="rotate(0.000000,241.440000,174.000000)" style="stroke: black; stroke-width:0.25;"/>
<line x1="238.440000" y1="181.000000" x2="241.440000" y2="182.000000"  transform="rotate(0.000000,241.440000,182.000000)" style="stroke: black; stroke-width:0.25;"/>
<line x1="238.440000" y1="183.000000" x2="241.440000" y2="182.000000"  transform="rotate(0.000000,241.440000,182.000000)" style="stroke: black; stroke-width:0.25;"/>
<line x1="238.440000" y1="189.000000" x2="241.440000" y2="190.000000"  transform="rotate(0.000000,241.440000,190.000000)" style="stroke: black; stroke-width:0.25;"/>
<line x1="238.440000" y1="191.000000" x2="241.440000" y2="190.000000"  transform="rotate(0.000000,241.440000,190.000000)" style="stroke: black; stroke-width:0.25;"/>
<line x1="15.000000" y1="15.000000" x2="15.000000" y2="241.000000"  style="stroke: black; stroke-linecap:round; stroke-width:0.25; stroke-dasharray:3,3;"/>
<line x1="15.000000" y1="241.000000" x2="305.140000" y2="241.000000"  style="stroke: black; stroke-linecap:round; stroke-width:0.25; stroke-dasharray:3,3;"/>
<line x1="305.140000" y1="241.000000" x2="305.140000" y2="15.000000"  style="stroke: black; stroke-linecap:round; stroke-width:0.25; stroke-dasharray:3,3;"/>
<line x1="15.000000" y1="15.000000" x2="20.000000" y2="15.000000"  style="stroke: black; stroke-linecap:round; stroke-width:0.25; stroke-dasharray:3,3;"/>
<line x1="119.975000" y1="15.000000" x2="305.140000" y2="15.000000"  style="stroke: black; stroke-linecap:round; stroke-width:0.25; stroke-dasharray:3,3;"/>
<text x="20.000000" y="17.000000" font-family="Arial" font-size="7">select2stereo... effect]&quot;))))</text>
<line x1="307.140000" y1="123.000000" x2="310.140000" y2="124.000000"  transform="rotate(0.000000,310.140000,124.000000)" style="stroke: black; stroke-width:0.25;"/>
<line x1="307.140000" y1="125.000000" x2="310.140000" y2="124.000000"  transform="rotate(0.000000,310.140000,124.000000)" style="stroke: black; stroke-width:0.25;"/>
<line x1="307.140000" y1="131.000000" x2="310.140000" y2="132.000000"  transform="rotate(0.000000,310.140000,132.000000)" style="stroke: black; stroke-width:0.25;"/>
<line x1="307.140000" y1="133.000000" x2="310.140000" y2="132.000000"  transform="rotate(0.000000,310.140000,132.000000)" style="stroke: black; stroke-width:0.25;"/>
<line x1="10.000000" y1="116.000000" x2="20.000000" y2="116.000000"  style="stroke:black; stroke-linecap:round; stroke-width:0.25;"/>
<line x1="10.000000" y1="124.000000" x2="20.000000" y2="124.000000"  style="stroke:black; stroke-linecap:round; stroke-width:0.25;"/>
<line x1="10.000000" y1="132.000000" x2="20.000000" y2="132.000000"  style="stroke:black; stroke-linecap:round; stroke-width:0.25;"/>
<line x1="10.000000" y1="140.000000" x2="20.000000" y2="140.000000"  style="stroke:black; stroke-linecap:round; stroke-width:0.25;"/>
<line x1="20.000000" y1="116.000000" x2="24.000000" y2="116.000000"  style="stroke:black; stroke-linecap:round; stroke-width:0.25;"/>
<line x1="20.000000" y1="124.000000" x2="24.000000" y2="124.000000"  style="stroke:black; stroke-linecap:round; stroke-width:0.25;"/>
<line x1="20.000000" y1="132.000000" x2="24.000000" y2="132.000000"  style="stroke:black; stroke-linecap:round; stroke-width:0.25;"/>
<line x1="20.000000" y1="140.000000" x2="24.000000" y2="140.000000"  style="stroke:black; stroke-linecap:round; stroke-width:0.25;"/>
<line x1="24.000000" y1="116.000000" x2="28.000000" y2="116.000000"  style="stroke:black; stroke-linecap:round; stroke-width:0.25;"/>
<line x1="24.000000" y1="124.000000" x2="28.000000" y2="124.000000"  style="stroke:black; stroke-linecap:round; stroke-width:0.25;"/>
<line x1="24.000000" y1="132.000000" x2="28.000000" y2="132.000000"  style="stroke:black; stroke-linecap:round; stroke-width:0.25;"/>
<line x1="24.000000" y1="140.000000" x2="28.000000" y2="140.000000"  style="stroke:black; stroke-linecap:round; stroke-width:0.25;"/>
<line x1="28.000000" y1="115.920000" x2="36.000000" y2="115.920000"  style="stroke:black; stroke-linecap:round; stroke-width:0.25;"/>
<line x1="28.000000" y1="116.000000" x2="28.000000" y2="115.920000"  style="stroke:black; stroke-linecap:round; stroke-width:0.25;"/>
<line x1="28.000000" y1="116.000000" x2="28.000000" y2="116.000000"  style="stroke:black; stroke-linecap:round; stroke-width:0.25;"/>
<line x1="28.000000" y1="124.000000" x2="36.000000" y2="124.000000"  style="stroke:black; stroke-linecap:round; stroke-width:0.25;"/>
<line x1="28.000000" y1="132.000000" x2="36.000000" y2="132.000000"  style="stroke:black; stroke-linecap:round; stroke-width:0.25;"/>
<line x1="28.000000" y1="140.000000" x2="36.000000" y2="140.000000"  style="stroke:black; stroke-linecap:round; stroke-width:0.25;"/>
<line x1="36.000000" y1="115.920000" x2="48.020000" y2="115.920000"  style="stroke:black; stroke-linecap:round; stroke-width:0.25;"/>
<line x1="36.000000" y1="124.000000" x2="40.000000" y2="124.000000"  style="stroke:black; stroke-linecap:round; stroke-width:0.25;"/>
<line x1="36.000000" y1="132.000000" x2="40.000000" y2="132.000000"  style="stroke:black; stroke-linecap:round; stroke-width:0.25;"/>
<line x1="36.000000" y1="140.000000" x2="36.000000" y2="140.080000"  style="stroke:black; stroke-linecap:round; stroke-width:0.25;"/>
<line x1="36.000000" y1="140.080000" x2="36.000000" y2="140.080000"  style="stroke:black; stroke-linecap:round; stroke-width:0.25;"/>
<line x1="36.000000" y1="140.080000" x2="48.020000" y2="140.080000"  style="stroke:black; stroke-linecap:round; stroke-width:0.25;"/>
<line x1="40.000000" y1="124.000000" x2="44.000000" y2="124.000000"  style="stroke:black; stroke-linecap:round; stroke-width:0.25;"/>
<line x1="40.000000" y1="132.000000" x2="44.000000" y2="132.000000"  style="stroke:black; stroke-linecap:round; stroke-width:0.25;"/>
<line x1="44.000000" y1="124.000000" x2="52.040000" y2="132.000000"  style="stroke:black; stroke-linecap:round; stroke-width:0.25;"/>
<line x1="44.000000" y1="132.000000" x2="52.040000" y2="124.000000"  style="stroke:black; stroke-linecap:round; stroke-width:0.25;"/>
<line x1="48.020000" y1="115.920000" x2="60.040000" y2="115.920000"  style="stroke:black; stroke-linecap:round; stroke-width:0.25;"/>
<line x1="48.020000" y1="140.080000" x2="60.040000" y2="140.080000"  style="stroke:black; stroke-linecap:round; stroke-width:0.25;"/>
<line x1="52.040000" y1="124.000000" x2="56.040000" y2="124.000000"  style="stroke:black; stroke-linecap:round; stroke-width:0.25;"/>
<line x1="52.040000" y1="132.000000" x2="56.040000" y2="132.000000"  style="stroke:black; stroke-linecap:round; stroke-width:0.25;"/>
<line x1="56.040000" y1="124.000000" x2="60.040000" y2="124.000000"  style="stroke:black; stroke-linecap:round; stroke-width:0.25;"/>
<line x1="56.040000" y1="132.000000" x2="60.040000" y2="132.000000"  style="stroke:black; stroke-linecap:round; stroke-width:0.25;"/>
<line x1="60.040000" y1="115.920000" x2="76.040000" y2="115.920000"  style="stroke:black; stroke-linecap:round; stroke-width:0.25;"/>
<line x1="60.040000" y1="140.080000" x2="68.040000" y2="140.080000"  style="stroke:black; stroke-linecap:round; stroke-width:0.25;"/>
<line x1="60.040000" y1="124.000000" x2="76.040000" y2="124.000000"  style="stroke:black; stroke-linecap:round; stroke-width:0.25;"/>
<line x1="60.040000" y1="132.000000" x2="76.040000" y2="132.000000"  style="stroke:black; stroke-linecap:round; stroke-width:0.25;"/>
<line x1="68.040000" y1="140.080000" x2="68.040000" y2="232.000000"  style="stroke:black; stroke-linecap:round; stroke-width:0.25;"/>
<line x1="68.040000" y1="232.000000" x2="76.040000" y2="232.000000"  style="stroke:black; stroke-linecap:round; stroke-width:0.25;"/>
<line x1="76.040000" y1="115.920000" x2="76.040000" y2="116.000000"  style="stroke:black; stroke-linecap:round; stroke-width:0.25;"/>
<line x1="76.040000" y1="116.000000" x2="76.040000" y2="116.000000"  style="stroke:black; stroke-linecap:round; stroke-width:0.25;"/>
<line x1="76.040000" y1="116.000000" x2="148.740000" y2="116.000000"  style="stroke:black; stroke-linecap:round; stroke-width:0.25;"/>
<line x1="76.040000" y1="124.000000" x2="148.740000" y2="124.000000"  style="stroke:black; stroke-linecap:round; stroke-width:0.25;"/>
<line x1="76.040000" y1="132.000000" x2="76.040000" y2="224.000000"  style="stroke:black; stroke-linecap:round; stroke-width:0.25;"/>
<line x1="76.040000" y1="224.000000" x2="76.040000" y2="224.000000"  style="stroke:black; stroke-linecap:round; stroke-width:0.25;"/>
<line x1="76.040000" y1="224.000000" x2="148.740000" y2="224.000000"  style="stroke:black; stroke-linecap:round; stroke-width:0.25;"/>
<line x1="76.040000" y1="232.000000" x2="148.740000" y2="232.000000"  style="stroke:black; stroke-linecap:round; stroke-width:0.25;"/>
<line x1="148.740000" y1="116.000000" x2="221.440000" y2="116.000000"  style="stroke:black; stroke-linecap:round; stroke-width:0.25;"/>
<line x1="148.740000" y1="124.000000" x2="221.440000" y2="124.000000"  style="stroke:black; stroke-linecap:round; stroke-width:0.25;"/>
<line x1="148.740000" y1="224.000000" x2="221.440000" y2="224.000000"  style="stroke:black; stroke-linecap:round; stroke-width:0.25;"/>
<line x1="148.740000" y1="232.000000" x2="221.440000" y2="232.000000"  style="stroke:black; stroke-linecap:round; stroke-width:0.25;"/>
<line x1="187.440000" y1="66.000000" x2="191.440000" y2="66.000000"  style="stroke:black; stroke-linecap:round; stroke-width:0.25;"/>
<line x1="187.440000" y1="174.000000" x2="191.440000" y2="174.000000"  style="stroke:black; stroke-linecap:round; stroke-width:0.25;"/>
<line x1="191.440000" y1="66.000000" x2="201.440000" y2="66.000000"  style="stroke:black; stroke-linecap:round; stroke-width:0.25;"/>
<line x1="191.440000" y1="174.000000" x2="201.440000" y2="174.000000"  style="stroke:black; stroke-linecap:round; stroke-width:0.25;"/>
<line x1="201.440000" y1="66.000000" x2="211.440000" y2="66.000000"  style="stroke:black; stroke-linecap:round; stroke-width:0.25;"/>
<line x1="201.440000" y1="174.000000" x2="211.440000" y2="174.000000"  style="stroke:black; stroke-linecap:round; stroke-width:0.25;"/>
<line x1="211.440000" y1="66.000000" x2="221.440000" y2="66.000000"  style="stroke:black; stroke-linecap:round; stroke-width:0.25;"/>
<line x1="211.440000" y1="174.000000" x2="221.440000" y2="174.000000"  style="stroke:black; stroke-linecap:round; stroke-width:0.25;"/>
<line x1="221.440000" y1="74.000000" x2="237.440000" y2="74.000000"  style="stroke:black; stroke-linecap:round; stroke-width:0.25;"/>
<line x1="221.440000" y1="116.000000" x2="221.440000" y2="74.000000"  style="stroke:black; stroke-linecap:round; stroke-width:0.25;"/>
<line x1="221.440000" y1="116.000000" x2="221.440000" y2="116.000000"  style="stroke:black; stroke-linecap:round; stroke-width:0.25;"/>
<line x1="221.440000" y1="124.000000" x2="229.440000" y2="124.000000"  style="stroke:black; stroke-linecap:round; stroke-width:0.25;"/>
<line x1="221.440000" y1="182.000000" x2="237.440000" y2="182.000000"  style="stroke:black; stroke-linecap:round; stroke-width:0.25;"/>
<line x1="221.440000" y1="224.000000" x2="221.440000" y2="182.000000"  style="stroke:black; stroke-linecap:round; stroke-width:0.25;"/>
<line x1="221.440000" y1="224.000000" x2="221.440000" y2="224.000000"  style="stroke:black; stroke-linecap:round; stroke-width:0.25;"/>
<line x1="221.440000" y1="232.000000" x2="229.440000" y2="232.000000"  style="stroke:black; stroke-linecap:round; stroke-width:0.25;"/>
<line x1="221.440000" y1="66.000000" x2="237.440000" y2="66.000000"  style="stroke:black; stroke-linecap:round; stroke-width:0.25;"/>
<line x1="221.440000" y1="174.000000" x2="237.440000" y2="174.000000"  style="stroke:black; stroke-linecap:round; stroke-width:0.25;"/>
<line x1="229.440000" y1="82.000000" x2="237.440000" y2="82.000000"  style="stroke:black; stroke-linecap:round; stroke-width:0.25;"/>
<line x1="229.440000" y1="124.000000" x2="229.440000" y2="82.000000"  style="stroke:black; stroke-linecap:round; stroke-width:0.25;"/>
<line x1="229.440000" y1="190.000000" x2="237.440000" y2="190.000000"  style="stroke:black; stroke-linecap:round; stroke-width:0.25;"/>
<line x1="229.440000" y1="232.000000" x2="229.440000" y2="190.000000"  style="stroke:black; stroke-linecap:round; stroke-width:0.25;"/>
<line x1="237.440000" y1="66.000000" x2="241.440000" y2="66.000000"  style="stroke:black; stroke-linecap:round; stroke-width:0.25;"/>
<line x1="237.440000" y1="74.000000" x2="241.440000" y2="74.000000"  style="stroke:black; stroke-linecap:round; stroke-width:0.25;"/>
<line x1="237.440000" y1="82.000000" x2="241.440000" y2="82.000000"  style="stroke:black; stroke-linecap:round; stroke-width:0.25;"/>
<line x1="237.440000" y1="174.000000" x2="241.440000" y2="174.000000"  style="stroke:black; stroke-linecap:round; stroke-width:0.25;"/>
<line x1="237.440000" y1="182.000000" x2="241.440000" y2="182.000000"  style="stroke:black; stroke-linecap:round; stroke-width:0.25;"/>
<line x1="237.440000" y1="190.000000" x2="241.440000" y2="190.000000"  style="stroke:black; stroke-linecap:round; stroke-width:0.25;"/>
<line x1="280.140000" y1="74.000000" x2="284.140000" y2="74.000000"  style="stroke:black; stroke-linecap:round; stroke-width:0.25;"/>
<line x1="280.140000" y1="182.000000" x2="284.140000" y2="182.000000"  style="stroke:black; stroke-linecap:round; stroke-width:0.25;"/>
<line x1="284.140000" y1="74.000000" x2="292.140000" y2="74.000000"  style="stroke:black; stroke-linecap:round; stroke-width:0.25;"/>
<line x1="284.140000" y1="132.000000" x2="292.140000" y2="132.000000"  style="stroke:black; stroke-linecap:round; stroke-width:0.25;"/>
<line x1="284.140000" y1="182.000000" x2="284.140000" y2="132.000000"  style="stroke:black; stroke-linecap:round; stroke-width:0.25;"/>
<line x1="284.140000" y1="182.000000" x2="284.140000" y2="182.000000"  style="stroke:black; stroke-linecap:round; stroke-width:0.25;"/>
<line x1="292.140000" y1="74.000000" x2="292.140000" y2="124.000000"  style="stroke:black; stroke-linecap:round; stroke-width:0.25;"/>
<line x1="292.140000" y1="124.000000" x2="292.140000" y2="124.000000"  style="stroke:black; stroke-linecap:round; stroke-width:0.25;"/>
<line x1="292.140000" y1="124.000000" x2="296.140000" y2="124.000000"  style="stroke:black; stroke-linecap:round; stroke-width:0.25;"/>
<line x1="292.140000" y1="132.000000" x2="292.140000" y2="132.000000"  style="stroke:black; stroke-linecap:round; stroke-width:0.25;"/>
<line x1="292.140000" y1="132.000000" x2="296.140000" y2="132.000000"  style="stroke:black; stroke-linecap:round; stroke-width:0.25;"/>
<line x1="296.140000" y1="124.000000" x2="300.140000" y2="124.000000"  style="stroke:black; stroke-linecap:round; stroke-width:0.25;"/>
<line x1="296.140000" y1="132.000000" x2="300.140000" y2="132.000000"  style="stroke:black; stroke-linecap:round; stroke-width:0.25;"/>
<line x1="300.140000" y1="124.000000" x2="310.140000" y2="124.000000"  style="stroke:black; stroke-linecap:round; stroke-width:0.25;"/>
<line x1="300.140000" y1="132.000000" x2="310.140000" y2="132.000000"  style="stroke:black; stroke-linecap:round; stroke-width:0.25;"/>
</svg>
