<?xml version="1.0"?>
<svg xmlns="http://www.w3.org/2000/svg" xmlns:xlink="http://www.w3.org/1999/xlink" viewBox="0 0 151.700000 116.000000" width="75.850000mm" height="58.000000mm" version="1.1">
<a xlink:href="basax-0x7fe0d8c68250.svg">
<rect x="1.000000" y="1.000000" width="150.700000" height="115.000000" rx="0" ry="0" style="stroke:none;fill:#cccccc;"/>
<rect x="0.000000" y="0.000000" width="150.700000" height="115.000000" rx="0" ry="0" style="stroke:none;fill:#ffffff;"/>
</a>
<text x="10.000000" y="7.000000" font-family="Arial" font-size="7"></text>
<a xlink:href="delbank-0x7fe0d8c66fa0.svg">
<rect x="72.000000" y="35.000000" width="38.700000" height="48.000000" rx="0" ry="0" style="stroke:none;fill:#cccccc;"/>
<rect x="71.000000" y="34.000000" width="38.700000" height="48.000000" rx="0" ry="0" style="stroke:none;fill:#003366;"/>
</a>
<a xlink:href="delbank-0x7fe0d8c66fa0.svg">
<text x="90.350000" y="60.000000" font-family="Arial" font-size="7" text-anchor="middle" fill="#FFFFFF">delbank</text>
</a>
<circle cx="73.000000" cy="36.000000" r="1"/>
<line x1="68.000000" y1="37.000000" x2="71.000000" y2="38.000000"  transform="rotate(0.000000,71.000000,38.000000)" style="stroke: black; stroke-width:0.25;"/>
<line x1="68.000000" y1="39.000000" x2="71.000000" y2="38.000000"  transform="rotate(0.000000,71.000000,38.000000)" style="stroke: black; stroke-width:0.25;"/>
<line x1="68.000000" y1="45.000000" x2="71.000000" y2="46.000000"  transform="rotate(0.000000,71.000000,46.000000)" style="stroke: black; stroke-width:0.25;"/>
<line x1="68.000000" y1="47.000000" x2="71.000000" y2="46.000000"  transform="rotate(0.000000,71.000000,46.000000)" style="stroke: black; stroke-width:0.25;"/>
<line x1="68.000000" y1="53.000000" x2="71.000000" y2="54.000000"  transform="rotate(0.000000,71.000000,54.000000)" style="stroke: black; stroke-width:0.25;"/>
<line x1="68.000000" y1="55.000000" x2="71.000000" y2="54.000000"  transform="rotate(0.000000,71.000000,54.000000)" style="stroke: black; stroke-width:0.25;"/>
<line x1="68.000000" y1="61.000000" x2="71.000000" y2="62.000000"  transform="rotate(0.000000,71.000000,62.000000)" style="stroke: black; stroke-width:0.25;"/>
<line x1="68.000000" y1="63.000000" x2="71.000000" y2="62.000000"  transform="rotate(0.000000,71.000000,62.000000)" style="stroke: black; stroke-width:0.25;"/>
<line x1="68.000000" y1="69.000000" x2="71.000000" y2="70.000000"  transform="rotate(0.000000,71.000000,70.000000)" style="stroke: black; stroke-width:0.25;"/>
<line x1="68.000000" y1="71.000000" x2="71.000000" y2="70.000000"  transform="rotate(0.000000,71.000000,70.000000)" style="stroke: black; stroke-width:0.25;"/>
<line x1="68.000000" y1="77.000000" x2="71.000000" y2="78.000000"  transform="rotate(0.000000,71.000000,78.000000)" style="stroke: black; stroke-width:0.25;"/>
<line x1="68.000000" y1="79.000000" x2="71.000000" y2="78.000000"  transform="rotate(0.000000,71.000000,78.000000)" style="stroke: black; stroke-width:0.25;"/>
<line x1="62.000000" y1="25.000000" x2="62.000000" y2="91.000000"  style="stroke: black; stroke-linecap:round; stroke-width:0.25; stroke-dasharray:3,3;"/>
<line x1="62.000000" y1="91.000000" x2="118.700000" y2="91.000000"  style="stroke: black; stroke-linecap:round; stroke-width:0.25; stroke-dasharray:3,3;"/>
<line x1="118.700000" y1="91.000000" x2="118.700000" y2="25.000000"  style="stroke: black; stroke-linecap:round; stroke-width:0.25; stroke-dasharray:3,3;"/>
<line x1="62.000000" y1="25.000000" x2="67.000000" y2="25.000000"  style="stroke: black; stroke-linecap:round; stroke-width:0.25; stroke-dasharray:3,3;"/>
<line x1="118.700000" y1="25.000000" x2="118.700000" y2="25.000000"  style="stroke: black; stroke-linecap:round; stroke-width:0.25; stroke-dasharray:3,3;"/>
<text x="67.000000" y="27.000000" font-family="Arial" font-size="7">vgroup(Bari Sax Delays)</text>
<line x1="15.000000" y1="15.000000" x2="15.000000" y2="101.000000"  style="stroke: black; stroke-linecap:round; stroke-width:0.25; stroke-dasharray:3,3;"/>
<line x1="15.000000" y1="101.000000" x2="136.700000" y2="101.000000"  style="stroke: black; stroke-linecap:round; stroke-width:0.25; stroke-dasharray:3,3;"/>
<line x1="136.700000" y1="101.000000" x2="136.700000" y2="15.000000"  style="stroke: black; stroke-linecap:round; stroke-width:0.25; stroke-dasharray:3,3;"/>
<line x1="15.000000" y1="15.000000" x2="20.000000" y2="15.000000"  style="stroke: black; stroke-linecap:round; stroke-width:0.25; stroke-dasharray:3,3;"/>
<line x1="55.475000" y1="15.000000" x2="136.700000" y2="15.000000"  style="stroke: black; stroke-linecap:round; stroke-width:0.25; stroke-dasharray:3,3;"/>
<text x="20.000000" y="17.000000" font-family="Arial" font-size="7">basax_out</text>
<line x1="138.700000" y1="37.000000" x2="141.700000" y2="38.000000"  transform="rotate(0.000000,141.700000,38.000000)" style="stroke: black; stroke-width:0.25;"/>
<line x1="138.700000" y1="39.000000" x2="141.700000" y2="38.000000"  transform="rotate(0.000000,141.700000,38.000000)" style="stroke: black; stroke-width:0.25;"/>
<line x1="138.700000" y1="45.000000" x2="141.700000" y2="46.000000"  transform="rotate(0.000000,141.700000,46.000000)" style="stroke: black; stroke-width:0.25;"/>
<line x1="138.700000" y1="47.000000" x2="141.700000" y2="46.000000"  transform="rotate(0.000000,141.700000,46.000000)" style="stroke: black; stroke-width:0.25;"/>
<line x1="138.700000" y1="53.000000" x2="141.700000" y2="54.000000"  transform="rotate(0.000000,141.700000,54.000000)" style="stroke: black; stroke-width:0.25;"/>
<line x1="138.700000" y1="55.000000" x2="141.700000" y2="54.000000"  transform="rotate(0.000000,141.700000,54.000000)" style="stroke: black; stroke-width:0.25;"/>
<line x1="138.700000" y1="61.000000" x2="141.700000" y2="62.000000"  transform="rotate(0.000000,141.700000,62.000000)" style="stroke: black; stroke-width:0.25;"/>
<line x1="138.700000" y1="63.000000" x2="141.700000" y2="62.000000"  transform="rotate(0.000000,141.700000,62.000000)" style="stroke: black; stroke-width:0.25;"/>
<line x1="138.700000" y1="69.000000" x2="141.700000" y2="70.000000"  transform="rotate(0.000000,141.700000,70.000000)" style="stroke: black; stroke-width:0.25;"/>
<line x1="138.700000" y1="71.000000" x2="141.700000" y2="70.000000"  transform="rotate(0.000000,141.700000,70.000000)" style="stroke: black; stroke-width:0.25;"/>
<line x1="138.700000" y1="77.000000" x2="141.700000" y2="78.000000"  transform="rotate(0.000000,141.700000,78.000000)" style="stroke: black; stroke-width:0.25;"/>
<line x1="138.700000" y1="79.000000" x2="141.700000" y2="78.000000"  transform="rotate(0.000000,141.700000,78.000000)" style="stroke: black; stroke-width:0.25;"/>
<line x1="10.000000" y1="58.000000" x2="20.000000" y2="58.000000"  style="stroke:black; stroke-linecap:round; stroke-width:0.25;"/>
<line x1="20.000000" y1="58.000000" x2="24.000000" y2="58.000000"  style="stroke:black; stroke-linecap:round; stroke-width:0.25;"/>
<line x1="24.000000" y1="58.000000" x2="28.000000" y2="58.000000"  style="stroke:black; stroke-linecap:round; stroke-width:0.25;"/>
<line x1="28.000000" y1="58.000000" x2="28.000000" y2="58.000000"  style="stroke:black; stroke-linecap:round; stroke-width:0.25;"/>
<line x1="28.000000" y1="58.000000" x2="32.000000" y2="58.000000"  style="stroke:black; stroke-linecap:round; stroke-width:0.25;"/>
<line x1="32.000000" y1="58.000000" x2="36.000000" y2="58.000000"  style="stroke:black; stroke-linecap:round; stroke-width:0.25;"/>
<line x1="36.000000" y1="58.000000" x2="57.000000" y2="38.000000"  style="stroke:black; stroke-linecap:round; stroke-width:0.25;"/>
<line x1="36.000000" y1="58.000000" x2="57.000000" y2="46.000000"  style="stroke:black; stroke-linecap:round; stroke-width:0.25;"/>
<line x1="36.000000" y1="58.000000" x2="57.000000" y2="54.000000"  style="stroke:black; stroke-linecap:round; stroke-width:0.25;"/>
<line x1="36.000000" y1="58.000000" x2="57.000000" y2="62.000000"  style="stroke:black; stroke-linecap:round; stroke-width:0.25;"/>
<line x1="36.000000" y1="58.000000" x2="57.000000" y2="70.000000"  style="stroke:black; stroke-linecap:round; stroke-width:0.25;"/>
<line x1="36.000000" y1="58.000000" x2="57.000000" y2="78.000000"  style="stroke:black; stroke-linecap:round; stroke-width:0.25;"/>
<line x1="57.000000" y1="38.000000" x2="67.000000" y2="38.000000"  style="stroke:black; stroke-linecap:round; stroke-width:0.25;"/>
<line x1="57.000000" y1="46.000000" x2="67.000000" y2="46.000000"  style="stroke:black; stroke-linecap:round; stroke-width:0.25;"/>
<line x1="57.000000" y1="54.000000" x2="67.000000" y2="54.000000"  style="stroke:black; stroke-linecap:round; stroke-width:0.25;"/>
<line x1="57.000000" y1="62.000000" x2="67.000000" y2="62.000000"  style="stroke:black; stroke-linecap:round; stroke-width:0.25;"/>
<line x1="57.000000" y1="70.000000" x2="67.000000" y2="70.000000"  style="stroke:black; stroke-linecap:round; stroke-width:0.25;"/>
<line x1="57.000000" y1="78.000000" x2="67.000000" y2="78.000000"  style="stroke:black; stroke-linecap:round; stroke-width:0.25;"/>
<line x1="67.000000" y1="38.000000" x2="71.000000" y2="38.000000"  style="stroke:black; stroke-linecap:round; stroke-width:0.25;"/>
<line x1="67.000000" y1="46.000000" x2="71.000000" y2="46.000000"  style="stroke:black; stroke-linecap:round; stroke-width:0.25;"/>
<line x1="67.000000" y1="54.000000" x2="71.000000" y2="54.000000"  style="stroke:black; stroke-linecap:round; stroke-width:0.25;"/>
<line x1="67.000000" y1="62.000000" x2="71.000000" y2="62.000000"  style="stroke:black; stroke-linecap:round; stroke-width:0.25;"/>
<line x1="67.000000" y1="70.000000" x2="71.000000" y2="70.000000"  style="stroke:black; stroke-linecap:round; stroke-width:0.25;"/>
<line x1="67.000000" y1="78.000000" x2="71.000000" y2="78.000000"  style="stroke:black; stroke-linecap:round; stroke-width:0.25;"/>
<line x1="109.700000" y1="38.000000" x2="113.700000" y2="38.000000"  style="stroke:black; stroke-linecap:round; stroke-width:0.25;"/>
<line x1="109.700000" y1="46.000000" x2="113.700000" y2="46.000000"  style="stroke:black; stroke-linecap:round; stroke-width:0.25;"/>
<line x1="109.700000" y1="54.000000" x2="113.700000" y2="54.000000"  style="stroke:black; stroke-linecap:round; stroke-width:0.25;"/>
<line x1="109.700000" y1="62.000000" x2="113.700000" y2="62.000000"  style="stroke:black; stroke-linecap:round; stroke-width:0.25;"/>
<line x1="109.700000" y1="70.000000" x2="113.700000" y2="70.000000"  style="stroke:black; stroke-linecap:round; stroke-width:0.25;"/>
<line x1="109.700000" y1="78.000000" x2="113.700000" y2="78.000000"  style="stroke:black; stroke-linecap:round; stroke-width:0.25;"/>
<line x1="113.700000" y1="38.000000" x2="123.700000" y2="38.000000"  style="stroke:black; stroke-linecap:round; stroke-width:0.25;"/>
<line x1="113.700000" y1="46.000000" x2="123.700000" y2="46.000000"  style="stroke:black; stroke-linecap:round; stroke-width:0.25;"/>
<line x1="113.700000" y1="54.000000" x2="123.700000" y2="54.000000"  style="stroke:black; stroke-linecap:round; stroke-width:0.25;"/>
<line x1="113.700000" y1="62.000000" x2="123.700000" y2="62.000000"  style="stroke:black; stroke-linecap:round; stroke-width:0.25;"/>
<line x1="113.700000" y1="70.000000" x2="123.700000" y2="70.000000"  style="stroke:black; stroke-linecap:round; stroke-width:0.25;"/>
<line x1="113.700000" y1="78.000000" x2="123.700000" y2="78.000000"  style="stroke:black; stroke-linecap:round; stroke-width:0.25;"/>
<line x1="123.700000" y1="38.000000" x2="123.700000" y2="38.000000"  style="stroke:black; stroke-linecap:round; stroke-width:0.25;"/>
<line x1="123.700000" y1="38.000000" x2="127.700000" y2="38.000000"  style="stroke:black; stroke-linecap:round; stroke-width:0.25;"/>
<line x1="123.700000" y1="46.000000" x2="123.700000" y2="46.000000"  style="stroke:black; stroke-linecap:round; stroke-width:0.25;"/>
<line x1="123.700000" y1="46.000000" x2="127.700000" y2="46.000000"  style="stroke:black; stroke-linecap:round; stroke-width:0.25;"/>
<line x1="123.700000" y1="54.000000" x2="123.700000" y2="54.000000"  style="stroke:black; stroke-linecap:round; stroke-width:0.25;"/>
<line x1="123.700000" y1="54.000000" x2="127.700000" y2="54.000000"  style="stroke:black; stroke-linecap:round; stroke-width:0.25;"/>
<line x1="123.700000" y1="62.000000" x2="123.700000" y2="62.000000"  style="stroke:black; stroke-linecap:round; stroke-width:0.25;"/>
<line x1="123.700000" y1="62.000000" x2="127.700000" y2="62.000000"  style="stroke:black; stroke-linecap:round; stroke-width:0.25;"/>
<line x1="123.700000" y1="70.000000" x2="123.700000" y2="70.000000"  style="stroke:black; stroke-linecap:round; stroke-width:0.25;"/>
<line x1="123.700000" y1="70.000000" x2="127.700000" y2="70.000000"  style="stroke:black; stroke-linecap:round; stroke-width:0.25;"/>
<line x1="123.700000" y1="78.000000" x2="123.700000" y2="78.000000"  style="stroke:black; stroke-linecap:round; stroke-width:0.25;"/>
<line x1="123.700000" y1="78.000000" x2="127.700000" y2="78.000000"  style="stroke:black; stroke-linecap:round; stroke-width:0.25;"/>
<line x1="127.700000" y1="38.000000" x2="131.700000" y2="38.000000"  style="stroke:black; stroke-linecap:round; stroke-width:0.25;"/>
<line x1="127.700000" y1="46.000000" x2="131.700000" y2="46.000000"  style="stroke:black; stroke-linecap:round; stroke-width:0.25;"/>
<line x1="127.700000" y1="54.000000" x2="131.700000" y2="54.000000"  style="stroke:black; stroke-linecap:round; stroke-width:0.25;"/>
<line x1="127.700000" y1="62.000000" x2="131.700000" y2="62.000000"  style="stroke:black; stroke-linecap:round; stroke-width:0.25;"/>
<line x1="127.700000" y1="70.000000" x2="131.700000" y2="70.000000"  style="stroke:black; stroke-linecap:round; stroke-width:0.25;"/>
<line x1="127.700000" y1="78.000000" x2="131.700000" y2="78.000000"  style="stroke:black; stroke-linecap:round; stroke-width:0.25;"/>
<line x1="131.700000" y1="38.000000" x2="141.700000" y2="38.000000"  style="stroke:black; stroke-linecap:round; stroke-width:0.25;"/>
<line x1="131.700000" y1="46.000000" x2="141.700000" y2="46.000000"  style="stroke:black; stroke-linecap:round; stroke-width:0.25;"/>
<line x1="131.700000" y1="54.000000" x2="141.700000" y2="54.000000"  style="stroke:black; stroke-linecap:round; stroke-width:0.25;"/>
<line x1="131.700000" y1="62.000000" x2="141.700000" y2="62.000000"  style="stroke:black; stroke-linecap:round; stroke-width:0.25;"/>
<line x1="131.700000" y1="70.000000" x2="141.700000" y2="70.000000"  style="stroke:black; stroke-linecap:round; stroke-width:0.25;"/>
<line x1="131.700000" y1="78.000000" x2="141.700000" y2="78.000000"  style="stroke:black; stroke-linecap:round; stroke-width:0.25;"/>
</svg>
