<?xml version="1.0"?>
<svg xmlns="http://www.w3.org/2000/svg" xmlns:xlink="http://www.w3.org/1999/xlink" viewBox="0 0 322.700000 116.000000" width="161.350000mm" height="58.000000mm" version="1.1">
<a xlink:href="process.svg">
<rect x="1.000000" y="1.000000" width="321.700000" height="115.000000" rx="0" ry="0" style="stroke:none;fill:#cccccc;"/>
<rect x="0.000000" y="0.000000" width="321.700000" height="115.000000" rx="0" ry="0" style="stroke:none;fill:#ffffff;"/>
</a>
<text x="10.000000" y="7.000000" font-family="Arial" font-size="7"></text>
<a xlink:href="selectn-0x7fba1df3a430.svg">
<rect x="43.000000" y="47.000000" width="64.500000" height="24.000000" rx="0" ry="0" style="stroke:none;fill:#cccccc;"/>
<rect x="42.000000" y="46.000000" width="64.500000" height="24.000000" rx="0" ry="0" style="stroke:none;fill:#003366;"/>
</a>
<a xlink:href="selectn-0x7fba1df3a430.svg">
<text x="74.250000" y="60.000000" font-family="Arial" font-size="7" text-anchor="middle" fill="#FFFFFF">selectn(3)(0)</text>
</a>
<circle cx="44.000000" cy="48.000000" r="1"/>
<line x1="39.000000" y1="49.000000" x2="42.000000" y2="50.000000"  transform="rotate(0.000000,42.000000,50.000000)" style="stroke: black; stroke-width:0.25;"/>
<line x1="39.000000" y1="51.000000" x2="42.000000" y2="50.000000"  transform="rotate(0.000000,42.000000,50.000000)" style="stroke: black; stroke-width:0.25;"/>
<line x1="39.000000" y1="57.000000" x2="42.000000" y2="58.000000"  transform="rotate(0.000000,42.000000,58.000000)" style="stroke: black; stroke-width:0.25;"/>
<line x1="39.000000" y1="59.000000" x2="42.000000" y2="58.000000"  transform="rotate(0.000000,42.000000,58.000000)" style="stroke: black; stroke-width:0.25;"/>
<line x1="39.000000" y1="65.000000" x2="42.000000" y2="66.000000"  transform="rotate(0.000000,42.000000,66.000000)" style="stroke: black; stroke-width:0.25;"/>
<line x1="39.000000" y1="67.000000" x2="42.000000" y2="66.000000"  transform="rotate(0.000000,42.000000,66.000000)" style="stroke: black; stroke-width:0.25;"/>
<a xlink:href="gs-0x7fba20148680.svg">
<rect x="125.500000" y="47.000000" width="38.700000" height="24.000000" rx="0" ry="0" style="stroke:none;fill:#cccccc;"/>
<rect x="124.500000" y="46.000000" width="38.700000" height="24.000000" rx="0" ry="0" style="stroke:none;fill:#003366;"/>
</a>
<a xlink:href="gs-0x7fba20148680.svg">
<text x="143.850000" y="60.000000" font-family="Arial" font-size="7" text-anchor="middle" fill="#FFFFFF">gs_m_comp</text>
</a>
<circle cx="126.500000" cy="48.000000" r="1"/>
<line x1="121.500000" y1="57.000000" x2="124.500000" y2="58.000000"  transform="rotate(0.000000,124.500000,58.000000)" style="stroke: black; stroke-width:0.25;"/>
<line x1="121.500000" y1="59.000000" x2="124.500000" y2="58.000000"  transform="rotate(0.000000,124.500000,58.000000)" style="stroke: black; stroke-width:0.25;"/>
<a xlink:href="hmeter-0x7fba2014e8b0.svg">
<rect x="172.200000" y="47.000000" width="25.800000" height="24.000000" rx="0" ry="0" style="stroke:none;fill:#cccccc;"/>
<rect x="171.200000" y="46.000000" width="25.800000" height="24.000000" rx="0" ry="0" style="stroke:none;fill:#003366;"/>
</a>
<a xlink:href="hmeter-0x7fba2014e8b0.svg">
<text x="184.100000" y="60.000000" font-family="Arial" font-size="7" text-anchor="middle" fill="#FFFFFF">hmeter</text>
</a>
<circle cx="173.200000" cy="48.000000" r="1"/>
<line x1="168.200000" y1="57.000000" x2="171.200000" y2="58.000000"  transform="rotate(0.000000,171.200000,58.000000)" style="stroke: black; stroke-width:0.25;"/>
<line x1="168.200000" y1="59.000000" x2="171.200000" y2="58.000000"  transform="rotate(0.000000,171.200000,58.000000)" style="stroke: black; stroke-width:0.25;"/>
<line x1="115.500000" y1="37.000000" x2="115.500000" y2="79.000000"  style="stroke: black; stroke-linecap:round; stroke-width:0.25; stroke-dasharray:3,3;"/>
<line x1="115.500000" y1="79.000000" x2="206.000000" y2="79.000000"  style="stroke: black; stroke-linecap:round; stroke-width:0.25; stroke-dasharray:3,3;"/>
<line x1="206.000000" y1="79.000000" x2="206.000000" y2="37.000000"  style="stroke: black; stroke-linecap:round; stroke-width:0.25; stroke-dasharray:3,3;"/>
<line x1="115.500000" y1="37.000000" x2="120.500000" y2="37.000000"  style="stroke: black; stroke-linecap:round; stroke-width:0.25; stroke-dasharray:3,3;"/>
<line x1="152.750000" y1="37.000000" x2="206.000000" y2="37.000000"  style="stroke: black; stroke-linecap:round; stroke-width:0.25; stroke-dasharray:3,3;"/>
<text x="120.500000" y="39.000000" font-family="Arial" font-size="7">vgroup()</text>
<a xlink:href="flute-0x7fba1df860a0.svg">
<rect x="243.000000" y="35.000000" width="38.700000" height="48.000000" rx="0" ry="0" style="stroke:none;fill:#cccccc;"/>
<rect x="242.000000" y="34.000000" width="38.700000" height="48.000000" rx="0" ry="0" style="stroke:none;fill:#003366;"/>
</a>
<a xlink:href="flute-0x7fba1df860a0.svg">
<text x="261.350000" y="60.000000" font-family="Arial" font-size="7" text-anchor="middle" fill="#FFFFFF">flute_out</text>
</a>
<circle cx="244.000000" cy="36.000000" r="1"/>
<line x1="239.000000" y1="57.000000" x2="242.000000" y2="58.000000"  transform="rotate(0.000000,242.000000,58.000000)" style="stroke: black; stroke-width:0.25;"/>
<line x1="239.000000" y1="59.000000" x2="242.000000" y2="58.000000"  transform="rotate(0.000000,242.000000,58.000000)" style="stroke: black; stroke-width:0.25;"/>
<line x1="33.000000" y1="25.000000" x2="33.000000" y2="91.000000"  style="stroke: black; stroke-linecap:round; stroke-width:0.25; stroke-dasharray:3,3;"/>
<line x1="33.000000" y1="91.000000" x2="289.700000" y2="91.000000"  style="stroke: black; stroke-linecap:round; stroke-width:0.25; stroke-dasharray:3,3;"/>
<line x1="289.700000" y1="91.000000" x2="289.700000" y2="25.000000"  style="stroke: black; stroke-linecap:round; stroke-width:0.25; stroke-dasharray:3,3;"/>
<line x1="33.000000" y1="25.000000" x2="38.000000" y2="25.000000"  style="stroke: black; stroke-linecap:round; stroke-width:0.25; stroke-dasharray:3,3;"/>
<line x1="86.375000" y1="25.000000" x2="289.700000" y2="25.000000"  style="stroke: black; stroke-linecap:round; stroke-width:0.25; stroke-dasharray:3,3;"/>
<text x="38.000000" y="27.000000" font-family="Arial" font-size="7">vgroup(FLUTE)</text>
<line x1="15.000000" y1="15.000000" x2="15.000000" y2="101.000000"  style="stroke: black; stroke-linecap:round; stroke-width:0.25; stroke-dasharray:3,3;"/>
<line x1="15.000000" y1="101.000000" x2="307.700000" y2="101.000000"  style="stroke: black; stroke-linecap:round; stroke-width:0.25; stroke-dasharray:3,3;"/>
<line x1="307.700000" y1="101.000000" x2="307.700000" y2="15.000000"  style="stroke: black; stroke-linecap:round; stroke-width:0.25; stroke-dasharray:3,3;"/>
<line x1="15.000000" y1="15.000000" x2="20.000000" y2="15.000000"  style="stroke: black; stroke-linecap:round; stroke-width:0.25; stroke-dasharray:3,3;"/>
<line x1="42.575000" y1="15.000000" x2="307.700000" y2="15.000000"  style="stroke: black; stroke-linecap:round; stroke-width:0.25; stroke-dasharray:3,3;"/>
<text x="20.000000" y="17.000000" font-family="Arial" font-size="7">flute</text>
<line x1="309.700000" y1="37.000000" x2="312.700000" y2="38.000000"  transform="rotate(0.000000,312.700000,38.000000)" style="stroke: black; stroke-width:0.25;"/>
<line x1="309.700000" y1="39.000000" x2="312.700000" y2="38.000000"  transform="rotate(0.000000,312.700000,38.000000)" style="stroke: black; stroke-width:0.25;"/>
<line x1="309.700000" y1="45.000000" x2="312.700000" y2="46.000000"  transform="rotate(0.000000,312.700000,46.000000)" style="stroke: black; stroke-width:0.25;"/>
<line x1="309.700000" y1="47.000000" x2="312.700000" y2="46.000000"  transform="rotate(0.000000,312.700000,46.000000)" style="stroke: black; stroke-width:0.25;"/>
<line x1="309.700000" y1="53.000000" x2="312.700000" y2="54.000000"  transform="rotate(0.000000,312.700000,54.000000)" style="stroke: black; stroke-width:0.25;"/>
<line x1="309.700000" y1="55.000000" x2="312.700000" y2="54.000000"  transform="rotate(0.000000,312.700000,54.000000)" style="stroke: black; stroke-width:0.25;"/>
<line x1="309.700000" y1="61.000000" x2="312.700000" y2="62.000000"  transform="rotate(0.000000,312.700000,62.000000)" style="stroke: black; stroke-width:0.25;"/>
<line x1="309.700000" y1="63.000000" x2="312.700000" y2="62.000000"  transform="rotate(0.000000,312.700000,62.000000)" style="stroke: black; stroke-width:0.25;"/>
<line x1="309.700000" y1="69.000000" x2="312.700000" y2="70.000000"  transform="rotate(0.000000,312.700000,70.000000)" style="stroke: black; stroke-width:0.25;"/>
<line x1="309.700000" y1="71.000000" x2="312.700000" y2="70.000000"  transform="rotate(0.000000,312.700000,70.000000)" style="stroke: black; stroke-width:0.25;"/>
<line x1="309.700000" y1="77.000000" x2="312.700000" y2="78.000000"  transform="rotate(0.000000,312.700000,78.000000)" style="stroke: black; stroke-width:0.25;"/>
<line x1="309.700000" y1="79.000000" x2="312.700000" y2="78.000000"  transform="rotate(0.000000,312.700000,78.000000)" style="stroke: black; stroke-width:0.25;"/>
<line x1="10.000000" y1="50.000000" x2="20.000000" y2="50.000000"  style="stroke:black; stroke-linecap:round; stroke-width:0.25;"/>
<line x1="10.000000" y1="58.000000" x2="20.000000" y2="58.000000"  style="stroke:black; stroke-linecap:round; stroke-width:0.25;"/>
<line x1="10.000000" y1="66.000000" x2="20.000000" y2="66.000000"  style="stroke:black; stroke-linecap:round; stroke-width:0.25;"/>
<line x1="20.000000" y1="50.000000" x2="24.000000" y2="50.000000"  style="stroke:black; stroke-linecap:round; stroke-width:0.25;"/>
<line x1="20.000000" y1="58.000000" x2="24.000000" y2="58.000000"  style="stroke:black; stroke-linecap:round; stroke-width:0.25;"/>
<line x1="20.000000" y1="66.000000" x2="24.000000" y2="66.000000"  style="stroke:black; stroke-linecap:round; stroke-width:0.25;"/>
<line x1="24.000000" y1="50.000000" x2="28.000000" y2="50.000000"  style="stroke:black; stroke-linecap:round; stroke-width:0.25;"/>
<line x1="24.000000" y1="58.000000" x2="28.000000" y2="58.000000"  style="stroke:black; stroke-linecap:round; stroke-width:0.25;"/>
<line x1="24.000000" y1="66.000000" x2="28.000000" y2="66.000000"  style="stroke:black; stroke-linecap:round; stroke-width:0.25;"/>
<line x1="28.000000" y1="50.000000" x2="28.000000" y2="50.000000"  style="stroke:black; stroke-linecap:round; stroke-width:0.25;"/>
<line x1="28.000000" y1="50.000000" x2="38.000000" y2="50.000000"  style="stroke:black; stroke-linecap:round; stroke-width:0.25;"/>
<line x1="28.000000" y1="58.000000" x2="28.000000" y2="58.000000"  style="stroke:black; stroke-linecap:round; stroke-width:0.25;"/>
<line x1="28.000000" y1="58.000000" x2="38.000000" y2="58.000000"  style="stroke:black; stroke-linecap:round; stroke-width:0.25;"/>
<line x1="28.000000" y1="66.000000" x2="28.000000" y2="66.000000"  style="stroke:black; stroke-linecap:round; stroke-width:0.25;"/>
<line x1="28.000000" y1="66.000000" x2="38.000000" y2="66.000000"  style="stroke:black; stroke-linecap:round; stroke-width:0.25;"/>
<line x1="38.000000" y1="50.000000" x2="38.000000" y2="50.000000"  style="stroke:black; stroke-linecap:round; stroke-width:0.25;"/>
<line x1="38.000000" y1="50.000000" x2="42.000000" y2="50.000000"  style="stroke:black; stroke-linecap:round; stroke-width:0.25;"/>
<line x1="38.000000" y1="58.000000" x2="38.000000" y2="58.000000"  style="stroke:black; stroke-linecap:round; stroke-width:0.25;"/>
<line x1="38.000000" y1="58.000000" x2="42.000000" y2="58.000000"  style="stroke:black; stroke-linecap:round; stroke-width:0.25;"/>
<line x1="38.000000" y1="66.000000" x2="38.000000" y2="66.000000"  style="stroke:black; stroke-linecap:round; stroke-width:0.25;"/>
<line x1="38.000000" y1="66.000000" x2="42.000000" y2="66.000000"  style="stroke:black; stroke-linecap:round; stroke-width:0.25;"/>
<line x1="106.500000" y1="58.000000" x2="110.500000" y2="58.000000"  style="stroke:black; stroke-linecap:round; stroke-width:0.25;"/>
<line x1="110.500000" y1="58.000000" x2="110.500000" y2="58.000000"  style="stroke:black; stroke-linecap:round; stroke-width:0.25;"/>
<line x1="110.500000" y1="58.000000" x2="120.500000" y2="58.000000"  style="stroke:black; stroke-linecap:round; stroke-width:0.25;"/>
<line x1="120.500000" y1="58.000000" x2="124.500000" y2="58.000000"  style="stroke:black; stroke-linecap:round; stroke-width:0.25;"/>
<line x1="163.200000" y1="58.000000" x2="167.200000" y2="58.000000"  style="stroke:black; stroke-linecap:round; stroke-width:0.25;"/>
<line x1="167.200000" y1="58.000000" x2="167.200000" y2="58.000000"  style="stroke:black; stroke-linecap:round; stroke-width:0.25;"/>
<line x1="167.200000" y1="58.000000" x2="171.200000" y2="58.000000"  style="stroke:black; stroke-linecap:round; stroke-width:0.25;"/>
<line x1="197.000000" y1="58.000000" x2="201.000000" y2="58.000000"  style="stroke:black; stroke-linecap:round; stroke-width:0.25;"/>
<line x1="201.000000" y1="58.000000" x2="211.000000" y2="58.000000"  style="stroke:black; stroke-linecap:round; stroke-width:0.25;"/>
<line x1="211.000000" y1="58.000000" x2="238.000000" y2="58.000000"  style="stroke:black; stroke-linecap:round; stroke-width:0.25;"/>
<line x1="238.000000" y1="58.000000" x2="242.000000" y2="58.000000"  style="stroke:black; stroke-linecap:round; stroke-width:0.25;"/>
<line x1="280.700000" y1="38.000000" x2="284.700000" y2="38.000000"  style="stroke:black; stroke-linecap:round; stroke-width:0.25;"/>
<line x1="280.700000" y1="46.000000" x2="284.700000" y2="46.000000"  style="stroke:black; stroke-linecap:round; stroke-width:0.25;"/>
<line x1="280.700000" y1="54.000000" x2="284.700000" y2="54.000000"  style="stroke:black; stroke-linecap:round; stroke-width:0.25;"/>
<line x1="280.700000" y1="62.000000" x2="284.700000" y2="62.000000"  style="stroke:black; stroke-linecap:round; stroke-width:0.25;"/>
<line x1="280.700000" y1="70.000000" x2="284.700000" y2="70.000000"  style="stroke:black; stroke-linecap:round; stroke-width:0.25;"/>
<line x1="280.700000" y1="78.000000" x2="284.700000" y2="78.000000"  style="stroke:black; stroke-linecap:round; stroke-width:0.25;"/>
<line x1="284.700000" y1="38.000000" x2="294.700000" y2="38.000000"  style="stroke:black; stroke-linecap:round; stroke-width:0.25;"/>
<line x1="284.700000" y1="46.000000" x2="294.700000" y2="46.000000"  style="stroke:black; stroke-linecap:round; stroke-width:0.25;"/>
<line x1="284.700000" y1="54.000000" x2="294.700000" y2="54.000000"  style="stroke:black; stroke-linecap:round; stroke-width:0.25;"/>
<line x1="284.700000" y1="62.000000" x2="294.700000" y2="62.000000"  style="stroke:black; stroke-linecap:round; stroke-width:0.25;"/>
<line x1="284.700000" y1="70.000000" x2="294.700000" y2="70.000000"  style="stroke:black; stroke-linecap:round; stroke-width:0.25;"/>
<line x1="284.700000" y1="78.000000" x2="294.700000" y2="78.000000"  style="stroke:black; stroke-linecap:round; stroke-width:0.25;"/>
<line x1="294.700000" y1="38.000000" x2="294.700000" y2="38.000000"  style="stroke:black; stroke-linecap:round; stroke-width:0.25;"/>
<line x1="294.700000" y1="38.000000" x2="298.700000" y2="38.000000"  style="stroke:black; stroke-linecap:round; stroke-width:0.25;"/>
<line x1="294.700000" y1="46.000000" x2="294.700000" y2="46.000000"  style="stroke:black; stroke-linecap:round; stroke-width:0.25;"/>
<line x1="294.700000" y1="46.000000" x2="298.700000" y2="46.000000"  style="stroke:black; stroke-linecap:round; stroke-width:0.25;"/>
<line x1="294.700000" y1="54.000000" x2="294.700000" y2="54.000000"  style="stroke:black; stroke-linecap:round; stroke-width:0.25;"/>
<line x1="294.700000" y1="54.000000" x2="298.700000" y2="54.000000"  style="stroke:black; stroke-linecap:round; stroke-width:0.25;"/>
<line x1="294.700000" y1="62.000000" x2="294.700000" y2="62.000000"  style="stroke:black; stroke-linecap:round; stroke-width:0.25;"/>
<line x1="294.700000" y1="62.000000" x2="298.700000" y2="62.000000"  style="stroke:black; stroke-linecap:round; stroke-width:0.25;"/>
<line x1="294.700000" y1="70.000000" x2="294.700000" y2="70.000000"  style="stroke:black; stroke-linecap:round; stroke-width:0.25;"/>
<line x1="294.700000" y1="70.000000" x2="298.700000" y2="70.000000"  style="stroke:black; stroke-linecap:round; stroke-width:0.25;"/>
<line x1="294.700000" y1="78.000000" x2="294.700000" y2="78.000000"  style="stroke:black; stroke-linecap:round; stroke-width:0.25;"/>
<line x1="294.700000" y1="78.000000" x2="298.700000" y2="78.000000"  style="stroke:black; stroke-linecap:round; stroke-width:0.25;"/>
<line x1="298.700000" y1="38.000000" x2="302.700000" y2="38.000000"  style="stroke:black; stroke-linecap:round; stroke-width:0.25;"/>
<line x1="298.700000" y1="46.000000" x2="302.700000" y2="46.000000"  style="stroke:black; stroke-linecap:round; stroke-width:0.25;"/>
<line x1="298.700000" y1="54.000000" x2="302.700000" y2="54.000000"  style="stroke:black; stroke-linecap:round; stroke-width:0.25;"/>
<line x1="298.700000" y1="62.000000" x2="302.700000" y2="62.000000"  style="stroke:black; stroke-linecap:round; stroke-width:0.25;"/>
<line x1="298.700000" y1="70.000000" x2="302.700000" y2="70.000000"  style="stroke:black; stroke-linecap:round; stroke-width:0.25;"/>
<line x1="298.700000" y1="78.000000" x2="302.700000" y2="78.000000"  style="stroke:black; stroke-linecap:round; stroke-width:0.25;"/>
<line x1="302.700000" y1="38.000000" x2="312.700000" y2="38.000000"  style="stroke:black; stroke-linecap:round; stroke-width:0.25;"/>
<line x1="302.700000" y1="46.000000" x2="312.700000" y2="46.000000"  style="stroke:black; stroke-linecap:round; stroke-width:0.25;"/>
<line x1="302.700000" y1="54.000000" x2="312.700000" y2="54.000000"  style="stroke:black; stroke-linecap:round; stroke-width:0.25;"/>
<line x1="302.700000" y1="62.000000" x2="312.700000" y2="62.000000"  style="stroke:black; stroke-linecap:round; stroke-width:0.25;"/>
<line x1="302.700000" y1="70.000000" x2="312.700000" y2="70.000000"  style="stroke:black; stroke-linecap:round; stroke-width:0.25;"/>
<line x1="302.700000" y1="78.000000" x2="312.700000" y2="78.000000"  style="stroke:black; stroke-linecap:round; stroke-width:0.25;"/>
</svg>
