<?xml version="1.0"?>
<svg xmlns="http://www.w3.org/2000/svg" xmlns:xlink="http://www.w3.org/1999/xlink" viewBox="0 0 307.100000 172.000000" width="153.550000mm" height="86.000000mm" version="1.1">
<a xlink:href="basax-0x7fba1df87160.svg">
<rect x="1.000000" y="1.000000" width="306.100000" height="171.000000" rx="0" ry="0" style="stroke:none;fill:#cccccc;"/>
<rect x="0.000000" y="0.000000" width="306.100000" height="171.000000" rx="0" ry="0" style="stroke:none;fill:#ffffff;"/>
</a>
<text x="10.000000" y="7.000000" font-family="Arial" font-size="7"></text>
<rect x="106.000000" y="55.000000" width="77.400000" height="24.000000" rx="0" ry="0" style="stroke:none;fill:#cccccc;"/>
<rect x="105.000000" y="54.000000" width="77.400000" height="24.000000" rx="0" ry="0" style="stroke:none;fill:#477881;"/>
<text x="143.700000" y="68.000000" font-family="Arial" font-size="7" text-anchor="middle" fill="#FFFFFF">checkbox(Bypass)</text>
<circle cx="107.000000" cy="56.000000" r="1"/>
<line x1="96.000000" y1="45.000000" x2="96.000000" y2="87.000000"  style="stroke: black; stroke-linecap:round; stroke-width:0.25; stroke-dasharray:3,3;"/>
<line x1="96.000000" y1="87.000000" x2="191.400000" y2="87.000000"  style="stroke: black; stroke-linecap:round; stroke-width:0.25; stroke-dasharray:3,3;"/>
<line x1="191.400000" y1="87.000000" x2="191.400000" y2="45.000000"  style="stroke: black; stroke-linecap:round; stroke-width:0.25; stroke-dasharray:3,3;"/>
<line x1="96.000000" y1="45.000000" x2="101.000000" y2="45.000000"  style="stroke: black; stroke-linecap:round; stroke-width:0.25; stroke-dasharray:3,3;"/>
<line x1="133.250000" y1="45.000000" x2="191.400000" y2="45.000000"  style="stroke: black; stroke-linecap:round; stroke-width:0.25; stroke-dasharray:3,3;"/>
<text x="101.000000" y="47.000000" font-family="Arial" font-size="7">vgroup()</text>
<line x1="86.000000" y1="35.000000" x2="86.000000" y2="97.000000"  style="stroke: black; stroke-linecap:round; stroke-width:0.25; stroke-dasharray:3,3;"/>
<line x1="86.000000" y1="97.000000" x2="201.400000" y2="97.000000"  style="stroke: black; stroke-linecap:round; stroke-width:0.25; stroke-dasharray:3,3;"/>
<line x1="201.400000" y1="97.000000" x2="201.400000" y2="35.000000"  style="stroke: black; stroke-linecap:round; stroke-width:0.25; stroke-dasharray:3,3;"/>
<line x1="86.000000" y1="35.000000" x2="91.000000" y2="35.000000"  style="stroke: black; stroke-linecap:round; stroke-width:0.25; stroke-dasharray:3,3;"/>
<line x1="155.500000" y1="35.000000" x2="201.400000" y2="35.000000"  style="stroke: black; stroke-linecap:round; stroke-width:0.25; stroke-dasharray:3,3;"/>
<text x="91.000000" y="37.000000" font-family="Arial" font-size="7">vgroup(Compressor)</text>
<line x1="76.000000" y1="25.000000" x2="76.000000" y2="107.000000"  style="stroke: black; stroke-linecap:round; stroke-width:0.25; stroke-dasharray:3,3;"/>
<line x1="76.000000" y1="107.000000" x2="211.400000" y2="107.000000"  style="stroke: black; stroke-linecap:round; stroke-width:0.25; stroke-dasharray:3,3;"/>
<line x1="211.400000" y1="107.000000" x2="211.400000" y2="25.000000"  style="stroke: black; stroke-linecap:round; stroke-width:0.25; stroke-dasharray:3,3;"/>
<line x1="76.000000" y1="25.000000" x2="81.000000" y2="25.000000"  style="stroke: black; stroke-linecap:round; stroke-width:0.25; stroke-dasharray:3,3;"/>
<line x1="97.125000" y1="25.000000" x2="211.400000" y2="25.000000"  style="stroke: black; stroke-linecap:round; stroke-width:0.25; stroke-dasharray:3,3;"/>
<text x="81.000000" y="27.000000" font-family="Arial" font-size="7">cbp</text>
<a xlink:href="inswitch-0x7fba1dc4bfc0.svg">
<rect x="95.550000" y="117.000000" width="38.700000" height="24.000000" rx="0" ry="0" style="stroke:none;fill:#cccccc;"/>
<rect x="94.550000" y="116.000000" width="38.700000" height="24.000000" rx="0" ry="0" style="stroke:none;fill:#003366;"/>
</a>
<a xlink:href="inswitch-0x7fba1dc4bfc0.svg">
<text x="113.900000" y="130.000000" font-family="Arial" font-size="7" text-anchor="middle" fill="#FFFFFF">inswitch</text>
</a>
<circle cx="96.550000" cy="118.000000" r="1"/>
<line x1="91.550000" y1="127.000000" x2="94.550000" y2="128.000000"  transform="rotate(0.000000,94.550000,128.000000)" style="stroke: black; stroke-width:0.25;"/>
<line x1="91.550000" y1="129.000000" x2="94.550000" y2="128.000000"  transform="rotate(0.000000,94.550000,128.000000)" style="stroke: black; stroke-width:0.25;"/>
<a xlink:href="gs-0x7fba1dc72030.svg">
<rect x="142.250000" y="117.000000" width="51.600000" height="24.000000" rx="0" ry="0" style="stroke:none;fill:#cccccc;"/>
<rect x="141.250000" y="116.000000" width="51.600000" height="24.000000" rx="0" ry="0" style="stroke:none;fill:#003366;"/>
</a>
<a xlink:href="gs-0x7fba1dc72030.svg">
<text x="167.050000" y="130.000000" font-family="Arial" font-size="7" text-anchor="middle" fill="#FFFFFF">gs_mono_comp</text>
</a>
<circle cx="143.250000" cy="118.000000" r="1"/>
<line x1="138.250000" y1="127.000000" x2="141.250000" y2="128.000000"  transform="rotate(0.000000,141.250000,128.000000)" style="stroke: black; stroke-width:0.25;"/>
<line x1="138.250000" y1="129.000000" x2="141.250000" y2="128.000000"  transform="rotate(0.000000,141.250000,128.000000)" style="stroke: black; stroke-width:0.25;"/>
<rect x="237.400000" y="75.000000" width="38.700000" height="24.000000" rx="0" ry="0" style="stroke:none;fill:#cccccc;"/>
<rect x="236.400000" y="74.000000" width="38.700000" height="24.000000" rx="0" ry="0" style="stroke:none;fill:#4B71A1;"/>
<text x="255.750000" y="88.000000" font-family="Arial" font-size="7" text-anchor="middle" fill="#FFFFFF">select2</text>
<circle cx="238.400000" cy="76.000000" r="1"/>
<line x1="233.400000" y1="77.000000" x2="236.400000" y2="78.000000"  transform="rotate(0.000000,236.400000,78.000000)" style="stroke: black; stroke-width:0.25;"/>
<line x1="233.400000" y1="79.000000" x2="236.400000" y2="78.000000"  transform="rotate(0.000000,236.400000,78.000000)" style="stroke: black; stroke-width:0.25;"/>
<line x1="233.400000" y1="85.000000" x2="236.400000" y2="86.000000"  transform="rotate(0.000000,236.400000,86.000000)" style="stroke: black; stroke-width:0.25;"/>
<line x1="233.400000" y1="87.000000" x2="236.400000" y2="86.000000"  transform="rotate(0.000000,236.400000,86.000000)" style="stroke: black; stroke-width:0.25;"/>
<line x1="233.400000" y1="93.000000" x2="236.400000" y2="94.000000"  transform="rotate(0.000000,236.400000,94.000000)" style="stroke: black; stroke-width:0.25;"/>
<line x1="233.400000" y1="95.000000" x2="236.400000" y2="94.000000"  transform="rotate(0.000000,236.400000,94.000000)" style="stroke: black; stroke-width:0.25;"/>
<line x1="15.000000" y1="15.000000" x2="15.000000" y2="157.000000"  style="stroke: black; stroke-linecap:round; stroke-width:0.25; stroke-dasharray:3,3;"/>
<line x1="15.000000" y1="157.000000" x2="292.100000" y2="157.000000"  style="stroke: black; stroke-linecap:round; stroke-width:0.25; stroke-dasharray:3,3;"/>
<line x1="292.100000" y1="157.000000" x2="292.100000" y2="15.000000"  style="stroke: black; stroke-linecap:round; stroke-width:0.25; stroke-dasharray:3,3;"/>
<line x1="15.000000" y1="15.000000" x2="20.000000" y2="15.000000"  style="stroke: black; stroke-linecap:round; stroke-width:0.25; stroke-dasharray:3,3;"/>
<line x1="55.475000" y1="15.000000" x2="292.100000" y2="15.000000"  style="stroke: black; stroke-linecap:round; stroke-width:0.25; stroke-dasharray:3,3;"/>
<text x="20.000000" y="17.000000" font-family="Arial" font-size="7">gs_m_comp</text>
<line x1="294.100000" y1="85.000000" x2="297.100000" y2="86.000000"  transform="rotate(0.000000,297.100000,86.000000)" style="stroke: black; stroke-width:0.25;"/>
<line x1="294.100000" y1="87.000000" x2="297.100000" y2="86.000000"  transform="rotate(0.000000,297.100000,86.000000)" style="stroke: black; stroke-width:0.25;"/>
<line x1="10.000000" y1="86.000000" x2="20.000000" y2="86.000000"  style="stroke:black; stroke-linecap:round; stroke-width:0.25;"/>
<line x1="20.000000" y1="86.000000" x2="24.000000" y2="86.000000"  style="stroke:black; stroke-linecap:round; stroke-width:0.25;"/>
<line x1="24.000000" y1="86.000000" x2="28.000000" y2="86.000000"  style="stroke:black; stroke-linecap:round; stroke-width:0.25;"/>
<line x1="28.000000" y1="86.000000" x2="28.000000" y2="86.000000"  style="stroke:black; stroke-linecap:round; stroke-width:0.25;"/>
<line x1="28.000000" y1="86.000000" x2="32.000000" y2="86.000000"  style="stroke:black; stroke-linecap:round; stroke-width:0.25;"/>
<line x1="32.000000" y1="86.000000" x2="36.000000" y2="86.000000"  style="stroke:black; stroke-linecap:round; stroke-width:0.25;"/>
<line x1="36.000000" y1="86.000000" x2="71.000000" y2="128.000000"  style="stroke:black; stroke-linecap:round; stroke-width:0.25;"/>
<line x1="36.000000" y1="86.000000" x2="71.000000" y2="148.000000"  style="stroke:black; stroke-linecap:round; stroke-width:0.25;"/>
<line x1="71.000000" y1="128.000000" x2="90.550000" y2="128.000000"  style="stroke:black; stroke-linecap:round; stroke-width:0.25;"/>
<line x1="71.000000" y1="148.000000" x2="90.550000" y2="148.000000"  style="stroke:black; stroke-linecap:round; stroke-width:0.25;"/>
<line x1="90.550000" y1="128.000000" x2="94.550000" y2="128.000000"  style="stroke:black; stroke-linecap:round; stroke-width:0.25;"/>
<line x1="90.550000" y1="148.000000" x2="143.700000" y2="148.000000"  style="stroke:black; stroke-linecap:round; stroke-width:0.25;"/>
<line x1="133.250000" y1="128.000000" x2="137.250000" y2="128.000000"  style="stroke:black; stroke-linecap:round; stroke-width:0.25;"/>
<line x1="137.250000" y1="128.000000" x2="137.250000" y2="128.000000"  style="stroke:black; stroke-linecap:round; stroke-width:0.25;"/>
<line x1="137.250000" y1="128.000000" x2="141.250000" y2="128.000000"  style="stroke:black; stroke-linecap:round; stroke-width:0.25;"/>
<line x1="143.700000" y1="148.000000" x2="196.850000" y2="148.000000"  style="stroke:black; stroke-linecap:round; stroke-width:0.25;"/>
<line x1="182.400000" y1="66.000000" x2="186.400000" y2="66.000000"  style="stroke:black; stroke-linecap:round; stroke-width:0.25;"/>
<line x1="186.400000" y1="66.000000" x2="196.400000" y2="66.000000"  style="stroke:black; stroke-linecap:round; stroke-width:0.25;"/>
<line x1="192.850000" y1="128.000000" x2="196.850000" y2="128.000000"  style="stroke:black; stroke-linecap:round; stroke-width:0.25;"/>
<line x1="196.400000" y1="66.000000" x2="206.400000" y2="66.000000"  style="stroke:black; stroke-linecap:round; stroke-width:0.25;"/>
<line x1="196.850000" y1="148.000000" x2="216.400000" y2="148.000000"  style="stroke:black; stroke-linecap:round; stroke-width:0.25;"/>
<line x1="196.850000" y1="128.000000" x2="216.400000" y2="128.000000"  style="stroke:black; stroke-linecap:round; stroke-width:0.25;"/>
<line x1="206.400000" y1="66.000000" x2="216.400000" y2="66.000000"  style="stroke:black; stroke-linecap:round; stroke-width:0.25;"/>
<line x1="216.400000" y1="66.000000" x2="232.400000" y2="66.000000"  style="stroke:black; stroke-linecap:round; stroke-width:0.25;"/>
<line x1="216.400000" y1="86.000000" x2="232.400000" y2="86.000000"  style="stroke:black; stroke-linecap:round; stroke-width:0.25;"/>
<line x1="216.400000" y1="128.000000" x2="216.400000" y2="86.000000"  style="stroke:black; stroke-linecap:round; stroke-width:0.25;"/>
<line x1="216.400000" y1="128.000000" x2="216.400000" y2="128.000000"  style="stroke:black; stroke-linecap:round; stroke-width:0.25;"/>
<line x1="216.400000" y1="148.000000" x2="224.400000" y2="148.000000"  style="stroke:black; stroke-linecap:round; stroke-width:0.25;"/>
<line x1="224.400000" y1="94.000000" x2="232.400000" y2="94.000000"  style="stroke:black; stroke-linecap:round; stroke-width:0.25;"/>
<line x1="224.400000" y1="148.000000" x2="224.400000" y2="94.000000"  style="stroke:black; stroke-linecap:round; stroke-width:0.25;"/>
<line x1="232.400000" y1="66.000000" x2="232.400000" y2="78.000000"  style="stroke:black; stroke-linecap:round; stroke-width:0.25;"/>
<line x1="232.400000" y1="78.000000" x2="232.400000" y2="78.000000"  style="stroke:black; stroke-linecap:round; stroke-width:0.25;"/>
<line x1="232.400000" y1="78.000000" x2="236.400000" y2="78.000000"  style="stroke:black; stroke-linecap:round; stroke-width:0.25;"/>
<line x1="232.400000" y1="86.000000" x2="236.400000" y2="86.000000"  style="stroke:black; stroke-linecap:round; stroke-width:0.25;"/>
<line x1="232.400000" y1="94.000000" x2="236.400000" y2="94.000000"  style="stroke:black; stroke-linecap:round; stroke-width:0.25;"/>
<line x1="275.100000" y1="86.000000" x2="279.100000" y2="86.000000"  style="stroke:black; stroke-linecap:round; stroke-width:0.25;"/>
<line x1="279.100000" y1="86.000000" x2="279.100000" y2="86.000000"  style="stroke:black; stroke-linecap:round; stroke-width:0.25;"/>
<line x1="279.100000" y1="86.000000" x2="283.100000" y2="86.000000"  style="stroke:black; stroke-linecap:round; stroke-width:0.25;"/>
<line x1="283.100000" y1="86.000000" x2="287.100000" y2="86.000000"  style="stroke:black; stroke-linecap:round; stroke-width:0.25;"/>
<line x1="287.100000" y1="86.000000" x2="297.100000" y2="86.000000"  style="stroke:black; stroke-linecap:round; stroke-width:0.25;"/>
</svg>
