<?xml version="1.0"?>
<svg xmlns="http://www.w3.org/2000/svg" xmlns:xlink="http://www.w3.org/1999/xlink" viewBox="0 0 419.300000 248.000000" width="209.650000mm" height="124.000000mm" version="1.1">
<rect x="1.000000" y="1.000000" width="418.300000" height="247.000000" rx="0" ry="0" style="stroke:none;fill:#cccccc;"/>
<rect x="0.000000" y="0.000000" width="418.300000" height="247.000000" rx="0" ry="0" style="stroke:none;fill:#ffffff;"/>
<text x="10.000000" y="7.000000" font-family="Arial" font-size="7"></text>
<a xlink:href="flute-0x7fba1df86290.svg">
<rect x="209.000000" y="45.000000" width="25.800000" height="48.000000" rx="0" ry="0" style="stroke:none;fill:#cccccc;"/>
<rect x="208.000000" y="44.000000" width="25.800000" height="48.000000" rx="0" ry="0" style="stroke:none;fill:#003366;"/>
</a>
<a xlink:href="flute-0x7fba1df86290.svg">
<text x="220.900000" y="70.000000" font-family="Arial" font-size="7" text-anchor="middle" fill="#FFFFFF">flute</text>
</a>
<circle cx="210.000000" cy="46.000000" r="1"/>
<line x1="205.000000" y1="59.000000" x2="208.000000" y2="60.000000"  transform="rotate(0.000000,208.000000,60.000000)" style="stroke: black; stroke-width:0.25;"/>
<line x1="205.000000" y1="61.000000" x2="208.000000" y2="60.000000"  transform="rotate(0.000000,208.000000,60.000000)" style="stroke: black; stroke-width:0.25;"/>
<line x1="205.000000" y1="67.000000" x2="208.000000" y2="68.000000"  transform="rotate(0.000000,208.000000,68.000000)" style="stroke: black; stroke-width:0.25;"/>
<line x1="205.000000" y1="69.000000" x2="208.000000" y2="68.000000"  transform="rotate(0.000000,208.000000,68.000000)" style="stroke: black; stroke-width:0.25;"/>
<line x1="205.000000" y1="75.000000" x2="208.000000" y2="76.000000"  transform="rotate(0.000000,208.000000,76.000000)" style="stroke: black; stroke-width:0.25;"/>
<line x1="205.000000" y1="77.000000" x2="208.000000" y2="76.000000"  transform="rotate(0.000000,208.000000,76.000000)" style="stroke: black; stroke-width:0.25;"/>
<a xlink:href="dbass-0x7fba1df86a10.svg">
<rect x="209.000000" y="101.000000" width="25.800000" height="48.000000" rx="0" ry="0" style="stroke:none;fill:#cccccc;"/>
<rect x="208.000000" y="100.000000" width="25.800000" height="48.000000" rx="0" ry="0" style="stroke:none;fill:#003366;"/>
</a>
<a xlink:href="dbass-0x7fba1df86a10.svg">
<text x="220.900000" y="126.000000" font-family="Arial" font-size="7" text-anchor="middle" fill="#FFFFFF">dbass</text>
</a>
<circle cx="210.000000" cy="102.000000" r="1"/>
<line x1="205.000000" y1="115.000000" x2="208.000000" y2="116.000000"  transform="rotate(0.000000,208.000000,116.000000)" style="stroke: black; stroke-width:0.25;"/>
<line x1="205.000000" y1="117.000000" x2="208.000000" y2="116.000000"  transform="rotate(0.000000,208.000000,116.000000)" style="stroke: black; stroke-width:0.25;"/>
<line x1="205.000000" y1="123.000000" x2="208.000000" y2="124.000000"  transform="rotate(0.000000,208.000000,124.000000)" style="stroke: black; stroke-width:0.25;"/>
<line x1="205.000000" y1="125.000000" x2="208.000000" y2="124.000000"  transform="rotate(0.000000,208.000000,124.000000)" style="stroke: black; stroke-width:0.25;"/>
<line x1="205.000000" y1="131.000000" x2="208.000000" y2="132.000000"  transform="rotate(0.000000,208.000000,132.000000)" style="stroke: black; stroke-width:0.25;"/>
<line x1="205.000000" y1="133.000000" x2="208.000000" y2="132.000000"  transform="rotate(0.000000,208.000000,132.000000)" style="stroke: black; stroke-width:0.25;"/>
<a xlink:href="basax-0x7fba1df87160.svg">
<rect x="209.000000" y="157.000000" width="25.800000" height="48.000000" rx="0" ry="0" style="stroke:none;fill:#cccccc;"/>
<rect x="208.000000" y="156.000000" width="25.800000" height="48.000000" rx="0" ry="0" style="stroke:none;fill:#003366;"/>
</a>
<a xlink:href="basax-0x7fba1df87160.svg">
<text x="220.900000" y="182.000000" font-family="Arial" font-size="7" text-anchor="middle" fill="#FFFFFF">basax</text>
</a>
<circle cx="210.000000" cy="158.000000" r="1"/>
<line x1="205.000000" y1="171.000000" x2="208.000000" y2="172.000000"  transform="rotate(0.000000,208.000000,172.000000)" style="stroke: black; stroke-width:0.25;"/>
<line x1="205.000000" y1="173.000000" x2="208.000000" y2="172.000000"  transform="rotate(0.000000,208.000000,172.000000)" style="stroke: black; stroke-width:0.25;"/>
<line x1="205.000000" y1="179.000000" x2="208.000000" y2="180.000000"  transform="rotate(0.000000,208.000000,180.000000)" style="stroke: black; stroke-width:0.25;"/>
<line x1="205.000000" y1="181.000000" x2="208.000000" y2="180.000000"  transform="rotate(0.000000,208.000000,180.000000)" style="stroke: black; stroke-width:0.25;"/>
<line x1="205.000000" y1="187.000000" x2="208.000000" y2="188.000000"  transform="rotate(0.000000,208.000000,188.000000)" style="stroke: black; stroke-width:0.25;"/>
<line x1="205.000000" y1="189.000000" x2="208.000000" y2="188.000000"  transform="rotate(0.000000,208.000000,188.000000)" style="stroke: black; stroke-width:0.25;"/>
<line x1="199.000000" y1="35.000000" x2="199.000000" y2="213.000000"  style="stroke: black; stroke-linecap:round; stroke-width:0.25; stroke-dasharray:3,3;"/>
<line x1="199.000000" y1="213.000000" x2="242.800000" y2="213.000000"  style="stroke: black; stroke-linecap:round; stroke-width:0.25; stroke-dasharray:3,3;"/>
<line x1="242.800000" y1="213.000000" x2="242.800000" y2="35.000000"  style="stroke: black; stroke-linecap:round; stroke-width:0.25; stroke-dasharray:3,3;"/>
<line x1="199.000000" y1="35.000000" x2="204.000000" y2="35.000000"  style="stroke: black; stroke-linecap:round; stroke-width:0.25; stroke-dasharray:3,3;"/>
<line x1="236.250000" y1="35.000000" x2="242.800000" y2="35.000000"  style="stroke: black; stroke-linecap:round; stroke-width:0.25; stroke-dasharray:3,3;"/>
<text x="204.000000" y="37.000000" font-family="Arial" font-size="7">hgroup()</text>
<a xlink:href="output-0x7fba1df87990.svg">
<rect x="313.800000" y="101.000000" width="64.500000" height="48.000000" rx="0" ry="0" style="stroke:none;fill:#cccccc;"/>
<rect x="312.800000" y="100.000000" width="64.500000" height="48.000000" rx="0" ry="0" style="stroke:none;fill:#003366;"/>
</a>
<a xlink:href="output-0x7fba1df87990.svg">
<text x="345.050000" y="126.000000" font-family="Arial" font-size="7" text-anchor="middle" fill="#FFFFFF">output_metering</text>
</a>
<circle cx="314.800000" cy="102.000000" r="1"/>
<line x1="309.800000" y1="103.000000" x2="312.800000" y2="104.000000"  transform="rotate(0.000000,312.800000,104.000000)" style="stroke: black; stroke-width:0.25;"/>
<line x1="309.800000" y1="105.000000" x2="312.800000" y2="104.000000"  transform="rotate(0.000000,312.800000,104.000000)" style="stroke: black; stroke-width:0.25;"/>
<line x1="309.800000" y1="111.000000" x2="312.800000" y2="112.000000"  transform="rotate(0.000000,312.800000,112.000000)" style="stroke: black; stroke-width:0.25;"/>
<line x1="309.800000" y1="113.000000" x2="312.800000" y2="112.000000"  transform="rotate(0.000000,312.800000,112.000000)" style="stroke: black; stroke-width:0.25;"/>
<line x1="309.800000" y1="119.000000" x2="312.800000" y2="120.000000"  transform="rotate(0.000000,312.800000,120.000000)" style="stroke: black; stroke-width:0.25;"/>
<line x1="309.800000" y1="121.000000" x2="312.800000" y2="120.000000"  transform="rotate(0.000000,312.800000,120.000000)" style="stroke: black; stroke-width:0.25;"/>
<line x1="309.800000" y1="127.000000" x2="312.800000" y2="128.000000"  transform="rotate(0.000000,312.800000,128.000000)" style="stroke: black; stroke-width:0.25;"/>
<line x1="309.800000" y1="129.000000" x2="312.800000" y2="128.000000"  transform="rotate(0.000000,312.800000,128.000000)" style="stroke: black; stroke-width:0.25;"/>
<line x1="309.800000" y1="135.000000" x2="312.800000" y2="136.000000"  transform="rotate(0.000000,312.800000,136.000000)" style="stroke: black; stroke-width:0.25;"/>
<line x1="309.800000" y1="137.000000" x2="312.800000" y2="136.000000"  transform="rotate(0.000000,312.800000,136.000000)" style="stroke: black; stroke-width:0.25;"/>
<line x1="309.800000" y1="143.000000" x2="312.800000" y2="144.000000"  transform="rotate(0.000000,312.800000,144.000000)" style="stroke: black; stroke-width:0.25;"/>
<line x1="309.800000" y1="145.000000" x2="312.800000" y2="144.000000"  transform="rotate(0.000000,312.800000,144.000000)" style="stroke: black; stroke-width:0.25;"/>
<line x1="189.000000" y1="25.000000" x2="189.000000" y2="223.000000"  style="stroke: black; stroke-linecap:round; stroke-width:0.25; stroke-dasharray:3,3;"/>
<line x1="189.000000" y1="223.000000" x2="386.300000" y2="223.000000"  style="stroke: black; stroke-linecap:round; stroke-width:0.25; stroke-dasharray:3,3;"/>
<line x1="386.300000" y1="223.000000" x2="386.300000" y2="25.000000"  style="stroke: black; stroke-linecap:round; stroke-width:0.25; stroke-dasharray:3,3;"/>
<line x1="189.000000" y1="25.000000" x2="194.000000" y2="25.000000"  style="stroke: black; stroke-linecap:round; stroke-width:0.25; stroke-dasharray:3,3;"/>
<line x1="226.250000" y1="25.000000" x2="386.300000" y2="25.000000"  style="stroke: black; stroke-linecap:round; stroke-width:0.25; stroke-dasharray:3,3;"/>
<text x="194.000000" y="27.000000" font-family="Arial" font-size="7">vgroup()</text>
<line x1="15.000000" y1="15.000000" x2="15.000000" y2="233.000000"  style="stroke: black; stroke-linecap:round; stroke-width:0.25; stroke-dasharray:3,3;"/>
<line x1="15.000000" y1="233.000000" x2="404.300000" y2="233.000000"  style="stroke: black; stroke-linecap:round; stroke-width:0.25; stroke-dasharray:3,3;"/>
<line x1="404.300000" y1="233.000000" x2="404.300000" y2="15.000000"  style="stroke: black; stroke-linecap:round; stroke-width:0.25; stroke-dasharray:3,3;"/>
<line x1="15.000000" y1="15.000000" x2="20.000000" y2="15.000000"  style="stroke: black; stroke-linecap:round; stroke-width:0.25; stroke-dasharray:3,3;"/>
<line x1="49.025000" y1="15.000000" x2="404.300000" y2="15.000000"  style="stroke: black; stroke-linecap:round; stroke-width:0.25; stroke-dasharray:3,3;"/>
<text x="20.000000" y="17.000000" font-family="Arial" font-size="7">process</text>
<line x1="406.300000" y1="103.000000" x2="409.300000" y2="104.000000"  transform="rotate(0.000000,409.300000,104.000000)" style="stroke: black; stroke-width:0.25;"/>
<line x1="406.300000" y1="105.000000" x2="409.300000" y2="104.000000"  transform="rotate(0.000000,409.300000,104.000000)" style="stroke: black; stroke-width:0.25;"/>
<line x1="406.300000" y1="111.000000" x2="409.300000" y2="112.000000"  transform="rotate(0.000000,409.300000,112.000000)" style="stroke: black; stroke-width:0.25;"/>
<line x1="406.300000" y1="113.000000" x2="409.300000" y2="112.000000"  transform="rotate(0.000000,409.300000,112.000000)" style="stroke: black; stroke-width:0.25;"/>
<line x1="406.300000" y1="119.000000" x2="409.300000" y2="120.000000"  transform="rotate(0.000000,409.300000,120.000000)" style="stroke: black; stroke-width:0.25;"/>
<line x1="406.300000" y1="121.000000" x2="409.300000" y2="120.000000"  transform="rotate(0.000000,409.300000,120.000000)" style="stroke: black; stroke-width:0.25;"/>
<line x1="406.300000" y1="127.000000" x2="409.300000" y2="128.000000"  transform="rotate(0.000000,409.300000,128.000000)" style="stroke: black; stroke-width:0.25;"/>
<line x1="406.300000" y1="129.000000" x2="409.300000" y2="128.000000"  transform="rotate(0.000000,409.300000,128.000000)" style="stroke: black; stroke-width:0.25;"/>
<line x1="406.300000" y1="135.000000" x2="409.300000" y2="136.000000"  transform="rotate(0.000000,409.300000,136.000000)" style="stroke: black; stroke-width:0.25;"/>
<line x1="406.300000" y1="137.000000" x2="409.300000" y2="136.000000"  transform="rotate(0.000000,409.300000,136.000000)" style="stroke: black; stroke-width:0.25;"/>
<line x1="406.300000" y1="143.000000" x2="409.300000" y2="144.000000"  transform="rotate(0.000000,409.300000,144.000000)" style="stroke: black; stroke-width:0.25;"/>
<line x1="406.300000" y1="145.000000" x2="409.300000" y2="144.000000"  transform="rotate(0.000000,409.300000,144.000000)" style="stroke: black; stroke-width:0.25;"/>
<line x1="10.000000" y1="64.000000" x2="20.000000" y2="64.000000"  style="stroke:black; stroke-linecap:round; stroke-width:0.25;"/>
<line x1="10.000000" y1="72.000000" x2="20.000000" y2="72.000000"  style="stroke:black; stroke-linecap:round; stroke-width:0.25;"/>
<line x1="10.000000" y1="80.000000" x2="20.000000" y2="80.000000"  style="stroke:black; stroke-linecap:round; stroke-width:0.25;"/>
<line x1="10.000000" y1="88.000000" x2="20.000000" y2="88.000000"  style="stroke:black; stroke-linecap:round; stroke-width:0.25;"/>
<line x1="10.000000" y1="96.000000" x2="20.000000" y2="96.000000"  style="stroke:black; stroke-linecap:round; stroke-width:0.25;"/>
<line x1="10.000000" y1="104.000000" x2="20.000000" y2="104.000000"  style="stroke:black; stroke-linecap:round; stroke-width:0.25;"/>
<line x1="10.000000" y1="112.000000" x2="20.000000" y2="112.000000"  style="stroke:black; stroke-linecap:round; stroke-width:0.25;"/>
<line x1="10.000000" y1="120.000000" x2="20.000000" y2="120.000000"  style="stroke:black; stroke-linecap:round; stroke-width:0.25;"/>
<line x1="10.000000" y1="128.000000" x2="20.000000" y2="128.000000"  style="stroke:black; stroke-linecap:round; stroke-width:0.25;"/>
<line x1="10.000000" y1="136.000000" x2="20.000000" y2="136.000000"  style="stroke:black; stroke-linecap:round; stroke-width:0.25;"/>
<line x1="10.000000" y1="144.000000" x2="20.000000" y2="144.000000"  style="stroke:black; stroke-linecap:round; stroke-width:0.25;"/>
<line x1="10.000000" y1="152.000000" x2="20.000000" y2="152.000000"  style="stroke:black; stroke-linecap:round; stroke-width:0.25;"/>
<line x1="10.000000" y1="160.000000" x2="20.000000" y2="160.000000"  style="stroke:black; stroke-linecap:round; stroke-width:0.25;"/>
<line x1="10.000000" y1="168.000000" x2="20.000000" y2="168.000000"  style="stroke:black; stroke-linecap:round; stroke-width:0.25;"/>
<line x1="10.000000" y1="176.000000" x2="20.000000" y2="176.000000"  style="stroke:black; stroke-linecap:round; stroke-width:0.25;"/>
<line x1="10.000000" y1="184.000000" x2="20.000000" y2="184.000000"  style="stroke:black; stroke-linecap:round; stroke-width:0.25;"/>
<line x1="20.000000" y1="64.000000" x2="24.000000" y2="64.000000"  style="stroke:black; stroke-linecap:round; stroke-width:0.25;"/>
<line x1="20.000000" y1="72.000000" x2="24.000000" y2="72.000000"  style="stroke:black; stroke-linecap:round; stroke-width:0.25;"/>
<line x1="20.000000" y1="80.000000" x2="24.000000" y2="80.000000"  style="stroke:black; stroke-linecap:round; stroke-width:0.25;"/>
<line x1="20.000000" y1="88.000000" x2="24.000000" y2="88.000000"  style="stroke:black; stroke-linecap:round; stroke-width:0.25;"/>
<line x1="20.000000" y1="96.000000" x2="24.000000" y2="96.000000"  style="stroke:black; stroke-linecap:round; stroke-width:0.25;"/>
<line x1="20.000000" y1="104.000000" x2="24.000000" y2="104.000000"  style="stroke:black; stroke-linecap:round; stroke-width:0.25;"/>
<line x1="20.000000" y1="112.000000" x2="24.000000" y2="112.000000"  style="stroke:black; stroke-linecap:round; stroke-width:0.25;"/>
<line x1="20.000000" y1="120.000000" x2="24.000000" y2="120.000000"  style="stroke:black; stroke-linecap:round; stroke-width:0.25;"/>
<line x1="20.000000" y1="128.000000" x2="24.000000" y2="128.000000"  style="stroke:black; stroke-linecap:round; stroke-width:0.25;"/>
<line x1="20.000000" y1="136.000000" x2="24.000000" y2="136.000000"  style="stroke:black; stroke-linecap:round; stroke-width:0.25;"/>
<line x1="20.000000" y1="144.000000" x2="24.000000" y2="144.000000"  style="stroke:black; stroke-linecap:round; stroke-width:0.25;"/>
<line x1="20.000000" y1="152.000000" x2="24.000000" y2="152.000000"  style="stroke:black; stroke-linecap:round; stroke-width:0.25;"/>
<line x1="20.000000" y1="160.000000" x2="24.000000" y2="160.000000"  style="stroke:black; stroke-linecap:round; stroke-width:0.25;"/>
<line x1="20.000000" y1="168.000000" x2="24.000000" y2="168.000000"  style="stroke:black; stroke-linecap:round; stroke-width:0.25;"/>
<line x1="20.000000" y1="176.000000" x2="24.000000" y2="176.000000"  style="stroke:black; stroke-linecap:round; stroke-width:0.25;"/>
<line x1="20.000000" y1="184.000000" x2="24.000000" y2="184.000000"  style="stroke:black; stroke-linecap:round; stroke-width:0.25;"/>
<line x1="24.000000" y1="160.000000" x2="28.000000" y2="160.000000"  style="stroke:black; stroke-linecap:round; stroke-width:0.25;"/>
<line x1="24.000000" y1="168.000000" x2="28.000000" y2="168.000000"  style="stroke:black; stroke-linecap:round; stroke-width:0.25;"/>
<line x1="24.000000" y1="176.000000" x2="28.000000" y2="176.000000"  style="stroke:black; stroke-linecap:round; stroke-width:0.25;"/>
<line x1="28.000000" y1="160.000000" x2="28.000000" y2="160.000000"  style="stroke:black; stroke-linecap:round; stroke-width:0.25;"/>
<line x1="28.000000" y1="160.000000" x2="68.000000" y2="160.000000"  style="stroke:black; stroke-linecap:round; stroke-width:0.25;"/>
<line x1="28.000000" y1="168.000000" x2="28.000000" y2="168.000000"  style="stroke:black; stroke-linecap:round; stroke-width:0.25;"/>
<line x1="28.000000" y1="168.000000" x2="76.000000" y2="168.000000"  style="stroke:black; stroke-linecap:round; stroke-width:0.25;"/>
<line x1="28.000000" y1="176.000000" x2="28.000000" y2="176.000000"  style="stroke:black; stroke-linecap:round; stroke-width:0.25;"/>
<line x1="28.000000" y1="176.000000" x2="84.000000" y2="176.000000"  style="stroke:black; stroke-linecap:round; stroke-width:0.25;"/>
<line x1="68.000000" y1="116.440000" x2="100.000000" y2="116.440000"  style="stroke:black; stroke-linecap:round; stroke-width:0.25;"/>
<line x1="68.000000" y1="160.000000" x2="68.000000" y2="116.440000"  style="stroke:black; stroke-linecap:round; stroke-width:0.25;"/>
<line x1="76.000000" y1="124.440000" x2="100.000000" y2="124.440000"  style="stroke:black; stroke-linecap:round; stroke-width:0.25;"/>
<line x1="76.000000" y1="168.000000" x2="76.000000" y2="124.440000"  style="stroke:black; stroke-linecap:round; stroke-width:0.25;"/>
<line x1="84.000000" y1="132.440000" x2="100.000000" y2="132.440000"  style="stroke:black; stroke-linecap:round; stroke-width:0.25;"/>
<line x1="84.000000" y1="176.000000" x2="84.000000" y2="132.440000"  style="stroke:black; stroke-linecap:round; stroke-width:0.25;"/>
<line x1="100.000000" y1="116.440000" x2="184.000000" y2="60.000000"  style="stroke:black; stroke-linecap:round; stroke-width:0.25;"/>
<line x1="100.000000" y1="116.440000" x2="184.000000" y2="116.000000"  style="stroke:black; stroke-linecap:round; stroke-width:0.25;"/>
<line x1="100.000000" y1="116.440000" x2="184.000000" y2="172.000000"  style="stroke:black; stroke-linecap:round; stroke-width:0.25;"/>
<line x1="100.000000" y1="124.440000" x2="184.000000" y2="68.000000"  style="stroke:black; stroke-linecap:round; stroke-width:0.25;"/>
<line x1="100.000000" y1="124.440000" x2="184.000000" y2="124.000000"  style="stroke:black; stroke-linecap:round; stroke-width:0.25;"/>
<line x1="100.000000" y1="124.440000" x2="184.000000" y2="180.000000"  style="stroke:black; stroke-linecap:round; stroke-width:0.25;"/>
<line x1="100.000000" y1="132.440000" x2="184.000000" y2="76.000000"  style="stroke:black; stroke-linecap:round; stroke-width:0.25;"/>
<line x1="100.000000" y1="132.440000" x2="184.000000" y2="132.000000"  style="stroke:black; stroke-linecap:round; stroke-width:0.25;"/>
<line x1="100.000000" y1="132.440000" x2="184.000000" y2="188.000000"  style="stroke:black; stroke-linecap:round; stroke-width:0.25;"/>
<line x1="184.000000" y1="60.000000" x2="194.000000" y2="60.000000"  style="stroke:black; stroke-linecap:round; stroke-width:0.25;"/>
<line x1="184.000000" y1="68.000000" x2="194.000000" y2="68.000000"  style="stroke:black; stroke-linecap:round; stroke-width:0.25;"/>
<line x1="184.000000" y1="76.000000" x2="194.000000" y2="76.000000"  style="stroke:black; stroke-linecap:round; stroke-width:0.25;"/>
<line x1="184.000000" y1="116.000000" x2="194.000000" y2="116.000000"  style="stroke:black; stroke-linecap:round; stroke-width:0.25;"/>
<line x1="184.000000" y1="124.000000" x2="194.000000" y2="124.000000"  style="stroke:black; stroke-linecap:round; stroke-width:0.25;"/>
<line x1="184.000000" y1="132.000000" x2="194.000000" y2="132.000000"  style="stroke:black; stroke-linecap:round; stroke-width:0.25;"/>
<line x1="184.000000" y1="172.000000" x2="194.000000" y2="172.000000"  style="stroke:black; stroke-linecap:round; stroke-width:0.25;"/>
<line x1="184.000000" y1="180.000000" x2="194.000000" y2="180.000000"  style="stroke:black; stroke-linecap:round; stroke-width:0.25;"/>
<line x1="184.000000" y1="188.000000" x2="194.000000" y2="188.000000"  style="stroke:black; stroke-linecap:round; stroke-width:0.25;"/>
<line x1="194.000000" y1="60.000000" x2="204.000000" y2="60.000000"  style="stroke:black; stroke-linecap:round; stroke-width:0.25;"/>
<line x1="194.000000" y1="68.000000" x2="204.000000" y2="68.000000"  style="stroke:black; stroke-linecap:round; stroke-width:0.25;"/>
<line x1="194.000000" y1="76.000000" x2="204.000000" y2="76.000000"  style="stroke:black; stroke-linecap:round; stroke-width:0.25;"/>
<line x1="194.000000" y1="116.000000" x2="204.000000" y2="116.000000"  style="stroke:black; stroke-linecap:round; stroke-width:0.25;"/>
<line x1="194.000000" y1="124.000000" x2="204.000000" y2="124.000000"  style="stroke:black; stroke-linecap:round; stroke-width:0.25;"/>
<line x1="194.000000" y1="132.000000" x2="204.000000" y2="132.000000"  style="stroke:black; stroke-linecap:round; stroke-width:0.25;"/>
<line x1="194.000000" y1="172.000000" x2="204.000000" y2="172.000000"  style="stroke:black; stroke-linecap:round; stroke-width:0.25;"/>
<line x1="194.000000" y1="180.000000" x2="204.000000" y2="180.000000"  style="stroke:black; stroke-linecap:round; stroke-width:0.25;"/>
<line x1="194.000000" y1="188.000000" x2="204.000000" y2="188.000000"  style="stroke:black; stroke-linecap:round; stroke-width:0.25;"/>
<line x1="204.000000" y1="60.000000" x2="208.000000" y2="60.000000"  style="stroke:black; stroke-linecap:round; stroke-width:0.25;"/>
<line x1="204.000000" y1="68.000000" x2="208.000000" y2="68.000000"  style="stroke:black; stroke-linecap:round; stroke-width:0.25;"/>
<line x1="204.000000" y1="76.000000" x2="208.000000" y2="76.000000"  style="stroke:black; stroke-linecap:round; stroke-width:0.25;"/>
<line x1="204.000000" y1="116.000000" x2="208.000000" y2="116.000000"  style="stroke:black; stroke-linecap:round; stroke-width:0.25;"/>
<line x1="204.000000" y1="124.000000" x2="208.000000" y2="124.000000"  style="stroke:black; stroke-linecap:round; stroke-width:0.25;"/>
<line x1="204.000000" y1="132.000000" x2="208.000000" y2="132.000000"  style="stroke:black; stroke-linecap:round; stroke-width:0.25;"/>
<line x1="204.000000" y1="172.000000" x2="208.000000" y2="172.000000"  style="stroke:black; stroke-linecap:round; stroke-width:0.25;"/>
<line x1="204.000000" y1="180.000000" x2="208.000000" y2="180.000000"  style="stroke:black; stroke-linecap:round; stroke-width:0.25;"/>
<line x1="204.000000" y1="188.000000" x2="208.000000" y2="188.000000"  style="stroke:black; stroke-linecap:round; stroke-width:0.25;"/>
<line x1="233.800000" y1="48.000000" x2="237.800000" y2="48.000000"  style="stroke:black; stroke-linecap:round; stroke-width:0.25;"/>
<line x1="233.800000" y1="56.000000" x2="237.800000" y2="56.000000"  style="stroke:black; stroke-linecap:round; stroke-width:0.25;"/>
<line x1="233.800000" y1="64.000000" x2="237.800000" y2="64.000000"  style="stroke:black; stroke-linecap:round; stroke-width:0.25;"/>
<line x1="233.800000" y1="72.000000" x2="237.800000" y2="72.000000"  style="stroke:black; stroke-linecap:round; stroke-width:0.25;"/>
<line x1="233.800000" y1="80.000000" x2="237.800000" y2="80.000000"  style="stroke:black; stroke-linecap:round; stroke-width:0.25;"/>
<line x1="233.800000" y1="88.000000" x2="237.800000" y2="88.000000"  style="stroke:black; stroke-linecap:round; stroke-width:0.25;"/>
<line x1="233.800000" y1="104.000000" x2="237.800000" y2="104.000000"  style="stroke:black; stroke-linecap:round; stroke-width:0.25;"/>
<line x1="233.800000" y1="112.000000" x2="237.800000" y2="112.000000"  style="stroke:black; stroke-linecap:round; stroke-width:0.25;"/>
<line x1="233.800000" y1="120.000000" x2="237.800000" y2="120.000000"  style="stroke:black; stroke-linecap:round; stroke-width:0.25;"/>
<line x1="233.800000" y1="128.000000" x2="237.800000" y2="128.000000"  style="stroke:black; stroke-linecap:round; stroke-width:0.25;"/>
<line x1="233.800000" y1="136.000000" x2="237.800000" y2="136.000000"  style="stroke:black; stroke-linecap:round; stroke-width:0.25;"/>
<line x1="233.800000" y1="144.000000" x2="237.800000" y2="144.000000"  style="stroke:black; stroke-linecap:round; stroke-width:0.25;"/>
<line x1="233.800000" y1="160.000000" x2="237.800000" y2="160.000000"  style="stroke:black; stroke-linecap:round; stroke-width:0.25;"/>
<line x1="233.800000" y1="168.000000" x2="237.800000" y2="168.000000"  style="stroke:black; stroke-linecap:round; stroke-width:0.25;"/>
<line x1="233.800000" y1="176.000000" x2="237.800000" y2="176.000000"  style="stroke:black; stroke-linecap:round; stroke-width:0.25;"/>
<line x1="233.800000" y1="184.000000" x2="237.800000" y2="184.000000"  style="stroke:black; stroke-linecap:round; stroke-width:0.25;"/>
<line x1="233.800000" y1="192.000000" x2="237.800000" y2="192.000000"  style="stroke:black; stroke-linecap:round; stroke-width:0.25;"/>
<line x1="233.800000" y1="200.000000" x2="237.800000" y2="200.000000"  style="stroke:black; stroke-linecap:round; stroke-width:0.25;"/>
<line x1="237.800000" y1="48.000000" x2="247.800000" y2="48.000000"  style="stroke:black; stroke-linecap:round; stroke-width:0.25;"/>
<line x1="237.800000" y1="56.000000" x2="247.800000" y2="56.000000"  style="stroke:black; stroke-linecap:round; stroke-width:0.25;"/>
<line x1="237.800000" y1="64.000000" x2="247.800000" y2="64.000000"  style="stroke:black; stroke-linecap:round; stroke-width:0.25;"/>
<line x1="237.800000" y1="72.000000" x2="247.800000" y2="72.000000"  style="stroke:black; stroke-linecap:round; stroke-width:0.25;"/>
<line x1="237.800000" y1="80.000000" x2="247.800000" y2="80.000000"  style="stroke:black; stroke-linecap:round; stroke-width:0.25;"/>
<line x1="237.800000" y1="88.000000" x2="247.800000" y2="88.000000"  style="stroke:black; stroke-linecap:round; stroke-width:0.25;"/>
<line x1="237.800000" y1="104.000000" x2="247.800000" y2="104.000000"  style="stroke:black; stroke-linecap:round; stroke-width:0.25;"/>
<line x1="237.800000" y1="112.000000" x2="247.800000" y2="112.000000"  style="stroke:black; stroke-linecap:round; stroke-width:0.25;"/>
<line x1="237.800000" y1="120.000000" x2="247.800000" y2="120.000000"  style="stroke:black; stroke-linecap:round; stroke-width:0.25;"/>
<line x1="237.800000" y1="128.000000" x2="247.800000" y2="128.000000"  style="stroke:black; stroke-linecap:round; stroke-width:0.25;"/>
<line x1="237.800000" y1="136.000000" x2="247.800000" y2="136.000000"  style="stroke:black; stroke-linecap:round; stroke-width:0.25;"/>
<line x1="237.800000" y1="144.000000" x2="247.800000" y2="144.000000"  style="stroke:black; stroke-linecap:round; stroke-width:0.25;"/>
<line x1="237.800000" y1="160.000000" x2="247.800000" y2="160.000000"  style="stroke:black; stroke-linecap:round; stroke-width:0.25;"/>
<line x1="237.800000" y1="168.000000" x2="247.800000" y2="168.000000"  style="stroke:black; stroke-linecap:round; stroke-width:0.25;"/>
<line x1="237.800000" y1="176.000000" x2="247.800000" y2="176.000000"  style="stroke:black; stroke-linecap:round; stroke-width:0.25;"/>
<line x1="237.800000" y1="184.000000" x2="247.800000" y2="184.000000"  style="stroke:black; stroke-linecap:round; stroke-width:0.25;"/>
<line x1="237.800000" y1="192.000000" x2="247.800000" y2="192.000000"  style="stroke:black; stroke-linecap:round; stroke-width:0.25;"/>
<line x1="237.800000" y1="200.000000" x2="247.800000" y2="200.000000"  style="stroke:black; stroke-linecap:round; stroke-width:0.25;"/>
<line x1="247.800000" y1="48.000000" x2="308.800000" y2="104.000000"  style="stroke:black; stroke-linecap:round; stroke-width:0.25;"/>
<line x1="247.800000" y1="56.000000" x2="308.800000" y2="112.000000"  style="stroke:black; stroke-linecap:round; stroke-width:0.25;"/>
<line x1="247.800000" y1="64.000000" x2="308.800000" y2="120.000000"  style="stroke:black; stroke-linecap:round; stroke-width:0.25;"/>
<line x1="247.800000" y1="72.000000" x2="308.800000" y2="128.000000"  style="stroke:black; stroke-linecap:round; stroke-width:0.25;"/>
<line x1="247.800000" y1="80.000000" x2="308.800000" y2="136.000000"  style="stroke:black; stroke-linecap:round; stroke-width:0.25;"/>
<line x1="247.800000" y1="88.000000" x2="308.800000" y2="144.000000"  style="stroke:black; stroke-linecap:round; stroke-width:0.25;"/>
<line x1="247.800000" y1="104.000000" x2="308.800000" y2="104.000000"  style="stroke:black; stroke-linecap:round; stroke-width:0.25;"/>
<line x1="247.800000" y1="112.000000" x2="308.800000" y2="112.000000"  style="stroke:black; stroke-linecap:round; stroke-width:0.25;"/>
<line x1="247.800000" y1="120.000000" x2="308.800000" y2="120.000000"  style="stroke:black; stroke-linecap:round; stroke-width:0.25;"/>
<line x1="247.800000" y1="128.000000" x2="308.800000" y2="128.000000"  style="stroke:black; stroke-linecap:round; stroke-width:0.25;"/>
<line x1="247.800000" y1="136.000000" x2="308.800000" y2="136.000000"  style="stroke:black; stroke-linecap:round; stroke-width:0.25;"/>
<line x1="247.800000" y1="144.000000" x2="308.800000" y2="144.000000"  style="stroke:black; stroke-linecap:round; stroke-width:0.25;"/>
<line x1="247.800000" y1="160.000000" x2="308.800000" y2="104.000000"  style="stroke:black; stroke-linecap:round; stroke-width:0.25;"/>
<line x1="247.800000" y1="168.000000" x2="308.800000" y2="112.000000"  style="stroke:black; stroke-linecap:round; stroke-width:0.25;"/>
<line x1="247.800000" y1="176.000000" x2="308.800000" y2="120.000000"  style="stroke:black; stroke-linecap:round; stroke-width:0.25;"/>
<line x1="247.800000" y1="184.000000" x2="308.800000" y2="128.000000"  style="stroke:black; stroke-linecap:round; stroke-width:0.25;"/>
<line x1="247.800000" y1="192.000000" x2="308.800000" y2="136.000000"  style="stroke:black; stroke-linecap:round; stroke-width:0.25;"/>
<line x1="247.800000" y1="200.000000" x2="308.800000" y2="144.000000"  style="stroke:black; stroke-linecap:round; stroke-width:0.25;"/>
<line x1="308.800000" y1="104.000000" x2="312.800000" y2="104.000000"  style="stroke:black; stroke-linecap:round; stroke-width:0.25;"/>
<line x1="308.800000" y1="112.000000" x2="312.800000" y2="112.000000"  style="stroke:black; stroke-linecap:round; stroke-width:0.25;"/>
<line x1="308.800000" y1="120.000000" x2="312.800000" y2="120.000000"  style="stroke:black; stroke-linecap:round; stroke-width:0.25;"/>
<line x1="308.800000" y1="128.000000" x2="312.800000" y2="128.000000"  style="stroke:black; stroke-linecap:round; stroke-width:0.25;"/>
<line x1="308.800000" y1="136.000000" x2="312.800000" y2="136.000000"  style="stroke:black; stroke-linecap:round; stroke-width:0.25;"/>
<line x1="308.800000" y1="144.000000" x2="312.800000" y2="144.000000"  style="stroke:black; stroke-linecap:round; stroke-width:0.25;"/>
<line x1="377.300000" y1="104.000000" x2="381.300000" y2="104.000000"  style="stroke:black; stroke-linecap:round; stroke-width:0.25;"/>
<line x1="377.300000" y1="112.000000" x2="381.300000" y2="112.000000"  style="stroke:black; stroke-linecap:round; stroke-width:0.25;"/>
<line x1="377.300000" y1="120.000000" x2="381.300000" y2="120.000000"  style="stroke:black; stroke-linecap:round; stroke-width:0.25;"/>
<line x1="377.300000" y1="128.000000" x2="381.300000" y2="128.000000"  style="stroke:black; stroke-linecap:round; stroke-width:0.25;"/>
<line x1="377.300000" y1="136.000000" x2="381.300000" y2="136.000000"  style="stroke:black; stroke-linecap:round; stroke-width:0.25;"/>
<line x1="377.300000" y1="144.000000" x2="381.300000" y2="144.000000"  style="stroke:black; stroke-linecap:round; stroke-width:0.25;"/>
<line x1="381.300000" y1="104.000000" x2="391.300000" y2="104.000000"  style="stroke:black; stroke-linecap:round; stroke-width:0.25;"/>
<line x1="381.300000" y1="112.000000" x2="391.300000" y2="112.000000"  style="stroke:black; stroke-linecap:round; stroke-width:0.25;"/>
<line x1="381.300000" y1="120.000000" x2="391.300000" y2="120.000000"  style="stroke:black; stroke-linecap:round; stroke-width:0.25;"/>
<line x1="381.300000" y1="128.000000" x2="391.300000" y2="128.000000"  style="stroke:black; stroke-linecap:round; stroke-width:0.25;"/>
<line x1="381.300000" y1="136.000000" x2="391.300000" y2="136.000000"  style="stroke:black; stroke-linecap:round; stroke-width:0.25;"/>
<line x1="381.300000" y1="144.000000" x2="391.300000" y2="144.000000"  style="stroke:black; stroke-linecap:round; stroke-width:0.25;"/>
<line x1="391.300000" y1="104.000000" x2="391.300000" y2="104.000000"  style="stroke:black; stroke-linecap:round; stroke-width:0.25;"/>
<line x1="391.300000" y1="104.000000" x2="395.300000" y2="104.000000"  style="stroke:black; stroke-linecap:round; stroke-width:0.25;"/>
<line x1="391.300000" y1="112.000000" x2="391.300000" y2="112.000000"  style="stroke:black; stroke-linecap:round; stroke-width:0.25;"/>
<line x1="391.300000" y1="112.000000" x2="395.300000" y2="112.000000"  style="stroke:black; stroke-linecap:round; stroke-width:0.25;"/>
<line x1="391.300000" y1="120.000000" x2="391.300000" y2="120.000000"  style="stroke:black; stroke-linecap:round; stroke-width:0.25;"/>
<line x1="391.300000" y1="120.000000" x2="395.300000" y2="120.000000"  style="stroke:black; stroke-linecap:round; stroke-width:0.25;"/>
<line x1="391.300000" y1="128.000000" x2="391.300000" y2="128.000000"  style="stroke:black; stroke-linecap:round; stroke-width:0.25;"/>
<line x1="391.300000" y1="128.000000" x2="395.300000" y2="128.000000"  style="stroke:black; stroke-linecap:round; stroke-width:0.25;"/>
<line x1="391.300000" y1="136.000000" x2="391.300000" y2="136.000000"  style="stroke:black; stroke-linecap:round; stroke-width:0.25;"/>
<line x1="391.300000" y1="136.000000" x2="395.300000" y2="136.000000"  style="stroke:black; stroke-linecap:round; stroke-width:0.25;"/>
<line x1="391.300000" y1="144.000000" x2="391.300000" y2="144.000000"  style="stroke:black; stroke-linecap:round; stroke-width:0.25;"/>
<line x1="391.300000" y1="144.000000" x2="395.300000" y2="144.000000"  style="stroke:black; stroke-linecap:round; stroke-width:0.25;"/>
<line x1="395.300000" y1="104.000000" x2="399.300000" y2="104.000000"  style="stroke:black; stroke-linecap:round; stroke-width:0.25;"/>
<line x1="395.300000" y1="112.000000" x2="399.300000" y2="112.000000"  style="stroke:black; stroke-linecap:round; stroke-width:0.25;"/>
<line x1="395.300000" y1="120.000000" x2="399.300000" y2="120.000000"  style="stroke:black; stroke-linecap:round; stroke-width:0.25;"/>
<line x1="395.300000" y1="128.000000" x2="399.300000" y2="128.000000"  style="stroke:black; stroke-linecap:round; stroke-width:0.25;"/>
<line x1="395.300000" y1="136.000000" x2="399.300000" y2="136.000000"  style="stroke:black; stroke-linecap:round; stroke-width:0.25;"/>
<line x1="395.300000" y1="144.000000" x2="399.300000" y2="144.000000"  style="stroke:black; stroke-linecap:round; stroke-width:0.25;"/>
<line x1="399.300000" y1="104.000000" x2="409.300000" y2="104.000000"  style="stroke:black; stroke-linecap:round; stroke-width:0.25;"/>
<line x1="399.300000" y1="112.000000" x2="409.300000" y2="112.000000"  style="stroke:black; stroke-linecap:round; stroke-width:0.25;"/>
<line x1="399.300000" y1="120.000000" x2="409.300000" y2="120.000000"  style="stroke:black; stroke-linecap:round; stroke-width:0.25;"/>
<line x1="399.300000" y1="128.000000" x2="409.300000" y2="128.000000"  style="stroke:black; stroke-linecap:round; stroke-width:0.25;"/>
<line x1="399.300000" y1="136.000000" x2="409.300000" y2="136.000000"  style="stroke:black; stroke-linecap:round; stroke-width:0.25;"/>
<line x1="399.300000" y1="144.000000" x2="409.300000" y2="144.000000"  style="stroke:black; stroke-linecap:round; stroke-width:0.25;"/>
</svg>
