<?xml version="1.0"?>
<svg xmlns="http://www.w3.org/2000/svg" xmlns:xlink="http://www.w3.org/1999/xlink" viewBox="0 0 441.000000 180.000000" width="220.500000mm" height="90.000000mm" version="1.1">
<a xlink:href="basax-0x7feb50a89750.svg">
<rect x="1.000000" y="1.000000" width="440.000000" height="179.000000" rx="0" ry="0" style="stroke:none;fill:#cccccc;"/>
<rect x="0.000000" y="0.000000" width="440.000000" height="179.000000" rx="0" ry="0" style="stroke:none;fill:#ffffff;"/>
</a>
<text x="10.000000" y="7.000000" font-family="Arial" font-size="7"></text>
<rect x="77.900000" y="35.000000" width="24.000000" height="24.000000" rx="0" ry="0" style="stroke:none;fill:#cccccc;"/>
<rect x="76.900000" y="34.000000" width="24.000000" height="24.000000" rx="0" ry="0" style="stroke:none;fill:#f44800;"/>
<text x="88.900000" y="48.000000" font-family="Arial" font-size="7" text-anchor="middle" fill="#FFFFFF">2</text>
<circle cx="78.900000" cy="36.000000" r="1"/>
<line x1="67.900000" y1="25.000000" x2="67.900000" y2="67.000000"  style="stroke: black; stroke-linecap:round; stroke-width:0.25; stroke-dasharray:3,3;"/>
<line x1="67.900000" y1="67.000000" x2="109.900000" y2="67.000000"  style="stroke: black; stroke-linecap:round; stroke-width:0.25; stroke-dasharray:3,3;"/>
<line x1="109.900000" y1="67.000000" x2="109.900000" y2="25.000000"  style="stroke: black; stroke-linecap:round; stroke-width:0.25; stroke-dasharray:3,3;"/>
<line x1="67.900000" y1="25.000000" x2="72.900000" y2="25.000000"  style="stroke: black; stroke-linecap:round; stroke-width:0.25; stroke-dasharray:3,3;"/>
<line x1="92.250000" y1="25.000000" x2="109.900000" y2="25.000000"  style="stroke: black; stroke-linecap:round; stroke-width:0.25; stroke-dasharray:3,3;"/>
<text x="72.900000" y="27.000000" font-family="Arial" font-size="7">left</text>
<rect x="57.900000" y="77.000000" width="24.000000" height="24.000000" rx="0" ry="0" style="stroke:none;fill:#cccccc;"/>
<rect x="56.900000" y="76.000000" width="24.000000" height="24.000000" rx="0" ry="0" style="stroke:none;fill:#f44800;"/>
<text x="68.900000" y="90.000000" font-family="Arial" font-size="7" text-anchor="middle" fill="#FFFFFF">0</text>
<circle cx="58.900000" cy="78.000000" r="1"/>
<a xlink:href="left-0x7feb4edae4a0.svg">
<rect x="57.000000" y="109.000000" width="25.800000" height="24.000000" rx="0" ry="0" style="stroke:none;fill:#cccccc;"/>
<rect x="56.000000" y="108.000000" width="25.800000" height="24.000000" rx="0" ry="0" style="stroke:none;fill:#003366;"/>
</a>
<a xlink:href="left-0x7feb4edae4a0.svg">
<text x="68.900000" y="122.000000" font-family="Arial" font-size="7" text-anchor="middle" fill="#FFFFFF">left</text>
</a>
<circle cx="58.000000" cy="110.000000" r="1"/>
<rect x="98.800000" y="93.000000" width="24.000000" height="24.000000" rx="0" ry="0" style="stroke:none;fill:#cccccc;"/>
<rect x="97.800000" y="92.000000" width="24.000000" height="24.000000" rx="0" ry="0" style="stroke:none;fill:#4B71A1;"/>
<text x="109.800000" y="106.000000" font-family="Arial" font-size="7" text-anchor="middle" fill="#FFFFFF">+</text>
<circle cx="99.800000" cy="94.000000" r="1"/>
<line x1="94.800000" y1="99.000000" x2="97.800000" y2="100.000000"  transform="rotate(0.000000,97.800000,100.000000)" style="stroke: black; stroke-width:0.25;"/>
<line x1="94.800000" y1="101.000000" x2="97.800000" y2="100.000000"  transform="rotate(0.000000,97.800000,100.000000)" style="stroke: black; stroke-width:0.25;"/>
<line x1="94.800000" y1="107.000000" x2="97.800000" y2="108.000000"  transform="rotate(0.000000,97.800000,108.000000)" style="stroke: black; stroke-width:0.25;"/>
<line x1="94.800000" y1="109.000000" x2="97.800000" y2="108.000000"  transform="rotate(0.000000,97.800000,108.000000)" style="stroke: black; stroke-width:0.25;"/>
<rect x="138.800000" y="67.000000" width="24.000000" height="24.000000" rx="0" ry="0" style="stroke:none;fill:#cccccc;"/>
<rect x="137.800000" y="66.000000" width="24.000000" height="24.000000" rx="0" ry="0" style="stroke:none;fill:#4B71A1;"/>
<text x="149.800000" y="80.000000" font-family="Arial" font-size="7" text-anchor="middle" fill="#FFFFFF">&gt;=</text>
<circle cx="139.800000" cy="68.000000" r="1"/>
<line x1="134.800000" y1="73.000000" x2="137.800000" y2="74.000000"  transform="rotate(0.000000,137.800000,74.000000)" style="stroke: black; stroke-width:0.25;"/>
<line x1="134.800000" y1="75.000000" x2="137.800000" y2="74.000000"  transform="rotate(0.000000,137.800000,74.000000)" style="stroke: black; stroke-width:0.25;"/>
<line x1="134.800000" y1="81.000000" x2="137.800000" y2="82.000000"  transform="rotate(0.000000,137.800000,82.000000)" style="stroke: black; stroke-width:0.25;"/>
<line x1="134.800000" y1="83.000000" x2="137.800000" y2="82.000000"  transform="rotate(0.000000,137.800000,82.000000)" style="stroke: black; stroke-width:0.25;"/>
<rect x="186.800000" y="75.000000" width="38.700000" height="24.000000" rx="0" ry="0" style="stroke:none;fill:#cccccc;"/>
<rect x="185.800000" y="74.000000" width="38.700000" height="24.000000" rx="0" ry="0" style="stroke:none;fill:#4B71A1;"/>
<text x="205.150000" y="88.000000" font-family="Arial" font-size="7" text-anchor="middle" fill="#FFFFFF">select2</text>
<circle cx="187.800000" cy="76.000000" r="1"/>
<line x1="182.800000" y1="77.000000" x2="185.800000" y2="78.000000"  transform="rotate(0.000000,185.800000,78.000000)" style="stroke: black; stroke-width:0.25;"/>
<line x1="182.800000" y1="79.000000" x2="185.800000" y2="78.000000"  transform="rotate(0.000000,185.800000,78.000000)" style="stroke: black; stroke-width:0.25;"/>
<line x1="182.800000" y1="85.000000" x2="185.800000" y2="86.000000"  transform="rotate(0.000000,185.800000,86.000000)" style="stroke: black; stroke-width:0.25;"/>
<line x1="182.800000" y1="87.000000" x2="185.800000" y2="86.000000"  transform="rotate(0.000000,185.800000,86.000000)" style="stroke: black; stroke-width:0.25;"/>
<line x1="182.800000" y1="93.000000" x2="185.800000" y2="94.000000"  transform="rotate(0.000000,185.800000,94.000000)" style="stroke: black; stroke-width:0.25;"/>
<line x1="182.800000" y1="95.000000" x2="185.800000" y2="94.000000"  transform="rotate(0.000000,185.800000,94.000000)" style="stroke: black; stroke-width:0.25;"/>
<rect x="262.400000" y="39.000000" width="24.000000" height="24.000000" rx="0" ry="0" style="stroke:none;fill:#cccccc;"/>
<rect x="261.400000" y="38.000000" width="24.000000" height="24.000000" rx="0" ry="0" style="stroke:none;fill:#f44800;"/>
<text x="273.400000" y="52.000000" font-family="Arial" font-size="7" text-anchor="middle" fill="#FFFFFF">2</text>
<circle cx="263.400000" cy="40.000000" r="1"/>
<line x1="252.400000" y1="29.000000" x2="252.400000" y2="71.000000"  style="stroke: black; stroke-linecap:round; stroke-width:0.25; stroke-dasharray:3,3;"/>
<line x1="252.400000" y1="71.000000" x2="294.400000" y2="71.000000"  style="stroke: black; stroke-linecap:round; stroke-width:0.25; stroke-dasharray:3,3;"/>
<line x1="294.400000" y1="71.000000" x2="294.400000" y2="29.000000"  style="stroke: black; stroke-linecap:round; stroke-width:0.25; stroke-dasharray:3,3;"/>
<line x1="252.400000" y1="29.000000" x2="257.400000" y2="29.000000"  style="stroke: black; stroke-linecap:round; stroke-width:0.25; stroke-dasharray:3,3;"/>
<line x1="276.750000" y1="29.000000" x2="294.400000" y2="29.000000"  style="stroke: black; stroke-linecap:round; stroke-width:0.25; stroke-dasharray:3,3;"/>
<text x="257.400000" y="31.000000" font-family="Arial" font-size="7">left</text>
<rect x="242.400000" y="81.000000" width="24.000000" height="24.000000" rx="0" ry="0" style="stroke:none;fill:#cccccc;"/>
<rect x="241.400000" y="80.000000" width="24.000000" height="24.000000" rx="0" ry="0" style="stroke:none;fill:#f44800;"/>
<text x="253.400000" y="94.000000" font-family="Arial" font-size="7" text-anchor="middle" fill="#FFFFFF">0</text>
<circle cx="243.400000" cy="82.000000" r="1"/>
<a xlink:href="left-0x7feb4edaa9a0.svg">
<rect x="241.500000" y="113.000000" width="25.800000" height="24.000000" rx="0" ry="0" style="stroke:none;fill:#cccccc;"/>
<rect x="240.500000" y="112.000000" width="25.800000" height="24.000000" rx="0" ry="0" style="stroke:none;fill:#003366;"/>
</a>
<a xlink:href="left-0x7feb4edaa9a0.svg">
<text x="253.400000" y="126.000000" font-family="Arial" font-size="7" text-anchor="middle" fill="#FFFFFF">left</text>
</a>
<circle cx="242.500000" cy="114.000000" r="1"/>
<rect x="283.300000" y="97.000000" width="24.000000" height="24.000000" rx="0" ry="0" style="stroke:none;fill:#cccccc;"/>
<rect x="282.300000" y="96.000000" width="24.000000" height="24.000000" rx="0" ry="0" style="stroke:none;fill:#4B71A1;"/>
<text x="294.300000" y="110.000000" font-family="Arial" font-size="7" text-anchor="middle" fill="#FFFFFF">+</text>
<circle cx="284.300000" cy="98.000000" r="1"/>
<line x1="279.300000" y1="103.000000" x2="282.300000" y2="104.000000"  transform="rotate(0.000000,282.300000,104.000000)" style="stroke: black; stroke-width:0.25;"/>
<line x1="279.300000" y1="105.000000" x2="282.300000" y2="104.000000"  transform="rotate(0.000000,282.300000,104.000000)" style="stroke: black; stroke-width:0.25;"/>
<line x1="279.300000" y1="111.000000" x2="282.300000" y2="112.000000"  transform="rotate(0.000000,282.300000,112.000000)" style="stroke: black; stroke-width:0.25;"/>
<line x1="279.300000" y1="113.000000" x2="282.300000" y2="112.000000"  transform="rotate(0.000000,282.300000,112.000000)" style="stroke: black; stroke-width:0.25;"/>
<rect x="323.300000" y="71.000000" width="24.000000" height="24.000000" rx="0" ry="0" style="stroke:none;fill:#cccccc;"/>
<rect x="322.300000" y="70.000000" width="24.000000" height="24.000000" rx="0" ry="0" style="stroke:none;fill:#4B71A1;"/>
<text x="334.300000" y="84.000000" font-family="Arial" font-size="7" text-anchor="middle" fill="#FFFFFF">&gt;=</text>
<circle cx="324.300000" cy="72.000000" r="1"/>
<line x1="319.300000" y1="77.000000" x2="322.300000" y2="78.000000"  transform="rotate(0.000000,322.300000,78.000000)" style="stroke: black; stroke-width:0.25;"/>
<line x1="319.300000" y1="79.000000" x2="322.300000" y2="78.000000"  transform="rotate(0.000000,322.300000,78.000000)" style="stroke: black; stroke-width:0.25;"/>
<line x1="319.300000" y1="85.000000" x2="322.300000" y2="86.000000"  transform="rotate(0.000000,322.300000,86.000000)" style="stroke: black; stroke-width:0.25;"/>
<line x1="319.300000" y1="87.000000" x2="322.300000" y2="86.000000"  transform="rotate(0.000000,322.300000,86.000000)" style="stroke: black; stroke-width:0.25;"/>
<rect x="371.300000" y="79.000000" width="38.700000" height="24.000000" rx="0" ry="0" style="stroke:none;fill:#cccccc;"/>
<rect x="370.300000" y="78.000000" width="38.700000" height="24.000000" rx="0" ry="0" style="stroke:none;fill:#4B71A1;"/>
<text x="389.650000" y="92.000000" font-family="Arial" font-size="7" text-anchor="middle" fill="#FFFFFF">select2</text>
<circle cx="372.300000" cy="80.000000" r="1"/>
<line x1="367.300000" y1="81.000000" x2="370.300000" y2="82.000000"  transform="rotate(0.000000,370.300000,82.000000)" style="stroke: black; stroke-width:0.25;"/>
<line x1="367.300000" y1="83.000000" x2="370.300000" y2="82.000000"  transform="rotate(0.000000,370.300000,82.000000)" style="stroke: black; stroke-width:0.25;"/>
<line x1="367.300000" y1="89.000000" x2="370.300000" y2="90.000000"  transform="rotate(0.000000,370.300000,90.000000)" style="stroke: black; stroke-width:0.25;"/>
<line x1="367.300000" y1="91.000000" x2="370.300000" y2="90.000000"  transform="rotate(0.000000,370.300000,90.000000)" style="stroke: black; stroke-width:0.25;"/>
<line x1="367.300000" y1="97.000000" x2="370.300000" y2="98.000000"  transform="rotate(0.000000,370.300000,98.000000)" style="stroke: black; stroke-width:0.25;"/>
<line x1="367.300000" y1="99.000000" x2="370.300000" y2="98.000000"  transform="rotate(0.000000,370.300000,98.000000)" style="stroke: black; stroke-width:0.25;"/>
<line x1="15.000000" y1="15.000000" x2="15.000000" y2="165.000000"  style="stroke: black; stroke-linecap:round; stroke-width:0.25; stroke-dasharray:3,3;"/>
<line x1="15.000000" y1="165.000000" x2="426.000000" y2="165.000000"  style="stroke: black; stroke-linecap:round; stroke-width:0.25; stroke-dasharray:3,3;"/>
<line x1="426.000000" y1="165.000000" x2="426.000000" y2="15.000000"  style="stroke: black; stroke-linecap:round; stroke-width:0.25; stroke-dasharray:3,3;"/>
<line x1="15.000000" y1="15.000000" x2="20.000000" y2="15.000000"  style="stroke: black; stroke-linecap:round; stroke-width:0.25; stroke-dasharray:3,3;"/>
<line x1="68.375000" y1="15.000000" x2="426.000000" y2="15.000000"  style="stroke: black; stroke-linecap:round; stroke-width:0.25; stroke-dasharray:3,3;"/>
<text x="20.000000" y="17.000000" font-family="Arial" font-size="7">selectn(3)(2)</text>
<line x1="428.000000" y1="89.000000" x2="431.000000" y2="90.000000"  transform="rotate(0.000000,431.000000,90.000000)" style="stroke: black; stroke-width:0.25;"/>
<line x1="428.000000" y1="91.000000" x2="431.000000" y2="90.000000"  transform="rotate(0.000000,431.000000,90.000000)" style="stroke: black; stroke-width:0.25;"/>
<line x1="10.000000" y1="82.000000" x2="20.000000" y2="82.000000"  style="stroke:black; stroke-linecap:round; stroke-width:0.25;"/>
<line x1="10.000000" y1="90.000000" x2="20.000000" y2="90.000000"  style="stroke:black; stroke-linecap:round; stroke-width:0.25;"/>
<line x1="10.000000" y1="98.000000" x2="20.000000" y2="98.000000"  style="stroke:black; stroke-linecap:round; stroke-width:0.25;"/>
<line x1="20.000000" y1="82.000000" x2="24.000000" y2="82.000000"  style="stroke:black; stroke-linecap:round; stroke-width:0.25;"/>
<line x1="20.000000" y1="90.000000" x2="24.000000" y2="90.000000"  style="stroke:black; stroke-linecap:round; stroke-width:0.25;"/>
<line x1="20.000000" y1="98.000000" x2="24.000000" y2="98.000000"  style="stroke:black; stroke-linecap:round; stroke-width:0.25;"/>
<line x1="24.000000" y1="82.000000" x2="28.000000" y2="82.000000"  style="stroke:black; stroke-linecap:round; stroke-width:0.25;"/>
<line x1="24.000000" y1="90.000000" x2="28.000000" y2="90.000000"  style="stroke:black; stroke-linecap:round; stroke-width:0.25;"/>
<line x1="24.000000" y1="98.000000" x2="28.000000" y2="98.000000"  style="stroke:black; stroke-linecap:round; stroke-width:0.25;"/>
<line x1="28.000000" y1="82.000000" x2="36.000000" y2="82.000000"  style="stroke:black; stroke-linecap:round; stroke-width:0.25;"/>
<line x1="28.000000" y1="90.000000" x2="36.000000" y2="90.000000"  style="stroke:black; stroke-linecap:round; stroke-width:0.25;"/>
<line x1="28.000000" y1="98.000000" x2="36.000000" y2="98.000000"  style="stroke:black; stroke-linecap:round; stroke-width:0.25;"/>
<line x1="36.000000" y1="82.000000" x2="52.000000" y2="82.000000"  style="stroke:black; stroke-linecap:round; stroke-width:0.25;"/>
<line x1="36.000000" y1="90.000000" x2="44.000000" y2="90.000000"  style="stroke:black; stroke-linecap:round; stroke-width:0.25;"/>
<line x1="36.000000" y1="98.000000" x2="36.000000" y2="156.000000"  style="stroke:black; stroke-linecap:round; stroke-width:0.25;"/>
<line x1="36.000000" y1="156.000000" x2="36.000000" y2="156.000000"  style="stroke:black; stroke-linecap:round; stroke-width:0.25;"/>
<line x1="36.000000" y1="156.000000" x2="132.250000" y2="156.000000"  style="stroke:black; stroke-linecap:round; stroke-width:0.25;"/>
<line x1="44.000000" y1="90.000000" x2="44.000000" y2="148.000000"  style="stroke:black; stroke-linecap:round; stroke-width:0.25;"/>
<line x1="44.000000" y1="148.000000" x2="52.000000" y2="148.000000"  style="stroke:black; stroke-linecap:round; stroke-width:0.25;"/>
<line x1="52.000000" y1="82.000000" x2="52.000000" y2="140.000000"  style="stroke:black; stroke-linecap:round; stroke-width:0.25;"/>
<line x1="52.000000" y1="140.000000" x2="52.000000" y2="140.000000"  style="stroke:black; stroke-linecap:round; stroke-width:0.25;"/>
<line x1="52.000000" y1="140.000000" x2="108.900000" y2="140.000000"  style="stroke:black; stroke-linecap:round; stroke-width:0.25;"/>
<line x1="52.000000" y1="148.000000" x2="108.900000" y2="148.000000"  style="stroke:black; stroke-linecap:round; stroke-width:0.25;"/>
<line x1="80.900000" y1="88.000000" x2="84.900000" y2="88.000000"  style="stroke:black; stroke-linecap:round; stroke-width:0.25;"/>
<line x1="81.800000" y1="120.000000" x2="85.800000" y2="120.000000"  style="stroke:black; stroke-linecap:round; stroke-width:0.25;"/>
<line x1="84.900000" y1="88.000000" x2="85.800000" y2="88.000000"  style="stroke:black; stroke-linecap:round; stroke-width:0.25;"/>
<line x1="85.800000" y1="108.000000" x2="93.800000" y2="108.000000"  style="stroke:black; stroke-linecap:round; stroke-width:0.25;"/>
<line x1="85.800000" y1="120.000000" x2="85.800000" y2="108.000000"  style="stroke:black; stroke-linecap:round; stroke-width:0.25;"/>
<line x1="85.800000" y1="120.000000" x2="85.800000" y2="120.000000"  style="stroke:black; stroke-linecap:round; stroke-width:0.25;"/>
<line x1="85.800000" y1="88.000000" x2="93.800000" y2="88.000000"  style="stroke:black; stroke-linecap:round; stroke-width:0.25;"/>
<line x1="93.800000" y1="100.000000" x2="97.800000" y2="100.000000"  style="stroke:black; stroke-linecap:round; stroke-width:0.25;"/>
<line x1="93.800000" y1="108.000000" x2="97.800000" y2="108.000000"  style="stroke:black; stroke-linecap:round; stroke-width:0.25;"/>
<line x1="93.800000" y1="88.000000" x2="93.800000" y2="100.000000"  style="stroke:black; stroke-linecap:round; stroke-width:0.25;"/>
<line x1="93.800000" y1="100.000000" x2="93.800000" y2="100.000000"  style="stroke:black; stroke-linecap:round; stroke-width:0.25;"/>
<line x1="100.900000" y1="46.000000" x2="104.900000" y2="46.000000"  style="stroke:black; stroke-linecap:round; stroke-width:0.25;"/>
<line x1="104.900000" y1="46.000000" x2="114.900000" y2="46.000000"  style="stroke:black; stroke-linecap:round; stroke-width:0.25;"/>
<line x1="108.900000" y1="140.000000" x2="165.800000" y2="140.000000"  style="stroke:black; stroke-linecap:round; stroke-width:0.25;"/>
<line x1="108.900000" y1="148.000000" x2="165.800000" y2="148.000000"  style="stroke:black; stroke-linecap:round; stroke-width:0.25;"/>
<line x1="114.900000" y1="46.000000" x2="125.800000" y2="46.000000"  style="stroke:black; stroke-linecap:round; stroke-width:0.25;"/>
<line x1="121.800000" y1="104.000000" x2="125.800000" y2="104.000000"  style="stroke:black; stroke-linecap:round; stroke-width:0.25;"/>
<line x1="125.800000" y1="82.000000" x2="133.800000" y2="82.000000"  style="stroke:black; stroke-linecap:round; stroke-width:0.25;"/>
<line x1="125.800000" y1="104.000000" x2="125.800000" y2="82.000000"  style="stroke:black; stroke-linecap:round; stroke-width:0.25;"/>
<line x1="125.800000" y1="104.000000" x2="125.800000" y2="104.000000"  style="stroke:black; stroke-linecap:round; stroke-width:0.25;"/>
<line x1="125.800000" y1="46.000000" x2="133.800000" y2="46.000000"  style="stroke:black; stroke-linecap:round; stroke-width:0.25;"/>
<line x1="132.250000" y1="156.000000" x2="228.500000" y2="156.000000"  style="stroke:black; stroke-linecap:round; stroke-width:0.25;"/>
<line x1="133.800000" y1="46.000000" x2="133.800000" y2="74.000000"  style="stroke:black; stroke-linecap:round; stroke-width:0.25;"/>
<line x1="133.800000" y1="74.000000" x2="133.800000" y2="74.000000"  style="stroke:black; stroke-linecap:round; stroke-width:0.25;"/>
<line x1="133.800000" y1="74.000000" x2="137.800000" y2="74.000000"  style="stroke:black; stroke-linecap:round; stroke-width:0.25;"/>
<line x1="133.800000" y1="82.000000" x2="137.800000" y2="82.000000"  style="stroke:black; stroke-linecap:round; stroke-width:0.25;"/>
<line x1="161.800000" y1="78.000000" x2="165.800000" y2="78.000000"  style="stroke:black; stroke-linecap:round; stroke-width:0.25;"/>
<line x1="165.800000" y1="78.000000" x2="181.800000" y2="78.000000"  style="stroke:black; stroke-linecap:round; stroke-width:0.25;"/>
<line x1="165.800000" y1="86.000000" x2="181.800000" y2="86.000000"  style="stroke:black; stroke-linecap:round; stroke-width:0.25;"/>
<line x1="165.800000" y1="140.000000" x2="165.800000" y2="86.000000"  style="stroke:black; stroke-linecap:round; stroke-width:0.25;"/>
<line x1="165.800000" y1="140.000000" x2="165.800000" y2="140.000000"  style="stroke:black; stroke-linecap:round; stroke-width:0.25;"/>
<line x1="165.800000" y1="148.000000" x2="173.800000" y2="148.000000"  style="stroke:black; stroke-linecap:round; stroke-width:0.25;"/>
<line x1="173.800000" y1="94.000000" x2="181.800000" y2="94.000000"  style="stroke:black; stroke-linecap:round; stroke-width:0.25;"/>
<line x1="173.800000" y1="148.000000" x2="173.800000" y2="94.000000"  style="stroke:black; stroke-linecap:round; stroke-width:0.25;"/>
<line x1="181.800000" y1="78.000000" x2="185.800000" y2="78.000000"  style="stroke:black; stroke-linecap:round; stroke-width:0.25;"/>
<line x1="181.800000" y1="86.000000" x2="185.800000" y2="86.000000"  style="stroke:black; stroke-linecap:round; stroke-width:0.25;"/>
<line x1="181.800000" y1="94.000000" x2="185.800000" y2="94.000000"  style="stroke:black; stroke-linecap:round; stroke-width:0.25;"/>
<line x1="224.500000" y1="86.000000" x2="228.500000" y2="86.000000"  style="stroke:black; stroke-linecap:round; stroke-width:0.25;"/>
<line x1="228.500000" y1="86.000000" x2="236.500000" y2="86.000000"  style="stroke:black; stroke-linecap:round; stroke-width:0.25;"/>
<line x1="228.500000" y1="152.000000" x2="236.500000" y2="152.000000"  style="stroke:black; stroke-linecap:round; stroke-width:0.25;"/>
<line x1="228.500000" y1="156.000000" x2="228.500000" y2="152.000000"  style="stroke:black; stroke-linecap:round; stroke-width:0.25;"/>
<line x1="228.500000" y1="156.000000" x2="228.500000" y2="156.000000"  style="stroke:black; stroke-linecap:round; stroke-width:0.25;"/>
<line x1="236.500000" y1="144.000000" x2="293.400000" y2="144.000000"  style="stroke:black; stroke-linecap:round; stroke-width:0.25;"/>
<line x1="236.500000" y1="152.000000" x2="293.400000" y2="152.000000"  style="stroke:black; stroke-linecap:round; stroke-width:0.25;"/>
<line x1="236.500000" y1="86.000000" x2="236.500000" y2="144.000000"  style="stroke:black; stroke-linecap:round; stroke-width:0.25;"/>
<line x1="236.500000" y1="144.000000" x2="236.500000" y2="144.000000"  style="stroke:black; stroke-linecap:round; stroke-width:0.25;"/>
<line x1="265.400000" y1="92.000000" x2="269.400000" y2="92.000000"  style="stroke:black; stroke-linecap:round; stroke-width:0.25;"/>
<line x1="266.300000" y1="124.000000" x2="270.300000" y2="124.000000"  style="stroke:black; stroke-linecap:round; stroke-width:0.25;"/>
<line x1="269.400000" y1="92.000000" x2="270.300000" y2="92.000000"  style="stroke:black; stroke-linecap:round; stroke-width:0.25;"/>
<line x1="270.300000" y1="92.000000" x2="278.300000" y2="92.000000"  style="stroke:black; stroke-linecap:round; stroke-width:0.25;"/>
<line x1="270.300000" y1="112.000000" x2="278.300000" y2="112.000000"  style="stroke:black; stroke-linecap:round; stroke-width:0.25;"/>
<line x1="270.300000" y1="124.000000" x2="270.300000" y2="112.000000"  style="stroke:black; stroke-linecap:round; stroke-width:0.25;"/>
<line x1="270.300000" y1="124.000000" x2="270.300000" y2="124.000000"  style="stroke:black; stroke-linecap:round; stroke-width:0.25;"/>
<line x1="278.300000" y1="92.000000" x2="278.300000" y2="104.000000"  style="stroke:black; stroke-linecap:round; stroke-width:0.25;"/>
<line x1="278.300000" y1="104.000000" x2="278.300000" y2="104.000000"  style="stroke:black; stroke-linecap:round; stroke-width:0.25;"/>
<line x1="278.300000" y1="104.000000" x2="282.300000" y2="104.000000"  style="stroke:black; stroke-linecap:round; stroke-width:0.25;"/>
<line x1="278.300000" y1="112.000000" x2="282.300000" y2="112.000000"  style="stroke:black; stroke-linecap:round; stroke-width:0.25;"/>
<line x1="285.400000" y1="50.000000" x2="289.400000" y2="50.000000"  style="stroke:black; stroke-linecap:round; stroke-width:0.25;"/>
<line x1="289.400000" y1="50.000000" x2="299.400000" y2="50.000000"  style="stroke:black; stroke-linecap:round; stroke-width:0.25;"/>
<line x1="293.400000" y1="144.000000" x2="350.300000" y2="144.000000"  style="stroke:black; stroke-linecap:round; stroke-width:0.25;"/>
<line x1="293.400000" y1="152.000000" x2="350.300000" y2="152.000000"  style="stroke:black; stroke-linecap:round; stroke-width:0.25;"/>
<line x1="299.400000" y1="50.000000" x2="310.300000" y2="50.000000"  style="stroke:black; stroke-linecap:round; stroke-width:0.25;"/>
<line x1="306.300000" y1="108.000000" x2="310.300000" y2="108.000000"  style="stroke:black; stroke-linecap:round; stroke-width:0.25;"/>
<line x1="310.300000" y1="50.000000" x2="318.300000" y2="50.000000"  style="stroke:black; stroke-linecap:round; stroke-width:0.25;"/>
<line x1="310.300000" y1="86.000000" x2="318.300000" y2="86.000000"  style="stroke:black; stroke-linecap:round; stroke-width:0.25;"/>
<line x1="310.300000" y1="108.000000" x2="310.300000" y2="86.000000"  style="stroke:black; stroke-linecap:round; stroke-width:0.25;"/>
<line x1="310.300000" y1="108.000000" x2="310.300000" y2="108.000000"  style="stroke:black; stroke-linecap:round; stroke-width:0.25;"/>
<line x1="318.300000" y1="50.000000" x2="318.300000" y2="78.000000"  style="stroke:black; stroke-linecap:round; stroke-width:0.25;"/>
<line x1="318.300000" y1="78.000000" x2="318.300000" y2="78.000000"  style="stroke:black; stroke-linecap:round; stroke-width:0.25;"/>
<line x1="318.300000" y1="78.000000" x2="322.300000" y2="78.000000"  style="stroke:black; stroke-linecap:round; stroke-width:0.25;"/>
<line x1="318.300000" y1="86.000000" x2="322.300000" y2="86.000000"  style="stroke:black; stroke-linecap:round; stroke-width:0.25;"/>
<line x1="346.300000" y1="82.000000" x2="350.300000" y2="82.000000"  style="stroke:black; stroke-linecap:round; stroke-width:0.25;"/>
<line x1="350.300000" y1="90.000000" x2="366.300000" y2="90.000000"  style="stroke:black; stroke-linecap:round; stroke-width:0.25;"/>
<line x1="350.300000" y1="144.000000" x2="350.300000" y2="90.000000"  style="stroke:black; stroke-linecap:round; stroke-width:0.25;"/>
<line x1="350.300000" y1="144.000000" x2="350.300000" y2="144.000000"  style="stroke:black; stroke-linecap:round; stroke-width:0.25;"/>
<line x1="350.300000" y1="152.000000" x2="358.300000" y2="152.000000"  style="stroke:black; stroke-linecap:round; stroke-width:0.25;"/>
<line x1="350.300000" y1="82.000000" x2="366.300000" y2="82.000000"  style="stroke:black; stroke-linecap:round; stroke-width:0.25;"/>
<line x1="358.300000" y1="98.000000" x2="366.300000" y2="98.000000"  style="stroke:black; stroke-linecap:round; stroke-width:0.25;"/>
<line x1="358.300000" y1="152.000000" x2="358.300000" y2="98.000000"  style="stroke:black; stroke-linecap:round; stroke-width:0.25;"/>
<line x1="366.300000" y1="82.000000" x2="370.300000" y2="82.000000"  style="stroke:black; stroke-linecap:round; stroke-width:0.25;"/>
<line x1="366.300000" y1="90.000000" x2="370.300000" y2="90.000000"  style="stroke:black; stroke-linecap:round; stroke-width:0.25;"/>
<line x1="366.300000" y1="98.000000" x2="370.300000" y2="98.000000"  style="stroke:black; stroke-linecap:round; stroke-width:0.25;"/>
<line x1="409.000000" y1="90.000000" x2="413.000000" y2="90.000000"  style="stroke:black; stroke-linecap:round; stroke-width:0.25;"/>
<line x1="413.000000" y1="90.000000" x2="413.000000" y2="90.000000"  style="stroke:black; stroke-linecap:round; stroke-width:0.25;"/>
<line x1="413.000000" y1="90.000000" x2="417.000000" y2="90.000000"  style="stroke:black; stroke-linecap:round; stroke-width:0.25;"/>
<line x1="417.000000" y1="90.000000" x2="421.000000" y2="90.000000"  style="stroke:black; stroke-linecap:round; stroke-width:0.25;"/>
<line x1="421.000000" y1="90.000000" x2="431.000000" y2="90.000000"  style="stroke:black; stroke-linecap:round; stroke-width:0.25;"/>
</svg>
